/* XPM */
static char *result[] = {
/* columns rows colors chars-per-pixel */
"32 42 59 1 ",
"  c #33271C",
". c #35291D",
"X c #3B2C1F",
"o c #3F2F20",
"O c #3F3022",
"+ c #402F20",
"@ c #433222",
"# c #4A3623",
"$ c #4D3925",
"% c #4E3B29",
"& c #553D27",
"* c #543E29",
"= c #583F28",
"- c #56412C",
"; c #5B432C",
": c #5C4531",
"> c #5E4833",
", c #60472E",
"< c #62482F",
"1 c #654B33",
"2 c #694E34",
"3 c #674F38",
"4 c #6E5136",
"5 c #6D5339",
"6 c #705337",
"7 c #725539",
"8 c #76593D",
"9 c #7A5B3D",
"0 c #7D5E41",
"q c #7F6041",
"w c #805F3F",
"e c #805F40",
"r c #846343",
"t c #896746",
"y c #8C6947",
"u c #876749",
"i c #8E6A4A",
"p c #926E4B",
"a c #96714D",
"s c #99734E",
"d c #967250",
"f c #9B7551",
"g c #9E7954",
"h c #A57C55",
"j c #A97E57",
"k c #A77E58",
"l c #A97F58",
"z c #AD825A",
"x c #B2865C",
"c c #B5895F",
"v c #B88A5F",
"b c #B68A61",
"n c #BA8D62",
"m c #BE9166",
"M c #C29366",
"N c #C49569",
"B c #C89769",
"V c #CC9B6C",
"C c None",
/* pixels */
"CCCCCCCCCCCCCCCCCCCCCCCCCCCCCCCC",
"CCCCCCCCCCCCCCCCCCCCCCCCCCCCCCCC",
"CCCCCC88CCCCCCCCCCCCCCCCCCCCCCCC",
"CCCCC#az0CCCCCCCCCCCCCCCCCCCCCCC",
"CCCCC0pbz>CCCCCCCCCCCCCCCCCCCCCC",
"CCCCoppzmg%CCCCCCCCCCCCCCCCCCCCC",
"CCC :zahnmg1@@@CCCCCCCCCCCCCCCCC",
"CCC*pxzixmmkfg8CCCCCCCCCCCCCCCCC",
"C*7gjll9jnMmnnu CCCCCCCCCCCCCCCC",
"%1hzbxj9jMmmmnfoCCCCCCCCCCCC3051",
"i3qbnbx7dnmmnbdoCCC CCCCCC:rbBbh",
"hh8dMnl7elmmlfi CCu3oCCCCCdmmBzh",
"hjs7hnvt8pxxas: Cub9,#CCCrnmBnkk",
"hhjy7bns70hsef@ >nz783@C3bMmBblh",
"ljja3bnv9788p3  9Mr9gg0%3nmMcjnv",
"nlha3xbne74teo ogM9pxnk7qmmMh8aV",
"yvzs5acna7si$  %fNraxmb5kmNx9268",
"6anMiqzvmht--# 1bNphzmb5nVNi52<2",
"68as9qzvx4o-4-.1mBphzmc5bVNp75;<",
"6654%qxbs -46;@1mhjhzmc4zmBby626",
"64;2$9cvs.-;44#1MrrxvMc5zmMBzw66",
"66,<$0znsX-;44$1nr=svMm7zmMMMt76",
"622;#9zns$4<24;1Mr&;,px6zmnMMp86",
"22;=#qcvs$4675:1Mr&&===&xmMBM726",
"2<&&#wxvs%4654:1mr&;<<&$zmmNN7;<",
",2=&#wzxs$4644;1mr;<<6<&qmmNx>&&",
",2;$;shza%4447:1vx46466;-dmNp&&&",
";;&#9hjx<<4467;2vm66766;%%-i5&;&",
"$#@;rhjx&<4;47;1vM4666;=&&$$+$$$",
"-;;3rhzj-44;47>;gMw462,=&-&#$;--",
"hf;$wfvw$<42474-rNh2624,&;9-rzhh",
"hhp&2pvwo277774&wnv8662;2tu;8hhh",
"hhz1*uj;+166666*6fvz22<,sa<%2gzh",
"llh3+5ao+;66727&-pzxz77p644--wzh",
"hze7=@&.+=55665;#9fzxpw<22;;#<ph",
"9963,X .+;2,,51$X<sp62$&2;&;#-79",
"671=# X.X&=&;;&X -6,;,@&&&&=#+<6",
"1<=&@X&@ @&&&=#XXX;&&&.#;&&&+X&,",
"=&&+..@&..@#&&@## #&$X +&&&+  #&",
"&#X ..#@.   ++.X+XX+X  .++X + +&",
"#.   .X.XX .    ...         X .#",
".       ..            .        X"
};
