/* XPM */
static char *result[] = {
/* columns rows colors chars-per-pixel */
"32 44 59 1 ",
"  c #33271C",
". c #35291D",
"X c #3B2C1F",
"o c #3E2E20",
"O c #3F3022",
"+ c #402F20",
"@ c #433222",
"# c #493624",
"$ c #4D3925",
"% c #4D3A28",
"& c #553D27",
"* c #543E29",
"= c #583F28",
"- c #56402C",
"; c #5C432C",
": c #5D4630",
"> c #5F4831",
", c #60462D",
"< c #63482F",
"1 c #604731",
"2 c #644A32",
"3 c #694E34",
"4 c #6D5136",
"5 c #6C5138",
"6 c #705337",
"7 c #725438",
"8 c #76583C",
"9 c #7C5C3E",
"0 c #7E5E41",
"q c #7F6042",
"w c #805F40",
"e c #846242",
"r c #896746",
"t c #8C6947",
"y c #8E6A49",
"u c #926D4A",
"i c #96714D",
"p c #99734E",
"a c #9D7651",
"s c #9E7853",
"d c #A07752",
"f c #A57C55",
"g c #A97E57",
"h c #A57E58",
"j c #A87F58",
"k c #AA8057",
"l c #AD825A",
"z c #B2865D",
"x c #B5895F",
"c c #B88A5F",
"v c #B68A61",
"b c #BA8D62",
"n c #BE9166",
"m c #C19366",
"M c #C49569",
"N c #C7986A",
"B c #CB9A6B",
"V c #D09E6E",
"C c None",
/* pixels */
"CCCCCCCCCCCCCCCCCCCCCCCCCCCCoCCC",
"CCCCCCCCCCCCCCCCC@O@ooCCCCC@2%CC",
"CCCCCo@oOCCCCCCO2iih72@CCC%7p0@C",
"CCCCC2ss8OCCCC2ilblbw43%Co2uvf>C",
"CCCC#ybnlt$CC#pbnnxb9672O@3uzb0C",
"XCCC%uvncx2C>annnnvbw674%r0ulns*",
"9%Co29dvMd2@8vnnvnvv0661#ieuhvba",
"u2oo47rhbe-#0lbnbbvs763&oaluhvnl",
"d92-i88tk<$wyfznxfgi42&oX7k9dgzz",
"gsr-ubbcw;#tkikkszmv7-# +-tu9pll",
"gder4tue,&@tmi0tbMMMs&o +=7d9wfg",
"irzr#;;;&@+tmmcbMmlzb2  +<wpxt0p",
"mze,@&&&-+<dbNVVvzu,>#  @5klxccB",
"iz<&#$&&+@6zbmMMlt;X2q2oo5bnzxtu",
"6tt-&@+X.#9lbmBns2o8tgp8@6lnvk33",
"60d,&+  .#3pcmVct#.rgpgp%4jnvg46",
"68p8&o . +,efmmf6.#acpdp%<gbvy56",
"76wp,o#8; #<pBcr#owlvlpd3&hbl057",
"633f2@0gp7<$6tg8o@avbvdsq*gbz936",
"6,;ue*pfgguw9&8& osbmxli0*fvf636",
"3<38p&ufgfzm9@+. :jbbvvpy;tli236",
"3663p&pgfgzt,@.. 0vbbbbiai9z9377",
"66,2p&fgfze&&&. @uvvnbbvdt,e;<67",
"2<&3p&zlld,&,,+ :hhvnbbbe&@&&-<<",
"&&&3i2lmce&&,3$ :hlvmbbu&&#+&&&&",
"=&&,3wcMBe&,=<$ :hbbbxcu;&# #&&=",
"&&=#XrmmVe&<<3;.:hbnnlcp2;# X#&&",
"=&#X#pbbNw&,63<#:gbnnzci3-# @;&&",
"#@  *unmNe&27;;;:gbnbjcp5:@%8p,#",
"*#O.-pbvme&2422;:gvnxfcu7;#yggt;",
"u72o-ublxp-3434&1flvzgxp6*5lfggf",
"u77*#yzxxm<<673*;pgzccgle@0jgfff",
"u673@elbbn8;366<#5kcnxulf#3ilkff",
"u663@3dvvMg&;66-.oyt6wdlf#38fkff",
"u775o;pznMh&;3<&. #56ufzf@336pkk",
"r753o@9gbMl<&;&$.X ;6igkd*;;;8gf",
"7763o.7gbnmt&&&Xo&.;6tfdp4;-;,66",
"6775o.8gznMn9,@ +&#.>8ppe$#;;;,6",
"5773o -yihggz6.X&&$..-3<O o&;&&<",
"<773@oXooo@XXX.#&$@. .XX  o*&&&&",
"<662X@*o     .@##. .X.   X.@&&&-",
"<44#..$oXo    . .  .$$  X+@.X&&&",
";2o.  ..             X    .  .o&",
".X  .                         .."
};
