/* XPM */
static char *result[] = {
/* columns rows colors chars-per-pixel */
"64 64 59 1 ",
"  c #121C0E",
". c #141D12",
"X c #162113",
"o c #192416",
"O c #1C261A",
"+ c #1E291B",
"@ c #20261D",
"# c #212C1E",
"$ c #24301F",
"% c #242E21",
"& c #263122",
"* c #293426",
"= c #2C3629",
"- c #2E392B",
"; c #323C2E",
": c #343E31",
"> c #383F32",
", c #36412F",
"< c #364132",
"1 c #394435",
"2 c #3C4837",
"3 c #3C4639",
"4 c #3E4A3B",
"5 c #424D3E",
"6 c #42503E",
"7 c #434F41",
"8 c #455143",
"9 c #495446",
"0 c #4C5847",
"q c #4B5749",
"w c #4E594A",
"e c #515D4D",
"r c #545F51",
"t c #53604E",
"y c #566252",
"u c #596556",
"i c #5B6856",
"p c #5B6759",
"a c #5E6A5A",
"s c #616E5E",
"d c #64715F",
"f c #646F60",
"g c #657262",
"h c #697565",
"j c #6B7966",
"k c #6B7668",
"l c #6D7A6A",
"z c #717D6D",
"x c #74816F",
"c c #758272",
"v c #7A8576",
"b c #7A8976",
"n c #7C8778",
"m c #7E8A7A",
"M c #818D7E",
"N c #838F81",
"B c #849181",
"V c #889381",
"C c #8C988A",
/* pixels */
"O.O. ...........................OOOX....XX..........X........ .@",
"O%%:;;--;;;;;=;><<:-:::<<:=::<11@@%=;;-;---:;:3:;::;<<1:::::13-.",
".*3fkgkjkhfhhhhnNNckkgkmNNkkxbNb%%1akgkkhhkkkzNlkBzkBNNBchhcBCy.",
"@%1adssipsfsffrkxlsskgkcclpppxbb%#<pfffsgaipyschfzfpkxclgpskcnqX",
"O&>sdd057ahffa7777plmmcsgs878scb$$1agggggq487qgkp7884pf889gkhz9X",
"@&>ssy069paaarw887rgcccfsp888plb$&<yaaasfe887qpap8888rp888uyey3X",
"o$>5660687787wkw88787ykkw78886am##<8888ekkp88888888888q9881&XoOO",
"o$>5666988797qsw78888rapw88886sb#$<8886qapr8888q8888843485;&++++",
"O*3<4q888888887788888887886894sn##<688886687888888888*.<48+oOOOO",
"O&-=<7888888888788888888688987av#$1684888887888888888<+*12++$#++",
"XX+X&<788888888888888888888684eg+%187<888887888898888q8OXOX&;<-+",
"OOOO%-348888888888888888888880is##;64=48788888846633641O+++-1;&o",
"OOOOOOO=q7788888888888888888qsds$X+:=X-4888887<<<<++3&OO*<<29OOO",
"OO+OOOO=47888888888888888888qagg#OO==#-3464674--=<%+=#OO%-,<2#O+",
"OOO+OOOOO7qq88888888888888989sxn#o+o&<<<<<<<<-OOOXOOOOO+O+,*o+O+",
"OOOOO%@@@:378888887478888888wslc&o++&::---<--=+O++OO++++++-*+++O",
"OOOO&::=o+Xo59797931<<18895rkfga#oooXXoXXXXXXXXXX.XOoooXoXoooXXO",
"OO++=13-#ooo<59777:--=-4587esgga#O#*====&--*=&<,-<#O+%===-==*<*o",
"OOO<48q4>@ooX=097:%XXX+;49858sgg#%1akhjggmbgglMMMB4X<wkgcmkhgByX",
"OOO=<7431$@#O#353;%##+&159888iga+&<ysaagsccaasccbB4o<wddxcfagMyX",
"OOOO&:o=0<>>#Oo-;O=<<,<8888885ug#&<8988wsga6888ukB4X<29dgg8rjMeX",
"XOOO&-+-8;;;@Oo*=+=<<-14855654eu+&14888qssu8888ygm2X<49asa8eaMe ",
"OOOOOO<<;@O+++++&<<<<<<<:<,><<>>+$<4888898888685qg<o<48888869MyX",
"OO+OO+=-;#O#OO+o+--;-:,->;;;;;;:o$,9988888888885qj<X,48878988beX",
"OOO+oooooXXXooXoOOOoXXXooo.o@...o&<88888888888959j,O<48888888g9.",
"OOOO#*%%&*=&*==#o+&&&&&%%==*%*=*+$,8888888888887wl<O;48588889k8.",
"OO+X4jfgdvcfvMM,O;ygggggfgMlfnMM$X+488889779887uhM4O,498885rgNr.",
"OO+o3gassczacnn;O,edssdssfMkszvz$OO788887798885plB4o<488885ykmwX",
"+O+=487rdgi6adh=+<499996ygde0dhs#o@7q8888888885hmM4o<496887pbl7.",
"OOO:487qdsy8igg=#<469686usse5sss#oO377888888889gcM2o-288884pvk8X",
"OOO-4q8789886eg*+,,14968878666rs%o+O%178888860hwwl1X+*37785rkk9X",
"OOO:788888885wj*+,,<6868677966ss#O+X%;38587750d09g<Xo&;7877rsk8X",
"O%:7888888888wh=+<#+<<38787787rf+OO+OO-<<<181<:66<#o+++,<668qk8X",
"O%38888886886el-+<#+-=<7777784ra%OOOOO=<;-<6<--46<$oo+o,48888j8X",
".=37888888884ym<+<<=OO#<<<<<<<<<OOOOOOX+OO#<##<<:<&XOoO=48888g8X",
".%:8888898998yN-O<<-+O+:<-;;<-<-+OOOOOOOOO#:##:::<$Oo++,26888k8X",
"O%18888886wh9yM,X+ooOXO+OOOO+OOXO+OOOOOOXX++OOO=<<$OX*=O*1888myX",
"O%:8888888wgwyM,X+#$+##%%%%##%%&OOOOO++OOO++OOO=;;$XX,<O%<877byX",
"O&1798978888cnm<o,tdsafccvmkscbc%O+O#<,,<<=XO+OO++OO,36<%O:38mrX",
"X%:877798886lmm;O<ygsgkbbbblfbmc&X+o$,,,-<-O++OOO+O+<381*+:48mrX",
"O%<888888787alM<O<598pgfcc88qsxc%OO=<:83X=:--:-%o+o+<4553,888k8.",
"O&<788888889phm:O<597ufaxc889pxb#OO<:=7:@::<::<%++o+<4884<877k8X",
"O&17888888977wl=+,4988998q8888yg+XO<=OO=887:::::,,%+-48866888nrX",
".&18888888787qk=#<497877688888tg#OO==OX*874::<:<,,%O149888888nrX",
"O=:8888888877qk=%:387888888884ab%O+O&:::1%@O38<:=+X#:39888887kwX",
".=:7888888888ek=O:488888878887gb#O+X%<:::@OO17::=Xo+:38888889f8.",
"O@@:38888888ufN:.%-3888888888plb%X+OO@@@@@OOO%:=ooooO=17887rsg6X",
"OOO:38q88888akN:.O-1888887q88fcb%X++OO@@@@@OO%:%++++O=:8887ygk6X",
"OOO:3q888887cmN:.@=388888888qccf%oOOOOOXOOoooO+XoXo$<488888rfk7X",
"OOO:48888788kcm:OO=<77888888qcla%XO@@+@+OO+O++++++o$-498888rfk8X",
"OOO:488888888pN<X@+%:4888q888qpf##:rppafvadcclilxm2XO=<8888rfh7X",
"@O@:388888877rN:O@O@:788888877rf+&1akgsjmgjbbbdcmm4 O=<8888rgh8.",
"OOOO=<7788887yN:.@O@:488888884pf+%<1499tjgi0ww98tx,Xo*2688sy9h8X",
"OOOO+:7888887ym:O@O%<488888888rf#&<=186wddp567889j,X+*2689sy6h8.",
"O%::=O:38688ygm:OO=<7888888887rf#$<+&1580008887pdB2+,28898998g8.",
".%::=O=38888axm<.O=48888888877rf#&<o#1885878877pjm2X<28889888d8X",
"O&<61<68834q8tx*#<38888888878sgf#++-286888883188wl<X;47784126h8X",
"X#<84<696<<86qg*#<4888788888qffs$oX,286888881<869j<o>49989,28g8X",
"O++<16661#%<6wk-X+-38888888888pg#oO-18888841%%340l<o<>>>1<O*1f8X",
"OOO<3862:+#;4wg-O+=<8888888888rf#++-1988884<++<4wk;X::::,-O&<g7X",
"OO++=<<=++++:<4%O+O%:3:3<<<3<<13+o++*<<<<1-+O+<113%O<*O##+=,<4-o",
"O++X&<<=X+XO-<<+OOX+::::::::<<<-oo+o*<<,<<=OX+<1::+o;&OOOO,,;;*o",
"O@OO++++OXOO#+OO+OOO++%+%++%+##++++o++++##+O+++%#++OO#OOOOO+O#Oo",
"O+OXXXOOX+OOOXXOX+XOXXXXXXXXXXO+OO+ooXXXXXooXOOOOXXOoOOOOooooooo"
};
