/* XPM */
static char *result[] = {
/* columns rows colors chars-per-pixel */
"32 32 202 2 ",
"   c #4786F2",
".  c #4787F2",
"X  c #4788F2",
"o  c #4888F2",
"O  c #4889F2",
"+  c #4989F2",
"@  c #498AF2",
"#  c #4A8AF2",
"$  c #4A8BF2",
"%  c #4B8BF2",
"&  c #4C8DF2",
"*  c #4C8FF2",
"=  c #4D90F3",
"-  c #4F90F2",
";  c #4F91F2",
":  c #4F91F3",
">  c #4E92F3",
",  c #4F94F3",
"<  c #5091F3",
"1  c #5092F3",
"2  c #5093F3",
"3  c #5193F3",
"4  c #5094F3",
"5  c #5194F3",
"6  c #5195F3",
"7  c #5294F3",
"8  c #5397F3",
"9  c #5497F3",
"0  c #5597F3",
"q  c #5697F3",
"w  c #5498F3",
"e  c #5598F3",
"r  c #5599F3",
"t  c #569BF2",
"y  c #569AF3",
"u  c #579AF3",
"i  c #569BF3",
"p  c #579BF3",
"a  c #589BF3",
"s  c #589DF3",
"d  c #599DF3",
"f  c #599EF3",
"g  c #5B9EF3",
"h  c #5A9FF3",
"j  c #5B9FF3",
"k  c #5DA2F3",
"l  c #5DA3F4",
"z  c #5EA3F4",
"x  c #5FA4F4",
"c  c #61A5F3",
"v  c #61A7F4",
"b  c #63A7F4",
"n  c #62A8F2",
"m  c #67A9F3",
"M  c #62A8F4",
"N  c #62A9F4",
"B  c #68A8F3",
"V  c #6AA9F3",
"C  c #6BAAF3",
"Z  c #6BADF3",
"A  c #6DADF3",
"S  c #6FB5F3",
"D  c #68B0F4",
"F  c #69B0F4",
"G  c #69B1F4",
"H  c #6AB1F4",
"J  c #6BB1F4",
"K  c #6DB3F4",
"L  c #6FB7F5",
"P  c #6FB8F5",
"I  c #73B0F3",
"U  c #71B2F4",
"Y  c #73B6F4",
"T  c #74B4F4",
"R  c #74B6F4",
"E  c #72B9F5",
"W  c #76B8F4",
"Q  c #74BAF5",
"!  c #73BDF5",
"~  c #74BDF5",
"^  c #76BEF5",
"/  c #77BFF5",
"(  c #7DBAF4",
")  c #7AC1F5",
"_  c #7BC2F5",
"`  c #81BCF4",
"'  c #83C1F4",
"]  c #81C2F4",
"[  c #83C3F4",
"{  c #86C3F4",
"}  c #82C4F5",
"|  c #83C6F5",
" . c #84C5F4",
".. c #85C7F5",
"X. c #8BC7F2",
"o. c #8BC4F4",
"O. c #8EC6F4",
"+. c #89C8F4",
"@. c #8BC8F4",
"#. c #8BCAF4",
"$. c #8EC8F4",
"%. c #8EC9F4",
"&. c #8CCAF4",
"*. c #8DCAF4",
"=. c #8ECBF4",
"-. c #91C5F3",
";. c #91C5F4",
":. c #92CDF4",
">. c #94CEF4",
",. c #97CFF4",
"<. c #9BCEF3",
"1. c #9DCDF3",
"2. c #9CCEF3",
"3. c #9ECEF3",
"4. c #9BD1F4",
"5. c #9DD2F4",
"6. c #A1CFF3",
"7. c #A3D1F3",
"8. c #A0D5F1",
"9. c #A5D7F2",
"0. c #A0D1F4",
"q. c #A1D1F4",
"w. c #A4D3F4",
"e. c #A5D3F4",
"r. c #A0D4F4",
"t. c #A2D4F4",
"y. c #A2D5F4",
"u. c #A3D5F4",
"i. c #A7D7F4",
"p. c #A8D6F3",
"a. c #ADD7F3",
"s. c #A9D6F4",
"d. c #AAD9F3",
"f. c #ADD9F3",
"g. c #ADDAF3",
"h. c #AAD8F4",
"j. c #ADDAF4",
"k. c #B0DBF3",
"l. c #B2DBF3",
"z. c #B2DCF3",
"x. c #B3DDF3",
"c. c #B5DCF3",
"v. c #B4DDF3",
"b. c #B5DEF3",
"n. c #B7DFF3",
"m. c #BCE0F3",
"M. c #BDE0F3",
"N. c #BCE1F3",
"B. c #BDE1F3",
"V. c #BEE1F3",
"C. c #BFE1F3",
"Z. c #C0E2F3",
"A. c #C1E2F3",
"S. c #C2E3F3",
"D. c #C4E3F3",
"F. c #C5E4F3",
"G. c #C6E4F3",
"H. c #C7E5F3",
"J. c #C8E5F2",
"K. c #C9E5F3",
"L. c #CAE5F3",
"P. c #CCE6F3",
"I. c #CCE7F3",
"U. c #CDE7F3",
"Y. c #CEE7F3",
"T. c #CFE7F3",
"R. c #D0E7F3",
"E. c #D0E8F3",
"W. c #D1E8F3",
"Q. c #D2E8F3",
"!. c #D2E9F3",
"~. c #D5E9F2",
"^. c #D5E9F3",
"/. c #D6E9F3",
"(. c #D7EAF2",
"). c #D8EAF3",
"_. c #DCEBF2",
"`. c #DDEBF2",
"'. c #DEECF2",
"]. c #DFECF2",
"[. c #E0ECF2",
"{. c #E1EDF2",
"}. c #E4EEF2",
"|. c #E5EEF2",
" X c #E6EEF2",
".X c #E7EEF2",
"XX c #E7EFF2",
"oX c #E8EFF2",
"OX c #E9EFF2",
"+X c #EAEFF2",
"@X c #EBF0F2",
"#X c #ECF0F2",
"$X c #EDF1F2",
"%X c #EEF1F2",
"&X c #EFF1F2",
"*X c #EFF2F2",
"=X c #F0F1F2",
"-X c #F0F2F2",
";X c #F1F2F2",
":X c gray95",
">X c #F3F2F2",
",X c None",
/* pixels */
",X,X,X,X,X,X,X,X,X,X,X,X,X,X,X,X,X,X,X,X,X,X,X,X,X,X,X,X,X,X,X,X",
",X,X,X,X,X,X,X,X,X,X,X,X,X,X,X,X,X,X,X,X,X,X,X,X,X,X,X,X,X,X,X,X",
",X,X,X,X,X,X,X,X,X,X,X,X,X,X,X,X,X,X,X,X,X,X,X,X,X,X,X,X,X,X,X,X",
",X,X,X,X,X,X,X,X,X,XO O 5 r r 5 @ + . . . ,X,X,X,X,X,X,X,X,X,X,X",
",X,X,X,X,X,X,X,Xi g T ` { #.&.[ K N y u ;   ,X,X,X,X,X,X,X,X,X,X",
",X,X,X,X,X,X3 C %.h.A.!.W.R.W.Z.k.,...~ l < $ ,X,X,X,X,X,X,X,X,X",
",X,X,X,X,Xb O.V.^.|.%X>X:X:X:X#XoX(.C.y. .G h 7 + o ,X,X,X,X,X,X",
",X,X,X,XW h.Y.OX>X>X:X:X:X:X:X:X>X:X@XE.v.>.Q x & # o ,X,X,X,X,X",
",X,X,XS 9.).;X>X:X:X:X:X:X:X:X:X:X:X>X.XL.B.5./ N p 3 1 & o ,X,X",
",X,Xn 8.~.;X:X:X:X:X:X:X:X:X:X:X:X:X:X%X`.L.g.=.P j & $ + ,X,X,X",
",Xt X.J.=X:X:X:X:X:X:X:X:X:X:X:X:X:X:X>X X/.F.u._ H f w = 4 6 6 ",
",XZ d.{.>X:X:X:X:X:X:X:X:X:X:X:X:X:X:X:X%X].R.D.c.a.w.e.7.6.6.6.",
",X;.G.&X:X:X:X:X:X:X:X:X:X:X:X:X:X:X:X:X:X;X=X&X&X-X-X-X-X-X-X-X",
"q 2.U.=X:X:X:X:X:X:X:X:X:X:X:X:X:X:X:X:X:X:X:X:X:X:X:X:X:X:X:X:X",
"C z._.>X:X:X:X:X:X:X:X:X:X:X:X:X:X:X:X:X:X:X:X:X:X:X:X:X:X:X:X:X",
"A b.`.>X:X:X:X:X:X:X:X:X:X:X:X:X:X:X:X:X:X:X:X:X:X:X:X:X:X:X:X:X",
"A b.`.>X:X:X:X:X:X:X:X:X:X:X:X:X:X:X:X:X:X:X:X:X:X:X:X:X:X:X:X:X",
"A b.`.>X:X:X:X:X:X:X:X:X:X:X:X:X:X:X:X:X:X:X:X:X:X:X:X:X:X:X:X:X",
"V l._.>X:X:X:X:X:X:X:X:X:X:X:X:X:X:X:X:X:X:X:X:X:X:X:X:X:X:X:X:X",
"0 <.I.=X:X:X:X:X:X:X:X:X:X:X:X:X:X:X:X:X:X:X:X:X:X:X:X:X:X:X:X:X",
",X-.H.%X:X:X:X:X:X:X:X:X:X:X:X:X:X:X:X:X:X;X&X%X&X&X*X*X*X*X*X*X",
",XI n.[.>X:X:X:X:X:X:X:X:X:X:X:X:X:X:X:X%X'.T.S.l.s.0.q.3.1.1.1.",
",Xa $.K.&X:X:X:X:X:X:X:X:X:X:X:X:X:X:X>X X/.F.t.) F s 8 * > ,X, ",
",X,Xm p./.-X:X:X:X:X:X:X:X:X:X:X:X:X:X%X_.K.f.*.L h & % @ ,X,X,X",
",X,X,XY h./.;X>X:X:X:X:X:X:X:X:X:X:X>X XK.N.4.^ M p 1 1 & o ,X,X",
",X,X,X,XR i.P.oX>X>X:X:X:X:X:X>X>X:X+XT.x.:.E z & # o ,X,X,X,X,X",
",X,X,X,X,Xc o.m.Q.}.$X:X:X:X:X@XXX^.M.r.} D f 5 + o ,X,X,X,X,X,X",
",X,X,X,X,X,X: B @.i.V.E.Y.Y.Y.C.j.>.| ! k ; # ,X,X,X,X,X,X,X,X,X",
",X,X,X,X,X,X,X,Xr d U ( ' +.+.] J v w e -   ,X,X,X,X,X,X,X,X,X,X",
",X,X,X,X,X,X,X,X,X,X,XX 2 9 8 2 + o . . . ,X,X,X,X,X,X,X,X,X,X,X",
",X,X,X,X,X,X,X,X,X,X,X,X,X,X,X,X,X,X,X,X,X,X,X,X,X,X,X,X,X,X,X,X",
",X,X,X,X,X,X,X,X,X,X,X,X,X,X,X,X,X,X,X,X,X,X,X,X,X,X,X,X,X,X,X,X"
};
