/* XPM */
static char *result[] = {
/* columns rows colors chars-per-pixel */
"32 32 202 2 ",
"   c #4786F2",
".  c #4787F2",
"X  c #4788F2",
"o  c #4888F2",
"O  c #4889F2",
"+  c #4989F2",
"@  c #498AF2",
"#  c #4A8AF2",
"$  c #4A8BF2",
"%  c #4B8BF2",
"&  c #4C8DF2",
"*  c #4C8FF2",
"=  c #4D90F3",
"-  c #4F90F2",
";  c #4F91F2",
":  c #4F91F3",
">  c #4E92F3",
",  c #4F94F3",
"<  c #5091F3",
"1  c #5092F3",
"2  c #5093F3",
"3  c #5193F3",
"4  c #5094F3",
"5  c #5194F3",
"6  c #5195F3",
"7  c #5294F3",
"8  c #5397F3",
"9  c #5497F3",
"0  c #5597F3",
"q  c #5697F3",
"w  c #5498F3",
"e  c #5598F3",
"r  c #5599F3",
"t  c #569BF2",
"y  c #569AF3",
"u  c #579AF3",
"i  c #569BF3",
"p  c #579BF3",
"a  c #589BF3",
"s  c #589DF3",
"d  c #599DF3",
"f  c #599EF3",
"g  c #5B9EF3",
"h  c #5A9FF3",
"j  c #5B9FF3",
"k  c #5DA2F3",
"l  c #5DA3F4",
"z  c #5EA3F4",
"x  c #5FA4F4",
"c  c #61A5F3",
"v  c #61A7F4",
"b  c #63A7F4",
"n  c #62A8F2",
"m  c #67A9F3",
"M  c #62A8F4",
"N  c #62A9F4",
"B  c #68A8F3",
"V  c #6AA9F3",
"C  c #6BAAF3",
"Z  c #6BADF3",
"A  c #6DADF3",
"S  c #6FB5F3",
"D  c #68B0F4",
"F  c #69B0F4",
"G  c #69B1F4",
"H  c #6AB1F4",
"J  c #6BB1F4",
"K  c #6DB3F4",
"L  c #6FB7F5",
"P  c #6FB8F5",
"I  c #73B0F3",
"U  c #71B2F4",
"Y  c #73B6F4",
"T  c #74B4F4",
"R  c #74B6F4",
"E  c #72B9F5",
"W  c #76B8F4",
"Q  c #74BAF5",
"!  c #73BDF5",
"~  c #74BDF5",
"^  c #76BEF5",
"/  c #77BFF5",
"(  c #7DBAF4",
")  c #7AC1F5",
"_  c #7BC2F5",
"`  c #81BCF4",
"'  c #83C1F4",
"]  c #81C2F4",
"[  c #83C3F4",
"{  c #86C3F4",
"}  c #82C4F5",
"|  c #83C6F5",
" . c #84C5F4",
".. c #85C7F5",
"X. c #8BC7F2",
"o. c #8BC4F4",
"O. c #8EC6F4",
"+. c #89C8F4",
"@. c #8BC8F4",
"#. c #8BCAF4",
"$. c #8EC8F4",
"%. c #8EC9F4",
"&. c #8CCAF4",
"*. c #8DCAF4",
"=. c #8ECBF4",
"-. c #91C5F3",
";. c #91C5F4",
":. c #92CDF4",
">. c #94CEF4",
",. c #97CFF4",
"<. c #9BCEF3",
"1. c #9DCDF3",
"2. c #9CCEF3",
"3. c #9ECEF3",
"4. c #9BD1F4",
"5. c #9DD2F4",
"6. c #A1CFF3",
"7. c #A3D1F3",
"8. c #A0D5F1",
"9. c #A5D7F2",
"0. c #A0D1F4",
"q. c #A1D1F4",
"w. c #A4D3F4",
"e. c #A5D3F4",
"r. c #A0D4F4",
"t. c #A2D4F4",
"y. c #A2D5F4",
"u. c #A3D5F4",
"i. c #A7D7F4",
"p. c #A8D6F3",
"a. c #ADD7F3",
"s. c #A9D6F4",
"d. c #AAD9F3",
"f. c #ADD9F3",
"g. c #ADDAF3",
"h. c #AAD8F4",
"j. c #ADDAF4",
"k. c #B0DBF3",
"l. c #B2DBF3",
"z. c #B2DCF3",
"x. c #B3DDF3",
"c. c #B5DCF3",
"v. c #B4DDF3",
"b. c #B5DEF3",
"n. c #B7DFF3",
"m. c #BCE0F3",
"M. c #BDE0F3",
"N. c #BCE1F3",
"B. c #BDE1F3",
"V. c #BEE1F3",
"C. c #BFE1F3",
"Z. c #C0E2F3",
"A. c #C1E2F3",
"S. c #C2E3F3",
"D. c #C4E3F3",
"F. c #C5E4F3",
"G. c #C6E4F3",
"H. c #C7E5F3",
"J. c #C8E5F2",
"K. c #C9E5F3",
"L. c #CAE5F3",
"P. c #CCE6F3",
"I. c #CCE7F3",
"U. c #CDE7F3",
"Y. c #CEE7F3",
"T. c #CFE7F3",
"R. c #D0E7F3",
"E. c #D0E8F3",
"W. c #D1E8F3",
"Q. c #D2E8F3",
"!. c #D2E9F3",
"~. c #D5E9F2",
"^. c #D5E9F3",
"/. c #D6E9F3",
"(. c #D7EAF2",
"). c #D8EAF3",
"_. c #DCEBF2",
"`. c #DDEBF2",
"'. c #DEECF2",
"]. c #DFECF2",
"[. c #E0ECF2",
"{. c #E1EDF2",
"}. c #E4EEF2",
"|. c #E5EEF2",
" X c #E6EEF2",
".X c #E7EEF2",
"XX c #E7EFF2",
"oX c #E8EFF2",
"OX c #E9EFF2",
"+X c #EAEFF2",
"@X c #EBF0F2",
"#X c #ECF0F2",
"$X c #EDF1F2",
"%X c #EEF1F2",
"&X c #EFF1F2",
"*X c #EFF2F2",
"=X c #F0F1F2",
"-X c #F0F2F2",
";X c #F1F2F2",
":X c gray95",
">X c #F3F2F2",
",X c None",
/* pixels */
",X,X,X,X,X,X,X,X,X,X6 6.-X:X:X:X:X:X:X:X*X1., ,X,X,X,X,X,X,X,X,X",
",X,X,X,X,X,X,X,X,X,X6 6.-X:X:X:X:X:X:X:X*X1.,X,X,X,X,X,X,X,X,X,X",
",X,X,X,X,X,X,X,Xo ,X4 6.-X:X:X:X:X:X:X:X*X1.> ,Xo ,X,X,X,X,X,X,X",
",X,X,X,X,X,X,X,X& + = 7.-X:X:X:X:X:X:X:X*X3.* @ & ,X,X,X,X,X,X,X",
",X,X,X,X,X,X,X,X1 $ w e.-X:X:X:X:X:X:X:X*Xq.8 % 1 ,X,X,X,X,X,X,X",
",X,X,X,X,X,X,Xo 3 & f w.-X:X:X:X:X:X:X:X*X0.s & 1 o ,X,X,X,X,X,X",
",X,X,X,X,X,Xo # p j H a.-X:X:X:X:X:X:X:X&Xs.F h p # o ,X,X,X,X,X",
",X,X,X,X,X,X+ & N P _ c.&X:X:X:X:X:X:X:X&Xl.) L M & + ,X,X,X,X,X",
",X,X,X,X,X,X7 x / =.u.D.&X:X:X:X:X:X:X:X%XS.t.*.^ z 5 ,X,X,X,X,X",
",X,X,X,X,X$ h Q 5.g.F.R.=X:X:X:X:X:X:X:X&XT.F.f.4.E f # ,X,X,X,X",
",X,X,X,X  < G >.B.L./.].;X:X:X:X:X:X:X:X;X'./.K.N.:.D ;   ,X,X,X",
",X,X,X. ; l  .v.L.`. X%X:X:X:X:X:X:X:X:X:X%X X_.K.x.} k - . ,X,X",
",X,X,X. u ~ y.E..X%X>X:X:X:X:X:X:X:X:X:X:X:X>X%X XT.r.! e . ,X,X",
",X,X,X. y ..C.@X>X:X:X:X:X:X:X:X:X:X:X:X:X:X:X:X>X+XM.| w . ,X,X",
",X,X,X+ N ,.(.:X:X:X:X:X:X:X:X:X:X:X:X:X:X:X:X:X:X:X^.>.v o ,X,X",
",X,X,X@ K k.oX>X:X:X:X:X:X:X:X:X:X:X:X:X:X:X:X:X:X>XXXj.J + ,X,X",
",X,X,X5 [ Z.#X:X:X:X:X:X:X:X:X:X:X:X:X:X:X:X:X:X:X>X@XC.] 2 ,X,X",
",X,X,Xr &.W.:X:X:X:X:X:X:X:X:X:X:X:X:X:X:X:X:X:X:X:X:XY.+.8 ,X,X",
",X,X,Xr #.R.:X:X:X:X:X:X:X:X:X:X:X:X:X:X:X:X:X:X:X:X:XY.+.9 ,X,X",
",X,X,X5 { W.:X:X:X:X:X:X:X:X:X:X:X:X:X:X:X:X:X:X:X:X:XY.' 2 ,X,X",
",X,X,XO ` !.>X:X:X:X:X:X:X:X:X:X:X:X:X:X:X:X:X:X:X:X:XE.( X ,X,X",
",X,X,XO T A.%X:X:X:X:X:X:X:X:X:X:X:X:X:X:X:X:X:X:X:X$XV.U ,X,X,X",
",X,X,X,Xg h.|.>X:X:X:X:X:X:X:X:X:X:X:X:X:X:X:X:X:X>X}.i.d ,X,X,X",
",X,X,X,Xi %.^.>X:X:X:X:X:X:X:X:X:X:X:X:X:X:X:X:X:X>XQ.@.r ,X,X,X",
",X,X,X,X,XC V.OX>X:X:X:X:X:X:X:X:X:X:X:X:X:X:X:X>XoXm.B ,X,X,X,X",
",X,X,X,X,X3 O.Y.;X:X:X:X:X:X:X:X:X:X:X:X:X:X:X:X;XP.o.: ,X,X,X,X",
",X,X,X,X,X,Xb h.).;X:X:X:X:X:X:X:X:X:X:X:X:X:X-X/.i.c ,X,X,X,X,X",
",X,X,X,X,X,X,XW 9.~.=X>X:X:X:X:X:X:X:X:X:X>X&X/.h.R ,X,X,X,X,X,X",
",X,X,X,X,X,X,X,XS 8.J.{.&X=X>X>X>X>X>X=X%X[.K.p.Y ,X,X,X,X,X,X,X",
",X,X,X,X,X,X,X,X,Xn X.d.G.U._.`.`.`._.I.H.n.$.m ,X,X,X,X,X,X,X,X",
",X,X,X,X,X,X,X,X,X,Xt Z ;.2.z.b.b.b.l.<.-.I a ,X,X,X,X,X,X,X,X,X",
",X,X,X,X,X,X,X,X,X,X,X,X,Xq C A A A V 0 ,X,X,X,X,X,X,X,X,X,X,X,X"
};
