/* XPM */
static char *result[] = {
/* columns rows colors chars-per-pixel */
"32 32 76 1 ",
"  c #6781AE",
". c #6480B0",
"X c #7592BE",
"o c #799BC8",
"O c #699BD9",
"+ c #5F9EEA",
"@ c #4687F2",
"# c #4887F2",
"$ c #478AF2",
"% c #4A8BF2",
"& c #508EF2",
"* c #4D93F3",
"= c #5495F3",
"- c #569AF3",
"; c #5A9DF3",
": c #54A2F4",
"> c #5EA2F3",
", c #57AAF4",
"< c #6AA0E5",
"1 c #70A3E9",
"2 c #61A6F4",
"3 c #6CA4F3",
"4 c #64ABF4",
"5 c #6AADF4",
"6 c #72ADF3",
"7 c #6BB2F4",
"8 c #73B4F3",
"9 c #7BB3F3",
"0 c #75BCF5",
"q c #7CBCF4",
"w c #7EC2F5",
"e c #83AFE3",
"r c #86B6EB",
"t c #8BB8EE",
"y c #8AB5F2",
"u c #83BDF4",
"i c #8ABDF3",
"p c #93BBF2",
"a c #85C3F4",
"s c #89C2F4",
"d c #8DCAF4",
"f c #8FC2FF",
"g c #93C4F4",
"h c #9BC6F5",
"j c #95CBF4",
"k c #9BCDF4",
"l c #90C3FF",
"z c #99CCFF",
"x c #9CD1F4",
"c c #A3CDF6",
"v c #AFCBF2",
"b c #A3CDFD",
"n c #B5CEF2",
"m c #A3D4F4",
"M c #AED5F4",
"N c #ADD9F4",
"B c #ADD8F8",
"V c #B1D6F3",
"C c #BDD1F2",
"Z c #B3DBF3",
"A c #BBDEF4",
"S c #B7D2F9",
"D c #BBD5F9",
"F c #BDE1F3",
"G c #CDDEF6",
"H c #C4E2F3",
"J c #CDE5F3",
"K c #D3E5F5",
"L c #DEE6F4",
"P c #D5E9F3",
"I c #DBEBF2",
"U c #E3EDF2",
"Y c #EAEEF2",
"T c #EDF1F2",
"R c #F2F2F2",
"E c None",
/* pixels */
"EEEEEEEEEEEgTRRRRRRMEEEEEEEEEEEE",
"EEEEEEEEEEEjRRRRRRRV;EEEEEEEEEEE",
"EEEEEEEEEE>MRRRRRRRH52EEEEEEEEEE",
"EEEEEEEEE;>ARRRRRRRJ5;EEEEEEEEEE",
"EEEEEEEEE-5FRRRRRRRP0;EEEEEEEEEE",
"EEEEEEEEE>0ZTRRRRRRHw4EEEEEEEEEE",
"EEEEEEEE%>0HRRRRRRRIa4%EEEEEEEEE",
"EEEEEEE>%>aURRRRRRRTg4%;EEEEEEEE",
"EEEEEEE2&2xURRRRRRTTm7*>EEEEEEEE",
"EEEE%EE4--aHYRRRRRTJj>=2EEE%EEEE",
"EEEE-%E2>-0ZIRRRRRTFs;+4%E-EEEEE",
"EEEE;-#>04aHIRRRRRUHj404%*:EEEEE",
"EEEE36%5N0xHYRRRRRTJNwmq*>,EEEEE",
"EEEE&9-uHdFITRRRRRTUHdFj-4*#EEEE",
"%EE##=;cINHTRRRRRRRTJNPV2*%##E%E",
"E4=##%4mUKPRRRRRRRRRIJYA7*#%%4;E",
"Eu4*$;0xUYURRRRRRRRRTYUNw>%*>9EE",
"EEs5>20dIRRRRRRRRRRRRRUxw7>4a9EE",
"EE9dwwxZURRRRRRRRRRRRRTFxwwdiEEE",
"EEEjxZJUTRRRRRRRRRRRRRTUPFxkEEEE",
"EEE-sJTRRRRRRRRRRRRRRRRRRIk>EEEE",
"EEEE-hTRRRRRRRRRRRRRRRRRRZ;EEEEE",
"EEEE@5URRRRRRRRRRRRRRRRRTi$EEEEE",
"EEEE=2MRRRRRRRRRRRRRRRRRG5=EEEEE",
"EEEE22sURRRRRRRRRRRRRRRTk42EEEEE",
"EEEEE7aHRRRRRRRRRRRRRRRKj7EEEEEE",
"EEEEEE0VHRRTRRRRRRRTRRPZaEEEEEEE",
"EEEEEEE8gUTDURRRRRYSUTc0EEEEEEEE",
"EEEEEEl18BLbDYTRTYGbKAq<flEEEEEE",
"EEEEzzztoezKLKURYKKLBroezzzEEEEE",
"EEEEEEzgo.OhGUTRRYKb+.XtzzEEEEEE",
"EEEEEEEEEEEE3ynCnp3EEEEEEEEEEEEE"
};
