/* XPM */
static char *result[] = {
/* columns rows colors chars-per-pixel */
"32 32 6 1 ",
"  c #93C5F3",
". c #AED4F3",
"X c #EEF2F2",
"o c gray95",
"O c #F3F3F2",
"+ c None",
/* pixels */
"++++++++++++.OoooooX +++++++++++",
"++++++++++++.OoooooX +++++++++++",
"++++++++++++.OoooooX +++++++++++",
"++++++++++++.OoooooX +++++++++++",
"++++++++++++.OoooooX +++++++++++",
"++++++++++++.OoooooX +++++++++++",
"++++++++++++.OoooooX +++++++++++",
"++++++++++++.OoooooX +++++++++++",
"++++++++++++.OoooooX +++++++++++",
"++++++++++++.OoooooX +++++++++++",
"++++++++++++.OoooooX +++++++++++",
"++++++++++++.OoooooX +++++++++++",
"++++++++++++.OoooooX +++++++++++",
"++++++++++++.OoooooX +++++++++++",
"++++++++++++.OoooooX +++++++++++",
"++++++++++++.OoooooX +++++++++++",
"++++++++++++.OoooooX +++++++++++",
"++++++++++++.OoooooX +++++++++++",
"++++++++++++.OoooooX +++++++++++",
"++++++++++++.OoooooX +++++++++++",
"++++++++++++.OoooooX +++++++++++",
"++++++++++++.OoooooX +++++++++++",
"++++++++++++.OoooooX +++++++++++",
"++++++++++++.OoooooX +++++++++++",
"++++++++++++.OoooooX +++++++++++",
"++++++++++++.OoooooX +++++++++++",
"++++++++++++.OoooooX +++++++++++",
"++++++++++++.OoooooX +++++++++++",
"++++++++++++.OoooooX +++++++++++",
"++++++++++++.OoooooX +++++++++++",
"++++++++++++.OoooooX +++++++++++",
"++++++++++++.OoooooX +++++++++++"
};
