/* XPM */
static char *result[] = {
/* columns rows colors chars-per-pixel */
"48 52 48 1 ",
"  c #FFC600",
". c #FFC905",
"X c #FFCB0B",
"o c #FFCE13",
"O c #FFD017",
"+ c #FFD21B",
"@ c #FFD523",
"# c #FFD827",
"$ c #FFD629",
"% c #FFD92C",
"& c #FFD733",
"* c #FFDC34",
"= c #FFD739",
"- c #FFDC3B",
"; c #FFE13D",
": c #FFDE43",
"> c #FFDF4A",
", c #FFDF50",
"< c #FFE243",
"1 c #FFE34C",
"2 c #FFE453",
"3 c #FFE55C",
"4 c #FFE663",
"5 c #FFE867",
"6 c #FFE56A",
"7 c #FFE86B",
"8 c #FFE673",
"9 c #FFEA75",
"0 c #FFEB7A",
"q c #FFEC84",
"w c #FFEE8E",
"e c #FFEF93",
"r c #FFEE9A",
"t c #FFF09D",
"y c #FFF1A4",
"u c #FFF2AC",
"i c #FFF3B3",
"p c #FFF5BB",
"a c #FFF6C4",
"s c #FFF7CC",
"d c #FFF8CE",
"f c #FFF8D4",
"g c #FFFADB",
"h c #FFFBE5",
"j c #FFFCEB",
"k c #FFFDF4",
"l c #FFFFFF",
"z c None",
/* pixels */
"zzzzzzzzzzzzzzzzzzzzzzzzzzzzzzzzzzzzzzzzzzzzzzzz",
"zzzzzzzzzzzzzzzzzzzzzzzzzzzzzzzzzzzzzzzzzzzzzzzz",
"zzzzzzzzzzzzzzzzzz zzzzzzzzzzzzzzzzzzzzzzzzzzzzz",
"zzzzzzzzzzzzzzzzzzzzzzzzzzzzzzzzzzzzzzzzzzzzzzzz",
"zzzzzzzzzzzzzzzzzzzzzzzzzzzzzzzzzzzzzzzzzzzzzzzz",
"zzzzzzzzzzzzzzzzzzzzzzzzzzzzzzzzzzzzzzzzzzzzzzzz",
"zzzzzzzzzzzzzzzzzzzzzzzzzzzzzzzzzzzzzzzzzzzzzzzz",
"zzzzzzzzzzzzzzzzzzz zzzzzzzzzzzzzzzzzzzzzzzzzzzz",
"zzzzzzzzzzzzzz+zzz . zzzzzzzzzozzzzzzzzzzzzzzzzz",
"zzzzzzzzzzzzzzzzzzX%. zzzzzzzzzzzzzzzzzzzzzzzzzz",
"zzzzzzzzzzzzzzzzzzX:2@o zzz.Xzzzzzzzzzzzzzzzzzzz",
"zzzzzzzzzzzzzzzzzz.%pq-o zzX+Xzzzzzzzzzzzzzzzzzz",
"zzzzzzzz   zz   z  +5fs1ozz #%Xzz zzzzzzzzzzzzzz",
"zzzzzzzzz +%::=@O. *;ylf1Xz #2%.z zzOzzzzzzzzzzz",
"zzzzzzzz oX@pkse5%+;2sllf= .-p4%X zzzzzzzzzzzzzz",
"zzzzzzzz X@ $allhu53illlls&+1jf3%.zzzzzzz zzzzzz",
"zzzzzz zz =# -allllfjllllld2qklf3+ zzzzzz zzzzzz",
"zzzzzzX+oX17+o2alllllllllllhkllld2X zzzzX.zzzzzz",
"zzzzzz +;-ph2*<0lllllllllllllllllf& z   +ozzzzzz",
"zzzzzz O;tlk91ukllllllllllllllllll> z  .%Xzzzzzz",
"zzzz+z  %ylljdlllllllllllllllllllj2O+%=1-Xzzzzzz",
"zzzz+zzX*ulllllllllllllllllllllllt;;<0at+zzzzzzz",
"zzzzzz +4jlllllllllllllllllllllllh99skj2.zzzzzzz",
"zzzzzz O2slllllllllllllllllllllllllllk0% zzzzzzz",
"zzzzzz .*yllllllllllllllllllllllllllla<ozzzzzzzz",
"zzzzzzz +4yjllllllllllllllllllllllllf2%.zzzzzzzz",
"zzzzzzzz.*<5jllllllllllllllllllllllle<@ zzzzzzzz",
"z zzzz  Xo;<yllllllllllllllllllllllj2*Xzz zzzzzz",
"zo;zz  X-<<1illlllllllllllllllllllllq* X+.zzzzzz",
"zzzzzz.-igggllllllllllllllllllllllkfy;*@ozzzzzzz",
"zzzzzz@7jllllllllllllllllllllllllle195;Xzzzzzzzz",
"zzzzz %ellllllllllllllllllllllllllhhki@ zz zzzzz",
"zzzzzO*ellllllllllllllllllllllllllljw&  X+zzzzzz",
"zzz.+-1illllllllllllllllllllllllllle;@+@#Xzzzozz",
"zzzzo+-rlllllllllllllllllllllllllllf1;trOzzzz@zz",
"zzzzz  oellllllllllllllllllllllllllkuua= zzzzozz",
"zzzzzz  %tlllllllllllllllllllllllllllf- zzzzzzzz",
"zzzzzzz X;ylllllllllllllllllllllllllf2X zzzzzzzz",
"zzzzooz  @9llllllllllllllllllllllllls1X  zzzzzzz",
"zzzzoO%+X%9llllllllllllllllllllllllll0*.  zzzzzz",
"zzzzz %5ewillllllllllllllllllllllllll0%X zzzzzzz",
"zzz .++2dllllllllllllllllllllllllllji1+ zzzzz  z",
"zzzz O;59yhlllllllllllllllllllllllh7<@  z o@+ zz",
"z#zz O;ejtwlllllllllllllllllllllllk0;+@463<@Xzzz",
"z#zzzX*ellfllllllllllllllllllllllllfiiikj0@ zzzz",
"zzzzz @ellllllllllllllllllllllllllllllhr:X zzzzz",
"zzzzzzo3dllllllllllllllllllllllllllllke% zzzzzzz",
"zzzzzzz%3flllllllllllllllllllllllllsu5&Xzzzzzzzz",
"zzzzzzzz%1wgllllllllllllllllllllllk0%+Xzzz@zzzzz",
"zzzzzzzzzo#1illlllllllllllllllllla8@Xzzzzzzzzzzz",
"zzzzzzzzzzzo*3glllllllllllllllllh=.zzzzzzzzzzzzz",
"zzzzzzzzzzzzzzzzzzzzzzzzzzzzzzzzzzzzzzzzzzzzzzzz"
};
