/* XPM */
static char *result[] = {
/* columns rows colors chars-per-pixel */
"48 52 41 1 ",
"  c #FFC600",
". c #FFC805",
"X c #FFCB0C",
"o c #FFCE12",
"O c #FFD017",
"+ c #FFD21B",
"@ c #FFD524",
"# c #FFD728",
"$ c #FFD92C",
"% c #FFDC33",
"& c #FFDE39",
"* c #FFE13E",
"= c #FFDF45",
"- c #FFE242",
"; c #FFE34C",
": c #FFE552",
"> c #FFE65C",
", c #FFE762",
"< c #FFE867",
"1 c #FFE96D",
"2 c #FFEA74",
"3 c #FFEB7C",
"4 c #FFEC83",
"5 c #FFED8C",
"6 c #FFEF95",
"7 c #FFEF98",
"8 c #FFF09C",
"9 c #FFF1A3",
"0 c #FFF2AB",
"q c #FFF4B3",
"w c #FFF5BC",
"e c #FFF6C4",
"r c #FFF7CC",
"t c #FFF8CF",
"y c #FFF8D4",
"u c #FFFADC",
"i c #FFFBE3",
"p c #FFFCED",
"a c #FFFDF3",
"s c #FFFFFF",
"d c None",
/* pixels */
"dddddddddddddddddddddddddddddddddddddddddddddddd",
"dddddddddddddddddddddd ddddddd@ddddddddddddddddd",
"dddddddddddddddddddddd dd  ddX%ddddddddddddddddd",
"ddddddddddddddd ddddd ..doodddo+dddddddddddddddd",
"dddddddddd+dddd.o ddd +. #oddddddddddddddddddddd",
"ddddddddd@@ddddd@XdddX&XX&o dddddddddd dddoddddd",
"dddddddddddddddd#@ d o*@%-@ dddddddddd ddd@ddddd",
"dddddddddddddd..%&. .=4---&. dddddddd  ddddddddd",
"dddddddddddddd @--@ O1t:02-+.ddddd   oX dddddddd",
"dddddddddd  ddX%1;&X%85*7a1*@. ddd .+*X dddddddd",
"dddddddddd  ddO;0:&#;7:->pe;-+  .o#%--X dddddddd",
"ddddddddd .X .@1p2--04*--qsq;*Oo$*-43%.ddddddddd",
"ddddddddd X@. %1sq->it--*1asu3-*-16e>@ ddddddddd",
"ddddddddd X&X.$1sp>6saeq,-7sss5*2pi<*O dd dddddd",
"dddddddd  #-&@%1sstissssa42sss0,is5*%.ddo.dddddd",
"ddddddddd @-*--1ssssssssspussswtsi:-@ d +.dddddd",
"ddddddddd .;74&1assssssssssssssssp7;@  .$. ddddd",
"ddddddddd o:aa52sssssssssssssssssss5&oo$&. ddddd",
"dddd     @&-qss0assssssssssssssssss7**-;&. ddddd",
"dddddd  +*;36psasssssssssssssssssssw445,#  ddddd",
"ddddd .O&-,asssssssssssssssssssssssssa4-O  ddddd",
"d    .#---5ssssssssssssssssssssssssss7-&X dddddd",
"ddd O#&-4tpsssssssssssssssssssssssst2--+ ddddddd",
"dddd  o&9sssssssssssssssssssssssssp4--&X ddddddd",
"ddd .. o-4sssssssssssssssssssssssssa7*&&+Oo. ddd",
"dddd.+#X%:tsssssssssssssssssssssssss0*::--#.dddd",
"dddd .%*-*6ssssssssssssssssssssssssu3>u9-@ dddo%",
"ddddd +-,2>assssssssssssssssssssssp1,ts1*X ddddd",
"ddddd o*3i5assssssssssssssssssssssstps9-@ dddddd",
"dOddd .%2spsssssssssssssssssssssssssss1-O dddddd",
"doddd .%>isssssssssssssssssssssssssssy:-Oddddddd",
"dXdddd o*0sssssssssssssssssssssssssssq--Oddddddd",
"dddddd .@:essssssssssssssssssssssssssi1-$.dddddd",
"dddd   +&->yssssssssssssssssssssssssssw-%.dd ddd",
"ddddddd O**,isssssssssssssssssssssssssr-&.d  ddd",
"dddddddd.*:,7ssssssssssssssssssssssssse-#  X. dd",
"ddddddd O-204psssssssssssssssssssssssy2*O  +o dd",
"dddddd  %-wsssssssssssssssssssssssssw:--+.@%.ddd",
"dddddd .%-wssssssssssssssssssssssssa2*--*&-# ddd",
"dddddd o*>isssssssssssssssssssssssssie2>92*o ddd",
"ddddd  O-1ssssssssssssssssssssssssssssq98:%. ddd",
"ddddddd.$;qisssssssssssssssssssssssssu,*-%X dddd",
"ddddddd X&-,pssssssssssssssssssssssa9>;4<$. dddd",
"ddddd  .+--3tasssssssssssssssssssssa0iiw:-&#o.dd",
"ddddd  XOO@--9sssssssssssssssssssssssy5>--&@+odd",
"ddd@dddd .$--;usssssssssssssssssssssu>**%+.ddddd",
"dddddddd.#-:6easssssssssssssssssssss8--%Xddddddd",
"dddddddO@--29tsssssssssssssssssssssp>&@Odddddddd",
"dddd   oo$%%%:wissssssssssssssssss7>@.. dddddddd",
"ddddddddddd.o$*>ysssssssssssssss03$odddddddddddd",
"ddddddddddddddO%,issssssssssssse%Xddddoddddddddd",
"dddddddddddddddddddddddddddddddddddddddddddddddd"
};
