/* XPM */
static char *result[] = {
/* columns rows colors chars-per-pixel */
"48 52 43 1 ",
"  c #FFC600",
". c #FFC805",
"X c #FFCB0B",
"o c #FFCE12",
"O c #FFD017",
"+ c #FFD21C",
"@ c #FFD523",
"# c #FFD629",
"$ c #FFD92D",
"% c #FFDC34",
"& c #FFDE39",
"* c #FFE13E",
"= c #FFDF40",
"- c #FFE242",
"; c #FFE34B",
": c #FFE452",
"> c #FFE55B",
", c #FFE763",
"< c #FFE867",
"1 c #FFE668",
"2 c #FFE86C",
"3 c #FFE574",
"4 c #FFEA73",
"5 c #FFEB7B",
"6 c #FFEC82",
"7 c #FFED89",
"8 c #FFEF94",
"9 c #FFEF99",
"0 c #FFF09C",
"q c #FFF1A4",
"w c #FFF2AB",
"e c #FFF3B2",
"r c #FFF5BC",
"t c #FFF6C4",
"y c #FFF7CA",
"u c #FFF8CF",
"i c #FFF8D3",
"p c #FFF9DB",
"a c #FFFBE5",
"s c #FFFCEC",
"d c #FFFDF3",
"f c #FFFFFF",
"g c None",
/* pixels */
"gggggggggggggggggggggggggggggggggggggggggggggggg",
"gggggggggggggggggggggggggggggggggggggggggggggggg",
"gggggggggggggggggggggggggggggggggggggggggggggggg",
"gggggggggggggggggggggggggggg ggggggggggggggggggg",
"gggggggggggggggggggggggggggg. gggggggggggggggggg",
"ggggggggggggggggggggggg ggg.O gggogggggggggggggg",
"gggggggggggggggggggggg  gg .@.ggg.gggggggggggggg",
"gggggggggogggggggg gg X.gg .&ogggggggggggggggggg",
"ggggggggg@ggggggg     +X g +-ogggggggggggggggggg",
"ggggggggggggggggg    O*o  o16O ggggggggg ggggggg",
"gggggggggggggg    Xo@*-# .>at#  ggggg gg ggggggg",
"gggggggggggggg  .+-:;:-$ .9ft%  ggggg gg ggggggg",
"gggggggggggggg .&4iaat;#+&rft% ggggg.. gX gggggg",
"gggggggggggggg O5fffd2*&;qfft% ggg X%@ g@.gggggg",
"ggggggggg gggg +0fffs04-<dfft&. g o%-o  %Ogggggg",
"gggggg g       @0fffffdw7fffs<%o$%=-&. X*OgggXgg",
"gggg     .X@+++%2sfffffffffffq---*,7*. @-O gg#gg",
"gggggg  +&2452-*-wfffffffffffi-*-2u8&.O;:@ ggggg",
"gg gggg  +rffseeedfffffffffffi;7rdp>@O%65%.ggggg",
"gg   gggg #yffffffffffffffffffrsff4%X&>y2&.ggggg",
"ggg.o.  g  ;qffffffffffffffffffffi;&@:ur-*. gggg",
"ggg #$+    +-qfffffffffffffffffffr*--rf4*%.ggggg",
"ggggo:2:oXo%*:iffffffffffffffffffw**2ft;-@ ggggg",
"gggg >sa1;=-;qffffffffffffffffffd<*>ifi:*Ogggggg",
"gggg .3fsu5qaffffffffffffffffffffr8afff7-@ ggg  ",
"ggggg O8fffffffffffffffffffffffffffffffs2&.  XXg",
"ggg    &wfffffffffffffffffffffffffffffffu-#O@%.g",
"ggggg o*wffffffffffffffffffffffffffffffff5---O g",
"ggggg #>affffffffffffffffffffffffffffffft<**+ gg",
"gggg .*5ffffffffffffffffffffffffffffffs5;&@X.ggg",
"gggg .$4ddffffffffffffffffffffffffffffe*#.    gg",
"gggg  +;>>8ffffffffffffffffffffffffffw;-@oOo ggg",
"g%ggg .&-*-efffffffffffffffffffffffffpr0--#.gggg",
"gggg  X#-**7ffffffffffffffffffffffffffs8&o.ggggg",
"ggg  +5i6>0afffffffffffffffffffffffffs2*@.gggggg",
"ggg O;8wpffffffffffffffffffffffffffffq-4-*@ggg+g",
"gggX%%$%4sfffffffffffffffffffffffffff05a,--ogg$.",
"gg .X  .%4ufddfffffffffffffffffffffffput-&@+gggg",
"gg gg  X%*7p14affffffffffffffffffffffff5%. . ggg",
"ggggg O<w>;>-*rfffffffffffffffffffffffa<O gg ggg",
"gggg X&<ap;-->iffffffffffffffffffffsew>-O gg ggg",
"gggg.OoO4siuipfffffffffffffffffffffp---*o gggggg",
"ggg  gg +7fffffffffffffffffffffffffs4*-+ ggggggg",
"gggggggg $0fffffffffffffffffffffffffa<*+ ggggggg",
"gggggggg o-wfffffffffffffffffffffffffi>$..oXgggg",
"ggggggg  .*;rffffffffffffffffffffffffft;&&+g+ggg",
"ggggg  OX@**:ufffffffffffffffffffffp556-%Ogg.ggg",
"gggggg .&:8850ffffffffffffffffffffa2*$@ogggggggg",
"ggg@ggg.#;wfddffffffffffffffffffde,&@Xgggggggggg",
"gggOgggg.@-8affffffffffffffffffs5%@ogggggggggggg",
"ggggggggggo#>wyafffffffffffffffqo.gggggggggggggg",
"gggggggggggggggggggggggggggggggggggggggggggggggg"
};
