/* XPM */
static char *result[] = {
/* columns rows colors chars-per-pixel */
"64 64 144 2 ",
"   c #080D06",
".  c #0B0F09",
"X  c #0D110B",
"o  c #10140F",
"O  c #131512",
"+  c #191715",
"@  c #161915",
"#  c #1A1A17",
"$  c #1B1D1B",
"%  c #211E1B",
"&  c #1E211D",
"*  c #22221E",
"=  c #28231F",
"-  c #1C1F22",
";  c #201F20",
":  c #1D2226",
">  c #1D2329",
",  c #1F2932",
"<  c #232521",
"1  c #2B2622",
"2  c #252A24",
"3  c #2B2B26",
"4  c #202428",
"5  c #222A2D",
"6  c #2B2E2A",
"7  c #312A26",
"8  c #342D2A",
"9  c #2C332B",
"0  c #2F382D",
"q  c #33332E",
"w  c #39312E",
"e  c #31392F",
"r  c #202A33",
"t  c #222F3A",
"y  c #23313D",
"u  c #333433",
"i  c #3C3431",
"p  c #343C32",
"a  c #393F37",
"s  c #3B3C3A",
"d  c #403734",
"f  c #403834",
"g  c #364034",
"h  c #384236",
"j  c #3C443A",
"k  c #3E493C",
"l  c #40433F",
"z  c #414E3F",
"x  c #243544",
"c  c #263B4D",
"v  c #263C50",
"b  c #283F53",
"n  c #294155",
"m  c #2C465D",
"M  c #2C4760",
"N  c #2E4A63",
"B  c #2F4E69",
"V  c #304F6A",
"C  c #2F506C",
"Z  c #31516E",
"A  c #325573",
"S  c #335877",
"D  c #345B7B",
"F  c #395E7C",
"G  c #3A607F",
"H  c #424342",
"J  c #454A44",
"K  c #4B4C4B",
"L  c #455442",
"P  c #485745",
"I  c #485946",
"U  c #4C514B",
"Y  c #4D5E4A",
"T  c #535453",
"R  c #555A54",
"E  c #585C57",
"W  c #5C5C5C",
"Q  c #4F604C",
"!  c #50614D",
"~  c #5D635C",
"^  c #60615F",
"/  c #636463",
"(  c #6C6C6C",
")  c #6F716F",
"_  c #737373",
"`  c #757B74",
"'  c #7C7C7C",
"]  c #7F807F",
"[  c #365F81",
"{  c #366184",
"}  c #396384",
"|  c #376489",
" . c #38668B",
".. c #3A698E",
"X. c #3A6C94",
"o. c #3B6F98",
"O. c #3E7096",
"+. c #3C729C",
"@. c #3D76A2",
"#. c #3E79A6",
"$. c #3E7AA9",
"%. c #406D8F",
"&. c #416E91",
"*. c #417094",
"=. c #42769E",
"-. c #46789D",
";. c #4177A0",
":. c #437AA3",
">. c #487EA6",
",. c #427DAB",
"<. c #4481AE",
"1. c #4A82AC",
"2. c #4683B1",
"3. c #4985B2",
"4. c #4C89B5",
"5. c #4D8CBA",
"6. c #508CB7",
"7. c #518EBA",
"8. c #4F90BF",
"9. c #5191BE",
"0. c #5294C2",
"q. c #5699C7",
"w. c #589AC7",
"e. c #599CCA",
"r. c #5FA0CC",
"t. c #61A2CD",
"y. c #63A4D0",
"u. c #858585",
"i. c #888887",
"p. c #8B8B8B",
"a. c #8F908F",
"s. c #90908F",
"d. c #939393",
"f. c #9B9B9B",
"g. c #A3A3A3",
"h. c #ABABAB",
"j. c #B4B4B4",
"k. c #BCBCBC",
"l. c #C3C3C3",
"z. c #CDCDCD",
"x. c #D2D2D2",
"c. c gainsboro",
"v. c #E2E2E2",
"b. c None",
/* pixels */
"b.b.b.b.b.b.b.b.b.b.b.b.b.b.b.b.b.b.b.b.b.b.b.b.b.b.b.b.b.B N M N B N b.b.b.b.b.b.b.b.b.b.b.b.b.b.b.b.b.b.b.b.b.b.b.b.b.b.b.b.b.",
"b.b.b.b.b.b.b.b.b.b.b.b.b.b.b.b.b.b.b.b.b.b.b.b.b.m M B C ..o.Z | o.o.D C N m b.b.b.b.b.b.b.b.b.b.b.b.b.b.b.b.b.b.b.b.b.b.b.b.b.",
"b.b.b.b.b.b.b.b.b.b.b.b.b.b.b.b.b.b.b.b.b.b.b.A D S S X.@.#.#.A +.,.$.#.@.[ A D A b.b.b.b.b.b.b.b.b.b.b.b.b.b.b.b.b.b.b.b.b.b.b.",
"b.b.b.b.b.b.b.b.b.b.b.b.b.b.b.b.b.b.b.b.b.N D +.#.$.$.$.4.5.4.F 1.0.4.5.$.$.$.$.#...B m b.b.b.b.b.b.b.b.b.b.b.b.b.b.b.b.b.b.b.b.",
"b.b.b.b.b.b.b.b.b.b.b.b.b.b.b.b.b.b.M N N [ $.,.4.5.0.5.>.:.7.F ..:.:.,.4.5.7.5.2.,.X.Z N N b.b.b.b.b.b.b.b.b.b.b.b.b.b.b.b.b.b.",
"b.b.b.b.b.b.b.b.b.b.b.b.b.b.b.b.M B C ..A +.5.6.:.O.*.+.X.| X.A N [ } } X.=.O.=.3.6.2.A =.} C M b.b.b.b.b.b.b.b.b.b.b.b.b.b.b.b.",
"b.b.b.b.b.b.b.b.b.b.b.b.b.b.b.A S o.:.,.X.-.*.X.X...| { D A D [ V A S S [ { ....X.X.=.%.7.1.@.[ D b.b.b.b.b.b.b.b.b.b.b.b.b.b.b.",
"b.b.b.b.b.b.b.b.b.b.b.b.b.M D @.$.$.4.3.>.} A D [ [ A A A A A A N Z S A S S D [ F S D =.1.4.2.$.#...B m b.b.b.b.b.b.b.b.b.b.b.b.",
"b.b.b.b.b.b.b.b.b.b.b.m N { @.$.5.5.>.X. .[ A V A S A S A B N m m M N A A A S A V V F } ..=.4.5.2.$.X.A m b.b.b.b.b.b.b.b.b.b.b.",
"b.b.b.b.b.b.b.b.b.b.m B X.#.,.5.:.*...D D A A A N V m b b c 5 $ - - x b b n V V V A A S D { X.*.4.2.$.+.D N b.b.b.b.b.b.b.b.b.b.",
"b.b.b.b.b.b.b.b.b.b.A +.$.3.4.+. .{ D A Z b x x x x - $ $ $ % = 1 % % $ $ $ y x x x x N A S [ | ..,.4.,.@.[ V b.b.b.b.b.b.b.b.b.",
"b.b.b.b.b.b.b.b.b.N X.$.4.1.X...D A A V x $ % % ; % 1 7 1 1 7 8 7 7 1 1 1 1 % * % % % r m A A A } X.:.5.,.#.A m b.b.b.b.b.b.b.b.",
"b.b.b.b.b.b.b.m M %.,.4.:.X.[ D A N y > ; 1 7 7 i w 1 7 w w w w d i w i w 1 7 i 8 8 7 % 4 r b A D D ..=.3.<.:.Z m b.b.b.b.b.b.b.",
"b.b.b.b.b.b.b.C Z A -.;.{ { D A m r 1 1 7 w w i w w ; 7 2 * * 3 % % * * 8 * 8 w i w w 8 1 1 1 x V A [ [ X.o.D Z Z b.b.b.b.b.b.b.",
"b.b.b.b.b.b.D o.:...A [ ..D Z v 4 1 w 7 7 7 7 7 1 * % * 9 0 g I 2 9 p p 3 * * * 1 7 8 7 1 w 8 * t N A } ..C F @.@.{ B b.b.b.b.b.",
"b.b.b.b.b.M X.,.4.1.} A D A x < 1 7 w 1 + + $ < j j p q 6 : 0 g * & * 2 j h h J u 2 # + % w w 1 % r N [ A D =.4.,.#.A b.b.b.b.b.",
"b.b.b.b.N | X.:.9.=.[ A N t % 1 8 i 1 + + 3 h ^ ~ I 6 $ @ o o & @ X o o & & k R ( U 6 $ # % 8 w 7 % 5 m V D  .6.2.:.o.Z b.b.b.b.",
"b.b.b.b.M ..o.4.:...D A n - 1 w w % # 2 j K ) ' R 3 @ $ & & & & @ & & & @ o & z ) ` R J 9 & # 7 w 7 # x V A  .%.0.,.@.A b.b.b.b.",
"b.b.b.b.N F  .5.;.} D N > $ 1 i % # 6 a _ -._ ^ 2 @ & & & & & 3 $ & 2 2 * & o @ K ( ' ' U 9 * + 7 w % # v A [ [ 4.4.$.A m b.b.b.",
"b.w.1...V S S 4.;.D A M > % 1 7 % 3 p J _ ) J u & & : 3 2 & & 2 @ $ * 2 * & & @ 6 s W ' E h 9 # 1 7 ; # c A S  .7.,...C D =.0.b.",
"b.D &.4.:.A Z 4.;.} D N > 7 i 1 * e g U E d + o @ & & * > & & 2 $ & & & & & & @ O o ; K R j 0 $ % 8 w ; c A [ ..9.,.A ..4.>.} b.",
"b.M { O.1.} Z 6.;.D A N > 1 d ; 3 p 0 & % + = d $ @ & 2 2 6 2 6 @ : 2 2 * * & o q u + + : 0 e 0 # w w % c A D  .7...Z >.;.X.V b.",
"b.N D [ D S N %.} A V m > 1 w ; 9 g * & # + ^ ( p @ & 2 2 & & 2 & & & 2 = = + = T ' 6 O & 9 p p ; 7 8 - c B V D *.A Z D D { V b.",
"b.b.m A D { | { { | | B > 1 d < 9 g 2 & @ w ( ] g O & & 2 2 2 3 & & 2 2 % % + = ( -.K - & 6 J h ; w w ; c V V A D { | | | { A b.",
"b.b.M D  ...[ [ [ [ D N - 1 w ; 9 P 9 & # H / f 2 / q . O O * 3 @ & # @ X o ^ a 6 W E 4 # < L k - 1 8 $ c Z A A D D ......D b.b.",
"b.b.M N N B B N N N N M > % 1 ; 9 ! 0 $ O # x = / d./ 2 @ . X X o X . + # z p.i.6 u 1 O # & j g ; 1 1 $ c N N N N B V N N M b.b.",
"b.b.b.b.M Z A A A N Z N - % 7 % 9 L 6 @ s 6 O < / d.h.i.( K 6 T 6 & n ^ ` d.f._ s @ O s < $ P k $ 1 1 # c A N A A A D N b.b.b.b.",
"b.b.b.b.M D { D D N Z N > ; 7 % 9 p 2 @ ` ' 6 < W ] h.l.l.k.j.x.T ~ h.k.l.h.i.^ u $ ( d.s $ I k ; 1 1 $ c Z N A { } ..Z b.b.b.b.",
"b.b.b.b.N [ ..| ..V Z N > = 1 $ 9 h 2 @ U p.u.s T ' d.g.l.x.v.v.T s.x.z.j.d.) ] H ' k.' 2 & I k $ 1 1 $ c A N D ..X.1.S b.b.b.b.",
"b.b.b.b.m X.+.X.4.F D B > 7 d ; 9 Y 9 & $ E a.d.s.i.p.p.h.z.x.c.T ' k.k.d.i.u.s.s.f.' 6 O & z j < 8 i ; c [ C [ ..@.0.F b.b.b.b.",
"b.b.b.b.N X.#.X.6.} A B > < d 1 9 Y 9 & # # W a.p.u.i.i.p.g.j.z.K ( d.s.i.i.i.i.s.' 6 @ & < p u $ i 7 % v D B ..X.@.9.F b.b.b.b.",
"b.b.b.b.M X.$.@.7.F Z N - 1 i ; 9 ! ~ q & O < W u.d.d.p.u.u.p.j.K / i.i.i.s.d.p.u.j @ # & T J 6 2 i 7 - c Z N X.@.:.2.A b.b.b.b.",
"b.b.b.b.M [ #.#.,.A V N - 7 d ; 9 Q ` s # o @ T a.f.f.f.d.s.p.j.K / p.d.f.g.g.d.' 6 . $ 2 ( U 9 : w w $ c Z B o.#.#.#.A b.b.b.b.",
"b.b.b.b.M [ @.o.@.A A N > % 7 ; 9 Q ~ ( 6 X l W -.f.g.j.k.l.h.k.K ( g.l.z.l.g.s.( T $ # R / j 9 # 1 1 $ c Z N X.o.#.#.A b.b.b.b.",
"b.b.b.b.N [ @.X.@.A Z N > 1 w % u Q H T = X T W ^ ( ( ( ) g.k.l.K _ l.d.u.) ( ^ W ^ * X J K s 9 $ 7 8 ; c Z B X.X.#.#.Z b.b.b.b.",
"b.b.b.b.M [ @.#.o.V V V - 1 d < 9 Q 2 j 2 q / ' T w $ + # u / f.H ^ W 1 O + 4 l _ _ J $ H 6 u p - w w $ c A N ..+.#.#.Z b.b.b.b.",
"b.b.b.b.M [ #.5.=.B D B > ; 7 % 9 Y 2 2 & J ( d.i.T + . . # K u.s K 8 X     u ' f.' W < 2 & k k % 1 1 $ c F B [ @.#.#.A b.b.b.b.",
"b.b.b.b.M [ ;.0.;.B [ B > 8 d ; 9 g & < @ J ( i.f.d.T d s / ) f.c T ) H s K s.l.g.` W < & & I k : 8 d ; v [ V } @.$.#.Z b.b.b.b.",
"b.b.b.b.M [ #.0.;.Z [ B > 1 d < 9 k & 2 * q W ( u.i.i.u.u.) g.l.K _ ' ' u.f.g.f.] / k > 2 & I k * i w - c [ V [ @.$.#.A b.b.b.b.",
"b.b.b.b.M [ #.,.X.B A N - 1 w % 9 Y 2 < 7 % f W ( ) ( / ( u.j.s.w _ s.' / ( ) ( ^ R & & 2 & k k $ 7 8 $ c A V [ @.$.#.A b.b.b.b.",
"b.b.b.b.N [ @. .D B Z N : 3 i < 0 Q 2 2 6 & & & H W R / _ p.T K 1 3 ] -.( R W T 3 & O * 9 & 0 g < 8 w $ c Z N S [ +.#.A b.b.b.b.",
"b.b.b.b.M ..+.[ D Z A N : 1 d ; 9 L : < 6 * & @ O e < E _ s.H K 1 3 u.u.) 9 q * O 2 2 2 & & 9 g $ w w & c S B D D X.@.Z b.b.b.b.",
"b.b.b.b.m [ } D A N Z N : 1 i < 2 p $ 2 2 2 2 9 @ X o R _ ] ( _ d T ] _ ( 2 . X 2 2 6 * * & 9 g < 7 8 % c Z N Z A [ ..B m b.b.b.",
"b.b.b.m M A B B C N Z Z > 1 8 % < p $ < 9 2 2 9 : O K ( _ ( _ s.d T _ _ ) ^ > & 2 0 2 9 2 & 0 g - 1 8 & m A N B B B Z N N N b.b.",
"b.b.b.M X.:.;.;.=. .=.:.t = 8 # & g & & 2 2 9 2 6 & T h ` ( ( p.d T / u.l E 6 & 0 2 2 9 & & k k $ 1 7 ; } <.=.:.:.:.=.:.;.A b.b.",
"b.b.b.M =.4.9.5.5.4.4.1.y % 7 * 2 Q & & & 2 2 2 2 & o X T ) / i.f T ( ( < o @ 2 2 2 * 2 & & k h < 1 1 $ ..1.4.4.4.4.4.4.1.A b.b.",
"b.b.1.A A S [ { D S D A 5 % = # 2 k & & & 2 2 9 6 6 & O J p._ p.f T p.( * @ 3 6 9 9 2 2 & & 2 g ; ; ; $ n Z A S S S D S Z N b.b.",
"b.b.9.:.X.X.} X.X.X.X..., = q & 9 g & & & & 2 & 2 2 3 # ' W ~ i.f T U u.u * 2 2 > * & & & & 9 g * 8 7 $ S O.X.X.X.X.X.X.X.>.b.b.",
",.$.4.6.7.5.7.0.0.0.0.5.x 1 d ; 9 I : & & & & & & & & & ^ 0 * Q 6 & & ~ g & & & & @ & & & @ p g % w w ; &.0.0.0.5.0.0.5.0.7.,.$.",
"3.,.D } X.o.$.,.@.+.#.o.t 1 d < 9 Q 2 & & & 0 & & 2 2 & & @ 9 Q 2 3 & @ & 2 2 & 2 6 & & & @ L k : w w % A X.+.,.#.@.@.o.o.S o.2.",
"e.2.A [ ..o.o.o.X.| [ [ 5 7 d ; 9 Q 2 $ 0 z k 2 & 2 2 & & O 9 Q 2 0 & & 2 2 2 * g k h & @ @ L k $ i w - N [  .o...........V o.0.",
"e.,.A D ..| | | D D S A 4 % 8 % 6 g 2 g k g * & & & & 2 & o 9 Q 2 9 & & & & & & & 0 k k k 2 L k $ 7 1 $ m A S D [  .| | | V o.0.",
"e.4.[ A A A S A A A A Z > % 1 % 2 0 k k g : & & 2 & & g 0 2 0 Q 2 0 2 2 h 6 & & : & 0 h k p g q $ 1 ; $ m Z Z Z A A S A A A +.q.",
"e.e.5.2.2.2.2.2.3.2.2.2.x % 7 # 2 0 g g 9 & X & & 2 & & k z k Q 2 0 k I & O & & & & * e p p p 9 $ 1 1 $ ..3.3.3.2.3.2.2.2.3.q.e.",
"&.,.5.4.4.4.4.4.4.4.>.>.t % ; % 2 0 0 g g 2 0 g g g g g g 0 0 Q 2 2 e g g g g 9 0 g g g e 9 9 9 $ ; % $  .>.4.5.4.5.4.1.>.,.3.-.",
"M | @.$.$.$.$.$.o.X...[ r % % + & 6 2 2 0 g g g g g g g 9 2 2 z 2 & 6 9 0 g g 0 g g g 0 9 6 6 2 $ $ % % A  .X.X.@.#.#.#.@.....B ",
"M [ ..@.@.#.@.o... .[ [ t - > - > > > : > > > > > : > : > > > , > > > > > > 5 5 > > > > > > > > : > > - V [ [ ..X.+.o.@.@.o.| B ",
"M [ ..| [ } { } [ D A S c b B Z C B N N N m N N N N C B N N N N N N N N N N N N N N M M N N N N N N M v B S S [ | [ [ [ |  ...B ",
"M B A B B B V V V V V Z M A [ o.+.| { { D C C S G { X. .G { { { { { { G { G G { [ D N A [ { { { [ D A N B B V V B B B B B Z A N ",
"M B A A [ [ [ [ [ [ [ [ [ | o.#.#.@.@.@.@.D S { +.#.,.$.#.#.#.#.+.$.$.$.#.$.#.#.o.} A [ ..O.@.@.X...| [ A A D [ [ [ [ [ [ [ [ B ",
"M A [ o.:.2.,.2.,.:.#.,.,.,.2.2.<.<.<.$.$.{ | +.$.5.q.q.q.q.q.2.<.8.q.q.q.r.q.3.,.O.[ } X.,.2.2.,.,.2.;.-.X...X.X.X.X.X.X.X. .B ",
"M [ o.7.e.e.e.e.t.0.4.q.y.e.e.e.q.r.r.5.$.{ +.$.2.r.r.r.r.r.r.q.q.r.r.r.r.r.r.r.e.5...X.2.q.e.w.w.t.e.w.t.9.6.6.4.4.4.2.$.+.X.Z ",
"N | $.0.e.e.e.e.r.t.e.e.r.e.e.e.r.r.q.r.<...+.$.2.2.2.2.4.0.r.r.q.r.r.q.r.r.r.r.e.w.+.@.2.4.4.4.0.t.y.e.r.t.r.r.e.e.w.w.0.5.4.D ",
"[ ..o.=.;.=.=.;.;.;.=.;.=.;.@.:.+.$.+.+.o.X.X.o.o.X.o.o.o.+.+.+.#.+.-.O.-.1.+.<.;.=.X.X.X.X.X.X.=.=.>.:.;.;.;.;.;.;.;.=.;.;.;.| "
};
