/* XPM */
static char *result[] = {
/* columns rows colors chars-per-pixel */
"32 32 102 2 ",
"   c #171A15",
".  c #191D17",
"X  c #1B1E1A",
"o  c #1D221D",
"O  c #22241F",
"+  c #232522",
"@  c #2B2624",
"#  c #252A24",
"$  c #2C2A26",
"%  c #242629",
"&  c #27292C",
"*  c #2B2B2A",
"=  c #302926",
"-  c #322C28",
";  c #283027",
":  c #2D332C",
">  c #32312D",
",  c #31392F",
"<  c #252C32",
"1  c #282F35",
"2  c #25323D",
"3  c #2C333A",
"4  c #333531",
"5  c #343C33",
"6  c #3B3E3A",
"7  c #374135",
"8  c #394337",
"9  c #3B433A",
"0  c #3D493B",
"q  c #40413F",
"w  c #404A3E",
"e  c #253544",
"r  c #273947",
"t  c #273949",
"y  c #283B4A",
"u  c #2A4257",
"i  c #2B445B",
"p  c #2D4B64",
"a  c #2F4E69",
"s  c #304F6B",
"d  c #2F506C",
"f  c #30516D",
"g  c #325574",
"h  c #335877",
"j  c #345B7B",
"k  c #385F7F",
"l  c #434443",
"z  c #454A45",
"x  c #4C4D4B",
"c  c #4F504F",
"v  c #535453",
"b  c #585D57",
"n  c #5B5C5B",
"m  c #5F615E",
"M  c #646564",
"N  c #6B6C6B",
"B  c #70716F",
"V  c #737373",
"C  c #787977",
"Z  c #7A7B7A",
"A  c #365F81",
"S  c #366184",
"D  c #396486",
"F  c #376489",
"G  c #39668A",
"H  c #3A698E",
"J  c #3C6D93",
"K  c #3B6F98",
"L  c #3F7197",
"P  c #3D729B",
"I  c #3D76A2",
"U  c #3F79A5",
"Y  c #417296",
"T  c #41749B",
"R  c #437BA4",
"E  c #447EAA",
"W  c #4581AD",
"Q  c #4A83AE",
"!  c #4683B1",
"~  c #4A86B2",
"^  c #4D8AB6",
"/  c #4E8DBA",
"(  c #508CB7",
")  c #518EB9",
"_  c #4F90BE",
"`  c #5390BB",
"'  c #5394C3",
"]  c #5699C7",
"[  c #5899C6",
"{  c #579AC8",
"}  c #5A9DCA",
"|  c gray53",
" . c #878887",
".. c #8C8C8C",
"X. c gray58",
"o. c #9E9E9E",
"O. c #A3A3A3",
"+. c gray68",
"@. c #BCBCBC",
"#. c gray76",
"$. c #CECECE",
"%. c None",
/* pixels */
"%.%.%.%.%.%.%.%.%.%.%.%.%.s A j A A f %.%.%.%.%.%.%.%.%.%.%.%.%.",
"%.%.%.%.%.%.%.%.%.%.%.S J K R Y R E I J G %.%.%.%.%.%.%.%.%.%.%.",
"%.%.%.%.%.%.%.%.%.h A E E R T H D K R E W H k s %.%.%.%.%.%.%.%.",
"%.%.%.%.%.%.%.S K R Y G D A j h s h A S D J Q T F %.%.%.%.%.%.%.",
"%.%.%.%.%.a F E E Y j s f p i e e u p s s j H E E J d %.%.%.%.%.",
"%.%.%.%.%.J E P A f y 1 < @ @ O @ @ @ < < 2 s j K W P g %.%.%.%.",
"%.%.%.%.h R J j u < = - - @ > > - - $ = - @ & y g H T k a %.%.%.",
"%.%.%.J T k j y @ = O $ 5 $ # , + $ : , > @ @ - 2 g k P P %.%.%.",
"%.%.k R R h e @ = O 5 n z + o o . . o 9 m q O = $ 2 a P ! F %.%.",
"%.H g Y Y s % @ O 6 N v + o o o X + o X z N w O @ + p F ~ F D %.",
"%.Y G H J p & @ ; 5 > @ o o + # o + o X O - 7 ; @ = i H R D Y A ",
"%.g k D S s & $ : O @ n * o + + o O o + n > O 7 @ = y j S A D %.",
"%.s j g g a % @ 8 # + 6 n 6   . .   & m u - O 7 @ + i f g j h %.",
"%.%.a j f p % @ 5 # x 1 V o.| Z x Z X.Z 4 x - w @ O i d j h %.%.",
"%.%.j J G a & @ 5 # v V C X.#.$.Z @.o.Z Z B % 9 @ @ i g P Y %.%.",
"%.%.A U Y p & - 0 6 X b ....X.O.N ....X.B + * 5 * @ i j R Y %.%.",
"%.%.h I H p @ $ w b o q ..O.O.O.N o.+.X.b . x q O @ u j U H %.%.",
"%.%.h I S p & $ 9 q $ m v q n X.M B x v M - q , O = i j I H %.%.",
"%.%.h E H a & $ , @ 4 Z Z 4 4 V v y : Z  .u # 8 = $ i k I H %.%.",
"%.%.h R D a & - 7 # $ v C C Z X.m Z C | M ; # 8 = $ i k I H %.%.",
"%.%.j J h p & $ 7 ; # o , x Z v 6 C b 6 O O + , = $ u g H F %.%.",
"%.%.g j f d * @ $ o ; ; O u V B x V v o @ ; o , $ $ p f j h p %.",
"%.%.K R T Y 1 O , # + ; # , M V v N 6 @ # ; O 7 + @ D R T R D %.",
"%.T G J J G & + : O o + ; O m N x M @ O # O o : @ % h H J J H %.",
"E T R ! W R 3 $ 7 + O O O # : 8 ; : ; o # o o 7 * - H E E E R R ",
"~ j D H S g & @ 5 ; 7 ; o # o 7 : o # O : 5 # 9 $ & s A G G A R ",
"` Y K K Y D < O : 8 ; o O # , 0 , , ; o O , 5 , + + j Y Y K J ) ",
"K W ~ W R Y < X # ; : : 7 , : 7 ; : , : , , : % X + D R E E R J ",
"h H J H A g e t t t r r y y r r r r r y y r r t e e s A H H H h ",
"a g h j j h j K K J S j J P L L J L L L A h G J D h g g h h A f ",
"f K ^ / ^ ~ ) ' _ ^ P P ^ ] { ' ' { { { ~ H E ) ) ) ~ E E R P A ",
"A E ) ) ) ^ ) ^ ^ ^ P P U E Q ( ^ ( ) ` ^ P E E ) ) ) ) ^ ^ E J "
};
