/* XPM */
static char *result[] = {
/* columns rows colors chars-per-pixel */
"64 64 138 2 ",
"   c #080C06",
".  c #0B0F09",
"X  c #0D110C",
"o  c #13110E",
"O  c #151513",
"+  c #191714",
"@  c #161915",
"#  c #1A1A17",
"$  c #1C1D1B",
"%  c #211E1C",
"&  c #1E211D",
"*  c #23231F",
"=  c #29231F",
"-  c #1C1F22",
";  c #1D2226",
":  c #1D2329",
">  c #1F2A33",
",  c #222521",
"<  c #2C2623",
"1  c #252A24",
"2  c #2B2B26",
"3  c #222B2D",
"4  c #2B2D29",
"5  c #312A26",
"6  c #342D29",
"7  c #2D332B",
"8  c #33332E",
"9  c #39312E",
"0  c #31382F",
"q  c #202A32",
"w  c #222F39",
"e  c #23313C",
"r  c #333332",
"t  c #3C3431",
"y  c #353C33",
"u  c #383D37",
"i  c #3B3D3B",
"p  c #403734",
"a  c #403835",
"s  c #364134",
"d  c #384236",
"f  c #3C443A",
"g  c #3D493C",
"h  c #40453F",
"j  c #414E3F",
"k  c #243544",
"l  c #273C4F",
"z  c #273D50",
"x  c #293F53",
"c  c #294055",
"v  c #2C465D",
"b  c #2D4760",
"n  c #2E4A63",
"m  c #2F4E69",
"M  c #304F6A",
"N  c #2F506D",
"B  c #31516E",
"V  c #325573",
"C  c #335877",
"Z  c #345B7B",
"A  c #385E7C",
"S  c #39607F",
"D  c #444443",
"F  c #444943",
"G  c #494E47",
"H  c #4C4D4B",
"J  c #455342",
"K  c #485745",
"L  c #495947",
"P  c #4C524B",
"I  c #4D5E4A",
"U  c #50514F",
"Y  c #545554",
"T  c #575856",
"R  c #5C5C5C",
"E  c #4F604C",
"W  c #51624E",
"Q  c #536051",
"!  c #5D635C",
"~  c #636463",
"^  c #676866",
"/  c #686768",
"(  c #6C6C6C",
")  c #6F706E",
"_  c #737373",
"`  c #767976",
"'  c #7C7C7C",
"]  c #355F81",
"[  c #366184",
"{  c #386385",
"}  c #376489",
"|  c #38668B",
" . c #3A698E",
".. c #3A6C94",
"X. c #3B6F98",
"o. c #3F7197",
"O. c #3D729C",
"+. c #3D76A2",
"@. c #3E79A6",
"#. c #3E7AA9",
"$. c #406C8E",
"%. c #416E91",
"&. c #417296",
"*. c #42769E",
"=. c #45789F",
"-. c #4177A1",
";. c #427AA3",
":. c #4A7FA6",
">. c #427EAB",
",. c #807F80",
"<. c #4481AE",
"1. c #4A83AD",
"2. c #4683B1",
"3. c #4985B3",
"4. c #4C89B6",
"5. c #4D8CB9",
"6. c #508BB4",
"7. c #518EB9",
"8. c #4F90BF",
"9. c #5291BE",
"0. c #5294C2",
"q. c #5699C7",
"w. c #599CCA",
"e. c #5FA0CC",
"r. c #61A2CD",
"t. c #63A4D0",
"y. c #848484",
"u. c #8B8B8B",
"i. c #939394",
"p. c #9C9C9C",
"a. c #A4A4A4",
"s. c #ABABAB",
"d. c #B3B3B3",
"f. c gray74",
"g. c #C3C3C3",
"h. c #CACACA",
"j. c #D0D0D0",
"k. c None",
/* pixels */
"k.k.k.k.k.k.k.k.k.k.k.k.k.k.k.k.k.k.k.k.k.k.k.k.k.k.k.k.k.m n b n m n k.k.k.k.k.k.k.k.k.k.k.k.k.k.k.k.k.k.k.k.k.k.k.k.k.k.k.k.k.",
"k.k.k.k.k.k.k.k.k.k.k.k.k.k.k.k.k.k.k.k.k.k.k.k.k.v b m B  .X.B  .X.X.C B n v k.k.k.k.k.k.k.k.k.k.k.k.k.k.k.k.k.k.k.k.k.k.k.k.k.",
"k.k.k.k.k.k.k.k.k.k.k.k.k.k.k.k.k.k.k.k.k.k.k.V C V C X.@.#.;.B O.>.#.@.+.] V C C k.k.k.k.k.k.k.k.k.k.k.k.k.k.k.k.k.k.k.k.k.k.k.",
"k.k.k.k.k.k.k.k.k.k.k.k.k.k.k.k.k.k.k.k.k.b Z +.#.#.#.#.3.4.4.C 3.7.5.5.>.#.#.#.@.} m b k.k.k.k.k.k.k.k.k.k.k.k.k.k.k.k.k.k.k.k.",
"k.k.k.k.k.k.k.k.k.k.k.k.k.k.k.k.k.k.v n n ] #.>.5.5.7.5.1.;.9.A %.;.;.;.4.5.5.5.>.>...m n n k.k.k.k.k.k.k.k.k.k.k.k.k.k.k.k.k.k.",
"k.k.k.k.k.k.k.k.k.k.k.k.k.k.k.k.b m V } B -.4.7.;.O.O.&.| | ..V n ] { | ..*.*.*.4.7.2.V ;.] m b k.k.k.k.k.k.k.k.k.k.k.k.k.k.k.k.",
"k.k.k.k.k.k.k.k.k.k.k.k.k.k.k.V Z X.;.>...*.&... .| } [ Z Z V Z M V Z C ] [ | | ..%.=.$.7.1.+.] C k.k.k.k.k.k.k.k.k.k.k.k.k.k.k.",
"k.k.k.k.k.k.k.k.k.k.k.k.k.b Z +.#.>.3.3.:.{ V Z ] ] Z V V V C V n M V C C V ] ] ] V Z -.1.4.>.#.#.} m v k.k.k.k.k.k.k.k.k.k.k.k.",
"k.k.k.k.k.k.k.k.k.k.k.v n [ @.#.4.7.>...{ ] V M V V V V V M v v v b n V C V C V M B Z {  .-.6.7.2.#...N v k.k.k.k.k.k.k.k.k.k.k.",
"k.k.k.k.k.k.k.k.k.k.v m ..#.2.5.;.O. .Z Z V V B n M v x x l 3 $ - - k x x x M M M V V Z A ] ..*.3.3.#.+.C b k.k.k.k.k.k.k.k.k.k.",
"k.k.k.k.k.k.k.k.k.k.C O.#.2.3.O.} ] Z C B l k k k k ; $ $ $ * = < % % $ $ $ w k k k k n V C ] { ..1.3.#.+.[ m k.k.k.k.k.k.k.k.k.",
"k.k.k.k.k.k.k.k.k.n X.#.3.1...| Z V V m e - = % % % = 5 < < 5 6 6 5 < < < < $ = $ = % q v V C V } | ;.4.>.#.V v k.k.k.k.k.k.k.k.",
"k.k.k.k.k.k.k.b b $.>.4.:...Z Z C n w : % < 6 2 p 6 < 6 9 p 9 9 t t 9 p 6 < 2 t 6 6 5 % , q x V Z Z | *.3.1.=.B v k.k.k.k.k.k.k.",
"k.k.k.k.k.k.k.B B V ;.*.[ [ Z V c q < < 5 9 9 9 t 9 % 5 * @ % + % # % % 6 % 6 t 9 9 9 5 < < , l N V { ] ..O.C N B k.k.k.k.k.k.k.",
"k.k.k.k.k.k.Z X.;.$.B {  .Z B l , < 9 5 < 5 6 6 , % % , * + o o o o + o + + % = 2 6 6 5 < t 6 - e n V | | B { +.+.[ m k.k.k.k.k.",
"k.k.k.k.k.n X.>.4.:.{ V Z V k - < 6 9 = # * , t u 0 0 2 * @ + O o o o o o 9 y F r , # # % 6 9 < * q n Z V Z *.4.#.@.V k.k.k.k.k.",
"k.k.k.k.b } ..#.7.*.] B n w % < 6 t , # # y ~ ~ L 1 & X X @ & O o O o X O ; , H ( P 2 # # % 6 9 5 = : c V C  .7.2.#.X.m k.k.k.k.",
"k.k.k.k.n ....4.-...Z V x - < 9 6 % $ 1 h ( ' Y : @ & & & & & @ O o @ & & @ O f _ ` Y F 8 $ $ 5 9 5 $ k M V { %.7.>.#.B k.k.k.k.",
"k.k.k.k.b [  .7.*.] Z n : # 5 9 % $ 2 u ) ` R < @ & & & & & & @ O o X & , , & @ P ) ' ' F 7 & # 9 6 % $ z V ] ] 7.2.#.V v k.k.k.",
"k.w.:. .B V Z 6.*.Z V b : % < 5 % 2 s G ( G r ; & 1 1 1 & & & @ o O & & * 1 & @ 4 i ~ ` Y f 7 # < 5 - $ z V Z | 0.>. .m ] *.0.k.",
"k.A &.4.-.V V 6.*.] C b : 5 t = * 0 h j Y , O @ & & & 1 & * & + O O & ; * & & O O X 3 H Y f 7 & $ 6 9 % z V ]  .7.:.V  .3.:.{ k.",
"k.b [ O.1.] V 6.+.] V n : 5 t = 2 s 8 = $ 4 r $ & & & 1 4 1 & O O o & 1 1 ; & @ r r @ @ , 0 y 7 $ 9 9 - l V Z  .7.| V >.*...M k.",
"k.b Z ] Z C n $.] B m b - 5 9 - 7 s = # = ^ / r & & 1 * & & & + o O & & , , , 3 Y _ 4 o & 0 u y - 6 6 % l M M C &.B V Z Z [ n k.",
"k.k.b V Z [ } | } } } m : < t = 7 s = % + ^ :.i X & & 1 4 1 & + o @ ; 1 2 & $ , ( ' H - & 2 j d % t 9 $ l M M C Z { } } } [ V k.",
"k.k.b ] |  .[ ] ] [ Z n : < 6 - 0 j 7 * @ Y i 1 ~ 2 X o @ $ $ O o O * & X . X & 4 ~ T - $ , J f $ 5 5 - z V V C Z Z | ..| Z k.k.",
"k.k.b n n m m n n b n v - % 2 % 0 E 7 & O i & / i.~ ; @ . . . o o O X . @ & F ) 2 y , O # & f s - < < # l n b n n m m n n b k.k.",
"k.k.k.k.b N V V C n N n : % 5 $ s j 1 @ i - < ~ i.s.y.^ U G G % o O & u ! ` i._ u O + k ; & K g % < < # l B n V V V Z n k.k.k.k.",
"k.k.k.k.b Z [ Z C n B b - < 5 % 7 s * @ _ u 1 ~ y.s.g.g.f.s.u.4 o @ T u.d.h.a.^ t = ) i.7 & L g , < < $ l V n V [ {  .M k.k.k.k.",
"k.k.k.k.b [  .}  .N B n : = < $ 7 d * & K _ i Y ' i.a.g.j.j.i.2 o # ( u.f.d.i.u.f y.f._ & & L g $ < < $ l V n ]  ...1.C k.k.k.k.",
"k.k.k.k.b ..O...4.A Z N : 6 p % 7 E 7 & $ ' i.i.u.u.u.d.h.g.i.4 o @ ( u.s.i.y.i.i.p.` 4 @ & J f - 9 t % z ] M ]  .-.9.A k.k.k.k.",
"k.k.k.k.n X.#...6.A V n : = t , 0 E 7 & $ ! u.u.y.u.y.u.a.i.,.4 o O ( u.u.y.y.u.i._ 4 O & , y 7 - t 5 $ z Z m } ..@.9.Z k.k.k.k.",
"k.k.k.k.n ..@.+.9.A N v : = t , 0 E ! 2 & 1 ! y.i.i.u.y.y.u.,.4 o + ( u.y.y.i.u.y.i @ & & Y D 7 , t 6 $ z B m X.+.;.2.V k.k.k.k.",
"k.k.k.k.b [ @.#.>.V B b : < t = 0 W ` i & $ T u.p.p.a.i.i.y.y.4 o + ( u.i.p.a.p._ 4 o $ 1 ( G 7 ; 9 6 $ l V n ..#.#.@.B k.k.k.k.",
"k.k.k.k.b ] +...+.B B n : % 5 % 0 W ! / , D R y.p.a.d.f.g.s.y.6 o + ) a.g.h.f.i./ Y $ @ R ~ f 7 $ < < $ l B M ..X.+.@.N k.k.k.k.",
"k.k.k.k.b ] +...O.V B n - 5 9 - 0 I h U & P R R ~ ( / ) a.f.i.6 o O ) f.i.,._ R R R & X D H u 7 $ 6 6 % l V n ....+.@.V k.k.k.k.",
"k.k.k.k.b [ @.;.X.B B m - < t = 0 I 1 D ; R ' Y r # @ # r / u.9 o + / R , + % k ` _ F # D 4 0 y $ t 6 - l V m | +.@.@.N k.k.k.k.",
"k.k.k.k.b { @.4.X.m Z m : = < % 0 K , 7 @ R i.u.H O     % H y.6 o # / i X   . ) p.' R & 1 & j g * < < % x Z m [ +.#.@.V k.k.k.k.",
"k.k.k.k.n ] @.0.*.m ] m : 6 p - 8 u & & @ R u.p.i.U i i ~ ) u.p o + / _ G i U s.p.` R & & & L g $ 9 p - x ] B [ +.#.@.B k.k.k.k.",
"k.k.k.k.b ] @.q.O.m ] m - 5 p , 0 g & 1 ; Y ) y.u.y.y.y.) a.i.p o + ( ' ,.y.p.p.' ^ g & 1 & j g ; 9 9 $ l [ B [ @.#.+.B k.k.k.k.",
"k.k.k.k.b ] +.>...m V b : < 9 % 0 E 4 , 4 H R ( ) ( / ( u.d.p.p o + ) u.` / ( ) ! U & & 7 & j g % 6 6 $ z V n [ +.@.@.V k.k.k.k.",
"k.k.k.k.b [ +.} Z m B v : 2 p % 0 E 1 * 7 & & F R Y / _ u.Y T < o O 3 ,.' ( T H 1 & @ , 7 & 7 s & 9 9 % l V n C ] +.@.N k.k.k.k.",
"k.k.k.k.b ..O.] Z N C n ; 2 p - 7 j ; 1 7 1 & @ y & R _ i.F h = o o 4 ,.' ( 1 O @ , 1 1 & & 7 s ; 9 9 $ l C n A Z ..O.B k.k.k.k.",
"k.k.k.k.b ] [ C V n B b ; < 9 % 1 y & 1 1 1 1 X X X T _ =.) ) 5 o + Y ,.` ( , X & 7 4 1 * & 7 s & 6 6 $ l V n B V ] } m v k.k.k.",
"k.k.k.b b B B N N b B B 3 < 6 % 1 0 & & 7 7 7 1 @ P / _ _ _ i.9 o + R _ ) ( ~ 7 7 4 4 7 1 & 0 s & < 6 $ v V n B m m B m n n k.k.",
"k.k.k.n ..;.*.+.*. .*.;.w = 6 $ 1 s & & 1 7 1 7 @ T u ` ( ^ u.8 o O R / ,.l ! f 1 1 7 1 & & g g $ < 5 - | >.;.*.-.;.-.-.+.B k.k.",
"k.k.k.b ;.5.8.8.4.4.4.1.w % 2 $ 1 K 1 & & 1 * 1 & O X T ) ~ u.8 o + Y _ / < X * 1 1 & 1 & & g d * < < $ $.1.4.4.4.6.4.6.1.B k.k.",
"k.k.1.B B C Z [ A C C V 3 % = & 1 g & & & 0 7 7 2 & o G u.` u.8 o O Y u./ & # 4 7 7 1 1 & @ 7 s % = % $ v N V Z C C Z C B n k.k.",
"k.k.9.:.....|  ....... .q = 8 & 7 s & & & & & 1 1 1 $ ' R ~ u.0 o O Y U y.9 * 4 : * & & & & 7 s * 6 5 - C ................:.k.k.",
"#.#.5.9.5.5.5.0.0.8.9.5.k = a = 0 K ; & & & & & & & & ! 7 * W 1 X @ & & ~ s & & & & & & ; @ y s $ t 6 ; &.0.0.0.7.0.0.5.0.7.>.#.",
"3.#.V { X.X.#.#.@.@.#.O.w 2 p * 0 E 1 & & & 1 & 1 1 & & @ 7 E * o @ 1 & & & 1 1 1 4 & & & @ J f , 9 9 - C ..O.>.+.+.+.X.X.C X.2.",
"w.<.B [  .X.O.X. . .[ Z q 5 t , 0 E 1 @ 7 d 1 1 1 1 & & @ 7 E * o O 7 & & & 1 & s g d & @ @ J g - t 6 % M ] | .... . . .} m X.q.",
"w.<.N Z } } } } Z C V B 3 % 6 % 1 g 1 s g 1 & & & & 1 & @ 0 E * o O 7 & & & & & & 7 g j g , J f % 5 < $ b V C Z ] | ]  .] m X.q.",
"e.3.Z V V V Z V B V V M : % < % 1 s g g s & & & 1 1 s 7 1 s E * o O 7 4 * g 1 & & & s d f y s 0 $ < = # b B B V V V V V C V ;.q.",
"e.w.4.2.3.2.2.2.2.2.3.>.w % 5 $ 1 0 s s 7 & & & & & & g g s E * o O 0 J K & X & & & & 0 y y y 7 $ < = $ ..2.2.2.3.2.3.3.2.3.q.w.",
"..<.5.5.5.4.4.4.5.5.3.:.w % < # 1 7 7 s s s s s s s s 7 s s L 1 o O 4 0 s s s 7 s d d s 0 0 0 4 $ < % $  .>.6.5.5.5.5.>.>.>.2.&.",
"v [ +.@.#.#.#.@.X. .| ] q # % + 1 1 1 1 s s s s s s s 7 1 7 g * o @ & 1 1 0 s 0 0 s s 7 7 2 1 4 # $ % $ V | ....+.#.@.+.-... .m ",
"b ] ..+.+.+.+.X. .| Z ] > - - - : : : : : : : : : : : : : : > ; & ; ; : : : : > 3 - : : - : 3 - - - - - B ] ] |  .+.X.+.@.X.| M ",
"b ]  .{ ] { { { ] Z C C z b n B N n n n v v v n n n m n n n v n b n n n n n n v n n b n n m n n m n n l M C Z ] ] ] ] ] ]  .| m ",
"b B V M M M M M M M M B n V ] X.O.} [ [ [ N N C S [ o.} { [ [ [ [ [ [ [ { { { { ] Z n V ] ] ] ] ] Z C m n M M M M m m m m V V n ",
"b m V V ] ] ] ] ] ] ] ] ] } O.#.#.@.O.+.O.Z C } O.@.<.@.@.@.@.+.+.@.@.@.@.@.#.O...{ C ] | +.+.+.X.| { ] V V Z ] ] ] ] ] ] ] ] n ",
"b V ] X.>.>.>.2.>.;.;.>.>.>.2.2.2.2.2.#.@.[ } +.#.8.q.q.q.q.q.3.2.8.q.9.q.q.q.4.>...] { X.>.3.>.>.>.>.;.&...................| m ",
"b ] X.0.w.w.w.w.e.0.4.q.e.w.w.w.q.e.q.5.#.[ O.#.4.q.e.e.e.e.e.q.e.e.e.e.e.t.t.e.w.5.| ..>.q.w.w.w.e.e.w.e.9.7.7.4.4.3.4.;.X...m ",
"n  .#.0.w.w.w.w.e.t.w.w.w.w.w.w.e.e.q.e.>. .+.#.2.4.2.4.4.0.e.q.q.q.q.e.e.t.e.e.w.q.*.+.3.5.4.3.q.e.t.w.e.r.r.e.w.w.q.q.0.5.4.C ",
"]  ...*.-.*.*.-.-.-.-.-.-.-.;.;.O.@.O.O.................o.O.O.<.O.O.<.O.=.O.=.=.-.-. ...X.......*.-.:.-.-.*.-.-.-.-.-.-.-.;.-.] "
};
