/* XPM */
static char *result[] = {
/* columns rows colors chars-per-pixel */
"32 32 81 1 ",
"  c #15110F",
". c #151210",
"X c #191614",
"o c #191916",
"O c #1C1C19",
"+ c #221E1B",
"@ c #1E211D",
"# c #23221E",
"$ c #242524",
"% c #2B2623",
"& c #252A24",
"* c #2D2925",
"= c #252729",
"- c #262A2D",
"; c #2B2B2B",
": c #322B27",
"> c #332C2A",
", c #2F302F",
"< c #32332D",
"1 c #30392F",
"2 c #252D34",
"3 c #2B2E31",
"4 c #2D3136",
"5 c #25333F",
"6 c #343432",
"7 c #383731",
"8 c #353934",
"9 c #393832",
"0 c #3C3E3B",
"q c #3E403D",
"w c #40413F",
"e c #253543",
"r c #273846",
"t c #273A49",
"y c #2A3F50",
"u c #2B4053",
"i c #2B455C",
"p c #2D4A63",
"a c #2F4E6A",
"s c #2F506B",
"d c #30516D",
"f c #325573",
"g c #335877",
"h c #345B7B",
"j c #385E7D",
"k c #444544",
"l c #4D4C4C",
"z c #565656",
"x c #355F81",
"c c #366184",
"v c #396385",
"b c #376489",
"n c #39668A",
"m c #3B698D",
"M c #3C6D93",
"N c #3F7197",
"B c #3D719A",
"V c #3D76A3",
"C c #3F79A6",
"Z c #406F93",
"A c #417094",
"S c #41759C",
"D c #44789F",
"F c #4277A0",
"G c #437BA5",
"H c #447EAA",
"J c #4581AD",
"K c #4983AE",
"L c #4583B1",
"P c #4A86B2",
"I c #4E8AB5",
"U c #4D8CBA",
"Y c #508CB7",
"T c #518EB9",
"R c #4F90BE",
"E c #5390BB",
"W c #5395C3",
"Q c #5698C6",
"! c #579AC8",
"~ c #5B9DCA",
"^ c None",
/* pixels */
"^^^^^^^^^^^^^axgxxa^^^^^^^^^^^^^",
"^^^^^^^^^^^bMBHMHHBMn^^^^^^^^^^^",
"^^^^^^^^^fxHHHSnnSGHHnj^^^^^^^^^",
"^^^^^^^cBHZnvjggdgxcnZKBb^^^^^^^",
"^^^^^snHHMhdapueeuiddhMGHms^^^^^",
"^^^^^MJBxdr22$=%%%=22edhBHBf^^^^",
"^^^^jFMgy3:>:*%%%%*:>:;ygMBja^^^",
"^^^MSxgr::++X......X+#*:egjBB^^^",
"^^jGSfe**X  . ...... .X*%5fSJv^^",
"^mgSMp$*+   ...... .. X#%$pnKcn^",
"^SnMMp;*$OX .........Xo&>;imDnSj",
"^gjvxp;%0;o . ... ...o$&<;ihjcc^",
"^dgggp=+88X......... .=,>$uffhg^",
"^^sgsi$+#r+........  ;l;;$pdhf^^",
"^^jMnp=#ll*O..... ..X6z8<*igBZ^^",
"^^cCAp;%7z>O........o6l&<=pxCZ^^",
"^^hVbp=*0k4O ..... .O<k6<;ixVb^^",
"^^gVxi;*l4@o........o$;09=ixVb^^",
"^^gKvp;%0<o ... ....X@<w9%pxCb^^",
"^^hHxa;%0k$....... .o;l47;phVn^^",
"^^xMfp;%&q;o....... .4q&9;ifMc^^",
"^^ggdp;%@;>o.. . ...Xqq&<;pdgga^",
"^^MGSM-#@@=X .......X;&&<;mDFFx^",
"^SmMMv-#@OO.... ... .#@&<=jMMmm^",
"HSGLHB4;@@O...... ...o@@<4MKKHSH",
"Phnmcf;%@@O..........o&17*scbbgK",
"EBMMMc=$$OX ...... ..o#1,&cMNMBU",
"MKLKGM=O@X. .        .O&#$mGKJGM",
"fmMmxferteeeerereeeereeerefvbmmf",
"agghhhhMBMxhMBMMMMMMxgbMvhdfgghd",
"dVIUIIUWUUMBUQ!WW!~QKmLUTIKHGGVg",
"xHTUTITIUUMVGHKYUUTEIBHHTETTIILm"
};
