/* XPM */
static char *fed704fd3d234e3d875cbf85b3d90e222jrwi1gaGuFYfIaD[] = {
/* columns rows colors chars-per-pixel */
"64 64 151 2 ",
"   c None",
".  c #0F120C",
"X  c #15110F",
"o  c #151210",
"O  c #191614",
"+  c #161915",
"@  c #1B1916",
"#  c #1C1D1C",
"$  c #221E1B",
"%  c #1E211D",
"&  c #23211E",
"*  c #28231F",
"=  c #1B1E22",
"-  c #1C2125",
";  c #1E252B",
":  c #242423",
">  c #2B2522",
",  c #252A24",
"<  c #2D2925",
"1  c #21262A",
"2  c #20282E",
"3  c #2C2D2C",
"4  c #312B27",
"5  c #332D29",
"6  c #2D322B",
"7  c #33342D",
"8  c #39312E",
"9  c #32382F",
"0  c #212B33",
"q  c #222F3A",
"w  c #323332",
"e  c #3C3531",
"r  c #353A32",
"t  c #3C3935",
"y  c #3C3D3C",
"u  c #413B37",
"i  c #374035",
"p  c #3D493B",
"a  c #243544",
"s  c #263A4B",
"d  c #293F53",
"f  c #2A4257",
"g  c #2B455C",
"h  c #2C4760",
"j  c #2E4A64",
"k  c #2F4E69",
"l  c #304D66",
"z  c #304F6A",
"x  c #2F506C",
"c  c #31526E",
"v  c #325573",
"b  c #335877",
"n  c #345B7B",
"m  c #39607F",
"M  c #444443",
"N  c #4C4C4B",
"B  c #504F4F",
"V  c #4F504F",
"C  c #535353",
"Z  c gray35",
"A  c #355E81",
"S  c #366184",
"D  c #396485",
"F  c #376489",
"G  c #38668A",
"H  c #39688E",
"J  c #3B6C94",
"K  c #3B6F98",
"L  c #3E7097",
"P  c #3C729C",
"I  c #3D76A2",
"U  c #3E79A6",
"Y  c #3E7AA9",
"T  c #416F92",
"R  c #407096",
"E  c #427194",
"W  c #40729A",
"Q  c #437499",
"!  c #44759A",
"~  c #41759D",
"^  c #43779F",
"/  c #45779C",
"(  c #42769E",
")  c #45789D",
"_  c #46799F",
"`  c #4077A1",
"'  c #4378A0",
"]  c #4379A2",
"[  c #447AA3",
"{  c #427BA7",
"}  c #437CA7",
"|  c #467CA5",
" . c #467DA6",
".. c #477EA7",
"X. c #4279A4",
"o. c #497DA2",
"O. c #487EA6",
"+. c #407BA9",
"@. c #417CA9",
"#. c #437DA9",
"$. c #407DAB",
"%. c #407CAB",
"&. c #427EAB",
"*. c #477FA9",
"=. c #407DAC",
"-. c #427FAD",
";. c #427FAE",
":. c #417DAA",
">. c #4581AD",
",. c #4481AE",
"<. c #4880AA",
"1. c #4A83AE",
"2. c #4884AF",
"3. c #4A82AC",
"4. c #4583B1",
"5. c #4683B2",
"6. c #4B85B0",
"7. c #4886B4",
"8. c #4885B2",
"9. c #4A88B6",
"0. c #4B89B6",
"q. c #4A89B7",
"w. c #4A89B6",
"e. c #4C89B5",
"r. c #4D8AB6",
"t. c #4C8AB6",
"y. c #4C89B6",
"u. c #4D8BB9",
"i. c #4D8CB9",
"p. c #4E8CB9",
"a. c #4E8CB8",
"s. c #4D8CBA",
"d. c #4C8CBA",
"f. c #4E8DBA",
"g. c #4F8EBB",
"h. c #4E8EBC",
"j. c #4C8BB9",
"k. c #518CB7",
"l. c #528FBA",
"z. c #518EBA",
"x. c #4F90BE",
"c. c #5493BF",
"v. c #5291BD",
"b. c #5394C2",
"n. c #5799C7",
"m. c #5899C7",
"M. c #579AC8",
"N. c #599CCA",
"B. c #5FA1CD",
"V. c #61A2CD",
"C. c #63A4D0",
/* pixels */
"                                                          j j j j j k                                                           ",
"                                                  g j k b K J k H P J b k h g                                                   ",
"                                              b b n n K I U P v +.Y U U I n b b b                                               ",
"                                        h j A I U Y U Y e.p.8.b l.h.d.q.Y Y U U I S j g                                         ",
"                                    h j k A +.;.d.h.z.p.| *.k.b K  . . .q.l.h.d.;.+.J l z h                                     ",
"                                h c v H v { s.y.` L W L G G H z z A S G P W L ( e.k.+.v o.b k h                                 ",
"                              b n K +.*.T ! K J H H S A b b b n j b b b A S H H J J / T b.+.P A b                               ",
"                        g j S I +.;.9.*.[ A v A A A n b b b b v h v b b b b A A A b n  .1.e.+.+.I S j h                         ",
"                      h k H U Y s.s.[ H G A c k v b v v v l h h f h l v b v b v z c n G T ' u.s.;.U H k g                       ",
"                    g v K U 5.q.' W A A b v v c l c d d d s - = = 1 s d d d z l c v v b A A R ~ 0.5.U K v h                     ",
"                    n I +.8.8.K A A b b z s a a a a = # = $ $ * * $ # # $ = a a a a s l v n A A K 8.7.@.P n                     ",
"                g z P Y 0.*.J G b b v j q $ * $ $ $ * 4 > > 4 5 5 < > > > * $ & $ & $ q j v n b D J >.q.Y I k h                 ",
"              g l Q >.e.' H n n v g q 1 $ > 5 4 u 4 > 5 8 e e e u 8 8 8 8 > 5 e 5 5 > $ ; q d v n n H / 7.*.! j g               ",
"              c c b | W S S b v d 1 * > 5 8 8 8 8 8 * 5 $ O @ @ O $ $ $ 4 * 8 8 8 8 8 5 > * 1 d c n S A K J b c c               ",
"            n I P D c G G n z a = 4 8 4 4 4 5 4 $ o o o o X o X X X X X O X o @ < 5 5 4 4 8 4 = a z n G S c D I I A             ",
"          k P &.e.<.n b n v q $ > 5 8 * O X X X X o o o o o o o X X X X o o X X o o X O $ 8 5 4 $ q c n n n *.q.Y P k           ",
"        l H K @.l.J n v h 0 & < 8 8 $ o o o o o o o X o o X o o o X o o o o o o o X o o o $ 8 8 < $ 0 h c n T z.>.{ H k         ",
"        k K K z.` H n c s # > 8 5 O o o o o o o o o o o o o o X o o o o o X o o o o o o o o # 5 8 4 # s c b G W h.&.I k         ",
"        j S H v.T A b g = $ 4 8 @ O o o o o o o o o o o o X o o o o o X o o o o o o o o o o o @ 8 4 # = f b S D b.&.I k         ",
"  n.[ D l n m k.K b v f = $ > 4 @ # O o o o o o o X o o o o o o o X o o o X o o o X o o o o o O 4 > $ # f v b J b.@.S k D _ n.  ",
"  m ( a.L c n v.R S b g = 8 8 $ r # # o o o o o o X o o X o o o o o X o o o o o o o X o X X + r > w 8 = f b S K b.' v L 0.( n   ",
"  j G P 1.b b z.R n b f = 4 u O # % % O o o o o o o o o o o o o o o o o o o o o o o o o + % : , 3 e 5 = f v n J v.n v >.~ H k   ",
"  j n n n v c T A z z f = 4 8 O + % & % o o o o o o o o o o X o o o o o o o o o o o o o % 6 N , r 8 5 # f z c n T z b n n A j   ",
"    j b n F F D F G A g = 5 u O o + % # o o o o o o X o o o o o o o X o o o o o o o o o % % N 3 r u 5 # f z c b n S F F F S     ",
"    j S G H A n A S n g = 4 5 O + + % @ o o o o o o o o X o o o o X o o o X o o o o o o o # N , r e < = f c v b n A H J F b     ",
"    g j j k k j k g k f # * < O 1 M % . X o o o o o o o o o o o o o X o o o o o o o o o # N C , 9 5 $ # f j j j j k j j j g     ",
"        j c v b v j c g = $ < O : N w % o o o o o o o o o o o X o X o o o o o X o o o @ 3 C C & 6 5 $ # f c j v v b n j         ",
"        j n S b v j c f = * 4 @ M C w 3 & O o o o o o o o o o o o o o o o o o o o o O : w C C - 9 7 > # f v j b S S D k         ",
"        k G H F G l v g - * > $ V C w > : O o X X o o o X o o o o o o o X o o o o o O & 3 y V % 7 < > # f v k S H K 3.c         ",
"        k L K K e.v m g - 8 8 $ C C w 1 : O o o o o o o o o o o o X o o o o o X o o O : 3 w N 1 9 t e # g n k S H  .l.c         ",
"        k P I L k.b b g # > e $ B C w : : O X o o o X o o o o o o o X o o o o o o o o : < w V , 7 u > = g n k J J +.p.v         ",
"        j P Y U k.c c g - < e $ N M 3 > = O X X o o o o o o X o o X o o o X o o o o # : 3 N V 3 3 u > # f c k P I +.*.z         ",
"        j H I Y +.z v g = 4 8 $ N w 3 : : o o o X o o X o o o X o o o o o o o o o O : : w B Z N w e 4 # f v k P U U I k         ",
"        j G I K P z z f $ * < # N w 3 : : o o o o o o o o o o o o o o o X o X o o o $ : 3 w N C r 3 > = f c k P K U P k         ",
"        j F I J P z v f = 4 8 $ N w 3 > : O o o o o o o o o o o X o o X o X o o o o o # 3 3 w V w 8 4 # f c k K K I I k         ",
"        j G I I J l v g = 4 e $ N w # : # o o o X o o o o X o o o o o o o o o o o o o o O # 3 V t t 4 = f v k J P Y I k         ",
"        j G +.z.J l A g = > > O N w X o o o o o o o o X o o o o o o o o o o o o o o o o + . 3 r r 5 > # f A k G U U P k         ",
"        j F +.b.J l A h = 8 u $ t 3 + . o o o o o o o o o o X o o o X o o o o X o o o & y , 3 6 r t e = g S k G U U I k         ",
"        j G +.b.J k A h = 5 8 $ 3 3 1 # o o o o o o o o o o o o o o o o X o o o o X O 1 w C M 6 i u 7 # g A k H U U I k         ",
"        j G X.;.H l b g # 4 8 $ B N 3 : o o o X o o o X o X o o X o o o o o o o o X O : w C V w r 8 4 # f b k F I Y P k         ",
"        j H I A n j c g - 5 8 $ N C w O o o o o o X o o o o o o o o o o X o o o o o o O 3 M , 6 r u 4 = f c k n S Y I k         ",
"        k K P n n k b g % 4 8 $ 3 B w O o o o o o o o o o o o X o o o o o o o o o X o O 3 + , , r u 5 # g b j n n P K k         ",
"        j S A n c j c f - 5 7 @ , V w # o o o o o o o o X o o o o o X o o o X o o o o O , o , 6 r e 4 = f x j c b S S j g       ",
"      h j v k k x j c k - < 4 O 3 r 3 : O o o o o o X o o o o o o o o o o o o o o o X O 3 i 6 6 r 5 < % j v k x k k v j j h     ",
"      l K ` ` ` P G _ L 1 * 4 @ : 3 + # o o o o X o o o o X o o X o o o o X o o X o X O 3 M 6 & r 5 < - L } ' ' U ' ` ' L k     ",
"      l *.d.b.v.a.e.a.<.2 $ 4 O : , + : O o o o o o o o o o o o o o o o o o o o o o X O 1 + - , r 5 * - / 1.e.e.e.k.e.e.O.z     ",
"    3.c b b A A b b b x - & * O % 6 o , O o o o o o X o o o o o o o X o o o o o o o o O 1 % , , r < $ # g c b b b n b b z j     ",
"    b.P J J S J K J J D 1 < 7 + % , O : O o o o o o o o o o X o o o o o o o X o o X o o $ 3 : : r 8 > - S K J J J J J J L <.    ",
"U &.k.z.h.p.h.b.x.b.b.8.0 4 e @ % % % % . X o o o o o X o o o o o o X o o o o X o o o o + % % % r u 5 1 o.l.x.b.x.b.v.h.v.d.+.U ",
"7.I v H J P +.+.I I I J ; 5 e @ % % % % X X o X o o o o X o o o o o o o o o o o o o o o + % 6 % r u 4 - S J I +.I I P K K b I 7.",
"N.U z S H K P K H F S b 1 4 u @ & , % % + X o o o X o o o o o o o o o o o X o o X o o o + , p : r u 5 # v S H K H H H J F x { n.",
"n.{ x S H F S S n n v k - * 5 @ 6 % % % X X o o o o o o o o o X o X o o o o o o o o o . + % r p r 8 > # j v n n S H S F S z I n.",
"N.>.b v v v b b v c v k = $ < @ 9 & % % o o o o o o o o o o o o o o o o o o X o o o X o + % 1 i 6 5 $ # j v v x v v b b v b *.M.",
"N.n.0.8.5.7.7.5.7.>.7.[ 1 & 4 @ , - + % o o o X o o o o X o o o o o o X o o o o o o o o + o + 6 6 5 & - ` 5.5.5.5.5.5.8.5.8.M.N.",
"R 8.0.q.q.j.q.q.0.0.>./ 1 $ * O % + o o o o X o o o X o o o o o o o o o o o o o o o o o o o o # , > & - R 1.0.q.0.q.0.>.*.<.8.R ",
"j H I U U U U U K J F m - $ $ o # o o o X o X X X X X X X X X X X X X X X X X X X X X o o o o o @ $ $ # n H J K I U I I P J H j ",
"j S J I I I I K H S n n ; - ; = - - - - = = - = = = = = = = = = = = = = # = = = # = = = = = = = - - - = n n S H K P K I I J S j ",
"j S H S S S S S S b b x s g j x x j h j h g h j h j k j j j j j j h j j j j j h j j g j j j j j j j h s c b n S S S S S S H F k ",
"h v v k k k k k k k k k j v S P P F S S S j v b S F K F S S S S S S S S S S S S A v j b A A A A S n b j k k k k k k k k z v v h ",
"h z v b A A S A S S S S S F I I U I I I P v n F P U @.U ' U U I I I U { U U I I J S b S J I U I H H S n v v n A A A A A n A n j ",
"h n H R &.5.&.5.&.U U @.4.4.4.4.>.7.,.Y I n H U Y b.M.M.M.M.n.5.7.n.n.M.n.M.b.5.*.J n G K &.5.5.&.4.&.` W J J J J K J J J J S j ",
"h S P n.N.N.N.N.B.v.p.N.B.N.M.M.N.N.M.q.I A I Y j.M.N.B.N.N.N.M.N.N.N.N.V.C.C.C.N.8.F K 7.M.N.N.N.B.N.N.B.l.k.z.7.7.7.7.U P J j ",
"j J +.b.N.N.N.N.V.V.N.N.B.N.M.N.N.N.n.n.Y H I Y 5.q.q.q.0.n.N.N.M.N.N.N.B.B.B.B.N.b.K I 7.0.5.q.N.V.V.N.V.V.V.V.N.N.N.m.l.d.5.z ",
"A J K ( / ( ( ( ( ` ( ( ( ` ' ' ( ( ( U K H J K J J J J K ( ( ' ( ( ( ' ( ' ( ' ( ( J J J K J K ~ / o.[ ( ( ` / ` ( ` / ` ` ( D "
};
