/* XPM */
static char *result[] = {
/* columns rows colors chars-per-pixel */
"64 64 112 2 ",
"   c #0E120C",
".  c #14120F",
"X  c #151210",
"o  c #191614",
"O  c #161915",
"+  c #1B1916",
"@  c #1C1D1B",
"#  c #221E1B",
"$  c #1E211D",
"%  c #23221E",
"&  c #28231F",
"*  c #1B1E22",
"=  c #1C2125",
"-  c #1E252C",
";  c #1F2830",
":  c #232422",
">  c #2B2622",
",  c #252A24",
"<  c #2D2925",
"1  c #21262A",
"2  c #20282F",
"3  c #2C2C2B",
"4  c #312A27",
"5  c #342D2A",
"6  c #2D332B",
"7  c #32342E",
"8  c #39312D",
"9  c #31392F",
"0  c #212B35",
"q  c #212E39",
"w  c #23313E",
"e  c #333333",
"r  c #3C3431",
"t  c #343C32",
"y  c #3B3C3A",
"u  c #354034",
"i  c #384236",
"p  c #3D443C",
"a  c #3E4A3B",
"s  c #414E3F",
"d  c #243544",
"f  c #263A4B",
"g  c #293F54",
"h  c #294155",
"j  c #2C465D",
"k  c #2D4760",
"l  c #2E4A64",
"z  c #2F4E69",
"x  c #304C66",
"c  c #304F6A",
"v  c #2F506C",
"b  c #30516D",
"n  c #325573",
"m  c #335877",
"M  c #345B7B",
"N  c #395F7D",
"B  c #434343",
"V  c #484747",
"C  c #474847",
"Z  c #474748",
"A  c #4B4B4B",
"S  c #455543",
"D  c #475845",
"F  c #4A5A47",
"G  c #4F504E",
"H  c #4B5C49",
"J  c #535453",
"K  c #595959",
"L  c #626362",
"P  c #6A6A6A",
"I  c #7F7F7E",
"U  c #355F81",
"Y  c #366184",
"T  c #396284",
"R  c #376489",
"E  c #38668B",
"W  c #3A698E",
"Q  c #3B6C94",
"!  c #3B6F98",
"~  c #3F7097",
"^  c #3C729B",
"/  c #3D76A2",
"(  c #3E79A6",
")  c #3E7AA8",
"_  c #416D8F",
"`  c #416E91",
"'  c #427295",
"]  c #42769E",
"[  c #44789F",
"{  c #4177A0",
"}  c #437AA4",
"|  c #497DA2",
" . c #417DAB",
".. c #4980A7",
"X. c #4480AE",
"o. c #4982AC",
"O. c #4683B1",
"+. c #4985B2",
"@. c #4C89B6",
"#. c #4D8CBA",
"$. c #508CB6",
"%. c #518EBA",
"&. c #4F90BE",
"*. c #5291BE",
"=. c #5294C1",
"-. c #5699C7",
";. c #5898C5",
":. c #599CCA",
">. c #5FA1CD",
",. c #61A2CD",
"<. c #63A4D0",
"1. c None",
/* pixels */
"1.1.1.1.1.1.1.1.1.1.1.1.1.1.1.1.1.1.1.1.1.1.1.1.1.1.1.1.1.l l l l z l 1.1.1.1.1.1.1.1.1.1.1.1.1.1.1.1.1.1.1.1.1.1.1.1.1.1.1.1.1.",
"1.1.1.1.1.1.1.1.1.1.1.1.1.1.1.1.1.1.1.1.1.1.1.1.1.k k z n Q Q v E ^ ! m v k j 1.1.1.1.1.1.1.1.1.1.1.1.1.1.1.1.1.1.1.1.1.1.1.1.1.",
"1.1.1.1.1.1.1.1.1.1.1.1.1.1.1.1.1.1.1.1.1.1.1.m m m m ^ / ( { n (  .) / ^ M m m m 1.1.1.1.1.1.1.1.1.1.1.1.1.1.1.1.1.1.1.1.1.1.1.",
"1.1.1.1.1.1.1.1.1.1.1.1.1.1.1.1.1.1.1.1.1.l U / ) ) ) ) @.#.+.m @.%.#.#.) ) ) ) / R l j 1.1.1.1.1.1.1.1.1.1.1.1.1.1.1.1.1.1.1.1.",
"1.1.1.1.1.1.1.1.1.1.1.1.1.1.1.1.1.1.k l k R  . .#.#.#.#. .| *.m ` } } } #.#.%.#. . .Q z x l 1.1.1.1.1.1.1.1.1.1.1.1.1.1.1.1.1.1.",
"1.1.1.1.1.1.1.1.1.1.1.1.1.1.1.1.j z n E n { @.#.] ^ ' ^ E E W n x U R R ! ] ^ ] @.%. .n | M z k 1.1.1.1.1.1.1.1.1.1.1.1.1.1.1.1.",
"1.1.1.1.1.1.1.1.1.1.1.1.1.1.1.m U ! }  .Q ] ' Q W E R Y m m m M l m m m Y T E E Q ` [ _ %. ./ U m 1.1.1.1.1.1.1.1.1.1.1.1.1.1.1.",
"1.1.1.1.1.1.1.1.1.1.1.1.1.l M / }  .=. .} U n U U U m m m m n n l n m m m m U U U n m } o.#. .) ( R l j 1.1.1.1.1.1.1.1.1.1.1.1.",
"1.1.1.1.1.1.1.1.1.1.1.k z R ( ) #.=.{ E E U b z n n n n n x k k h j x n n n m n c b M E W { $.#. .) Q z j 1.1.1.1.1.1.1.1.1.1.1.",
"1.1.1.1.1.1.1.1.1.1.k z Q ( O.#.{ ' R U m n n b x c j g g f 1 # * - d g g g c x c n n m M R ` ] @.O.) ! n k 1.1.1.1.1.1.1.1.1.1.",
"1.1.1.1.1.1.1.1.1.1.m ^ ) +.+.! U U U n c f d f d d * # # # # & > # @ @ # # d d d d f x n m U U Q +.@. ./ U 1.1.1.1.1.1.1.1.1.1.",
"1.1.1.1.1.1.1.1.1.z ^ ) @.o.Q E U n n k d # # # # # > > > > > 4 5 > 4 > > > # # # # # 0 k n M m R W } #. ./ c k 1.1.1.1.1.1.1.1.",
"1.1.1.1.1.1.1.j l '  .@.} Q M M n k d 1 # > 5 4 r 5 > 5 r r r r r r 8 8 5 > 4 r 5 5 > # 1 0 g m M N E { @. .[ c j 1.1.1.1.1.1.1.",
"1.1.1.1.1.1.1.b b n | ] U Y m n g 1 & > 5 8 8 8 r 8 & 5 # o o # + + # # 5 & 5 r 8 8 8 5 > > 1 f b n T U Q ! m b b 1.1.1.1.1.1.1.",
"1.1.1.1.1.1.M ^ / W b T W m b f * 4 8 4 > 5 5 4 + X X X . X X X X X . X X X o o < 5 4 4 < 8 5 # d x m E E c T / / U 1.1.1.1.1.1.",
"1.1.1.1.1.l !  .@...U m M n d @ > 5 8 & + X X X X X X X X X X X X X X . X X X X X X X o # 8 8 > # 0 c M m m } #.) / v 1.1.1.1.1.",
"1.1.1.1.l E !  .%.! M n x 0 # > 5 r > o . X X X X . X . X X X X o . X . X X X X X X X X X @ 5 8 4 # 0 j b M W %.O. .! z 1.1.1.1.",
"1.1.1.1.x Q Q #.{ Q m n g @ > 8 8 4 B = . X X X X . . X X . X X . X . X X X X X X X X X X > > 5 8 4 @ d b m E ` %. ./ c 1.1.1.1.",
"1.1.1.1.l Y E %.' Y m j * @ 4 8 # A J : O X X X X X X X . X X X . . X . X X X X X X X X 5 P s @ 8 5 @ @ g n U R %.O./ z j 1.1.1.",
"1.-.| E z m N %.^ m m j * # > 4 # G J 3 $ + X X X X X X X X X X X . . X . X X X X X O @ e L A # > > # @ g n m W =. .E z U [ ;.1.",
"1.N ] @.^ b m $.^ T m j * 5 8 # 6 C e $ $ $ O X X X X X . X X X X X X X X X X X X @ % $ O 3 A 6 # r 8 * g n T Q *.} n Q @.{ N 1.",
"1.j R ^ +.M m $.' M m j * 5 8 # , : B , $ $ O X X X X X X . X X X X X X X . X X X @ $ $ e @ = 9 @ e 8 * g n m Q %.T n  .] Q z 1.",
"1.l U M M m x _ Y b x j * 4 8 # O $ C : @ $ X X X X X X . X X X X X X X X X X X . $ $ + A : $ 6 # 5 5 * g x b M ' b m M M Y l 1.",
"1.1.k m M T R R R R T j * 4 r # $ O C = @ @ O   X X X . X . X X X X X X X X . X X = O $ P A , a : r 5 * g x b m m T R R R Y b 1.",
"1.1.l M E E U U U M U j * 4 5 + + O $ y @     X . . X X X X X X . X X X X X X X X X X K y C 6 S : 4 4 * g n n m m U E Q E m 1.1.",
"1.1.j z l x x z l l l j * # 4 o $ .   , @ X O X X X X X X X X X X . X X X X X X X   O 6 O O $ u * 4 # @ g l l l x z z l l k 1.1.",
"1.1.1.1.j n n m n l b j * # 4 + # s e 3 3 3 # o X . . X X X X X . X . X X X X X X + 3 J e O O S : > % @ g v l n m n M z 1.1.1.1.",
"1.1.1.1.l M Y m n z b j * & 4 + > I s h e 3 3 # X X X X X X X X X . X . X X X X # 0 e P B B : D : 4 > @ g n l n U Y E x 1.1.1.1.",
"1.1.1.1.l Y Q R E b n j = & > + # J A J y 3 1 : o X X X X X X . X X X X X X X X # > e J J L , D : > > @ g n l U W Q @.b 1.1.1.1.",
"1.1.1.1.l Q ! Q $.m M j = 8 r + # # A K e 3 > : X X X X X X . X X X X X X X X X : 5 J K K J , a : 8 8 * j U z Y W } *.n 1.1.1.1.",
"1.1.1.1.z ^ ( ! $.m m x @ > r # @ $ A K y 3 > : o X X X X X . . X X X X X X X + : 3 J K J : $ 9 # r 4 @ h M z W Q } *.n 1.1.1.1.",
"1.1.1.1.l ! ) / $.m b j = > r % G C J K e 3 : : o X X X X X X X X X X X X X X & 3 e J K J = $ 6 3 r 4 * g b z ^ / } X.b 1.1.1.1.",
"1.1.1.1.l R / )  .n c j * > r # P y G K e 3 1 & X X X X . X X . X X . . . X X & 3 G K K J = $ 9 : r 4 * g n z ! / ) / z 1.1.1.1.",
"1.1.1.1.k R / ! ! c n j * & 5 # A * A K B 3 4 1 o X X . X X X X X X . . . X X & 3 A K K J : J p @ < > @ g c z ! ! / / n 1.1.1.1.",
"1.1.1.1.l U / Q / z b k * 4 8 # e o A K Z e 3 & o X X X X X X X X X X X X X o & 3 3 B Z G : K p @ 5 4 * g n z ! ! / / c 1.1.1.1.",
"1.1.1.1.l R / / ! z b k * 4 8 # X X Z B # o # * o X X X . X X . X X . X X X X & @ O + B J C L a * r 5 # g n z E / / / b 1.1.1.1.",
"1.1.1.1.k R } #.Q z U l * > 4 + X X Z e o X = o X X X X X . X X X X X X X X X o : O O A K K a D : > < @ h U z R / ) / b 1.1.1.1.",
"1.1.1.1.l R ) =.' z U l * 5 r @ X   A f 3 3 3 # X X X X X X X X X X X X X X X + > 3 3 J L K t H : r 8 * g T z Y / ) / z 1.1.1.1.",
"1.1.1.1.l U  .=.! z U l * 4 r # X $ G K Z 3 5 4 o X X X . X X . X X X X X X X & 4 7 h K P p 9 H : r 5 = h U z R ) ) / v 1.1.1.1.",
"1.1.1.1.l T /  .W z m k @ 4 8 o X < G K Z 5 5 4 o X X X X X X X X X X X X X X # 4 5 J L K @ , F : 5 5 @ h m z R / ) / b 1.1.1.1.",
"1.1.1.1.l R / T M z b j * 4 r # O , : A A e 3 1 o X X X X X X X X X X X X X X > 4 3 d J , O , u % r 5 * h b l m U / / v 1.1.1.1.",
"1.1.1.1.l Q / M M z m j * < r @ X : $ , 6 6 3 + X X X X X . X . X X X X X X X o 4 3 4 > $ $ , 9 @ r 5 @ h m z M M ! ! z 1.1.1.1.",
"1.1.1.1.k U U m n l n j * 4 8 +   = $ O 3 3 3 o X X X X X . X X X X X X X X X X 1 e B # : , , 9 @ 5 4 % h b l b m U E z k 1.1.1.",
"1.1.1.k l n b z z l b x = < 4 + O , %   : 3 3 o X X X X X X X X X X X X X X X X > 8 K # : 6 6 t * 4 4 = l b z z z z b z l l 1.1.",
"1.1.1.x Q / } / ] E { ] 1 & 5 o O , $   X 3 1 o . X X X X X X X X X X X X X X X 3 Z : X 1 , , D : < 4 = W X.} [ { } { } ^ c 1.1.",
"1.1.1.x | #.#.*.#.@.@.o.0 # 4 + X = $ O   , + X X . X X X X X X X X X X X X X X > A + X $ : , a : > & = ' o.@.@.@.@.@.@.| n 1.1.",
"1.1.o.b n m Y U m m m b = # % o X $ $ $ X 1 O X . X X . X X X X X X X X X X X X + Z + @ 6 , , 9 @ > # @ j b m m m m m m c l 1.1.",
"1.1.*.{ Q Q R Q Q Q Q E 1 > 7 + O $ $ $ X O O X X X . X X X X X X X X X X X X X o = X * $ $ : 9 @ 5 > : Y Q Q Q Q Q Q Q ! ..1.1.",
") ) @.%.#.#.#.=.=.&.=.@.0 4 r # O $ $ $ $   O   X X X X X X X X X X X X X X X X . O $ $ $ $ % u : r 5 - | #.=.&.=.=.=.#.=.#. .) ",
"@.( m E Q ^  . ./ / / ! - < r @   O $ $ $ O X X X X X X X . X X X X . X X . X . .   $ $ , $ $ D : r 5 * M Q /  ./ / { Q ! m ^ O.",
"-. .b Y W ! ! ! Q W Y m = 5 r # O 6 , $ $ O   X . X X . . X . X . X . X X . X X . O $ , u u , F : r 5 : v Y W ! W E Q E E v / ;.",
":. .n M R R R Y m m m z = # 5 + $ u , $ $ O O   X X X X X . X . X X X X X X X X . X $ $ $ a s H : 4 > * l m m m Y R R R Y z ^ ;.",
":.o.m m n m m m b b n z * # 4 # a u , : @ O X X X X X X X . . X X X X X X X X X . O @ $ , u a i @ > & @ l n n v n n m m m n ( -.",
":.:.@.O.O.O.O.O.@.O.@.| 2 # 4 + 9 6 % $ O @ O . X X . . X X X X X X . X . X X . X $ $ $ = , 6 9 @ > # = ' +.O.O.O.O.O.+.O.@.-.:.",
"` +.#.#.@.+.#.#.+.#.o.{ 1 # & o , $ @ O O @ O . X X X . X X X X X X X . X X X . . $ $ O + t t 6 @ & # = Q o.@.#.#.@.#.X.o.X.@.' ",
"k E / ( ) ) ) / ! Q E Y = # # o : = @ O O X   X X . . . X X X . . . . . . . . . . O X O + 7 6 , + @ # * m W Q Q / ( / / ^ W W l ",
"l Y Q / / ( / Q W R M U - * * * = - = * * = * * * * * * * * * * # * * * * * * * * * * * * * - = * * * * m M U Q Q / ! / / Q R l ",
"j Y E R Y Y Y Y U m m m f k z v c l l l l k k l l l z l l l k l x k x x k x k k k x j k l l l l z z l f b m m U U U U R R E R z ",
"l b n x z z z z z z z z k n U ! ^ R Y Y U z n m U R Q R U Y U R U U U U U U U U U m x n U U U U U M n l z z x z z z z z z n n k ",
"l x n n M Y Y Y U R U U U R / ) ) / / / / m m Y / /  .) ( } ) / { }  .} ) ( ) ( Q R n U W / / / Q E R U n n M U U U U U U U U l ",
"j m R ^  .X.X.X.X.} (  .) O.O.O.O.O.X.) / U W / ) =.-.-.-.-.-.+.O.=.;.:.-.-.-.O. .! M E !  .O. . . . .} ' Q Q Q Q Q Q Q Q W E z ",
"k Y ^ *.:.:.:.:.>.*.@.-.<.:.:.:.:.:.-.#.) U / ) @.-.:.:.:.:.:.:.:.:.:.:.<.<.<.<.:.+.E Q +.:.:.:.:.,.:.:.>.*.%.%.@.O.@.+.) ! Q z ",
"l Q } ;.:.:.:.:.,.,.:.:.>.:.:.-.:.:.:.-.) W / ) +.+.#.@.@.;.:.:.:.:.:.:.>.,.>.>.:.;.! ( +.@.@.@.;.,.<.:.>.,.,.,.:.:.:.:.%.#.+.b ",
"U Q Q ^ ] ] ] ] ] } { ] { { { / ] { ] / ! W Q Q ! Q Q Q Q ] ] { { { { { { { { { { { Q Q Q Q Q Q ] { | } { ] { ] { { [ { { { ] R "
};
