/* XPM */
static char *f932d4ed319d42a28a078261e4921d0bLGFTcDTrjufShmZM[] = {
/* columns rows colors chars-per-pixel */
"64 64 154 2 ",
"   c None",
".  c #0F120D",
"X  c #15110F",
"o  c #151210",
"O  c #191614",
"+  c #151814",
"@  c #1C1916",
"#  c #1C1D1B",
"$  c #221E1B",
"%  c #1E211C",
"&  c #23221E",
"*  c #28231F",
"=  c #1B1E21",
"-  c #1C2125",
";  c #1E252B",
":  c #1F282F",
">  c #242522",
",  c #2B2623",
"<  c #262A24",
"1  c #2E2925",
"2  c #21252A",
"3  c #20282F",
"4  c #2C2C2B",
"5  c #312A26",
"6  c #332D29",
"7  c #2D322B",
"8  c #2F392E",
"9  c #34322D",
"0  c #39312E",
"q  c #31382F",
"w  c #212B34",
"e  c #222F3A",
"r  c #23313E",
"t  c #333333",
"y  c #3D3532",
"u  c #343A32",
"i  c #3E3A36",
"p  c #3C3D3C",
"a  c #413B37",
"s  c #423C38",
"d  c #3C443A",
"f  c #3F4D3D",
"g  c #243545",
"h  c #26394B",
"j  c #283D4F",
"k  c #293F54",
"l  c #294156",
"z  c #2B455D",
"x  c #2D4760",
"c  c #2E4A64",
"v  c #2F4E69",
"b  c #304D67",
"n  c #304F6A",
"m  c #2F506C",
"M  c #31516D",
"N  c #325573",
"B  c #335877",
"V  c #345B7B",
"C  c #39607E",
"Z  c #454545",
"A  c #4C4C4C",
"S  c #4F504F",
"D  c #535353",
"F  c #5B5B5A",
"G  c #5F605F",
"H  c #646464",
"J  c #6A6B6A",
"K  c #355F81",
"L  c #366184",
"P  c #3A6383",
"I  c #376489",
"U  c #38668A",
"Y  c #39688E",
"T  c #3B6C94",
"R  c #3B6F98",
"E  c #3E7097",
"W  c #3C729B",
"Q  c #3D76A2",
"!  c #3E79A6",
"~  c #3E7AA9",
"^  c #406C8E",
"/  c #416F92",
"(  c #427295",
")  c #42769F",
"_  c #41759D",
"`  c #45779C",
"'  c #42769E",
"]  c #45789D",
"[  c #45789D",
"{  c #4177A1",
"}  c #4378A1",
"|  c #4479A2",
" . c #457AA3",
".. c #467BA3",
"X. c #417AA4",
"o. c #427BA5",
"O. c #457BA4",
"+. c #457CA5",
"@. c #467DA7",
"#. c #477EA7",
"$. c #4279A4",
"%. c #487CA2",
"&. c #497FA7",
"*. c #407DAB",
"=. c #437FAB",
"-. c #477EA8",
";. c #417EAC",
":. c #427FAD",
">. c #427DAA",
",. c #4380AE",
"<. c #4480AD",
"1. c #4581AE",
"2. c #4481AE",
"3. c #4880AB",
"4. c #4A83AD",
"5. c #4A83AE",
"6. c #4A84AF",
"7. c #4A82AB",
"8. c #4583B1",
"9. c #4785B3",
"0. c #4684B2",
"q. c #4985B1",
"w. c #4B86B1",
"e. c #4886B4",
"r. c #4885B2",
"t. c #4A89B6",
"y. c #4C89B5",
"u. c #4C8AB7",
"i. c #4E8BB7",
"p. c #4C89B6",
"a. c #4B8AB8",
"s. c #4D8BB9",
"d. c #4D8CB9",
"f. c #4E8CB9",
"g. c #4D8CBA",
"h. c #4E8DBA",
"j. c #4F8EBB",
"k. c #4E8FBD",
"l. c #4D8CB9",
"z. c #518DB7",
"x. c #518DB8",
"c. c #518EBA",
"v. c #4F90BE",
"b. c #5492BE",
"n. c #5291BD",
"m. c #5394C2",
"M. c #5799C7",
"N. c #589AC7",
"B. c #579AC8",
"V. c #599CCA",
"C. c #5FA1CD",
"Z. c #61A2CD",
"A. c #63A4D0",
"S. c gray51",
/* pixels */
"                                                          c c x c v c                                                           ",
"                                                  x x v N R R v U R T V m x z                                                   ",
"                                              B B B V W Q ~ { M >.~ ~ Q W V B B B                                               ",
"                                          c K Q ~ ~ ~ ~ a.a.w.B z.j.g.a.~ ~ ~ ~ ! I c z                                         ",
"                                    x c b K *.:.a.g.j.a.-.-.z.N R ......g.j.j.g.=.>.Y c b x                                     ",
"                                x M N U M $.f.f._ W ( W U U T M n K I Y W ( W { y.x.>.N ..V m x                                 ",
"                              B V R @.:.Y } R T T Y P K V B V V b N V N K I Y Y T R ` ^ m.>.W K B                               ",
"                        z c K Q *.*.a.-.-.K N K V K V B N N N N b M N V N N V K K B V  .4.y.*.*.! L c z                         ",
"                      z v I ! ~ f.f. .Y U K M v N B N N N b x x k x c N N N N N n M K K ^ } i.f.8.~ Y v z                       ",
"                    x M R ~ 0.a.} _ K K V N N M b M k k k h ; = = 2 h k k k n n n N N V V P / _ e.8.~ W B z                     ",
"                    V W ~ 0.w.E K K V N n h g g g g = $ = $ $ * * $ # # $ = e g g g h b B V K K T 6.e.~ W K                     ",
"                  v W ~ t.3.T U V N N c e $ * $ $ $ , , , , 1 6 6 , 5 , , , $ $ $ $ $ e x N V V I T -.t.>.Q n c                 ",
"              z c ( <.u. .Y V V N x e ; $ 1 5 6 a 5 , 6 y y y y y y y 0 0 , 5 a 6 6 1 $ 2 e k N V V Y { y.>.` b z               ",
"              M M B %._ L L V N k 2 , , 5 0 0 0 0 0 * 6 $ O O @ O $ O $ 6 $ 5 a 0 0 0 5 , * 2 j M N L P T R N M M               ",
"            V W Q U M L I V M g - 5 0 , 1 5 6 1 $ o X o o X o o X o o X O o O O 5 6 6 1 1 0 5 - g n V U U M P Q Q K             ",
"          v W >.u.3.L B V M r $ , 6 0 * $ o X X X o o o X o o X X o o o o o X o o o o O $ 0 0 , $ w n V B V @.a.~ Q m           ",
"        v I R >.m.T K N c w $ 1 0 0 * o o o o o o o o o o o o o o o o o o o o o o o o o o $ 0 9 1 $ 3 z N V Y c.8.>.T v         ",
"        c R R x.{ Y B n h # 1 0 0 $ o o o o o o o X X o o X o o X o o o X o o o o o o o o X @ 6 0 5 # h n V U / c.>.Q v         ",
"        c P Y x.( K B x = # 5 0 O o o o o o o o o o o o o o o X o o o X o o o X o o o o o o X O 0 6 # = l N K P m.>.Q v z       ",
"  N. .U v V V x.R B N x = = , 5 O o o o o o o o o o X o o X o o o o o o o o o o o o o o o @ i & 1 1 $ # l N V Y m.>.U v L ` M.  ",
"  V _ a.W M V z.( K B k = 6 0 $ u + @ # o o o o o o X o o o o o o X o o o o o o o X o o + + 7 d , 6 0 = l N K T b.$.N R u.{ C   ",
"  x Y W 6.V B x.( K B x = 5 a O # 4 % % O o o o o o o o X o o o o o o o o o o o o o o # % + o - 4 i 6 = l N V / c.C N <.( T c   ",
"  b K V V B b ( K n b z - 5 6 $ < J < # # o o o o o o o o o X o o o o o o o o o o o o % < < % % u y 5 # l n M V ( M B V V K c   ",
"    x B V I I P I I K x = 5 y $ < H > # - o o o o X o o o o o o o o X o o o o o o o o % - & u * u a 6 = l n M V V L I I I I     ",
"    c K I Y K K K K V x - 5 6 @ < G A + @ o o o o o o o o o o o o o o o o X o o o o o # # # Z 1 u 0 5 = k M N B V V Y Y U B     ",
"    z b c b b b c x c l = $ 5 O # Z D > . o o o o o o o X o o o X o o o o o o o o o o . % Z & & q 6 $ = l c c c c v v c c x     ",
"        z N N N N c N z = $ 5 O o + A p $ o o o o o o o o o o X o o o X o o o o o o o > Z S # O q 6 $ # l N c N N B V c         ",
"        b K K V N c M z = * 5 O . @ A t 4 $ o o o o o o o o o o o o o o o o X o o o @ A F F l $ 8 9 , = l m c B L P U c         ",
"        b I Y I U n N z = , , O = J F t 4 < = O o o o X o o o o o o o o o X o o X o , S F F D & 8 1 , # l B c L Y R 6.M         ",
"        c R R T u.N P z - 6 0 @ < S.H p 4 > > o o o o o o o o o X o o o o o o o X O , t D F Z & 9 i y = l K v L Y $.b.N         ",
"        c W ! R x.B B x = , a $ > H G D t 2 > O o o o o o o X o o o o X o o o o O @ > 7 D D - % 7 a 1 # l V v Y T o.x.N         ",
"        c W ~ ! x.N M z = 1 y @ % 4 D F t , * O o o o o o o o o o o o o o o X o O = 4 t D D % # 4 a 1 = l N v W Q o.>.N         ",
"        x Y ! ! >.M n z = 5 0 $ = # S D t 2 > O o o X o o o X o o o o o o o o o O * 4 t A D # & 7 y 5 # k N v W ! ~ Q v         ",
"        c I Q R W n N z = $ 5 $ G F A u 6 4 > O o o o o o o o o X o o o o X X o O - 4 4 t A * F u 6 , # k N v R R Q Q v         ",
"        x I Q T Q n n z - 5 6 $ S F t 4 4 4 * o o o o o o o o o o o o X o o o o o > 4 6 t h $ A t 9 6 = k N v R R Q Q v         ",
"        c I ! Q T b N z = 5 a $ A D t # O = @ o o X o o o X o o o o o o o X o o o # , = # 4 s D p a 6 # k N v T W ~ Q v         ",
"        c I ! g.T b K x # , 1 @ t S t o o O X o o o o o o o o o o X o o X o o X X X @ O + 4 S d u 6 , # l K v I ! ~ Q m         ",
"        x I >.m.T n K x - 0 y # 4 D Z 4 2 O o o o o o X o o o X o o o X o o o o X O , 4 4 p D 8 u a 0 - l L n I Q ~ Q v         ",
"        c I >.m.R n K c = 5 0 $ 7 D D t 4 O o o X o o o X o o o o o o o o o o o o # 4 4 Z D d 7 u a 6 # z K v I ! ~ Q v         ",
"        x I X.=.Y b N x - 5 0 # 4 A F t 4 , o o o o o o o o o o o X o o X o o X O = < 4 D D % < u y 6 % l V v L Q ~ Q v         ",
"        c Y Q L V c m z - 1 0 $ < < A p 4 4 O o o o o o o o X o o X o o o o o o o O > 4 D A % < u a 6 = l M v V L Q Q v         ",
"        c T W V C b B z - 6 y $ < < d Z t 4 O o o o o X o o o o o o X o o X X o o O 6 h S % % < u a 6 # l N v V V W W v         ",
"        c L L V N c M z - 1 0 @ < % + i t 4 O o X o o o o o o o o o o o o o o o o o 6 D D % % < u y 6 = l N c M B K I c z       ",
"      x c M v v n c M n - 1 6 O < % + A t 4 O o o o o o o X o o o X o o o o X o o O 6 D D < 7 7 u 9 5 # v M c v v v M c c x     ",
"      b R $.Q { W Y ) W 3 * 6 @ % % + 4 4 4 O o o o o o o o o o o X o o X o o X o o 4 Z > , < < q 9 5 - E @.$.$.{ { { { W n     ",
"      b -.u.j.b.i.w.i.3.3 $ 1 O + % % + 2 > O o o o o X o o X o o o o o o o o o o O 4 4 o 2 < < q 9 $ - ( 6.y.y.u.z.u.z.&.M     ",
"    4.M N B K L V B B M - * * O % - # . , O o o X o o o o o o o o o o X o o o o o O 4 4 + < < < u 1 * # z M N B N V B N n c     ",
"    m.W T R I Y T T E U 2 * 9 @ % % # o > O o o o o o o X o o o o X o o X o o X o o $ > + > % - q 0 , - L T R T T T T T R 7.    ",
">.>.u.x.c.c.j.m.m.m.m.w.w 5 i @ % % % % + o o X o o o o o o o X o o o o o o o o X X X + % % % % u s 6 2 @.b.v.b.m.m.m.g.j.u.>.~ ",
"0.! N U T W >.~ Q Q ! R ; 5 y $ 8 % % % % + o o o o X o o o o o X o o o X o o o X X X % % % % % u s 5 > V T Q ~ Q Q Q R W B W 0.",
"M.>.M L Y R R R Y U K B 2 6 a @ & % % % % + X X o o o o o X o o o o o X o o o X X X + % % % 8 % q a 6 = N L U R Y Y Y Y I n Q B.",
"B.>.v K I I I I V B B v = $ 6 @ < % % % % o X X X o o o o o o o o o o o o o o o X + + % % < d f i 0 * = c N V V L I I I L n Q B.",
"B.8.B N B B B N N N N v = $ 5 # 8 > % % = o o X o o o o o o o X o X o o X X X o X X + % % % d d 8 6 & # c M M N N B B B B N >.B.",
"V.B.e.r.r.8.8.r.:.8.0...3 $ 5 @ < > % + # o o X o o o o X o o o o o o o O o X o X X X % % % < 8 7 1 * - W e.w.<.8.8.8.r.8.e.B.V.",
"( w.a.a.e.a.a.t.a.p.4.` 2 $ * @ < % # o O o X X o o o X o o o o o X o o o X o X X X X + @ > u t 7 , $ - ( 7.t.t.u.a.e.4.-.-.w./ ",
"z Y Q ~ >.! ~ ! R T Y K = $ $ O 7 # o o o o X X X X X X X X X X X X X X X X X X X X X X X % > $ < $ $ # V Y T R ! ! ! Q Q T Y c ",
"b K T Q Q Q { T Y I V K ; = = - ; = = = = = = = = = = = = = = = = = = = = = = = = = = = = = = = - ; - - V V L Y T W R Q Q Y I b ",
"c K Y K I I K I K B B N h x v m n v c c c c c c x c v c c c x c c c c c c c c c c c z x c b c b c c x h M N V K L L L K I Y I c ",
"x N N n n n n n n n n v c N K R R U K K K v M B K I R I K L K I K K L K L K K K K B b N K K K K K V N c n v v v v v v v n N N x ",
"x n N N K K K K K K I K K U Q ~ ! Q X.! Q B B U W ! *.~ o.! X.X.Q o.o.X.o.! ! ! Y U N K Y Q Q Q T U U V N N K K K K K K K K V c ",
"x V Y R :.:.:.:.:.X.X.=.:.:.0.0.r.8.:.*.! K Y Q >.m.B.M.B.B.M.e.w.M.B.B.M.M.m.e.=.T V U R =.8.8.>.8.>.$.( T T T T T T T T T U c ",
"x K _ m.V.V.V.Z.Z.m.p.M.C.V.V.V.V.V.B.a.! K Q ~ t.B.V.V.V.B.V.B.B.V.V.V.A.A.A.C.B.y.U R e.B.V.B.V.C.V.B.V.b.x.x.t.e.e.y.! R T v ",
"c T *.m.N.B.N.N.Z.Z.V.B.Z.N.V.V.B.B.N.M.~ U Q ~ e.t.a.a.a.M.V.B.B.V.B.V.Z.Z.C.C.V.m.R ! e.y.e.a.N.Z.Z.V.Z.Z.Z.Z.B.B.B.B.c.g.r.n ",
"K Y R { ) } } } { _ ) ) } { { X.} { _ Q R T T T T T T T R _ } ` { } { { ` { { { { ` T T T T T R _ [ %. ._ } { ` } } { } } } { K "
};
