/* XPM */
static char *result[] = {
/* columns rows colors chars-per-pixel */
"32 32 95 2 ",
"   c #14110F",
".  c #151311",
"X  c #1A1715",
"o  c #171915",
"O  c #1A1916",
"+  c #1B1D19",
"@  c #1E221D",
"#  c #21241F",
"$  c #232522",
"%  c #2A2623",
"&  c #252A24",
"*  c #2C2A26",
"=  c #242629",
"-  c #282728",
";  c #26292D",
":  c #2B2B29",
">  c #312B27",
",  c #322E2A",
"<  c #2D332B",
"1  c #30332F",
"2  c #30392F",
"3  c #262C33",
"4  c #282E34",
"5  c #24323D",
"6  c #2D3439",
"7  c #333732",
"8  c #383736",
"9  c #343B33",
"0  c #3C3B3A",
"q  c #374135",
"w  c #384337",
"e  c #3E423E",
"r  c #3D493B",
"t  c #40493E",
"y  c #253544",
"u  c #273947",
"i  c #283847",
"p  c #273949",
"a  c #293B4B",
"s  c #2B4256",
"d  c #2B455B",
"f  c #2D4A64",
"g  c #2E4E69",
"h  c #30516D",
"j  c #325674",
"k  c #335877",
"l  c #345B7B",
"z  c #385F7E",
"x  c #444543",
"c  c #464946",
"v  c #4C4D4B",
"b  c #504F4F",
"n  c #4F524F",
"m  c #535453",
"M  c #565A55",
"N  c #585957",
"B  c #5C5C5C",
"V  c #646464",
"C  c #6A6A6A",
"Z  c #757575",
"A  c #7A7B7A",
"S  c #355F81",
"D  c #366184",
"F  c #396485",
"G  c #37658A",
"H  c #39668A",
"J  c #3B698E",
"K  c #3C6D93",
"L  c #3F7096",
"P  c #3D729A",
"I  c #3D76A2",
"U  c #3E78A5",
"Y  c #406E92",
"T  c #417095",
"R  c #41759C",
"E  c #437AA4",
"W  c #447EAA",
"Q  c #4581AD",
"!  c #4A84AE",
"~  c #4583B1",
"^  c #4985B1",
"/  c #4E8AB5",
"(  c #4D8CBA",
")  c #508CB7",
"_  c #518EB9",
"`  c #4F90BE",
"'  c #5491BC",
"]  c #5395C3",
"[  c #5699C6",
"{  c #579AC8",
"}  c #5B9DCA",
"|  c #848484",
" . c #8A8A8A",
".. c #929292",
"X. c None",
/* pixels */
"X.X.X.X.X.X.X.X.X.X.X.X.X.g S l S S g X.X.X.X.X.X.X.X.X.X.X.X.X.",
"X.X.X.X.X.X.X.X.X.X.X.D K P W Y W W P K G X.X.X.X.X.X.X.X.X.X.X.",
"X.X.X.X.X.X.X.X.X.j S W W W R J G P E W W J S X.X.X.X.X.X.X.X.X.",
"X.X.X.X.X.X.X.D P W Y H F S k j h k S G J Y W R G X.X.X.X.X.X.X.",
"X.X.X.X.X.g G W W Y z h h d s y y s f h h k J W W K h X.X.X.X.X.",
"X.X.X.X.X.K Q P S h i 4 4 - - % % - % : 4 y g S K W P j X.X.X.X.",
"X.X.X.X.k E K l a 4 > , , % * % # > % > , > - a k J E l g X.X.X.",
"X.X.X.K R S k i > > # # X X . . . . . X % % % > y j l R T X.X.X.",
"X.X.l E E j y % > 7 m < o . . . . . o o 7 m 1 & % 5 j T W G X.X.",
"X.J k R Y g = % * m n $ @ @ . .   . + @ + m B $ > $ f F ^ G F X.",
"X.T H Y J f ; > < 1 - # $ @ . . . . o $ + - 8 < % * d H E G T S ",
"X.j z F F g ; * & : B & @ @ X . .   + @ - e @ 7 * * d k z D D X.",
"X.h k k j f = * 7 : c m # o     . . . $ N 7 # q % $ d h j l j X.",
"X.X.h l g f $ % < : < | Z x $       : V Z c c w $ $ d h z j X.X.",
"X.X.l K G g ; * < x Z | | V :   .   0 | | Z x 9 % % f j P T X.X.",
"X.X.D E T f ; , r $ B  .C N -       0 Z  .B + < , * d l E T X.X.",
"X.X.l I F f = * N 8 x .. .V 8   . o N ....c : 7 & - d D U G X.X.",
"X.X.l I D f ; , w e V b c B 0   . o b v N c < q % - d l I G X.X.",
"X.X.l W G g ; > < e A m = x 0   . O 0 1 A Z < r * - f S U G X.X.",
"X.X.l W D f * , < ; N Z N b %   . X 0 C | v < r > * d l U H X.X.",
"X.X.l K j f : 1 < @ & e N c ,   . . x V x # & 2 > * s j K G X.X.",
"X.X.j l h g ; * $ & & < B B 0 . . O N V # - < 2 & * f j k k f X.",
"X.X.K E R T 4 # < @ & & x B 0   . X b b @ : : w - - H R R E D X.",
"X.R J K K H ; % & @ & @ 9 B &   .   1 x # & @ 2 % - l J Y J J X.",
"W R E ~ ~ I 6 , < @ & @ @ & o   . . o 1 # # # q * : J ^ W W E W ",
"/ l G J S j ; > < 2 & $ @ @ o   . . . @ # < 9 r * - g S F G l W ",
"' T L K Y F 3 # 2 2 @ $ < @ o . . . o @ # < w 7 % $ S K K K Y _ ",
"K Q ~ ~ W K ; + $ < 2 & @ o     . . . o @ < < & + $ H E ~ W W K ",
"j J K H S j y i p p p y y p y y y y y y y y p i i y h S H J J j ",
"f j k l l k l K P K S l K P K K K K K K D k H K D j j j k k l h ",
"h I ( ( / ^ ( ] ] ^ P P ( [ [ ] ] { { [ ! H ! _ _ _ ! W W E I l ",
"S W _ _ _ _ _ ( ( ^ P P E W ^ _ / ( _ ` / P W W _ _ _ _ / / ^ J "
};
