/* XPM */
static char *result[] = {
/* columns rows colors chars-per-pixel */
"32 32 83 1 ",
"  c #15110F",
". c #151210",
"X c #191614",
"o c #171916",
"O c #191A16",
"+ c #1B1D1A",
"@ c #231E1B",
"# c #1D211C",
"$ c #23211E",
"% c #28231F",
"& c #242523",
"* c #2B2623",
"= c #242923",
"- c #2C2A26",
"; c #252729",
": c #292728",
"> c #26292C",
", c #2B2B2A",
"< c #322B27",
"1 c #322E2A",
"2 c #2D322C",
"3 c #32322E",
"4 c #30392F",
"5 c #262C33",
"6 c #2E2F31",
"7 c #2D3136",
"8 c #25323F",
"9 c #343533",
"0 c #343D33",
"q c #3A3936",
"w c #3B3C3B",
"e c #3A4638",
"r c #40413F",
"t c #253543",
"y c #273847",
"u c #263949",
"i c #2A3E4F",
"p c #2B4255",
"a c #2B455C",
"s c #2D4A63",
"d c #2F4E69",
"f c #2F506D",
"g c #30516D",
"h c #325674",
"j c #335877",
"k c #345B7B",
"l c #385F7D",
"z c #434442",
"x c #444A43",
"c c #4D4D4D",
"v c #535353",
"b c #585958",
"n c #355F81",
"m c #366184",
"M c #396385",
"N c #37658A",
"B c #39668A",
"V c #3B698D",
"C c #3C6D93",
"Z c #3F7096",
"A c #3D729B",
"S c #3D76A2",
"D c #3E78A5",
"F c #406F93",
"G c #407095",
"H c #41759C",
"J c #437AA4",
"K c #447EAA",
"L c #4581AD",
"P c #4983AD",
"I c #4583B1",
"U c #4985B2",
"Y c #4D8AB5",
"T c #4D8DBA",
"R c #508CB7",
"E c #518EB9",
"W c #4F90BE",
"Q c #5391BC",
"! c #5395C3",
"~ c #5698C6",
"^ c #579AC8",
"/ c #5B9DCA",
"( c None",
/* pixels */
"(((((((((((((dnknnd(((((((((((((",
"(((((((((((mCAKCKKACN(((((((((((",
"(((((((((jnKKJHBBGJKKBl(((((((((",
"(((((((mAKGBMnkjgjnmBFPAN(((((((",
"(((((fNKKFkgdspttpaggkCJKVd(((((",
"(((((CLAngy55::**::55tdlALAh((((",
"((((lHCji5-<<******<<*>ijVSkd(((",
"(((CHmjy-<@%X... .XX%%--tjlGA(((",
"((lJJjt*3*... . . .   &<*8hGIN((",
"(VjHCs&*qwO..........Xzq*&sBUnB(",
"(ABFCs,*22+X. ... ..X#,,*,aBJBGl",
"(jlmms,*#7+X.. ... .o=e2<,ajlmm(",
"(gjjjs:%O:+........ .,94-:aghkj(",
"((fjfa&@ww,+.... ...+w92-&pgkj((",
"((lCBs,&,c9&X.......:cv0,-sjAG((",
"((mDGs><9c9:.......o2bw=,:anSG((",
"((kSNa:<zcq&..... .+wbw9-:pnDN((",
"((kAms:*@z5&. . .. +:wxx-:anSN((",
"((kLNs>%Xw&#....   X#wbe1:snDN((",
"((kKMs,*#ce>o.. .  @6vxe3,sjDN((",
"((lCjs,*+79:.... . +,q#2<-ahCm((",
"((hjgs>%++=#.... ...66=2--shkjd(",
"((AJHZ5@+o++ . ....X9&&4->VHHJm(",
"(HVCCm>$+#+X..... . &+$-::lVCVV(",
"KHJLLA7*o#o... ..   o##=,7VPLKHK",
"YjNCmh>*==o.......  .#4e,-gmNNkP",
"!ACCCM>%4=o..... .  o#2e*&mCCZZW",
"VIILKC;+#oo .       oo$,+&BKLKKV",
"hNCBnhtyutttttt8ttttt8tyttglBBCh",
"djjkkjkCACnkCAZZZZZCmjBCMkhjjjkf",
"fJTTYUTWWYAAT~^!!^^~PBLWQYPJKKAk",
"kKEEEEEETYAADKURRYEQYAKLRQQRYYLC"
};
