/* XPM */
static char *result[] = {
/* columns rows colors chars-per-pixel */
"32 32 77 1 ",
"  c #15110F",
". c #151210",
"X c #191614",
"o c #161815",
"O c #1A1916",
"+ c #1D1D1A",
"@ c #221E1C",
"# c #1D201C",
"$ c #24211E",
"% c #242524",
"& c #2B2623",
"* c #252A24",
"= c #2D2926",
"- c #252729",
"; c #282728",
": c #262A2D",
"> c #2A2A2A",
", c #302A27",
"< c #342C29",
"1 c #2D312C",
"2 c #33322C",
"3 c #262D34",
"4 c #2B2D31",
"5 c #2E3236",
"6 c #343431",
"7 c #383731",
"8 c #343934",
"9 c #393832",
"0 c #3B3C3A",
"q c #253543",
"w c #263848",
"e c #2A3F51",
"r c #2B4052",
"t c #2B455C",
"y c #2C485F",
"u c #2D4A63",
"i c #2F4E6A",
"p c #2F506C",
"a c #30516D",
"s c #325573",
"d c #335877",
"f c #345B7C",
"g c #385E7D",
"h c #434242",
"j c #4C4C4B",
"k c #355F81",
"l c #366184",
"z c #396384",
"x c #366489",
"c c #39668A",
"v c #3B698D",
"b c #3C6D93",
"n c #3B6F98",
"m c #3F7197",
"M c #3D729B",
"N c #3D77A3",
"B c #3F79A6",
"V c #406F93",
"C c #407095",
"Z c #41759C",
"A c #4277A0",
"S c #437BA5",
"D c #447EAA",
"F c #4581AD",
"G c #4A83AD",
"H c #4583B1",
"J c #4A86B1",
"K c #4D89B5",
"L c #4E8DBB",
"P c #508CB7",
"I c #518EB9",
"U c #4F90BE",
"Y c #5390BB",
"T c #5394C3",
"R c #5698C6",
"E c #5A9CC9",
"W c None",
/* pixels */
"WWWWWWWWWWWWWildxkiWWWWWWWWWWWWW",
"WWWWWWWWWWWxbMDbSDMbxWWWWWWWWWWW",
"WWWWWWWWWdzDDSZccMSDDcgWWWWWWWWW",
"WWWWWWWxMDVczgddadgxcVGMxWWWWWWW",
"WWWWWivDSbfaiutqqtuiadbSDvpWWWWW",
"WWWWWnFMkpq34%%&&&;33wpgMDMpWWWW",
"WWWWgAbde4,<<&&&&&&,<,>edbMgiWWW",
"WWWnMgdq,,@@X...  .O@$,=qdgZnWWW",
"WWgSZsq&=X  ..... .. .X==3sZFxWW",
"WvdZVu%=@ .... ......  O>-ucJkcW",
"fZxCvu>=%O............O*2;uvZzZf",
"Wdgzku>&o+.... .......%86>tdlllW",
"Wadddu-@%+....... ....>0<%tssfdW",
"WWadpt%%0>X..........Oh0=%tagsWW",
"WWgbzu;=j6+...... ...+802;udMVWW",
"WWxBVu;<j>+ .. ......+002;tkSVWW",
"WWkNxy-,0;O. ........%0j6;tlNxWW",
"WWfNky>,0%O....... ..X$09;tkNxWW",
"WWfDzu>=5o...........X*16>ugBxWW",
"WWfDzu>,0%..... .....+h09>ugNxWW",
"WWkbsy>=h;  .........X>19>tsbxWW",
"WWddau>&2;. ..... . ..*12=usdduW",
"WabSZV3$*+.. ........X>*2>vZAAlW",
"WZvbbl>$##O...........%*2;fVbvvW",
"DZSHFM5&##..........  +*93bFFDAD",
"Jdxvks>&*#........... #89>izcxfD",
"YMbmbl:$*o. ..........o;1%lbmbCI",
"VHHFSb-Oo.  ...        o$%vSHFSb",
"scbvlsqwwqqqqqqqqqqqqqqqqqakccvd",
"idddddgMnbkfmMbnbnnbkdxbzdsdddds",
"sMLLKJLLUKnMLTETTERRGvHIIIGDSSMk",
"kDIIIIILKKMMBFGIKKYYKMDDIYILLKFb"
};
