/* XPM */
static char *result[] = {
/* columns rows colors chars-per-pixel */
"64 64 134 2 ",
"   c #090D07",
".  c #0B0F09",
"X  c #0E110C",
"o  c #14110F",
"O  c #151311",
"+  c #191614",
"@  c #161915",
"#  c #1B1916",
"$  c #1C1D1B",
"%  c #211E1C",
"&  c #1E211D",
"*  c #22221E",
"=  c #28221F",
"-  c #1A1E22",
";  c #1C2226",
":  c #1D242A",
">  c #1F282F",
",  c #1F2A33",
"<  c #232521",
"1  c #2C2622",
"2  c #252A24",
"3  c #2C2A26",
"4  c #202429",
"5  c #22282E",
"6  c #2A2D2A",
"7  c #312A26",
"8  c #342D2A",
"9  c #2C322B",
"0  c #34312D",
"q  c #39312E",
"w  c #31382F",
"e  c #212C35",
"r  c #222F39",
"t  c #23323D",
"y  c #343533",
"u  c #3C3432",
"i  c #343C33",
"p  c #383D37",
"a  c #3B3C3B",
"s  c #403734",
"d  c #364134",
"f  c #384237",
"g  c #3C453A",
"h  c #3D493B",
"j  c #414D3F",
"k  c #243544",
"l  c #253748",
"z  c #263A4D",
"x  c #283E51",
"c  c #2A4156",
"v  c #2C465D",
"b  c #2C485E",
"n  c #2C4760",
"m  c #2E4A63",
"M  c #2F4E69",
"N  c #304F6A",
"B  c #2F506C",
"V  c #31516E",
"C  c #325573",
"Z  c #345877",
"A  c #345B7B",
"S  c #395F7D",
"D  c #444544",
"F  c #484747",
"G  c #454A43",
"H  c #484947",
"J  c #4C4D4C",
"K  c #504F4F",
"L  c #455443",
"P  c #495847",
"I  c #4F504F",
"U  c #4C5C49",
"Y  c #50514F",
"T  c #545454",
"R  c #545853",
"E  c #5B5B5B",
"W  c #4E604B",
"Q  c #5D615C",
"!  c #60655F",
"~  c #636463",
"^  c #6C6C6C",
"/  c #6F716F",
"(  c #747474",
")  c #777A76",
"_  c #7C7C7C",
"`  c #355F81",
"'  c #366184",
"]  c #396384",
"[  c #376489",
"{  c #38668B",
"}  c #3A698E",
"|  c #3B6C94",
" . c #3B6F98",
".. c #3F7197",
"X. c #3C729C",
"o. c #3D76A2",
"O. c #3E79A6",
"+. c #3E7AA9",
"@. c #416D8F",
"#. c #416E90",
"$. c #427194",
"%. c #42769E",
"&. c #45789E",
"*. c #4177A0",
"=. c #437AA3",
"-. c #497DA3",
";. c #427EAB",
":. c #487FA8",
">. c #4481AE",
",. c #4983AD",
"<. c #4683B2",
"1. c #4985B2",
"2. c #4C89B6",
"3. c #4D8CBA",
"4. c #508CB6",
"5. c #518EBA",
"6. c #4F90BE",
"7. c #5291BE",
"8. c #5394C2",
"9. c #5699C7",
"0. c #589AC7",
"q. c #599CCA",
"w. c #5FA1CC",
"e. c #61A2CD",
"r. c #63A4D0",
"t. c #838383",
"y. c #878887",
"u. c #8B8B8B",
"i. c #939393",
"p. c #9B9B9B",
"a. c gray63",
"s. c #AAAAAA",
"d. c #C3C3C3",
"f. c None",
/* pixels */
"f.f.f.f.f.f.f.f.f.f.f.f.f.f.f.f.f.f.f.f.f.f.f.f.f.f.f.f.f.m m n m m m f.f.f.f.f.f.f.f.f.f.f.f.f.f.f.f.f.f.f.f.f.f.f.f.f.f.f.f.f.",
"f.f.f.f.f.f.f.f.f.f.f.f.f.f.f.f.f.f.f.f.f.f.f.f.f.b b M C |  .V { X. .Z B n n f.f.f.f.f.f.f.f.f.f.f.f.f.f.f.f.f.f.f.f.f.f.f.f.f.",
"f.f.f.f.f.f.f.f.f.f.f.f.f.f.f.f.f.f.f.f.f.f.f.Z Z Z Z  .o.O.*.C o.;.+.o.X.` Z Z Z f.f.f.f.f.f.f.f.f.f.f.f.f.f.f.f.f.f.f.f.f.f.f.",
"f.f.f.f.f.f.f.f.f.f.f.f.f.f.f.f.f.f.f.f.f.n A o.+.+.+.+.2.3.2.Z 4.3.3.3.+.O.+.+.O.[ m v f.f.f.f.f.f.f.f.f.f.f.f.f.f.f.f.f.f.f.f.",
"f.f.f.f.f.f.f.f.f.f.f.f.f.f.f.f.f.f.n M m ` =.;.3.3.3.3.:.=.5.A #.=.=.=.3.3.3.3.;.;.| N N n f.f.f.f.f.f.f.f.f.f.f.f.f.f.f.f.f.f.",
"f.f.f.f.f.f.f.f.f.f.f.f.f.f.f.f.n B V { V o.3.3.*...%.X.} [ } C m ` [ [  .%.%.%.2.5.;.A -.` M n f.f.f.f.f.f.f.f.f.f.f.f.f.f.f.f.",
"f.f.f.f.f.f.f.f.f.f.f.f.f.f.f.Z Z  .O.:.| &.$.| | { [ ` A Z Z A N C Z Z ` ] [ { | #.&.@.5.;.o.` Z f.f.f.f.f.f.f.f.f.f.f.f.f.f.f.",
"f.f.f.f.f.f.f.f.f.f.f.f.f.n A o.+.;.2.1.:.` C ` ` ` Z Z Z C Z C m N Z Z Z Z ` ` A Z A =.,.2.;.=.o.{ M v f.f.f.f.f.f.f.f.f.f.f.f.",
"f.f.f.f.f.f.f.f.f.f.f.v m [ o.+.4.5.=.} { ` V N C Z Z C C M b b v n N C C C Z C N N Z ` } =.4.3.;.+.| V b f.f.f.f.f.f.f.f.f.f.f.",
"f.f.f.f.f.f.f.f.f.f.n M | +.<.3.=.*.{ ` A C C V m N v x x z 5 % - - k x x x V M V C C ` A ` #.%.2.<.+. .Z m f.f.f.f.f.f.f.f.f.f.",
"f.f.f.f.f.f.f.f.f.f.A X.+.1.1...` ` A C N z k l k k < $ % $ % = 1 % % $ % % r k l l l M Z Z ` ` | <.2.;.o.A f.f.f.f.f.f.f.f.f.f.",
"f.f.f.f.f.f.f.f.f.m  .+.3.,.| { A C C N k % % % % % 1 1 1 1 1 7 8 7 1 1 1 1 % % % % % e n Z Z Z [ } =.3.;.o.V b f.f.f.f.f.f.f.f.",
"f.f.f.f.f.f.f.v m #.;.2.=.| ` A Z m t 4 % 1 8 7 s 8 1 8 q s q s u u s q 8 1 7 s 7 8 7 % 4 e x C A A { %.2.;.=.V v f.f.f.f.f.f.f.",
"f.f.f.f.f.f.f.B V V -.%.` ' A C x 4 = 1 7 q q q q q % 7 % % # # # # + % 8 % 8 s q q q 7 1 = 4 z N A ` ` | | Z V V f.f.f.f.f.f.f.",
"f.f.f.f.f.f.A  .o.} V ] { A N z % 7 s 8 1 8 8 7 % O + + O o O o O O o O + O O + 1 8 7 7 1 u 7 % t m A [ [ N ] o.o.` f.f.f.f.f.f.",
"f.f.f.f.f.m  .;.2.,.` Z A C k $ = 8 q % % O O O o O O O o O o O O O O O O O O O O + = % % q q 1 % e N A Z A *.3.;.o.V f.f.f.f.f.",
"f.f.f.f.m { | ;.8. .` C m r % 1 q q 2 3 i E G & X @ O o O O O o O o o o o o o @ i H ~ y # % 8 q 7 % 5 v V A } 5.<.O. .M f.f.f.f.",
"f.f.f.f.m | | 3.=.} A N x - 1 8 q = 6 G / ) 9 @ & & @ @ O O O O O o @ o o & & @ * D ( T j 9 % 8 q 8 $ k N C { #.8.;.o.V f.f.f.f.",
"f.f.f.f.b ] { 7.X.` Z n : $ 7 u % 6 p / ( E < & & & & & + o o O O O @ o O & 2 ; @ @ T ) _ G ; # q 8 % # x C ` ` 5.;.O.V b f.f.f.",
"f.0.-.{ N Z A 4.%.A C n - * 1 7 # 8 H ~ F w * < 2 & & & + o O O O O o o @ * 2 < $ @ 6 ~ ) T 9 # 1 1 * # x C A } 8.;.} M ` &.8.f.",
"f.S %.2.%.C Z 4.%.` Z n - 8 u < 6 d J w @ @ - < * & 2 & + + o o O O o O O $ & & & @ @ 2 T T 9 # % q q % x C ` } 7.;.C } 2.=.] f.",
"f.n ' ..,.A C 4.*.A C n - 7 u % 9 9 & @ 2 y < & 2 2 2 & + o o o O O o O @ * 2 & $ @ y $ @ < i 9 - q q $ x C A } 7.] V ;.*.} N f.",
"f.n A ` A A M @.` C N n 4 7 q - 9 < & # ^ ~ < & = * = % + o o + O o O O @ $ 2 < @ 2 K < @ $ w i $ 8 8 $ x N N A $.V Z A A ` m f.",
"f.f.b C A ' [ ' { { ` M - 7 s % 9 2 ; a ^ _ 6 @ @ * = % + o o o O O O o @ < 2 $ @ 5 ^ F $ & j d % u 8 - z N V A Z ] [ [ [ ' C f.",
"f.f.n ` { { ] ` ` ' A n : 7 8 % j 9 & H ! s ! 3 . o & & + o + o o O O o O o o o Q s 1 H = * L g - 8 7 $ z C C A A A { | { Z f.f.",
"f.f.n m n M m M m n m b - * 7 - P 9 & & j % _ ! 3 $ o   o o o o o O o O O o @ * t.t.= + o # g d % 1 < # x m n m M M M m m n f.f.",
"f.f.f.f.n C C C Z m V n - % 7 % f 9 @ @ o 7 y.s._ E w 3 # + o o O O O o @ 6 G ~ i./ s % g < L g % 1 = # x V m C C Z A m f.f.f.f.",
"f.f.f.f.n A ` A C n C n - = 7 $ 9 < $ R 7 7 ( s.a.^ E E s % o o O o o O + J E i.t.Q s ) i.6 L g ; 1 3 $ z C n Z S ] { M f.f.f.f.",
"f.f.f.f.m [ | [ { V V n : = 1 $ w 2 & _ ,.s ^ i.p.u.~ E K = o + O O O O < K y.i.( _ j a.( < L g % < 1 $ x C m ` } | ,.C f.f.f.f.",
"f.f.f.f.n | ..| 4.Z S M ; 8 s * h 9 & Q i.i.u.y.,.y.~ E q + o o O O O O < T t.u.t.i.i.( 6 # j g * q u % x ` M ' | =.7.Z f.f.f.f.",
"f.f.f.f.m X.O. .4.Z Z m : 1 u % P 9 & & ! u.u.y.~ Q E T 8 + o o o O O O * K Q _ y.u.u.9 @ & w w - u 7 $ x A M { | *.7.Z f.f.f.f.",
"f.f.f.f.m | +.o.7.Z V b ; 1 u < P Q 2 @ 1 ! u.i.^ R E T q + o o O o O O 4 K ~ t.u.u.-.6 $ & y 6 2 u 7 $ x V M X.o.O.>.C f.f.f.f.",
"f.f.f.f.m { o.O.=.C V n - 7 u * U ) p o % E i.p.i.^ E E K % o O o O o + D E t.i.p.p.( = # = w 9 * q 8 $ x C M  .o.+.o.V f.f.f.f.",
"f.f.f.f.m ` o. .o.C V n : % 8 - U ~ ~ 2 s E i.a.p.p.( E T % o O O o + + K ^ p.s.a.u.Q % # ! j 9 # 3 1 $ z V M  . .o.O.V f.f.f.f.",
"f.f.f.f.n ` o.| X.V C n - 7 q % L D K < T Q ^ ^ ^ ^ y.~ T = o O o O o + K u.( _ / Q R = o J j 3 $ 8 8 $ x C M  . .o.o.V f.f.f.f.",
"f.f.f.f.m ` o.o. .M C n - 7 u < L < D F ^ _ k $ + 1 F E T 4 o O O o O + J D % + 7 s ( H # j j 8 % u 8 $ z C M { X.O.o.V f.f.f.f.",
"f.f.f.f.m ` +.8. .M A m : = 1 % j & w R / i.K O   # 5 K T = O O O O o + F 1     y ,.p.~ & 9 U f $ 1 1 $ x ` M [ O.+.o.V f.f.f.f.",
"f.f.f.f.n [ =.8.%.M ` m : 8 s % w & 2 T ^ u.u.K a 6 a T T = O O O o O + K T D a i.d.p.Q & 2 W g & u u % x ` V ` o.+.o.V f.f.f.f.",
"f.f.f.f.m ` *.8.%.M ` m ; 1 s % f & 2 i E ( t.t.^ K T E a # O O O O o + q T ( y.p.a.) h & 9 W f - u 8 $ x ` V { o.+.o.V f.f.f.f.",
"f.f.f.f.m ` o.;.| M Z m : 1 u % L 2 < @ F E ^ / K T T T % o O O o O o o + J E ~ ^ / E & * 6 U g * 8 8 $ x Z M ` o.+.o.C f.f.f.f.",
"f.f.f.f.M [ o.[ A m C n : 3 u < L 2 2 & & & P R ^ E 0 F 6 + o O O o O o % K ^ ~ E T < @ 2 9 f i $ q 8 $ c V m Z ` o.O.V f.f.f.f.",
"f.f.f.f.n |  .` S m Z n ; 3 u * h ; 2 2 & & y < E E y K T % o o o O O + F E ^ ^ F $ @ ; 2 2 i d < u q $ x A m A A  . .M f.f.f.f.",
"f.f.f.f.n ` ` A C m V b ; 3 q % w & * & 6 2 @ X E ~ E E T 1 o o o o o + J ~ ^ ^ & . * 2 & 2 w d $ 8 8 $ x V m C Z ` { M n f.f.f.",
"f.f.f.n M V V M B m V V : 7 7 % 9 & * 9 9 9 @ Y ^ ~ E E T 4 o o o + O + K ^ ( ~ & & 6 9 9 9 d d & 7 8 $ b V m M M M V M m n f.f.",
"f.f.f.m | *.*.*.%.{ %.%.r = 7 $ d & & 9 9 9 @ R y J E E R = o o O O o + K ^ u.a X 2 9 9 2 2 P f $ 7 3 - { ;.=.%.*.*.*.=.o.V f.f.",
"f.f.f.m =.3.8.3.3.2.2.,.r % 7 & h & & & & & @ @ @ E E E E = o o O o O + s E ~ % @ 2 2 * & 2 h d % 3 = $ @.1.2.4.2.4.2.4.:.V f.f.",
"f.f.,.V C Z ` ` A Z Z C 4 = * & h & & & 9 9 6 & + _ / E u # o o O O o o + J T % * 9 9 2 2 2 d d - = * $ c V Z Z A Z Z Z V m f.f.",
"f.f.8.*.| | { } | | | } , = 0 & 9 & & & & & 2 2 @ p ! E = o O O o O O O O 8 t.e & 9 & & & & w d % 8 7 $ A | | | | | | | | :.f.f.",
";.;.2.5.5.3.8.8.8.3.8.3.t 3 s < h 2 & & & & & & & X : h * o o o O o O O X @ ~ w & & & & & & d d % u 8 - &.5.8.8.8.8.8.8.3.5.;.+.",
"1.O.Z ] |  .+.+.o.o.o.X.e 1 s * L 2 & 2 9 & 2 2 & @ & & + o o o o O O O @ @ & & & & 2 & & & P g % u q - Z  .X.+.o.X.o. . .C o.;.",
"q.;.C ` }  . . .| { ' A > 7 s % L & & g h 2 & 2 & X & & + o o O O o O O O O & & 2 & d d & & P g % q q $ M ` {  .|  .} } ` B X.9.",
"q.;.C A [ [ { [ A A Z N : < 8 % d & d d & & & & & & & & + O O O o O @ X O O & & & & & g h h W g - 7 1 $ n C Z Z ` ` ` } { B  .9.",
"q.1.A C Z Z Z C C C C V : % 1 $ w h h 2 & & < < h 9 & & @ o o o O o O o O @ & & 2 2 2 d g h g 9 $ 1 % $ n V C C C Z C ` C C =.9.",
"q.0.2.<.<.<.<.<.<.;.1.;.r % 7 $ 9 d d & O & ; & & h 2 & @ o o o o O o O O & & @ & & & 2 w i i 6 $ 1 = $ #.1.2.;.;.2.;.;.;.3.9.q.",
"#.<.3.3.2.3.2.3.3.3.:.:.e % = # 9 9 w 9 d d i & 9 2 & & + o o + O O O O X & & & & & d d p w y 3 $ % % - @.:.2.2.8.2.2.:.:.;.2.%.",
"n [ o.o.+.O.O.o. .| } ` > % % + * 2 9 9 w d i $ & @ @ @ o o o o o O O o o @ O X @ & 9 d 9 6 6 5 $ % % $ C {  . .o.+.O.o.o.} } m ",
"n ` } o.o.o.*. .{ ` A ` e - - - - : ; ; : : ; ; - - - - - - - - - - - - - - - - - - - 4 - : : 4 - 4 4 - V ` ` { | X. .o.o.| { M ",
"n ` } [ ` { ` ` ` A C A z n M V V m m m m n n m M M V m m m n M m m m m m m m m m m n m m m m m m m n z N C ` ` ` ` ` ` ` | [ M ",
"n C C N N N N N N V N V m C `  .X.{ [ ` ` M V Z ` `  .{ ` [ ` ` ` ` ` ` ` ` ` ` ` Z m C ` ` ` ` ` ` Z M M M m M B B B M M V C n ",
"n N C C ` ` [ ` ` ` ` ` ` { X.+.=.o.o.o.o.Z Z [ o.O.;.O.O.=.=.o.*.*.;.=.;.+.=.O. .` Z ` } o.o.o. .` ` ` C V ` ` ` ` ` ` ` ` ` M ",
"n Z [ $.;.;.;.;.;.O.*.;.;.;.<.<.;.<.;.;.O.` { o.O.8.9.9.q.9.9.1.;.8.9.q.9.9.8.1.;.*.` {  .;.;.;.;.;.;.=.$.@.| | | |  . .| } [ M ",
"n `  .8.q.q.q.q.r.8.3.8.w.q.q.q.q.q.q.3.+.` X.+.2.9.q.q.q.q.q.q.q.q.q.q.r.r.r.r.q.:.{ | ;.q.q.q.q.r.q.q.w.8.8.2.;.8.:.:.;. .| M ",
"n } O.8.q.q.q.q.w.w.q.q.r.q.q.q.q.q.q.9.;.{ X.+.<.<.2.2.3.8.q.q.q.q.q.q.w.r.w.w.q.9. .o.2.8.;.8.9.w.r.q.w.w.w.r.q.q.9.9.8.8.;.Z ",
"` }  .*.%.&.&.*.*.*.&.*.*.*.*.*.*.*.*.*. .|  . . .| |  .| %.&.*.*.=.*.*.*.*.*.*.%.%.| | | | | #.%.&.-.=.%.*.*.*.=.=.%.%.%.*.*.{ "
};
