/* XPM */
static char *result[] = {
/* columns rows colors chars-per-pixel */
"32 32 105 2 ",
"   c #151412",
".  c #161A15",
"X  c #191917",
"o  c #1B1C19",
"O  c #1E231D",
"+  c #22241F",
"@  c #232522",
"#  c #2A2624",
"$  c #252A24",
"%  c #2B2A26",
"&  c #252629",
"*  c #262A2D",
"=  c #2B2B2A",
"-  c #302926",
";  c #332C28",
":  c #2D342C",
">  c #2E382D",
",  c #31332D",
"<  c #30392E",
"1  c #262C33",
"2  c #282F35",
"3  c #25323E",
"4  c #2D343A",
"5  c #323632",
"6  c #343C33",
"7  c #383D36",
"8  c #3A3D39",
"9  c #374136",
"0  c #384337",
"q  c #3C433B",
"w  c #3E483C",
"e  c #40413F",
"r  c #414B3F",
"t  c #253644",
"y  c #273946",
"u  c #283947",
"i  c #273A49",
"p  c #283B49",
"a  c #2B4257",
"s  c #2B445A",
"d  c #2D4A64",
"f  c #2F4E69",
"g  c #304F6B",
"h  c #2F506C",
"j  c #30516D",
"k  c #325674",
"l  c #335877",
"z  c #345B7B",
"x  c #385F7E",
"c  c #434442",
"v  c #454844",
"b  c #484A47",
"n  c #4C4D4B",
"m  c #51504F",
"M  c #545453",
"N  c #585757",
"B  c #565A55",
"V  c #5B5B5A",
"C  c #5F615E",
"Z  c #626362",
"A  c #6C6D6C",
"S  c #6F706F",
"D  c #747474",
"F  c #7C7C7C",
"G  c #7F807F",
"H  c #355F81",
"J  c #366184",
"K  c #396485",
"L  c #37658A",
"P  c #3A668A",
"I  c #3B698E",
"U  c #3C6D93",
"Y  c #3B6F99",
"T  c #3F7095",
"R  c #3D729B",
"E  c #3D76A2",
"W  c #3E78A4",
"Q  c #417196",
"!  c #41749C",
"~  c #4177A0",
"^  c #437BA4",
"/  c #447EAA",
"(  c #4581AD",
")  c #4983AE",
"_  c #4583B1",
"`  c #4986B2",
"'  c #4E8AB6",
"]  c #4D8CBA",
"[  c #508CB7",
"{  c #518EB9",
"}  c #4F90BE",
"|  c #5490BA",
" . c #5394C2",
".. c #5699C7",
"X. c #5899C6",
"o. c #579AC8",
"O. c #5B9DCA",
"+. c #808080",
"@. c #8B8B8B",
"#. c #949494",
"$. c #9C9C9D",
"%. c #A3A3A4",
"&. c #ABABAB",
"*. c #C6C6C6",
"=. c None",
/* pixels */
"=.=.=.=.=.=.=.=.=.=.=.=.=.f x l H H h =.=.=.=.=.=.=.=.=.=.=.=.=.",
"=.=.=.=.=.=.=.=.=.=.=.J U U / Q ^ / R U P =.=.=.=.=.=.=.=.=.=.=.",
"=.=.=.=.=.=.=.=.=.l H / / / Q I K R / / / P H f =.=.=.=.=.=.=.=.",
"=.=.=.=.=.=.=.J Y / Q P L H z l j l H J L Q ) R P =.=.=.=.=.=.=.",
"=.=.=.=.=.f L / / U H g f d s t t a s g g z I ^ / U j =.=.=.=.=.",
"=.=.=.=.=.U ( R H k u 1 1 & # # # # # 1 2 t f x U ( R k =.=.=.=.",
"=.=.=.=.z ~ U z p 2 - ; ; # # # # # # - ; # 1 p k U R x f =.=.=.",
"=.=.=.U ! H l u - - + , , $ o       X , ; # - - 3 k x R R =.=.=.",
"=.=.z ~ ~ l u # - + e C : o X .     o 5 C q + % # 3 k Q / L =.=.",
"=.I l ! U f & # @ 8 C 7 O O O o   o O O v A r + # @ s L ` L K =.",
"=.R I Q U f * # = 5 5 @ O $ @ o   O + O # = 0 % # = s I ~ P ! H ",
"=.k x x H f = % < + e n o O @ o   O + & V : + 9 % % p H K H K =.",
"=.g l l k f & # 0 $ = v V O . .   . X 7 a ; + 0 # # a j k l l =.",
"=.=.f l f d & # 6 % 8 b #.#.F v   n @.) 5 n ; w & @ a j z l =.=.",
"=.=.z U P f * # 6 $ m S @.&.*.Z X F &.@.F A $ 0 # # s z Y Q =.=.",
"=.=.J ^ Q d * - w 6 5 F @.@.#.N X D @.@.S + = 7 % = s H ~ Q =.=.",
"=.=.z E L d = # r B = A $.%.%.V X +.&.$.B O b 8 + - s H E L =.=.",
"=.=.l E H d = % e a c Z b b F V o S V m Z % 9 < # % s x E L =.=.",
"=.=.l / I f * % < + 8 @.M = N V X N ; C @.r + 0 % = d z W I =.=.",
"=.=.l / H f = = 0 % 7 A F D @.Z X A F +.C : $ 0 ; % s z E L =.=.",
"=.=.z U k d $ = 9 : $ % c A D 8   V D e + + + > ; = s j I L =.=.",
"=.=.k z j f = % % + $ + $ Z D M   C S ; $ - + > % % d j z l f =.",
"=.=.U ^ ! T : + > $ $ $ % b D N X Z N ; % $ + 9 # $ P ^ ~ ~ K =.",
"=.! I U T K * + > + $ $ O q S M X V m + $ + + > # & l I U I I =.",
"/ ! / ( ( ~ 4 - 0 $ O @ O : 6 9 . $ 6 O $ O O 9 ; = P ) ( / ~ / ",
"] z J U J k 1 % > > > @ @ O $ < . O O & > 6 $ 0 % = g H J I z / ",
" .Q U U Q P * + = 0 = O @ > 0 9   : > O O 6 6 < @ @ z U Q Y U { ",
"I ( _ _ ^ U * o $ : > < > > > >   = > : > > : % o & K / ( / ^ U ",
"k I I I H k y y i i i i p p i i t y i p u u t t u t j x I I I l ",
"d l l z z l l Y Y I H z U R T U U U Y U K l P U K z j l k l z h ",
"k Y [ { ] ` ]  . .] Y Y ] ..X. . .o.O.X._ I ( { { ] ) / ^ ^ E z ",
"H / [ [ { [ [ ] ' ` R R / / ` ' { [ { | ' R / / [ { { { [ ' _ U "
};
