/* XPM */
static char *result[] = {
/* columns rows colors chars-per-pixel */
"54 50 28 1 ",
"  c black",
". c #400070",
"X c #505050",
"o c gray47",
"O c #A84800",
"+ c #D06000",
"@ c #F87000",
"# c #880050",
"$ c #981858",
"% c #B83878",
"& c #F8A800",
"* c #F8D000",
"= c #6008A8",
"- c #7028B8",
"; c #0006FE",
": c #D85090",
"> c #F870B0",
", c #9048C8",
"< c #A0A0A0",
"1 c #F888B8",
"2 c #F8A0C8",
"3 c #F8B8D8",
"4 c #C0C0C0",
"5 c #D8D8D8",
"6 c #F8F8D8",
"7 c #F8D0E0",
"8 c #F8F8F8",
"9 c None",
/* pixels */
"999999999999999999999999999%%%%%9999999999999999999999",
"99999999999999999999999999%>>%$>%999999999999999999999",
"9999999999999999999999999%>2$99$9999999999999999999999",
"99999999999999999999999%%:11$$$99999999999999999999999",
"999999999999999999999%%>1:2>$:%$9999999999999999999999",
"99999999999999999999%:#>121%:>#%$999999999999999999999",
"99999999999999999999%>>>>2>:>>>:$999999999999999999999",
"9999999999999999999%%>1>$21>#>>>$$99999999999999999999",
"999999999999999999%1%1221221>>>>$:$9999999999999999999",
"99999999999999999.%>>2222222>>>>:%$.999999999999999999",
"999999999999999..-$:222:$>2>$:>>>$$=..9999999999999999",
"9999999999999..-=,%23>>>:$1$::::>:$=.=..99999999999999",
"999999999999.=---,%>3773%>>>%21>>%$,---=.9999999999999",
"99999999999......,-$23322%%%21>>:$=,......999999999999",
"9999999999..$%% O.,-$>>122221>>:$=,.O %%$..99999999999",
"9999999999.$:>:%O@.--$$$>121>$$$=-.@O%:>:$.99999999999",
"999999999.$#>>>:O& ..-..$$$$$..=.. &O:>>:$$.9999999999",
"999999999.$>22:$@O   .-,-.-.-,-.   O@$:22>$.9999999999",
"999999999$:22>:OO   .-,===.===,-.   OO:>22:$9999999999",
"99999999.$:2>:$    .-,,--.:.--,,-.    $:>2:$.999999999",
"99999999.$O>:OO    .,....>2>....-.    OO:>O$.999999999",
"99999999O@*OOO OO&@..@O:>:::%%O@..@&OO OOO*@O999999999",
"99999999O&6*&O %:OOOOOO:>>>>>:OOOOOO:% O&*6&O999999999",
"99999999O*6@+O  %%:>>1133221>>>::::%%  O+@6*O999999999",
"99999999O&**@O    %>223732221>>>>:%    O@**&O999999999",
"99999999O&@*&Oo     :>232221>>>:%     oO&*@&O999999999",
"99999999O@O&&&O<        +&*+O        <O&&&O@O999999999",
"9999999O&66*O&O<5<o     +O@OO     o<5<O&O*66&O99999999",
"9999999O&6**&Oo<5<554<  O*O&O  o<<4<5<oO&**6&O99999999",
"9999999.O&*&&Oo<4555<458<OOO<5585<454<oO&&*&O999999999",
"9999999.=OOOOo<54885<45885<5884485<845<oOOOO.999999999",
"9999999.-==oo<58588845<<4444<45888448554<X=.-.99999999",
"999999.=-,=o<45588885554<4<<55888854855<4X=-,.99999999",
"999999.--,=o<5858885885<<X<58885888585454X=-,=.9999999",
"99999.=-,=.=o<58458585<<<X<58488588585454X=-,-=.999999",
"999..=--,=.==Xo<445555<oX=X5848858858555oX=--,-=.99999",
"999.=--,-=.===XXooo54<oX==X45<584884855<X=.--,,-=.9999",
"9999.====....===XXXXXXX====X4<45485<54<X==.=--==.99999",
"99999....9999...O+&&+O;.====Xo<4<5<<4XX...====..999999",
"99999999999999999O+*+O;;....;;XXXXXXX99999....99999999",
"999999999999999999OOO          +++++O99999999999999999",
"999999999999999999             +&*&+O99999999999999999",
"9999999999999999               +++++O99999999999999999",
"999999999999999                +&*&+O99999999999999999",
"99999999999999                 +&*+O  9999999999999999",
"99999999999999                  ++O   9999999999999999",
"999999999999999                      99999999999999999",
"9999999999999999                    999999999999999999",
"999999999999999999                99999999999999999999",
"999999999999999999999          99999999999999999999999"
};
