/* XPM */
static char *result[] = {
/* columns rows colors chars-per-pixel */
"54 50 28 1 ",
"  c black",
". c #400070",
"X c #505050",
"o c gray47",
"O c #A84800",
"+ c #D06000",
"@ c #F87000",
"# c #880050",
"$ c #981858",
"% c #B83878",
"& c #F8A800",
"* c #F8D000",
"= c #6008A8",
"- c #7028B8",
"; c #0006FE",
": c #D85090",
"> c #F870B0",
", c #9048C8",
"< c #A0A0A0",
"1 c #F888B8",
"2 c #F8A0C8",
"3 c #F8B8D8",
"4 c #C0C0C0",
"5 c #D8D8D8",
"6 c #F8F8D8",
"7 c #F8D0E0",
"8 c #F8F8F8",
"9 c None",
/* pixels */
"9999999999999999999999999999%>$>%999999999999999999999",
"999999999999999999999999999%>$9$9999999999999999999999",
"99999999999999999999999999%>2$999999999999999999999999",
"999999999999999999999999%%:11$$$9999999999999999999999",
"9999999999999999999999%%>1:2>$:%$999999999999999999999",
"999999999999999999999%:#>121%:>#%$99999999999999999999",
"999999999999999999999%>>>>2>:>>>:$99999999999999999999",
"99999999999999999999%%>1>$21>#>>>$$9999999999999999999",
"9999999999999999999%1%1221221>>>>$:$999999999999999999",
"999999999999999999.%>>2222222>>>>:%$.99999999999999999",
"9999999999999999..-$:222:$>2>$:>>>$$=..999999999999999",
"99999999999999..-=,%23>>>:$1$::::>:$=.=..9999999999999",
"9999999999999.=---,%>3773%>>>%21>>%$,---=.999999999999",
"999999999999......,-$23322%%%21>>:$=,......99999999999",
"99999999999..$%%  .,-$>>122221>>:$=,.O %%$..9999999999",
"99999999999.$:>:%O@.--$$$>121>$$$=-.@O%:>:$.9999999999",
"9999999999.$$:>>:O& ..-..$$$$$..=.. &O:>>:$$.999999999",
"9999999999.$>22:$@O   .-,-.-.-,-.   O@$:22>$.999999999",
"999999999.$:22>:OO   .-,===.===,-.   OO:>22:$.99999999",
"999999999.$:2>:$    .-,,--.:.--,,-.    $:>2:$.99999999",
"99999999.=$O>:OO    .,....>2>....-.    OO:>O$..9999999",
"9999999.=O@*OOO OO&@..@O:>:::%%O@..@&OO OOO*@O..999999",
"999999.=.O&6*&O %:OOOOOO:>>>>>:OOOOOO:% O&*6&O.=.99999",
"99999.=..O*6@+O  %%:>>1133221>>>::::%%  O+@6*O=..99999",
"9999.=,.=O&**@O    %>223732221>>>>:%    O@**&O=.,.9999",
"999.=,.==O&@*&Oo     :>232221>>>:%     oO&*@&O-=.=.999",
"999.-,.==O@O&&&O<        +&*+O        <O&&&O@O-=.,=.99",
"99.=,.==O&66*O&O<5<o     +O@OO     o<5<O&O*66&O-=.,=.9",
"9.=-,.=-O&6**&Oo<5<554<  O*O&O  o<<4<5<oO&**6&O,-.,-.9",
"9.--,.=.-O&*&&Oo<4555<458<OOO<5585<454<oO&&*&O=,,=.,=.",
".=-,.==.--OOOOo<54885<45885<5884485<845<oOOOO=.-,=.,-.",
".=-,.=.--,,-X<45584488854<4444<<54888585<oo===.=-,=.-=",
".=-,.==-,,-=X4<55845888855<<4<45558888554<o,--=.===.,-",
".=,....=-,==X45458588858885<X<<5885888585<o-,,-=....,=",
"9.,.999..===X45458588588485<X<<<58585485<o=-,==.999.,.",
"9.=.99999...Xo5558588588485X=Xo<555544<oX====..9999.=.",
"99..999999999X<558488485<54X==Xo<45oooXX==...9999999.9",
"99999999999999.<45<58454<4X;..;XXXXXXX99..999999999999",
"999999999999999.X4<<5<4<oX;;;;;.O+&&+O9999999999999999",
"99999999999999999XXXXXXX;;;;;;;;O+*+O99999999999999999",
"99999999999999999O+++++          OOO999999999999999999",
"99999999999999999O+&*&+             999999999999999999",
"99999999999999999O+++++               9999999999999999",
"99999999999999999O+&*&+                999999999999999",
"9999999999999999  O+*&+                 99999999999999",
"9999999999999999   O++                  99999999999999",
"99999999999999999                      999999999999999",
"999999999999999999                    9999999999999999",
"99999999999999999999                999999999999999999",
"99999999999999999999999          999999999999999999999"
};
