/* XPM */
static char *result[] = {
/* columns rows colors chars-per-pixel */
"54 50 27 1 ",
"  c black",
". c #400070",
"X c #505050",
"o c gray47",
"O c #A84800",
"+ c #D06000",
"@ c #F87000",
"# c #880050",
"$ c #981858",
"% c #B83878",
"& c #F8A800",
"* c #F8D000",
"= c #6008A8",
"- c #7028B8",
"; c #D85090",
": c #F870B0",
"> c #9048C8",
", c #A0A0A0",
"< c #F888B8",
"1 c #F8A0C8",
"2 c #F8B8D8",
"3 c #C0C0C0",
"4 c #D8D8D8",
"5 c #F8F8D8",
"6 c #F8D0E0",
"7 c #F8F8F8",
"8 c None",
/* pixels */
"8888888888888888888888888888%%%%8888888888888888888888",
"88888888888888888888888888%%::$:%888888888888888888888",
"8888888888888888888888888%::$$8$8888888888888888888888",
"888888888888888888888888%:1$88888888888888888888888888",
"8888888888888888888888%%;<<$$$888888888888888888888888",
"88888888888888888888%%:<:;1:$%$88888888888888888888888",
"8888888888888888888%;:#:<1<%;:#$8888888888888888888888",
"8888888888888888888%:::::1:;:::$8888888888888888888888",
"888888888888888888%%:<:::$<::#:$$888888888888888888888",
"88888888888888888%<%<11<11<::::$;$88888888888888888888",
"8888888888888888.%::1111111::::;%$.8888888888888888888",
"88888888888888..-$;1111;$:1:$;::$$=..88888888888888888",
"888888888888..-=>%122:::;$<$;;;:;$=.=..888888888888888",
"88888888888.=--->%:26662%:::%1<:%$-=-==.88888888888888",
"8888888888......>-$122211%%%1<:;$=-......8888888888888",
"888888888..=$$$$.>-$::<1111<::;$=> @ %%$..888888888888",
"888888888.=$%%;;$.--$$$:<1<:$$$=-.  &:;%$.888888888888",
"88888888.=$%#:1;$@..-..$$$$$..=..    *:%#$.88888888888",
"88888888.=$;11<:$&   .->-.-.->-.     &1:%$.88888888888",
"8888888.=$%<;1;$*   .->===.===>-.    @11;%$88888888888",
"8888888.=$;%%$%$&  .->>--.;.-->>-.    OO;%$.8888888888",
"8888888. $1:;%$@   .>....:1:....-.   O$@O:$.8888888888",
"8888888.$<;OOO$O&&@..@O;:;;;%%O@..&@O%$&@O$.8888888888",
"8888888.$:O&&@@$OOOOOO;:::::;OOOOO<<;%$&*@O.8888888888",
"888888.=$;&*5+&@$;::<<2211<:::<<<::;%$++@+O=.888888888",
"888888.-$O*&+&5&@$:11262111<::<::;;   &*+O=-.888888888",
"88888.=- O&+&5**&$;;:12111<:::;%;    o&*+O=-.888888888",
"88888.--. @+&5**&$      +&*+O      o,o+&O=->=.88888888",
"8888.=->..O@&**&$       +O@OO    o33,,XO.=->-.88888888",
"8888.-->=..OO@&$X,43,   O*O&O o,,34,3,X..=->-.88888888",
"88..=->>=.oXXOOX,47,3477,OOO,474,33,3,X..=---=.8888888",
"8.=-->>-=.ooooo,447,47774,4773373774,3o.=.=->-.8888888",
".-->>>>.=-o4,,,4477,7,,3333,347747774,,X=.=->-=.888888",
".==->>-.=-o434447773743,3,,44777777747,X===-->-=.88888",
"8..==-==--.3,473777474,4X,477747747743,X-.=-->>-=.8888",
"888..===->=o,3434777443,X,474777747743,X-.=--->>-=...8",
"88888..==>>-o,34,4733,,,XX344747337743,X=-.--->>>>---.",
"8888888...===Xo,3,4443oX=X334737,77473,X=-.=--->>-==.8",
"8888888888...8Xo,333,oX===37343,,,,33,X==--=======..88",
"888888888888888XXXXXXX===.X33,,    ,3,X=====......8888",
"8888888888888888+++++O...  X3o &*&+ ,X==....8888888888",
"8888888888888888+&*&+O      X3X&*&+XX8..88888888888888",
"888888888888888 O&*&+O        O&OO+O888888888888888888",
"88888888888888   OOOO       8 OO++OO888888888888888888",
"8888888888888               8 O+&&OO 88888888888888888",
"8888888888888              88 O&**&O 88888888888888888",
"88888888888888              8 O&&&&O888888888888888888",
"888888888888888             8 OO++O8888888888888888888",
"88888888888888888              OOO88888888888888888888",
"88888888888888888888          888888888888888888888888"
};
