/* XPM */
static char *result[] = {
/* columns rows colors chars-per-pixel */
"54 50 27 1 ",
"  c black",
". c #400070",
"X c #505050",
"o c gray47",
"O c #A84800",
"+ c #D06000",
"@ c #F87000",
"# c #880050",
"$ c #981858",
"% c #B83878",
"& c #F8A800",
"* c #F8D000",
"= c #6008A8",
"- c #7028B8",
"; c #D85090",
": c #F870B0",
"> c #9048C8",
", c #A0A0A0",
"< c #F888B8",
"1 c #F8A0C8",
"2 c #F8B8D8",
"3 c #C0C0C0",
"4 c #D8D8D8",
"5 c #F8F8D8",
"6 c #F8D0E0",
"7 c #F8F8F8",
"8 c None",
/* pixels */
"888888888888888888888888888888888888888888888888888888",
"888888888888888888888888888%%%%88888888888888888888888",
"88888888888888888888888888%::$:%8888888888888888888888",
"8888888888888888888888888%:1$8$88888888888888888888888",
"88888888888888888888888$$$<<;%%88888888888888888888888",
"8888888888888888888888%%:;<1$;;%$888888888888888888888",
"888888888888888888888%#:<<1%;:#:%$88888888888888888888",
"888888888888888888888%::::1;::::;$88888888888888888888",
"88888888888888888888%%:<$:1<#::::$$8888888888888888888",
"8888888888888888888%<%<11<11<::::$;$888888888888888888",
"888888888888888888.%:111111::::::;%$.88888888888888888",
"8888888888888888..=$;11;$:1:$;::::$$-..888888888888888",
"88888888888888..=.=%11::;$<$;;;;::;$>=-..8888888888888",
"8888888888888.==-=-%:662%:::%1<:::%$>---=.888888888888",
"888888888888......--$2211%%%1<:::;$=>......88888888888",
"88888888888..$%% @ >-$::<1111<::;$=>.$$$$=..8888888888",
"88888888888.$%;:&  .--$$$:<1<:$$$=-.$;;%%$=.8888888888",
"8888888888.$#%;*    ..=..$$$$$..-..@$;1:#%$=.888888888",
"8888888888.$%:1&     .->-.-.->-.   &$:<11;$=.888888888",
"8888888888$%;11@    .->===.===>-.   *$;1;<%$=.88888888",
"888888888.$%;OO    .->>--.;.-->>-.  &$%$%%;$=.88888888",
"888888888.$:O@$O   .-....:1:....>.   @$%;:1$ .88888888",
"888888888.$O@&$%O@&..@O%%;;;;;O@..@&&O$OOO;<$.88888888",
"88888888.=O@*&$%;OOOOOOO;:::::;OOOOOO$@@&&O:$.88888888",
"88888888.=O+@++$%O%;::<<2211<:::;;;;$@&+5*&;$.88888888",
"88888888.=.O+*&   ;%:11262111<::::;$@&5&+&*O$.88888888",
"8888888.=-..+*&o    ;;:12111<:::;% $&**5&+&O.=.8888888",
"888888.=-.=.O&+o,o      O+*&+      $&**5&+@ =.=.888888",
"888888.->.===OX,,33o    OO@O+       $&**&@O=-.>.888888",
"88888.=>.=====X,3,43,,o O&O*O   ,34,X$&@OO.=-=.>.88888",
"88888.->.==.-=X,3,33,474,OOO,7743,74,XOOXXo=-=.>.88888",
"8888.=->.==.>=o3,4773733774,47774,744,ooooo=>=.>=.8888",
"8888.=->.=.-=X,,477747743,3333,,7,7744,,,4o=>==.>.8888",
"8888.->.==.>=X,74777777744,,3,347377744434o=--=.>=.888",
"888.=->.=---=X,347747747774,X4,474777374,3=---=.>=.888",
"888.=->.=-->=X,347747777474,X,3447774343,o=->-=.>=.888",
"888.=->..=>>=X,347733747443XX,,,3374,43,o=-->-=.>=.888",
"8888.=>.8.===X,37477,737433X=Xo3444,3,oX=-->>==.>=.888",
"8888.==>.8....X,33,,,,34373===Xo,333,oX=-->>==.>-=.888",
"88888..=.88888X,3,    ,,33X===.XXXXXXX===-==...>-.8888",
"8888888..888888X, +&*& o3X ... O+++++..===..88.>=.8888",
"8888888888888888XX+&*&X3X      O+&*&+88...888.>=.88888",
"88888888888888888O+OO&OX       O+&*&O888888888..888888",
"8888888888888888 OO++OO         OOOO  8888888888888888",
"888888888888888  OO&&+O                888888888888888",
"888888888888888  O&**&O                888888888888888",
"8888888888888888 O&&&&O               8888888888888888",
"88888888888888888 O++OO              88888888888888888",
"8888888888888888888OOO             8888888888888888888",
"8888888888888888888888          8888888888888888888888"
};
