/* XPM */
static char *result[] = {
/* columns rows colors chars-per-pixel */
"36 47 23 1 ",
"  c black",
". c #BB762B",
"X c #B2673F",
"o c #BF6F3E",
"O c #E36104",
"+ c #00CE6C",
"@ c #F18E01",
"# c #FF9600",
"$ c #FFB111",
"% c #FFC000",
"& c #DE9A67",
"* c #E7A67A",
"= c #0C25BB",
"- c #0E2CE3",
"; c #1031FD",
": c #9B9B9B",
"> c #F5CB9F",
", c #FBE0B6",
"< c #FFFABC",
"1 c gray79",
"2 c gray94",
"3 c gray95",
"4 c None",
/* pixels */
"444444444444444444444444444444444444",
"444444444444444444444444444444444444",
"444444444444444444444444444444444444",
"4444444444444444444444 4444444444444",
"444444444444444444 444  444 44444444",
"444444444444444 44  44 < 44 44444444",
"444444444444444  4 $  <<<  $ 44 4444",
"444444444444444 $  $ $<$< $$ 4  4444",
"444444444444444 $. $ $<$<< $  < 4444",
"44444444444444 $$$.$.<<$$< .$<$ 4444",
"444444444444 4 $.$$...$$...$<$ 44444",
"444444444444   $.$$. <<$<<<..  44444",
"444444444444 $ $..$ $<$..$<<.$$ 4444",
"444444444444 $.$..  <<<.<<<<$ $$ 444",
"4444444444444 .$$.  << >  <<< $  444",
"44444444444   ..$.& < >>>> <<  ,* 44",
"444444444444 $ .$ && >>>>>> < 4 o 44",
"4444444444444 $.  &  >>>>>>&  4 o 44",
"4444444444444 $ & &X2  >&>& 4  o,, 4",
"44444444444444  &X&X22+ &X  4 oo,o, ",
"4444444444444   XX&&&&>>>X> 4 **o,* ",
"444444444444 @#@  X&&>X>>>&  4 **o 4",
"44444444444 #@#@#@ &&>>XX>   4 o** 4",
"4444444444  #@###@*oo*>>> #@   oo  4",
"4444444444 *#@@##@***    @#@O *,* 44",
"444444444  *o# ##@o** **o##@*o,,, 44",
"44444444 o* o  @##@####13#@ *o,,* 44",
"4444444  * * 4  #@#@###31#   **, 444",
"4  4444 ,,o  44 ##@#@#@@@ 44    4444",
" .. 444 oo,  44 @@@@#@@# 44444444444",
" $.$ 444 ,*o 4  -#@@@##@  4444444444",
"4  .$  4 oo*   ;;--##@ -=   44444444",
"444 ..$      -;;;;--- --=--=  444444",
"4444 $...$$ -;;;;;=-= =------= 44444",
"44444  $$.  ;;;;;;=- ==-------= 4444",
"4444444    =;;;;;=-    ==-----=  444",
"444444444 -=--;;-  444     ===-- 444",
"444444444 ------ 4444444  ===--=  44",
"44444444 ;=----  44444444  ---==- 44",
"44444444 ;-===- 4444444444 =-==-  44",
"44444444 ;;=;; 444444444444 =--- 444",
"44444444 -;;  4444444444444  --= 444",
"44444444 --- 444444444444444 %%%  44",
"4444444 %%; 4444444444444444 %%%%  4",
"444444 %%%% 4444444444444444 :11111 ",
"444444 3331 444444444444444444444444",
"444444444444444444444444444444444444"
};
