/* XPM */
static char *result[] = {
/* columns rows colors chars-per-pixel */
"36 47 22 1 ",
"  c black",
". c #BB762B",
"X c #B2673F",
"o c #BF6F3E",
"O c #00CE6C",
"+ c #F18E01",
"@ c #FF9600",
"# c #FFB111",
"$ c #FFC000",
"% c #DE9A67",
"& c #E7A67A",
"* c #0C25BB",
"= c #0E2CE3",
"- c #1031FD",
"; c #9B9B9B",
": c #F5CB9F",
"> c #FBE0B6",
", c #FFFABC",
"< c gray79",
"1 c gray94",
"2 c gray95",
"3 c None",
/* pixels */
"33333333333333 333  333 333333333333",
"33333333333 33  33 , 33 333333333333",
"33333333333  3 #  ,,,  # 33 33333333",
"33333333333 #  # #,#, ## 3  33333333",
"33333333333 #. # #,#,, #  , 33333333",
"3333333333 ###.#.,,##, .#,# 33333333",
"33333333 3 #.##...##...#,# 333333333",
"33333333   #.##. ,,#,,,..  333333333",
"33333333 # #..# #,#..#,,.## 33333333",
"33333333 #.#..  ,,,.,,,,# ## 3333333",
"333333333 .##.  ,, :  ,,, ## 3333333",
"3333333   ..#.% , :::: ,,  # 3333333",
"33333333 # .# %% :::::: , 3  3333333",
"333333333 #.  %  ::::::%  33 3333333",
"333333333 # % %X1  :%:% 3 3333333333",
"3333333333  %X%X11O %X  333333333333",
"33333333333 XX%%%%:::X: 333333333333",
"333333333333  X%%:X:::% 333333333333",
"3333333333333 XX%::XX: 3333333333333",
"33333333333   %%XX::: 33333333333333",
"3333333333  +@&&oo     3333333333333",
"333333  3 @@++@&&& &o@   33333333333",
"3333   & +@@@+@@&&&o&o@++ 3333333333",
"333  >>& +@@@@+@+&&o&++@+ 33   33333",
"333 >&&  &@++@@@@+@@@<2@  3   & 3333",
"333 &>>> >> +@+@@@+@@2<@ 3  &&o 3333",
"3333 >oo >&  ++@@+@+@+@  3 oo&o 3333",
"3333 &o oo& 3  +@@+@+@+    &&o  3333",
"3  33 &&>o 333 @@@++@+ &  &o&o 33333",
" .. 33 &>& 333 ++@@++@ &oo&&  333333",
" #.# 33   333 =-=++@@+* &&  33333333",
"3  .#  333    --==-= *=   3333333333",
"333 ..#   #. =-=---= == 333333333333",
"3333 #...### -----= *==* 33333333333",
"33333  ##.  *-----  ==== 33333333333",
"3333333   3 *----=   === 33333333333",
"33333333333 ==--*    ==*  3333333333",
"3333333333 -===*=  * ***= 3333333333",
"3333333333 -==== 3 =* **= 3333333333",
"3333333333 =-==- 33 =**= 33333333333",
"3333333333 -=-- 333 *==  33333333333",
"3333333333 -=- 3333 ==* 333333333333",
"333333333 === 333333 $$$ 33333333333",
"333333333 $$- 333333 $$$$  333333333",
"33333333 $$$$ 333333 ;<<<<< 33333333",
"33333333 222< 3333333333333333333333",
"333333333333333333333333333333333333"
};
