/* XPM */
static char *result[] = {
/* columns rows colors chars-per-pixel */
"25 64 26 1 ",
"  c #5A0000",
". c #7B797B",
"X c #AD0810",
"o c #D61029",
"O c #FF3031",
"+ c #845118",
"@ c #AD4900",
"# c #946129",
"$ c #AD7939",
"% c #D66100",
"& c #FF7100",
"* c #FFD300",
"= c #C69252",
"- c #DEAA63",
"; c #FFFB4A",
": c #F7C373",
"> c #6308AD",
", c #1851F7",
"< c #0082FF",
"1 c #949294",
"2 c #A5A2A5",
"3 c #C6C3C6",
"4 c #DEDBDE",
"5 c #FFFBDE",
"6 c #FFFBFF",
"7 c None",
/* pixels */
"7777777777777777777777777",
"7777777777777777777777777",
"7777777777777777777777777",
"7777777$7777777$777777777",
"7777777$77777$$7777777777",
"$77777$-$77777$7777$77777",
"$$77777-7777;777$$$777777",
"7$$77$;-777;;777-;7777777",
"7$-7776;$7;6-$7;;77777777",
"7$;77$;-$-6--;$6-$7777777",
"777;-$--$;-;;$-;$-$777777",
"7777;-$$-$;6--;-$$$777777",
"7777;$-;$-6-$--$--;777777",
"777$-$;6;$-$=$-;;6;777777",
"7$6;#$$$-;$$-;666;7777777",
"$6;-$--:$$-$-66;-77777777",
"$##$:::--=$$-;--$$$$77777",
"#77$::-$==$##$$$;$7777777",
"777$-$#1=-$==#$-$77777777",
"777##463--$$-+###++777777",
"777#-33--=#=##====$++7777",
"77$=::--=$##==---===$+777",
"77$$#$-==#=#=-::=:-==$+77",
"777#$-==#=#=-::::$--==+77",
"7777#-=#==#-:::::$:-==+77",
"777#=##==%#-:::::==--=+77",
"777#==#-%&#-::::::$:-=+77",
"777#=#-%*%#=::::::$:-=+77",
"7777%%%&&$-#-:::::=-=$+77",
"77777>&;%=-#=-::::--=##77",
"777+>,>*%-:-##+#$=-=+=+77",
"777+>>&%=:-$#--$$##+==$+7",
"7777&*%=-::-$-::-=$#=:=+7",
"7777%%$--:-$#::::-=$:-=+7",
"7777-$:$$$$#$:::::-$-==+7",
"77777#-::-=-#-::::-$-=$+7",
"777777##=:-=$#::::-#=$++7",
"777777+$#=-:=#-:::=$=#=-+",
"7777777+=#==-:#--=$--=#=+",
"777777@$=#=-=-=#$$%%@@=#7",
"777777@XXXXXXXXX%*;*&&@+7",
"777777XooooOo oo%*;*&*&@7",
"777777XXXXXXX X%*;;*&*>@7",
"777777&%*%%oo o%*5;&*>,77",
"777777@%     2 %*5*&**>@7",
"777777+ .233332%*5*&*;&@7",
"777777$.2336632%5;*&*;@77",
"777777.23666632%;*&*;*@77",
"77777=.36663332%;*&*;&@77",
"77777$.36633222%&&&**@777",
"7777772666322.##%%&&*@777",
"77777736632..#=--=%%&@777",
"777777363..3#=::::-=@7777",
"77777736.363#-$::::-+7777",
"77777723663@&#-:=:-=+7777",
"7777777233@&;#-$-$=+77777",
"77777777..&>;;+++++<77777",
"77777777@@>,>*;&XX@<77777",
"777777777@&@@&&XoX%<77777",
"7777777777@&&@@ooX*%77777",
"77777777777 XXX oX*%77777",
"7777777777@&ooXX @;;%7777",
"777777777@&*&oXX@@&&@7777",
"777777777@@@@@@@<<@@@7777"
};
