/* XPM */
static char *result[] = {
/* columns rows colors chars-per-pixel */
"25 64 25 1 ",
"  c #5A0000",
". c #7B797B",
"X c #AD0810",
"o c #D61029",
"O c #FF3031",
"+ c #845118",
"@ c #AD4900",
"# c #946129",
"$ c #AD7939",
"% c #D66100",
"& c #FF7100",
"* c #FFD300",
"= c #C69252",
"- c #DEAA63",
"; c #FFFB4A",
": c #F7C373",
"> c #6308AD",
", c #1851F7",
"< c #949294",
"1 c #A5A2A5",
"2 c #C6C3C6",
"3 c #DEDBDE",
"4 c #FFFBDE",
"5 c #FFFBFF",
"6 c None",
/* pixels */
"6666666$6666666$666666666",
"6666666$66666$$6666666666",
"$66666$-$666$-$6666$66666",
"$$6666$-$66$;$66$$$666666",
"6$$66$;-$6$;;$6$-;6666666",
"6$-$6$5;$$;5-$$;;66666666",
"6$;-6$;-$-5--;$5-$6666666",
"66$;-$--$;-;;$-;$-$666666",
"66$6;-$$-$;5--;-$$$$;6666",
"6666;$-;$-5-$--$--;666666",
"666$-$;5;$-$=$-;;5;$66666",
"6$5;#$$$-;$$-;555;6666666",
"$5;-$--:$$-$-55;-66666666",
"$##$:::--=$$-;--$$6$66666",
"#66$::-$==$##$$$;66666666",
"666$-$#<=-$==#$-$66666666",
"6666#352--$$-+###++666666",
"666#-22--=#=##====$++6666",
"666=::--=$##==---===$+666",
"666$#$-==#=#=-::=:-==$+66",
"6666$-==#=#=-::::$--==+66",
"6666#-=#==#-:::::$:-==+66",
"6666=##==%#-:::::==--=+66",
"666#==#-%&#-::::::$:-=+66",
"666#=#-%*%#=::::::$:-=+66",
"6666%%%&&$-#-:::::=-=$+66",
"66666>&;%=-#=-::::--=##66",
"666+>,>*%-:-##+#$=-=+=+66",
"666+>>&%=:-$#--$$##+==$+6",
"666+&*%=-::-$-::-=$#=:=+6",
"6666%%$--:-$#::::-=$:-=+6",
"6666-$:$$$$#$:::::-$-==+6",
"66666#-::-=-#-::::-$-=$+6",
"666666##=:-=$#::::-#=$++6",
"666666+$#=-:=#-:::=$=#=-+",
"6666666+=#==-:#--=$--=#=+",
"666666@$=#=-=-=#$$%%@@=#+",
"666666@XXXXXXXXX%*;*&&@+6",
"666666XooooOo oo%*;*&*&@6",
"666666XXXXXXX X%*;;*&*>@6",
"666666&%*%%oo o%*4;&*>,66",
"66666@@%%oo  1 %*4*&**>@6",
"66666@+Xoo 1221%*4*&*;&@6",
"666666$Xo 12522%4;*&*;@66",
"666666=X 125552%;*&*;*@66",
"66666=$X 255552%;*&*;&@66",
"66666$. 1255552%&&&**@666",
"666666. 255552##%%&&*@666",
"6666666.25552#=--=%%&@666",
"6666666.2551#=::::-=@6666",
"6666666.2225#-$::::-+6666",
"6666666.12555#-:=:-=+6666",
"66666666662%%#-$-$=+66666",
"6666666666@&*&+++++@66666",
"666666666@&>&;&%1.%@66666",
"666666666@>,>**&@.&%@6666",
"6666666666@>&*;*&@*&@6666",
"6666666666@&*&**&@@@@6666",
"66666666666@&&*;&@6666666",
"66666666666@%%%&@66666666",
"6666666666 XXoX%@66666666",
"666666666@%%oooX 66666666",
"66666666@&;*%XXX 66666666",
"666666666@%%%@@@@66666666"
};
