/* XPM */
static char *result[] = {
/* columns rows colors chars-per-pixel */
"25 64 25 1 ",
"  c #5A0000",
". c #7B797B",
"X c #AD0810",
"o c #D61029",
"O c #FF3031",
"+ c #845118",
"@ c #AD4900",
"# c #946129",
"$ c #AD7939",
"% c #D66100",
"& c #FF7100",
"* c #FFD300",
"= c #C69252",
"- c #DEAA63",
"; c #FFFB4A",
": c #F7C373",
"> c #6308AD",
", c #1851F7",
"< c #0082FF",
"1 c #A5A2A5",
"2 c #C6C3C6",
"3 c #DEDBDE",
"4 c #FFFBDE",
"5 c #FFFBFF",
"6 c None",
/* pixels */
"6666666666666666666666666",
"6666666666666666666666666",
"66666666$6666666$66666666",
"66666666$66666$$666666666",
"6$66666$-$666$-$6666$6666",
"6$$6666$-$66$;$66$$$66666",
"66$$66$;-66$;;666-;666666",
"66$-6665;$6;5-$6;;6666666",
"66$;66$;-$-5--;$5-$666666",
"6666;-$--$;-;;$-;$-666666",
"66666;-$$-$;5--;-$$$6;666",
"66666;$-;$-5-$--$--;66666",
"6666$-$;5;$-$=$-;;5;66666",
"6665;#$$$-;$$-;555;666666",
"665;-$--:$$-$-55;-6666666",
"66666:::--=$$-;--$6$$6666",
"66666::-$==$##$$$;$666666",
"#6666-$#6=-$==#$-$6666666",
"66666#352--$$###++6666666",
"66666-22--=##====$++66666",
"6666=::--=#==---===$+6666",
"6666$#$-==#=-::$:-==$+666",
"66666$-==#=-::::$:-=$+666",
"66666#-=##-:::::=:-==+666",
"666666##-#-:::::$::-=+666",
"6666666#%#-:::::$::-=+666",
"6666666%*#=:::::=::-=+666",
"66666%%&&%#-::::::-=$+666",
"66666>&;%=#=-::::--=##666",
"66666,>*%-:##+#$=-=+=+666",
"66666>&%=:#--=$$##+==$+66",
"66666*%=-:#-::--=$=:-=+66",
"66666%=--:$:::::-$:--=+66",
"66666$$$$$#:::::-$:-==+66",
"666666-::-#:::::=$--=$666",
"6666666#=:$-:::-#=$$+$666",
"66666666#=#$-::=$=#=-6666",
"666666666#=#--=$--=#=6666",
"666666666#=-#$$%%%@=+6666",
"66666666XXXXX#%;*&&@+6666",
"6666666XooooO%*;&**&@6666",
"66666666XXXX%*4*&*>>&6666",
"66666666%*%%%;4&*>,>&@666",
"66666666%%oo%4*&**>*&@666",
"66666666Xoo%;4&*;;*&@6666",
"66666666Xoo%4*&*;;*&@6666",
"66666666Xoo%;&*;;*&@ 6666",
"66666666Xo%;*&*;;*&@ 6666",
"66666666X#%&&*;;*&@  6666",
"66666661#=-%&***&@1. 6666",
"6666666#=::-%&&&@21. 6666",
"6666666#-$::=%@@...666666",
"66666662#=-$-=+1222166666",
"66666@@2##$-=+55552266666",
"66666@&@@1+++125%%@@16666",
"66666@*&&@@@661%&**&@@666",
"66666@&**&&@666@&,>*&&@66",
"666@66&**&@6666@&>>;**% 6",
"66@&%oo*&&@66666@@&*;&%X ",
"66@@*&ooX 66666666@&&%XX@",
"6666@@oXX 666666666@%ooX@",
"666666@@@6666666666 XooX@",
"6666666666666666666@%%XX@",
"6666666666666666666&;*%@<"
};
