/* XPM */
static char *result[] = {
/* columns rows colors chars-per-pixel */
"25 64 138 2 ",
"   c #190000",
".  c #5A0000",
"X  c #640A00",
"o  c #7B797B",
"O  c #AD0810",
"+  c #892400",
"@  c #912400",
"#  c #9D2E00",
"$  c #8F3400",
"%  c #B03E00",
"&  c #B73F00",
"*  c #C03800",
"=  c #C33B00",
"-  c #D61029",
";  c #FF3031",
":  c #9D5A0E",
">  c #845118",
",  c #AD4900",
"<  c #B04900",
"1  c #BE5A00",
"2  c #B2620A",
"3  c #976226",
"4  c #946129",
"5  c #AD7939",
"6  c #C34000",
"7  c #CB4600",
"8  c #DF4E00",
"9  c #D45700",
"0  c #D45A00",
"q  c #E25600",
"w  c #EB5000",
"e  c #ED5400",
"r  c #EF5700",
"t  c #E05D00",
"y  c #E25D00",
"u  c #C16400",
"i  c #C56700",
"p  c #CB6000",
"a  c #C36C00",
"s  c #D66100",
"d  c #D86500",
"f  c #CB7104",
"g  c #E76300",
"h  c #EA6300",
"j  c #ED6200",
"k  c #EC6400",
"l  c #EC6500",
"z  c #EE6500",
"x  c #E76A00",
"c  c #EB6A00",
"v  c #F26400",
"b  c #FF6000",
"n  c #FF6500",
"m  c #F86800",
"M  c #FA6A00",
"N  c #E07300",
"B  c #E87500",
"V  c #E67F00",
"C  c #EB7B00",
"Z  c #EC7A00",
"A  c #E87D00",
"S  c #F07500",
"D  c #FF7100",
"F  c #FE7400",
"G  c #F77B00",
"H  c #FF7900",
"J  c #FF7C00",
"K  c #FF7F00",
"L  c #DF8700",
"P  c #E78E00",
"I  c #FF8000",
"U  c #F08800",
"Y  c #F08A00",
"T  c #FD8C00",
"R  c #FF8F00",
"E  c #ED9000",
"W  c #EE9200",
"Q  c #E0930C",
"!  c #F69300",
"~  c #FA9700",
"^  c #F09A00",
"/  c #F19C00",
"(  c #FF9B00",
")  c #FA9D00",
"_  c #FC9C00",
"`  c #FF9D00",
"'  c #DFB800",
"]  c #E7A400",
"[  c #E4A900",
"{  c #E1AC00",
"}  c #F9A100",
"|  c #FFA000",
" . c #FEA200",
".. c #FFA200",
"X. c #F2A900",
"o. c #E1B100",
"O. c #F4B000",
"+. c #FFB200",
"@. c #FFB500",
"#. c #FFBD00",
"$. c #FFBF1E",
"%. c #D8C300",
"&. c #FFC600",
"*. c #FFC700",
"=. c #FFCC00",
"-. c #FFC20E",
";. c #FFD300",
":. c #FFD10B",
">. c #FFE800",
",. c #FFE900",
"<. c #FFF900",
"1. c yellow",
"2. c #FFFF02",
"3. c #FFFF04",
"4. c #FFFF12",
"5. c #FFFF1C",
"6. c #F0CB26",
"7. c #FFCE2C",
"8. c #FFD133",
"9. c #FFFF24",
"0. c #C69252",
"q. c #DEAA63",
"w. c #FFFB4A",
"e. c #F7C373",
"r. c #FFE476",
"t. c #FFFF7E",
"y. c #6308AD",
"u. c #1851F7",
"i. c #0082FF",
"p. c #599BE4",
"a. c #949294",
"s. c #A5A2A5",
"d. c #FEFD8A",
"f. c #C6C3C6",
"g. c #DEDBDE",
"h. c #FFFBDE",
"j. c #FFFBFF",
"k. c None",
/* pixels */
"k.k.k.k.k.k.k.k.k.k.k.k.k.k.k.k.k.k.k.k.k.k.k.k.k.",
"k.k.k.k.k.k.} k.k.k.k.k.k.k.{ k.k.k.k.k.k.k.k.k.k.",
"k.k.k.k.k.k.X.k.k.k.k.k.k.k.k.k.k.k.k.k.k.k.k.k.k.",
"k.k.k.k.k.k.&.k.k.k.k.k.k.k.k.k.k.k.k.k.k.k.k.k.k.",
"k.k.k.k.k.k.q.k.k.k.k.1.k.k.k.k.k.k.k.k.k.k.k.k.k.",
"k.k.k.k.k.w.q.k.k.k.2.w.k.k.k.,.k.k.k.k.k.k.k.k.k.",
"k.k.k.k.k.j.w.%.k.4.j.q.' k.3.w.k.k.k.k.k.k.k.k.k.",
"k.k.k.k.5 w.q.5 q.j.q.q.w.5 j.q.o.k.k.k.k.k.k.k.k.",
"k.k.w.q.5 q.q.5 w.q.w.w.5 q.w.5 q.k.k.k.k.k.k.k.k.",
"k.k.k.w.q.5 5 q.5 w.j.q.q.w.q.5 5 5 k.<.k.k.k.k.k.",
"k.k.k.w.5 q.w.5 q.j.q.5 q.q.5 q.q.w.k.k.k.k.k.k.k.",
"k.k.5 q.5 w.j.w.5 q.5 0.5 q.w.w.j.5.[ k.k.k.k.k.k.",
"k.j.w.4 5 5 5 q.w.5 5 q.w.j.j.j.9.] k.k.k.k.k.k.k.",
"k.w.q.5 q.q.e.5 5 q.5 q.j.j.w.q.+.k.k.k.k.k.k.k.k.",
"U ) *.e.e.e.q.q.0.5 5 q.w.q.q.5 ~ P L k.k.k.k.k.k.",
"k.k.#.e.e.q.5 0.0.5 4 4 5 5 5 w.! k.k.k.k.k.k.k.k.",
"k.k.@.q.5 4 a.0.q.5 0.0.4 5 q.Q k.k.k.k.k.k.k.k.k.",
"k.k.^ 4 g.j.f.q.q.5 5 q.4 q.5 3 f N p k.k.k.k.k.k.",
"k.k./ q.f.f.q.q.0.4 0.4 5 5 4 0.0.0._ c 0 k.k.k.k.",
"k.( :.e.e.q.q.0.5 4 4 5 0.4 0.q.q.0.0.0...z k.k.k.",
"k.E 5 4 5 q.0.0.4 0.5 0.4 0.q.e.0.q.q.0.0. .j k.k.",
"T -.4 5 q.0.0.4 0.0.5 4 0.q.e.e.e.5 q.q.0.0.` e k.",
"W 0.0.4 q.0.4 0.0.0.s 4 q.e.e.e.e.e.5 q.0.0.0.q k.",
"4 0.0.0.4 4 0.0.0.s D 4 q.e.e.e.e.e.0.0.q.0.0.y k.",
"4 q.0.0.0.4 q.0.s D 5 4 q.e.e.e.e.e.e.5 e.0.0.d k.",
"4 q.0.0.4 q.q.s ;.s 0.4 0.e.e.e.e.e.e.5 e.0.0.u k.",
"Z 7.0.s s s s D D 5 q.0.4 q.e.e.e.e.e.0.q.0.5 : k.",
"k.C 8.s y.y.D w.s 0.q.0.4 0.q.e.e.e.q.q.q.0.4 4 2 ",
"k.k.x s y.u.y.;.s q.e.q.0.4 4 > 4 5 0.q.0.> 0.0.> ",
"k.k.h s y.y.D s 0.e.q.5 q.5 0.q.q.0.5 4 > 0.q.0.5 ",
"k.k.l s D ;.s 0.q.e.e.q.5 4 5 q.e.e.q.0.5 0.e.0.0.",
"k.k.F 0.s s 5 q.q.e.q.5 4 5 4 e.e.e.e.q.0.5 q.0.0.",
"k.k.K r.5 5 e.5 5 5 5 4 5 0.5 q.e.e.e.e.q.5 q.0.0.",
"k.k.k.i q.4 4 e.q.q.0.q.q.0.0.4 e.e.e.e.q.0.4 0.5 ",
"k.k.k.t 5 q.5 4 0.e.q.0.5 4 4 4 q.e.e.e.q.0.5 > > ",
"k.k.k.9 D > q.5 4 0.q.e.0.q.5 5 4 q.q.q.0.5 0.4 > ",
"k.k.M D ;.D 5 q.0.4 0.0.q.e.0.> 4 5 5 5 5 q.0.4 q.",
"k.k.v ;.D s 5 q.0.4 0.q.0.q.5 > i.4 s s s s , > 0.",
"k.k.k ;.D s O O O O O O O O O . . s ;.w.w.;.D , > ",
"k.k.g ;.s O - - - ; - O . - - O s ;.;.h.w.;.D ;., ",
"k.b J ;.s O O O O O O O . O O . s ;.w.h.;.;.D D y.",
"k.w , , , s s ;.s s - - . - O O s ;.w.h.;.D ;.y.u.",
"k.8 > > > , s s - - . . s.. - O s ;.h.w.;.D w.y.y.",
"k.k.0.0.5 > O - - . s.f.f.s.. O s ;.h.w.;.D w.D k.",
"k.$.q.> 0.5 O - . s.f.j.f.s.s.. s ;.w.;.;.D ;.Y k.",
"6 0.0.5 > 0.O . o f.j.j.f.f.s.. s ;.w.;.D w.;.k.k.",
"= A 4 4 > 5 . o f.j.j.j.j.f.s.o s s D D D w.D k.k.",
"k.& 0.5 4 > . o f.f.j.j.j.f.s.4 4 4 s s D ;.S k.k.",
"k.# % 1 a $   o s.o o s.j.f.o 4 0.q.q.0.s D k.k.k.",
"k.k.k.@ + k.k.o o f.j.j.f.f.4 0.e.e.e.q.0.G k.k.k.",
"k.k.k.k.k.k.k.f.j.j.j.j.j.f.4 q.e.5 e.0.d.k.k.k.k.",
"k.k.k.k.k.k.k.j.j.j.j.j.j.s.4 4 5 q.0.6.k.k.k.k.k.",
"k.k.k.k.k.k.s s s f.j.j.f.o s.s.> > V k.k.k.k.k.k.",
"k.k.k.k.k.* y.;.D s f.j.f.o f., D D k.k.k.k.k.k.k.",
"k.k.k.k.k.k.u.y.w.D , f.k.k.t., ;.D k.k.k.k.k.k.k.",
"k.k.k.k.k.7 y.D ;.;.D r k.k.k.| ;.;., k.k.k.k.k.k.",
"k.k.k.k.< D ;.D w.;.I n k.k.k.k.>., O O k.k.k.k.k.",
"k.k.k.k., D D ;.w.D m k.k.k.k.k.k.R O , k.k.k.k.k.",
"k., , , . s s D ;.H B k.k.k.k.k.k.k.- , k.k.k.k.k.",
", > > s ;.- - s s , k.k.k.k.k.k.k.k.D , k.k.k.k.k.",
", > > > s s - O O X k.k.k.k.k.k.O.k.=.@.k.k.k.k.k.",
"k.s s > > > , O . k.k.k.k.k.k.k.k.k.k.k.k.k.k.k.k.",
"k.k.k.s , > > , . k.k.k.k.k.k.k.k.k.k.k.k.k.k.k.k.",
"k.k.k.k.p., , , k.k.k.k.k.k.k.k.k.k.k.k.k.k.k.k.k."
};
