/* XPM */
static char *result[] = {
/* columns rows colors chars-per-pixel */
"25 64 25 1 ",
"  c #5A0000",
". c #7B797B",
"X c #AD0810",
"o c #D61029",
"O c #FF3031",
"+ c #845118",
"@ c #AD4900",
"# c #946129",
"$ c #AD7939",
"% c #D66100",
"& c #FF7100",
"* c #FFD300",
"= c #C69252",
"- c #DEAA63",
"; c #FFFB4A",
": c #F7C373",
"> c #6308AD",
", c #1851F7",
"< c #949294",
"1 c #A5A2A5",
"2 c #C6C3C6",
"3 c #DEDBDE",
"4 c #FFFBDE",
"5 c #FFFBFF",
"6 c None",
/* pixels */
"6666666666666666666666666",
"6666666666666666666666666",
"6666666666666666666666666",
"666666666$6666666$6666666",
"6666666666$$66666$6666666",
"66666$6666$6$666$-$66666$",
"666666$$$66$;$66$-$6666$$",
"666666$6-$6$;;$6$-;$66$$6",
"66666666;;6$-5;$$;5666666",
"6666666$-5$;--5-$-;$66666",
"66$$666-$;-$;;-;$--$-;666",
"666$;$$$$-;--5;$-$$-;6666",
"6666$6;--$--$-5-$;-$;6666",
"66666$;5;;-$=$-$;5;$-$666",
"6666666;555;-$$;-$$$#;566",
"66666666-;55-$-$$:--$-;56",
"66666666$--;-$$=--:::6666",
"66666666;$$$##$==$-::6666",
"66666666$-$#==$-=<#$-6666",
"6666666+###+-$$--253#6666",
"6666+6$====##=#=--22-6666",
"666+$===---==##$=--::=666",
"66+$==-:=::-=#=#==-$#6666",
"66+==--$::::-=#=#==-$6666",
"66+==-:$:::::-#==#=-66666",
"66+=--==:::::-#%==##=6666",
"66+=-:$::::::-#&%-#==6666",
"66+=-:$::::::=#%*%-#=6666",
"66+$=-=:::::-#-$&&%%%6666",
"66##=--::::-=#-=%;&>66666",
"66+=+=-=$#+##-:-%*>,>6666",
"6+$==+##$$--#$-:=%&>>6666",
"6+=:=#$=-::-$-::-=%*&6666",
"6+=-:$=-::::#$-:--$%%6666",
"6+==-$-:::::$#$$$$:$-6666",
"6+$=-$-::::-#-=-::-#66666",
"6++$=#-::::#$=-:=##666666",
"6-=#=$=:::-#=:-=#$+666666",
"+=#=--$=--#:-==#=+6666666",
"6#=@@%%$$#=-=-=#=$@666666",
"6+@&&*;*%XXXXXXXXX@666666",
"6@&*&*;*%oo oOooooX666666",
"6@>*&*;;*%X XXXXXXX666666",
"66,>*&;4*%o oo%%*%&@66666",
"6@>**&*4*% 1     %@@66666",
"6@&;*&*4*%122221. +@66666",
"66@;*&*;4%1255221.$+66666",
"66@*;*&*;%12555521.-66666",
"66@&;*&*;%12225552.=+6666",
"666@**&&&%11122552.$+6666",
"666@*&&%%##.1125551666666",
"666@&%%=--=#..12552666666",
"6666@=-::::=#2..252666666",
"6666+-::::$-#252.52666666",
"6666+=-:=:-#&@25521666666",
"66666+=$-$-#;&@2216666666",
"666666+++++;;>&..66666666",
"666666@XX&;*>,>@@66666666",
"666666%XoX&&@@&@666666666",
"66666%*Xoo@@&&@6666666666",
"66666%*Xo XXX 66666666666",
"6666%;;@ XXoo&@6666666666",
"6666@&&@@XXo&*&@666666666",
"6666@@@66@@@@@@@666666666"
};
