/* XPM */
static char *result[] = {
/* columns rows colors chars-per-pixel */
"25 64 26 1 ",
"  c #5A0000",
". c #7B797B",
"X c #AD0810",
"o c #D61029",
"O c #FF3031",
"+ c #845118",
"@ c #AD4900",
"# c #946129",
"$ c #AD7939",
"% c #D66100",
"& c #FF7100",
"* c #FFD300",
"= c #C69252",
"- c #DEAA63",
"; c #FFFB4A",
": c #F7C373",
"> c #6308AD",
", c #1851F7",
"< c #0082FF",
"1 c #949294",
"2 c #A5A2A5",
"3 c #C6C3C6",
"4 c #DEDBDE",
"5 c #FFFBDE",
"6 c #FFFBFF",
"7 c None",
/* pixels */
"7777777777777777777777777",
"7777777777777777777777777",
"77777777$7777777$77777777",
"777777777$$77777$77777777",
"7777$7777$-$777$-$77777$7",
"77777$$$77$;$77$-$7777$$7",
"77777$;-$7$;;$7$-;$77$$77",
"7777777;;7$-6;7$;67777777",
"777777$-6$;--6-$-;$7-;777",
"777777-$;-$;;-;$--$-;7777",
"77777$$$-;--6;$-$$-;77777",
"77777;--$--$-6-$;-$;77777",
"77777;6;;-$=$-$;6;$-$7777",
"777777;666;-$$;-$$$#;6777",
"7777777-;66-$-$$:--$-;677",
"7777777$--;-$$=--:::77777",
"7777777;$$$##$==$-::77777",
"77777777-$#==$-=1#$-77777",
"77777777+###$$--374#77777",
"7777777$====##=--33-77777",
"77777$===---==#=--::=7777",
"7777$==-:$::-=#==-$#$$777",
"7777$=-:$::::-=#==-$#7777",
"777+==-:=:::::-##=-#77777",
"777+=-::$:::::-#-##777777",
"777+=-::$:::::-#%#7777777",
"777+=-::=:::::=#*%#777777",
"777+$=-::::::-#%&&%%77777",
"777##=--::::-=#=%;&>77777",
"777+=+=-=$#+##:-%*>,77777",
"77+$==+##$$=--#:=%&>77777",
"77+=-:=$=--::-#:-=%*77777",
"77+=--:$-:::::$:--=%77777",
"77+==-:$-:::::#$$$$$77777",
"77+$=--$=:::::#-::-777777",
"77+$+$$=#-:::-$:=#7777777",
"777+-=#=$=::-$#=#77777777",
"777+=#=--$=--#=#$77777777",
"7777+=@%%%$$#-=#$77777777",
"7777+@&&*;%#XXXXX77777777",
"7777@&**&;*%OooooX7777777",
"777@&>>*&*5*%XXXXX7777777",
"777@&>,>*&5;%%%*%77777777",
"777@&*>**&*5%oo%%77777777",
"7777@&*;;*&5;%ooX77777777",
"7777@&*;;*&*5%ooX77777777",
"7777 @&*;;*&;%ooX77777777",
"7777 @&*;;*&*;%oX.7777777",
"7777  @&*;;*&&%#X27777777",
"7777 .2@&***&%-=#27777777",
"7777 .23@&&&%-::=#7777777",
"77777....@@%=::$-#7777777",
"7777773332+=-$-=#37777777",
"77777336666+=-$##3@@77777",
"77772@@%%632+++2@@&@77777",
"777@@&**&%277@@@&&*@77777",
"77@&&*>,&@777@&&**&@77777",
"7 %**;>>&@7777@&**&  @777",
" X%&;*&@@77777@&&*oo%&@77",
"@XX%&&@77777777 Xoo&*@@77",
"@Xoo%@777777777 XXo@@7777",
"@XooX 7777777777@@@<<7777",
"@XX%%@7777777777777777777",
"<@%*;&@777777777777777777"
};
