/* XPM */
static char *result[] = {
/* columns rows colors chars-per-pixel */
"25 64 27 1 ",
"  c black",
". c #5A0000",
"X c #7B797B",
"o c #AD0810",
"O c #D61029",
"+ c #FF3031",
"@ c #845118",
"# c #AD4900",
"$ c #946129",
"% c #AD7939",
"& c #D66100",
"* c #FF7100",
"= c #FFD300",
"- c #C69252",
"; c #DEAA63",
": c #FFFB4A",
"> c #F7C373",
", c #6308AD",
"< c #1851F7",
"1 c #0082FF",
"2 c #949294",
"3 c #A5A2A5",
"4 c #C6C3C6",
"5 c #DEDBDE",
"6 c #FFFBDE",
"7 c #FFFBFF",
"8 c None",
/* pixels */
"8888888888888888888888888",
"8888888888%8888888%888888",
"888888888888888888%888888",
"888888%88888888888;888888",
"8888888%%%888:8888;88888%",
"888888888;888::888;:88888",
"888888888::8%;7:8%:78888%",
"88888888%;7%:;;7;%;:%8888",
"888%8888;%:;%::;:%;;%;:88",
"8888888%%%;:;;7:%;%%;:888",
"8888888:;;%;;%;7;%:;%:888",
"8888888:7::;%-%;%:7:%;%88",
"88888888:777:;%%:;%%%$:78",
"888888888;:77;%;%%>;;%;:8",
"888888888%;;:;%%-;;>>>%88",
"888888888:%%%$$%--%;>>%88",
"888888888%;%$--%;-2$%;%88",
"888888@$$$%;$;%%;;475$$88",
"8888@@%---$%%$-$-;;44;$88",
"888@%---;;-$-%$$%-;;>>-%8",
"88@%--;;->;-$-%-$--;%$%$8",
"8@%--;;%>>>;-$%--$--;%$-$",
"8@---;%>>>>>;$&---$-;$--$",
"8@--;-->>>>>;$*&---$$---$",
"8@-->%>>>>>>;$%*&-;$---;$",
"8@-->%>>>>>>-$-&=&;;$--;$",
"8@%-;->>>>>;$-;%**&&&&-;$",
"@$$-;;;>>>;-$-;-&:*,,&;$8",
"@--@-;-%$@$$-;>;&=,<,&@88",
"%-;-@$%-;;-%;%;>-&*,,&@88",
"-->-%-;>>;%$%;>>;-&=*&@88",
"--;%-;>>>>$%$%;>;;%&&-@88",
"--;%;>>>>;%-%$%%%%>%%;888",
"%-$-;>>>>$--;;-;;>$$;@888",
"@@%-;>>>;$$$%-;>-$%;%#888",
"@$-%-;;;$%%;->;-$%;@*#888",
";$-;%%%%$@->;--$-;%*=*#88",
"-@#&&&&$1@%;-;-$-;%&*=#88",
"@#*=::=&..ooooooooo&*=#88",
"#=*=:6==&oOO.oO+OOOo&=#88",
",**==6:=&.oo.ooooooo&=*#8",
"<,=*=6:=&ooO.OO&&=&&####8",
",,:*=:6=&oO.3..OO&&#@@@#8",
"#*:*=:6=&o.3443.OOo@%--@8",
"8#=*==:=&.334743.Oo%-@;-8",
"8#=:*=:=&.344774X.o-@%--@",
"8#*:***&&X3477774X.%@$$%8",
"88#=*&&$$$3477744X.@$%-88",
"88#*&-;;-$X473XX3X @%$888",
"888#-;>>>-$44774XXX888888",
"8888;->%>;$4777774X888888",
"88888%-;%$$37777778888888",
"888888@@@33X4774&&&888888",
"888888#**#4X474&*=,#88888",
"888888#*=#4884#*:,<888888",
"8888#o#==*#88#*==*,#88888",
"8888#oo#=#888#*=:*=*#8888",
"8888@#oO#88888#*:=**#8888",
"8888@#O8888888#*=*&&.###8",
"8888@#*&#888888#&&OO=&@@#",
"88888####888888.ooO&&@@@#",
"8888888888888888.o#@@@&&8",
"8888888888888888.#@@#&888",
"88888888888888888###11188"
};
