/* XPM */
static char *result[] = {
/* columns rows colors chars-per-pixel */
"54 50 91 1 ",
"  c black",
". c #010000",
"X c #030000",
"o c #090000",
"O c #510049",
"+ c #450052",
"@ c #4E0050",
"# c #4D0057",
"$ c #47005B",
"% c #47005E",
"& c #49005B",
"* c #4D0058",
"= c #4D005A",
"- c #49005E",
"; c #4C005D",
": c #50005D",
"> c #460063",
", c #470063",
"< c #440065",
"1 c #450065",
"2 c #470065",
"3 c #450067",
"4 c #460067",
"5 c #480064",
"6 c #420069",
"7 c #430069",
"8 c #440069",
"9 c #460068",
"0 c #460069",
"q c #41006C",
"w c #41006D",
"e c #42006C",
"r c #43006C",
"t c #41006E",
"y c #40006F",
"u c #400070",
"i c #A84800",
"p c #D06000",
"a c #8C004A",
"s c #880050",
"d c #9F1951",
"f c #9F1952",
"g c #991856",
"h c #981857",
"j c #991857",
"k c #981858",
"l c #AA1B41",
"z c #A7184B",
"x c #A4184D",
"c c #A6194C",
"v c #A11850",
"b c #A21951",
"n c #A01952",
"m c #AE2440",
"M c #BD3973",
"N c #BF3B72",
"B c #BB3875",
"V c #BB3975",
"C c #B93877",
"Z c #BE3974",
"A c #BD3A75",
"S c #B83878",
"D c #C23A6C",
"F c #C53A6D",
"G c #CB3C6D",
"H c #CB3D6E",
"J c #C13A72",
"K c #C43C71",
"L c #C94D5D",
"P c #F8A800",
"I c #F8D000",
"U c #6D0792",
"Y c #6C0895",
"T c #6C0C9A",
"R c #6B099C",
"E c #6A0B9D",
"W c #6107A5",
"Q c #6409A3",
"! c #6309A5",
"~ c #6808A0",
"^ c #6008A8",
"/ c #7B29AD",
"( c #7028B8",
") c #D85090",
"_ c #FF78A2",
"` c #F870B0",
"' c #9048C8",
"] c #F888B8",
"[ c #F8A0C8",
"{ c #F8B8D8",
"} c None",
/* pixels */
"}}}}}}}}}}}}}}}}}}}NDSZ}}}}}}}}}}}}}}}}}}}}}}}}}}}}}}}",
"}}}}}}}}}}}}}}}}}}L_l``FK}}}}}}}}}}}}}}}}}}}}}}}}}}}}}",
"}}}}}}}}}}}}}}}}}}}m}hd``H}}}}}}}}}}}}}}}}}}}}}}}}}}}}",
"}}}}}}}}}}}}}}}}}}}}}}}j[`G}}}}}}}}}}}}}}}}}}}}}}}}}}}",
"}}}}}}}}}}}}}}}}}}}}}}BS)]`xvn}}}}}}}}}}}}}}}}}}}}}}}}",
"}}}}}}}}}}}}}}}}}}}}VM`])[`k)Bz}}}}}}}}}}}}}}}}}}}}}}}",
"}}}}}}}}}}}}}}}}}}}A)`s[`)S)``ab}}}}}}}}}}}}}}}}}}}}}}",
"}}}}}}}}}}}}}}}}}}}B``[[[`)```)g}}}}}}}}}}}}}}}}}}}}}}",
"}}}}}}}}}}}}}}}}}}JS`]]S[]```k`kc}}}}}}}}}}}}}}}}}}}}}",
"}}}}}}}}}}}}}}}}}C]S][[[[`S[```k)f}}}}}}}}}}}}}}}}}}}}",
"}}}}}}}}}}}}}}}}}S``[{{[[[[]```)Sk}}}}}}}}}}}}}}}}}}}}",
"}}}}}}}}}}}}}}}}}k)][[[[]]`````)kk}}}}}}}}}}}}}}}}}}}}",
"}}}}}}}}}}}}}}}&@S```]]]]`````uuu;:},-}}}}}}}}}}}}}}}}",
"}}}}}}}}}}}}%<qu(uS))Suuuuuuuu((((RuET2}}}}}}}}}}}}}}}",
"}}}}}}}}}}}$u^^u'^uuuu(((((((((((((u^^u9}}}}}}}}}}}}}}",
"}}}}}}}}}}+Uu'(u'(^''''''''((^^^^((u^^uQ5}}}}}}}}}}}}}",
"}}}}}}}}}}6^u''u''((((((^^^^uuuu(u(^(^u^u}}}}}}}}}}}}}",
"}}}}}}}}}>/u^''u('''((''''((^uuuuu((((u^~5}}}}}}}}}}}}",
"}}}}}}}}}u(u(''^u('(^^uuuuuuu^^^u^u(('u^^w}}}}}}}}}}}}",
"}}}}}}}}}u(u(''(uu(((('''''(((^^u^u(('u^^u}}}}}}}}}}}}",
"}}}}}}}}}u(u(('(uu^^((''''''(((^u^(u('u^^u}}}}}}}}}}}}",
"}}}}}}}}u^(u(('(u^uu^(('''''(((^u^^u('u^(^4}}}}}}}}}}}",
"}}}}}}}}u((u((((u^(^u^(('''''((^u^(^((u^(^t}}}}}}}}}}}",
"}}}}}}}}u(^u('((u^((^u(((''''(^u^((^((u^(^u}}}}}}}}}}}",
"}}}}}}}}u(u(((((u^((((^((('''(^u^((u('u^(^u}}}}}}}}}}}",
"}}}}}}}u^^u(((((u^(^(((^((('((^u(((u('u^(^u}}}}}}}}}}}",
"}}}}}}r!(^u(((((^u((^(((((('((^u((^u((u^(^u}}}}}}}}}}}",
"}}}}}}u^(^u(('((^u((((((((((((u^((^u((^^((^u}}}}}}}}}}",
"}}}}}}u^(u((((((^u(((^(((('((^u(((u^(((u^(^u}}}}}}}}}}",
"}}}}}}u(^u((('((^u^((^((('((^u^((^u((((^u((^u}}}}}}}}}",
"}}}}}u^(u(((('(((u^((^u(((((^u^((^u(('((^u(^u}}}}}}}}}",
"}}}}}u((((^('''((^u^((^u(((^u(((^^u(('((^u('^u}}}}}}}}",
"}}}}u^(u((^('''(((u^((^uuuuu^(((^u^((''((^(('^u}}}}}}}",
"}}}}u(((((^(''''((^u^((^^^^^((((^u(('''(((^(('^u}}}}}}",
"}}0u^((((^((''''(((^u^(((((((((^u^((''''(((^(''^uu3=}}",
"}u^((((((^(((''''(((^u((((('(((^^^((''''(((((('''^^Y*}",
"}u^(((((^^((('''''((((^^(''(((^u^^(('''''(((((('''^8}}",
"}}u^^((^^^((((('(((((((''((((^^^^^(((('''(((('''^^w}}}",
"}}}u^^^^^^(((((((((^((((((((^u^^^^^(((((((((((^^ue}}}}",
"}}}}uu^^^^^(((((^^^^^^(((((^^^^^^^^^^^((((((^^uw}}}}}}",
"}}}}}}uuuu^^^^^^uuu^^^^^^^^^^uuuuuu^^^^^^^^Wy7}}}}}}}}",
"}}}}}}}}}}uuuuuuiiiuuu^^^^^^u  ipPPuO#1yuuu8}}}}}}}}}}",
"}}}}}}}}}}}}}}}}      uuuuuu   iPIIPi}}}}}}}}}}}}}}}}}",
"}}}}}}}}}}}}}}}                iPPPPi}}}}}}}}}}}}}}}}}",
"}}}}}}}}}}}}}}                 iippi.o}}}}}}}}}}}}}}}}",
"}}}}}}}}}}}}}}                  iii  X}}}}}}}}}}}}}}}}",
"}}}}}}}}}}}}}}}                      }}}}}}}}}}}}}}}}}",
"}}}}}}}}}}}}}}}}                    }}}}}}}}}}}}}}}}}}",
"}}}}}}}}}}}}}}}}}}                }}}}}}}}}}}}}}}}}}}}",
"}}}}}}}}}}}}}}}}}}}}}          }}}}}}}}}}}}}}}}}}}}}}}"
};
