/* XPM */
static char *result[] = {
/* columns rows colors chars-per-pixel */
"54 50 104 2 ",
"   c black",
".  c #030000",
"X  c #46004D",
"o  c #50004B",
"O  c #5A004E",
"+  c #4D0056",
"@  c #4E0056",
"#  c #4F0056",
"$  c #470058",
"%  c #47005E",
"&  c #46005F",
"*  c #4B0058",
"=  c #49005A",
"-  c #4A005B",
";  c #4E0059",
":  c #4D005B",
">  c #4F015B",
",  c #49005C",
"<  c #4B025D",
"1  c #48005F",
"2  c #500055",
"3  c #51025C",
"4  c #450062",
"5  c #450063",
"6  c #460063",
"7  c #460065",
"8  c #440067",
"9  c #470066",
"0  c #460067",
"q  c #490061",
"w  c #4A0261",
"e  c #480062",
"r  c #4B0162",
"t  c #4C0261",
"y  c #4A0167",
"u  c #420069",
"i  c #430069",
"p  c #43006A",
"a  c #42006B",
"s  c #440068",
"d  c #44006A",
"f  c #41006C",
"g  c #40006E",
"h  c #40006F",
"j  c #400070",
"k  c #A84800",
"l  c #D06000",
"z  c #880050",
"x  c #9A1755",
"c  c #9C1853",
"v  c #9B1855",
"b  c #9D1854",
"n  c #981858",
"m  c #A51A48",
"M  c #A5194D",
"N  c #A21C4E",
"B  c #AB1948",
"V  c #A01951",
"C  c #A21B51",
"Z  c #A01952",
"A  c #BD3873",
"S  c #BB3976",
"D  c #BD3974",
"F  c #B83878",
"G  c #C23B6D",
"H  c #C73C6C",
"J  c #C43E6D",
"K  c #CD3D69",
"L  c #CD3D6C",
"P  c #C03871",
"I  c #C03A73",
"U  c #C43B71",
"Y  c #CC4964",
"T  c #F8A800",
"R  c #F8D000",
"E  c #760E8A",
"W  c #73088C",
"Q  c #7A1283",
"!  c #731388",
"~  c #7B168F",
"^  c #6D0991",
"/  c #690898",
"(  c #680999",
")  c #720C93",
"_  c #700D94",
"`  c #781494",
"'  c #660AA1",
"]  c #6208A4",
"[  c #6209A6",
"{  c #6008A8",
"}  c #7B2AAD",
"|  c #7328B5",
" . c #7028B7",
".. c #7E2FB3",
"X. c #7028B8",
"o. c #8C37AB",
"O. c #D85090",
"+. c #FE73AC",
"@. c #F870B0",
"#. c #9048C8",
"$. c #F888B8",
"%. c #F8A0C8",
"&. c #F8B8D8",
"*. c None",
/* pixels */
"*.*.*.*.*.*.*.*.*.*.*.*.*.*.*.*.*.*.*.*.J G F F H *.*.*.*.*.*.*.*.*.*.*.*.*.*.*.*.*.*.*.*.*.*.*.*.*.*.*.*.*.",
"*.*.*.*.*.*.*.*.*.*.*.*.*.*.*.*.*.*.*.Y +.m K @.@.L *.*.*.*.*.*.*.*.*.*.*.*.*.*.*.*.*.*.*.*.*.*.*.*.*.*.*.*.",
"*.*.*.*.*.*.*.*.*.*.*.*.*.*.*.*.*.*.*.*.N *.*.n %.@.U *.*.*.*.*.*.*.*.*.*.*.*.*.*.*.*.*.*.*.*.*.*.*.*.*.*.*.",
"*.*.*.*.*.*.*.*.*.*.*.*.*.*.*.*.*.*.*.*.*.*.D F O.$.@.x c V *.*.*.*.*.*.*.*.*.*.*.*.*.*.*.*.*.*.*.*.*.*.*.*.",
"*.*.*.*.*.*.*.*.*.*.*.*.*.*.*.*.*.*.*.*.I F @.$.O.%.@.n O.A B *.*.*.*.*.*.*.*.*.*.*.*.*.*.*.*.*.*.*.*.*.*.*.",
"*.*.*.*.*.*.*.*.*.*.*.*.*.*.*.*.*.*.*.S O.z @.%.@.O.F O.@.z P Z *.*.*.*.*.*.*.*.*.*.*.*.*.*.*.*.*.*.*.*.*.*.",
"*.*.*.*.*.*.*.*.*.*.*.*.*.*.*.*.*.*.*.F @.@.%.%.%.@.O.@.@.@.O.v *.*.*.*.*.*.*.*.*.*.*.*.*.*.*.*.*.*.*.*.*.*.",
"*.*.*.*.*.*.*.*.*.*.*.*.*.*.*.*.*.*.F F @.$.F @.%.$.@.@.n @.@.n M *.*.*.*.*.*.*.*.*.*.*.*.*.*.*.*.*.*.*.*.*.",
"*.*.*.*.*.*.*.*.*.*.*.*.*.*.*.*.*.F $.F $.%.%.%.@.F @.%.@.@.@.n O.C *.*.*.*.*.*.*.*.*.*.*.*.*.*.*.*.*.*.*.*.",
"*.*.*.*.*.*.*.*.*.*.*.*.*.*.*.*.*.F @.@.%.&.&.%.%.%.%.$.@.@.@.O.F b *.*.*.*.*.*.*.*.*.*.*.*.*.*.*.*.*.*.*.*.",
"*.*.*.*.*.*.*.*.*.*.*.*.*.*.*.*.*.n O.$.%.%.%.%.$.$.@.@.@.@.@.O.n n *.*.*.*.*.*.*.*.*.*.*.*.*.*.*.*.*.*.*.*.",
"*.*.*.*.*.*.*.*.*.*.*.*.*.*.*.1 = F @.@.@.$.$.$.$.@.@.@.@.@.O.O.F n O *.# o *.*.*.*.*.*.*.*.*.*.*.*.*.*.*.*.",
"*.*.*.*.*.*.*.*.*.*.*.*., 5 f j X.j F O.O.F j j j j j j F O.O.F F j W s E Q 2 *.*.*.*.*.*.*.*.*.*.*.*.*.*.*.",
"*.*.*.*.*.*.*.*.*.*.*.- h { X.j #.{ j j j j X.X.X.X.X.X.j j j j j X.X.j { { p : *.*.*.*.*.*.*.*.*.*.*.*.*.*.",
"*.*.*.*.*.*.*.*.*.*.$ ^ j #.X.j #.X.{ #.#.#.#.#.#.#.#.X.X.X.X.{ { #.X.j { { j _ ; *.*.*.*.*.*.*.*.*.*.*.*.*.",
"*.*.*.*.*.*.*.*.*.*.i { j #.#.j #.#.X.X.X.X.X.X.{ { { { j j j j X.j X.X.X.{ j { 9 *.*.*.*.*.*.*.*.*.*.*.*.*.",
"*.*.*.*.*.*.*.*.*.% / j { #.#.j X.#.#.#.X.X.#.#.#.#.X.X.{ j j j j j X.X.X.X.j { ) @ *.*.*.*.*.*.*.*.*.*.*.*.",
"*.*.*.*.*.*.*.*.*.p X.j { #.#.{ j X.#.X.{ { j j j j j j j { { { j { j X.X.j { { { q *.*.*.*.*.*.*.*.*.*.*.*.",
"*.*.*.*.*.*.*.*.*.j X.j { #.#.X.j j X.X.X.X.X.#.#.#.#.X.X.X.{ { j { j X.#.j X.{ { e *.*.*.*.*.*.*.*.*.*.*.*.",
"*.*.*.*.*.*.*.*.*.j X.j { X.#.{ j { j X.X.X.#.#.#.#.#.#.X.X.{ { j X.{ j #.{ { X.{ e *.*.*.*.*.*.*.*.*.*.*.*.",
"*.*.*.*.*.*.*.*.8 ' X.j { X.#.{ j { j X.X.X.X.X.#.#.#.#.#.X.{ { j X.{ j #.j { X.{ 6 *.*.*.*.*.*.*.*.*.*.*.*.",
"*.*.*.*.*.*.*.*.j X.X.j { X.#.{ j { j { X.X.X.X.X.#.#.#.#.{ { { j X.{ X.#.j { X.j & *.*.*.*.*.*.*.*.*.*.*.*.",
"*.*.*.*.*.*.*.*.j X.X.j { X.#.{ j { { j X.X.X.X.X.X.#.#.#.{ { j X.{ { j X.j { X.j *.*.*.*.*.*.*.*.*.*.*.*.*.",
"*.*.*.*.*.*.*.*.*.j X.{ j X.X.{ j { { j { X.X.X.X.X.#.#.#.{ { j X.{ j X.X.j { X.j *.*.*.*.*.*.*.*.*.*.*.*.*.",
"*.*.*.*.*.*.*.*.*.j #.{ j X.#.{ j { { { j X.X.X.X.X.X.#.{ { j X.X.{ j X.#.j { X.j *.*.*.*.*.*.*.*.*.*.*.*.*.",
"*.*.*.*.*.*.*.*.*.j #.{ j X.X.{ j { { { { { X.X.X.X.X.#.{ { j X.X.{ j X.#.j { X.j *.*.*.*.*.*.*.*.*.*.*.*.*.",
"*.*.*.*.*.*.*.*.*.j X.{ j X.X.{ j { { { X.{ X.X.X.X.X.#.{ { j X.{ j X.X.#.j { X.j *.*.*.*.*.*.*.*.*.*.*.*.*.",
"*.*.*.*.*.*.*.*.*.j X.{ j X.X.{ j { { X.X.X.{ X.X.X.X.{ { j X.X.{ j X.#.#.{ j { j *.*.*.*.*.*.*.*.*.*.*.*.*.",
"*.*.*.*.*.*.*.*.j { X.{ j X.X.X.{ j { X.X.X.X.X.X.X.X.{ { j X.X.{ j X.#.#.{ j {  .g *.*.*.*.*.*.*.*.*.*.*.*.",
"*.*.*.*.*.*.*.*.j { X.{ j X.X.X.{ j { X.X.X.X.X.X.#.X.{ { X.X.X.j X.X.#.#.{ { j { j *.*.*.*.*.*.*.*.*.*.*.*.",
"*.*.*.*.*.*.*.*.j { { { { X.#.X.{ j { X.X.X.X.X.#.X.{ { j X.X.{ j X.X.#.#.#.{ j { j *.*.*.*.*.*.*.*.*.*.*.*.",
"*.*.*.*.*.*.*.*.j { { { { X.#.X.{ j { X.X.X.X.X.X.X.{ j X.X.X.{ j X.X.#.#.#.{ j { j *.*.*.*.*.*.*.*.*.*.*.*.",
"*.*.*.*.*.*.*.*.j { { j { X.#.#.X.{ j { X.{ X.X.X.{ { j X.X.X.{ j X.X.X.#.#.{ { j X.j *.*.*.*.*.*.*.*.*.*.*.",
"*.*.*.*.*.*.*.*.j { { j { X.X.#.X.{ j { X.X.X.{ { j X.X.#.X.X.{ X.X.X.X.#.#.{ { j { | h *.*.*.*.*.*.*.*.*.*.",
"*.*.*.*.*.*.*.j #.{ { { { X.X.#.#.{ j { X.X.X.X.X.X.X.#.X.X.{ j X.X.X.X.#.#.{ { { j { j *.*.*.*.*.*.*.*.*.*.",
"*.*.*.*.*.*.*.j #.{ { { { X.X.#.#.{ j { X.X.X.X.X.X.#.X.X.{ j X.X.X.X.X.#.X.{ { { { { X.j *.*.*.*.*.*.*.*.*.",
"*.*.*.*.*.*.j #.{ { { { { { X.#.#.{ { j X.X.X.X.#.#.X.{ { X.X.X.X.X.X.X.X.X.{ { { { j X.X.j 0 *.*.*.*.*.*.*.",
"*.*.*.*.*.y ..#.{ { { { { { X.X.X.{ { { { X.X.X.X.X.{ { { { { X.X.X.X.X.X.{ { { { { { { X.#.} 6 * *.*.*.*.*.",
"*.*.*.> r o.X.{ [ j j j { { { X.{ { { { { X.X.X.X.{ { { { { { { { { { { { { { { { { { { { X.X.{ 4 + *.*.*.*.",
"*.*.*.*.3 ~ { ` d *.*.*.j { { { j j j { { { { { { { { { { j j j j j j { { ! u j j j j ] { { ( a 7 *.*.*.*.*.",
"*.*.*.*.*.t r w *.*.*.*.*.g j < k l l j j j { { { { { { j     l l l l j j X *.*.*.*.*.s p s 8 *.*.*.*.*.*.*.",
"*.*.*.*.*.*.*.*.*.*.*.*.*.*.*.*.k l T R T l j j j j j j       l T R T l k *.*.*.*.*.*.*.*.*.*.*.*.*.*.*.*.*.",
"*.*.*.*.*.*.*.*.*.*.*.*.*.*.*.*.k l T R T l                   l T R l k *.*.*.*.*.*.*.*.*.*.*.*.*.*.*.*.*.*.",
"*.*.*.*.*.*.*.*.*.*.*.*.*.*.*..   k l l l                       l l k   . *.*.*.*.*.*.*.*.*.*.*.*.*.*.*.*.*.",
"*.*.*.*.*.*.*.*.*.*.*.*.*.*.                                                *.*.*.*.*.*.*.*.*.*.*.*.*.*.*.*.",
"*.*.*.*.*.*.*.*.*.*.*.*.*.*.                                                *.*.*.*.*.*.*.*.*.*.*.*.*.*.*.*.",
"*.*.*.*.*.*.*.*.*.*.*.*.*.*.*.                                            *.*.*.*.*.*.*.*.*.*.*.*.*.*.*.*.*.",
"*.*.*.*.*.*.*.*.*.*.*.*.*.*.*.*.                                        *.*.*.*.*.*.*.*.*.*.*.*.*.*.*.*.*.*.",
"*.*.*.*.*.*.*.*.*.*.*.*.*.*.*.*.*.*.                                *.*.*.*.*.*.*.*.*.*.*.*.*.*.*.*.*.*.*.*.",
"*.*.*.*.*.*.*.*.*.*.*.*.*.*.*.*.*.*.*.*.*.                    *.*.*.*.*.*.*.*.*.*.*.*.*.*.*.*.*.*.*.*.*.*.*."
};
