/* XPM */
static char *result[] = {
/* columns rows colors chars-per-pixel */
"54 50 92 1 ",
"  c black",
". c #020000",
"X c #040000",
"o c #48003B",
"O c #470044",
"+ c #470049",
"@ c #57004F",
"# c #460053",
"$ c #4A0051",
"% c #480053",
"& c #4C0053",
"* c #47005B",
"= c #46005E",
"- c #47005E",
"; c #490059",
": c #4A0059",
"> c #49005A",
", c #49005B",
"< c #4C005A",
"1 c #4B005E",
"2 c #460060",
"3 c #450062",
"4 c #460063",
"5 c #410067",
"6 c #430066",
"7 c #450064",
"8 c #440065",
"9 c #460166",
"0 c #420068",
"q c #430069",
"w c #42006A",
"e c #43006A",
"r c #42006B",
"t c #440068",
"y c #450068",
"u c #440069",
"i c #44006B",
"p c #41006D",
"a c #42006C",
"s c #43006C",
"d c #40006E",
"f c #40006F",
"g c #400070",
"h c #A84800",
"j c #D06000",
"k c #880050",
"l c #9F1851",
"z c #9E1852",
"x c #981858",
"c c #AC1847",
"v c #A1174F",
"b c #A41A49",
"n c #A3194F",
"m c #A51B4D",
"M c #AA1949",
"N c #A81A4D",
"B c #A01850",
"V c #BB3875",
"C c #BA3976",
"Z c #BD3974",
"A c #B83878",
"S c #C53B6A",
"D c #C4386E",
"F c #C63F6D",
"G c #CB3B6B",
"H c #C93D6A",
"J c #D23F69",
"K c #CA4960",
"L c #CC416D",
"P c #F8A800",
"I c #F8D000",
"U c #740F84",
"Y c #730F89",
"T c #73088E",
"R c #720D8E",
"E c #6D0792",
"W c #6D0C97",
"Q c #67079A",
"! c #6E0A99",
"~ c #6409A1",
"^ c #650AA2",
"/ c #6108A5",
"( c #6208A4",
") c #6008A8",
"_ c #7028B8",
"` c #D85090",
"' c #F870B0",
"] c #9048C8",
"[ c #F888B8",
"{ c #F8A0C8",
"} c #F8B8D8",
"| c None",
/* pixels */
"||||||||||||||||||||||||||||||||||||||||||||||||||||||",
"||||||||||||||||||||||FSHL||||||||||||||||||||||||||||",
"|||||||||||||||||||||K'b''J|||||||||||||||||||||||||||",
"||||||||||||||||||||||b|x{'G||||||||||||||||||||||||||",
"|||||||||||||||||||||||AA`['vBn|||||||||||||||||||||||",
"|||||||||||||||||||||VA'[`{'x`Dc||||||||||||||||||||||",
"||||||||||||||||||||Ck'{{'`A`k'AN|||||||||||||||||||||",
"||||||||||||||||||||A'{{{{'`'''`z|||||||||||||||||||||",
"|||||||||||||||||||ZA'A'{{['x'''xM||||||||||||||||||||",
"||||||||||||||||||A[A[{{'A''{'''x`m|||||||||||||||||||",
"||||||||||||||||||A''{}}{{{{['''`Al|||||||||||||||||||",
"||||||||||||||||||x`[{{{{[['''''`xx|||||||||||||||||||",
"||||||||||||||||30ggggg[[['''''``Ax@|$+|||||||||||||||",
"|||||||||||||=6gg_g____ggggggA``AAgTeRY;||||||||||||||",
"||||||||||||*g)_g]))))_______ggggg__g))f,|||||||||||||",
"|||||||||||#Eg]_g]_)]]]]]]]]____))]_g))gW:||||||||||||",
"|||||||||||q)g]]g]]______))))gggg_g___)g)y||||||||||||",
"||||||||||2Qg)]]g_]]]__]]]]__)ggggg)___g)!>|||||||||||",
"||||||||||d)g)]])g)]_))ggggggg)))))g)__g))u|||||||||||",
"||||||||||g)g)]]_g)_____]]]]]]__)))g)__g))g|||||||||||",
"||||||||||g)g)_)))g_________]]]__))g)_____g|||||||||||",
"|||||||||g)_g)_))))__________]]]_))g__g___)t||||||||||",
"|||||||||g)_g)_)))))g________]]]_)))__g___)g||||||||||",
"|||||||||g)_g)_))))))_________]]_)g)]_____)g||||||||||",
"||||||||g)__)__))__))_________]__)g_]_g___)g||||||||||",
"||||||||g)_g)]_))_____)_______]_)g)_]_)____)g|||||||||",
"|||||||g)__g)]_)________))___]__)g_]]_)____)g|||||||||",
"|||||||g)_])_]_______________]_)g)__]])____)g|||||||||",
"||||||g)_____]_g____________]_)g)__]]])__]__)g||||||||",
"||||||g)___)_]_g)_______)__]_)g)___]]]_g_]___g||||||||",
"|||||f)__]_____))__________))g)_)__]]]_g__]__)g|||||||",
"|||||g)___)__]_))______)________g)__]]_)g_]___)g||||||",
"||||g)______]]_)))____)_______])g)__]]]_)__]___)g|||||",
"||||g)_]]]]]]]_)g)__))g______]_)g)___]]__)_]]___)f||||",
"|||s)_]]]]]]]]__))))))g______]_g)g___]]]_g__]]]__g||||",
"|||g)____]]]]]__)g)))g)_____]]_)))____]]_)g__]]]_)p|||",
"|||g)_)))_]]]]__)))))g_____]]__)))g)_]]]]_))__]]__g7||",
"|||g))ggg)_]]___)))))g_]]]]]]_g))))g_]]]]]_))))]]_)d||",
"|||i(g|||gg____)))))))_]]]]]__)))))))_]]]]]_ggg)__)g||",
"||||e4|||||gg)))))))))__]]]__)))))))))_]]]gg|||y^_/w||",
"||||1U%||||||gggggggg))_____))gggggg)))ggg||||||r~a|||",
"|||||<&o|||||||hhPPjhgg))))))g hhhhhf85||||||||O-9||||",
"|||||||||||||||hPIIPh  gggggg        |||||||||||||||||",
"|||||||||||||||hPPPPh                 ||||||||||||||||",
"|||||||||||||||Xhjjhh                  |||||||||||||||",
"|||||||||||||||. hhh                   |||||||||||||||",
"||||||||||||||||                      ||||||||||||||||",
"|||||||||||||||||                    |||||||||||||||||",
"|||||||||||||||||||                |||||||||||||||||||",
"||||||||||||||||||||||          ||||||||||||||||||||||"
};
