/* XPM */
static char *result[] = {
/* columns rows colors chars-per-pixel */
"54 50 83 1 ",
"  c black",
". c #020000",
"X c #480051",
"o c #47005C",
"O c #46005D",
"+ c #44005E",
"@ c #47005E",
"# c #4A005A",
"$ c #4C005B",
"% c #49005C",
"& c #48005E",
"* c #50005C",
"= c #460062",
"- c #470062",
"; c #430064",
": c #430065",
"> c #450064",
", c #460064",
"< c #470064",
"1 c #440066",
"2 c #470066",
"3 c #460067",
"4 c #490060",
"5 c #4B0062",
"6 c #4D0060",
"7 c #480064",
"8 c #430068",
"9 c #43006B",
"0 c #450068",
"q c #440069",
"w c #460068",
"e c #41006C",
"r c #41006D",
"t c #42006C",
"y c #40006E",
"u c #41006E",
"i c #40006F",
"p c #400070",
"a c #A84800",
"s c #D06000",
"d c #880050",
"f c #981857",
"g c #9A1856",
"h c #981858",
"j c #AC1A47",
"k c #A41A4D",
"l c #A01952",
"z c #BF3A73",
"x c #BA3876",
"c c #B83878",
"v c #C33D6F",
"b c #C13A73",
"n c #F8A800",
"m c #F8D000",
"M c #6F0D8F",
"N c #6B0B96",
"B c #6D0C96",
"V c #66079D",
"C c #670A9D",
"Z c #6B0A98",
"A c #6C0898",
"S c #690C99",
"D c #6D0E9A",
"F c #69099C",
"G c #760F95",
"H c #6207A3",
"J c #6407A0",
"K c #6007A7",
"L c #6608A0",
"P c #6508A2",
"I c #6208A4",
"U c #6308A4",
"Y c #6208A5",
"T c #6008A8",
"R c #7028B8",
"E c #0006FE",
"W c #D85090",
"Q c #F870B0",
"! c #9048C8",
"~ c #F888B8",
"^ c #F8A0C8",
"/ c #F8B8D8",
"( c None",
/* pixels */
"((((((((((((((((((((((vQjQz(((((((((((((((((((((((((((",
"(((((((((((((((((((((((k(hQb((((((((((((((((((((((((((",
"(((((((((((((((((((((((((h^Qc(((((((((((((((((((((((((",
"((((((((((((((((((((((((ccW~Qhhh((((((((((((((((((((((",
"((((((((((((((((((((((xcQ~W^QhWcl(((((((((((((((((((((",
"(((((((((((((((((((((cWdQ^QWcWQdcf((((((((((((((((((((",
"(((((((((((((((((((((cQQ^^^QWQQQWh((((((((((((((((((((",
"((((((((((((((((((((ccQ~cQ^~QQhQQhh(((((((((((((((((((",
"(((((((((((((((((((c~c~^^^QcQ^QQQhWg((((((((((((((((((",
"(((((((((((((((((((cQQ^//^^^^~QQQWch((((((((((((((((((",
"(((((((((((((((((((hW~^^^^~~QQQQQWhh((((((((((((((((((",
"(((((((((((((((((%$cQQQ~~~~QQQQQWWch*(#X((((((((((((((",
"((((((((((((((O>ppRpcWWcppppppcWWccpApBM&(((((((((((((",
"(((((((((((((opTRp!TppppRRRRRRpppppRRpTTp-((((((((((((",
"((((((((((((+Np!Rp!RT!!!!!!!!RRRRTT!RpTTpC4(((((((((((",
"((((((((((((pTp!!p!!RRRRRRTTTTppppRpRTRTpTi(((((((((((",
"(((((((((((1IpT!!pR!!!RR!!!!RRTpppppRRRTpTPw((((((((((",
"(((((((((((uTpT!!TpR!RTTpppppppTTTTTpRRTpTTp((((((((((",
"(((((((((((pTpT!!TpRRRRRR!!!!RRRRTTTpR!TpTTp((((((((((",
"((((((((((rURpTR!TpRRRRRRRRRRRRR!RTTpRRRTTRTp(((((((((",
"((((((((((pTpTRR!RTTRRRR!RRRR!!!!RTTpRRRpTRRTp((((((((",
"(((((((((pTRpTRRR!RpTRRRRR!!!RR!!RTpTRRRpTRRTp((((((((",
"((((((((iYRpTRRRR!!RTpTRRRRRRRRRRTTpRRR!TpTRRTp(((((((",
"((((((((pTRpTRRRRR!!RRTTpRRRRRTTTppTRTR!TpTR!Tp(((((((",
"(((((((pTRpTRRRRRTRR!RRRRRRTTTpppT!RTTR!!pTRRRTp((((((",
"((((((rTRRRRRRRRRTTRRRRRRRRRRRRRR!!TTTRR!TTRRRRTp(((((",
"(((((9YRRpRRRRRRRRTTTRRRRRRRRRRR!!TTTRRR!TpTR!RTTp((((",
"(((((pTRRTRRRRRRRRRRTTTRRR!R!!R!RTTTRRRRR!TTRRRRTTe(((",
"((((tTRRRR!RRRTR!RRRRRTTTTRRRTTTTTTRR!RRRRTpTR!!TTH8((",
"(((3LRRRR!RRRRTR!RRRRRRRRRRTTTTTTRRRR!RRRRRTpRR!!TTJ:(",
"((7FTRRRR!RRRTTR!!RRRRRRRRRRRRRRRRRRRR!RTRRRTRRR!RTTy(",
"(5ZTRRRR!RRRRTTR!!RRRRRR!!!!!RRRRRRRRR!!RTRRRTRR!RRTV;",
"(0TRRR!!!RRRRTTRR!!!RR!!!!!RR!R!!RRRRR!!RRRRRRTRR!RTTi",
"2GTRR!!!RRRRRRRRR!!!!!!!!RRRRRRRR!RRRR!!RRRRRpTRR!RTTT",
"pTTTTTTTTRRRRRRRR!!!!!!RRRTTTTRRRRRRR!!!!RTRRpTTTTTTTT",
"pTTZuppppTTTTTTTRR!!!!RRRTTTTTTTTRRR!!!!!RTTRTTKppppiS",
"pD<@(((((pppTTTTTRRRRRRTTTTTTTTTTTTR!!!!RTTTTppi(((((=",
"(6((((((((((pppTTTTRTTTTTTTTTTTTTTTRRR!RRTTTp(((((((((",
"(((((((((((((((ppTTTTTTTpppppppppTTTRRRRTTTp((((((((((",
"(((((((((((((((pTTTpppppEEEEEEEEsppTTTTTTpp(((((((((((",
"((((((((((((((((pppssss         ssspp,qup(((((((((((((",
"(((((((((((((((((asnmns         snmnsa((((((((((((((((",
"((((((((((((((((((asmns         snmnsa((((((((((((((((",
"(((((((((((((((((. ass           ssaa .(((((((((((((((",
"((((((((((((((((                        ((((((((((((((",
"((((((((((((((((                        ((((((((((((((",
"(((((((((((((((((                      (((((((((((((((",
"((((((((((((((((((                    ((((((((((((((((",
"((((((((((((((((((((                ((((((((((((((((((",
"(((((((((((((((((((((((          ((((((((((((((((((((("
};
