/* XPM */
static char *result[] = {
/* columns rows colors chars-per-pixel */
"32 32 241 2 ",
"   c #926D4A",
".  c #725438",
"X  c #846242",
"o  c #6D5136",
"O  c #423120",
"+  c #594029",
"@  c #644930",
"#  c #594129",
"$  c #6E5136",
"%  c #654A31",
"&  c #4F3A25",
"*  c #3A2C1E",
"=  c #463322",
"-  c #5D452D",
";  c #6C5035",
":  c #5B422A",
">  c #423121",
",  c #33271C",
"<  c #382A1D",
"1  c #503A25",
"2  c #60462D",
"3  c #61472E",
"4  c #5F452D",
"5  c #584029",
"6  c #3B2C1F",
"7  c #483522",
"8  c #5E452C",
"9  c #77583B",
"0  c #866443",
"q  c #AB8159",
"w  c #A17954",
"e  c #9F7752",
"r  c #614832",
"t  c #694D32",
"y  c #684C32",
"u  c #6E5236",
"i  c #715438",
"p  c #58422C",
"a  c #3F2F21",
"s  c #513B26",
"d  c #4B3725",
"f  c #413020",
"g  c #3F2F20",
"h  c #664B31",
"j  c #806040",
"k  c #705337",
"l  c #6F5237",
"z  c #7A5A3C",
"x  c #674C32",
"c  c #3E2E1F",
"v  c #553E28",
"b  c #6D5035",
"n  c #8E6B4A",
"m  c #A37B55",
"M  c #A57B54",
"N  c #B0855C",
"B  c #BE9165",
"V  c #9F7853",
"C  c #4C3826",
"Z  c #57402A",
"A  c #A07852",
"S  c #7A5B3D",
"D  c #98734F",
"F  c #715439",
"G  c #4A3725",
"H  c #6B4F34",
"J  c #543E29",
"K  c #4E3A26",
"L  c #5A422B",
"P  c #533C27",
"I  c #433221",
"U  c #96714D",
"Y  c #856343",
"T  c #7B5C3D",
"R  c #7F5F40",
"E  c #99724E",
"W  c #684D33",
"Q  c #BC8E62",
"!  c #BF9266",
"~  c #B98D63",
"^  c #AA7F57",
"/  c #A37A54",
"(  c #A57C55",
")  c #694E34",
"_  c #483523",
"`  c #95704C",
"'  c #8A6847",
"]  c #896746",
"[  c #A47C57",
"{  c #876545",
"}  c #4E3A27",
"|  c #826041",
" . c #78593C",
".. c #7F5E3F",
"X. c #63492F",
"o. c #A47B55",
"O. c #B78B61",
"+. c #9A734E",
"@. c #7D5C3E",
"#. c #543D28",
"$. c #433121",
"%. c #735539",
"&. c #C89768",
"*. c #D19E6E",
"=. c #C19366",
"-. c #A77E57",
";. c #4E3B28",
":. c #553F2A",
">. c #3A2B1E",
",. c #4C3825",
"<. c #AF845C",
"1. c #B1865E",
"2. c #B68A61",
"3. c #AE845C",
"4. c #9F7854",
"5. c #58422E",
"6. c #8F6A48",
"7. c #A17953",
"8. c #4F3A26",
"9. c #805F40",
"0. c #9D7651",
"q. c #573F29",
"w. c #3C2D1F",
"e. c #61482F",
"r. c #7B5B3D",
"t. c #A17952",
"y. c #7E5E40",
"u. c #503C29",
"i. c #32261C",
"p. c #4B3724",
"a. c #735538",
"s. c #BA8D61",
"d. c #BE8F63",
"f. c #A87E56",
"g. c #A77D56",
"h. c #AF835B",
"j. c #AD825A",
"k. c #7E5F43",
"l. c #624A33",
"z. c #C39366",
"x. c #C89869",
"c. c #402F20",
"v. c #403021",
"b. c #59412A",
"n. c #563F28",
"m. c #4A3624",
"M. c #35281D",
"N. c #35291D",
"B. c #4C3927",
"V. c #473525",
"C. c #443221",
"Z. c #523C26",
"A. c #78593B",
"S. c #B5885D",
"D. c #B98B60",
"F. c #B0855D",
"G. c #8D6A48",
"H. c #483624",
"J. c #6E5237",
"K. c #B88B61",
"L. c #C29265",
"P. c #B0835A",
"I. c #AA8058",
"U. c #76573A",
"Y. c #4B3723",
"T. c #37291D",
"R. c #382B1E",
"E. c #403020",
"W. c #4F3925",
"Q. c #4C3824",
"!. c #4C3724",
"~. c #34271C",
"^. c #523D28",
"/. c #8B6846",
"(. c #7A5B3C",
"). c #4F3B27",
"_. c #A27A54",
"`. c #B5895F",
"'. c #7E5E3F",
"]. c #563E27",
"[. c #443222",
"{. c #503C28",
"}. c #5A412A",
"|. c #493623",
" X c #32271C",
".X c #3E2F21",
"XX c #463424",
"oX c #493522",
"OX c #5A432C",
"+X c #BD8F62",
"@X c #AD8159",
"#X c #A97F57",
"$X c #AA7F58",
"%X c #816041",
"&X c #584028",
"*X c #463422",
"=X c #74563A",
"-X c #543E28",
";X c #876443",
":X c #694D33",
">X c #5A422A",
",X c #6A4F36",
"<X c #36291D",
"1X c #523B26",
"2X c #493523",
"3X c #9C7550",
"4X c #BF9064",
"5X c #B78A5F",
"6X c #B68A60",
"7X c #A47C55",
"8X c #715337",
"9X c #503A26",
"0X c #3D2E20",
"qX c #5A442F",
"wX c #4D3825",
"eX c #523C28",
"rX c #A17A55",
"tX c #906C4A",
"yX c #936D4A",
"uX c #563F2A",
"iX c #3D2D1F",
"pX c #4D3824",
"aX c #846342",
"sX c #3B2C1E",
"dX c #392B1E",
"fX c #433222",
"gX c #75573B",
"hX c #9E7650",
"jX c #3E2E20",
"kX c #473422",
"lX c #453322",
"zX c #35281C",
"xX c #453321",
"cX c #473423",
"vX c #513B25",
"bX c #3D2E1F",
"nX c #372A1D",
"mX c #3B2D1F",
"MX c #4E3924",
"NX c #34281C",
"BX c white",
/* pixels */
"  . X o O + @ # $ % & * = - ; : > , < 1 2 3 3 4 : 5 > 6 7 8 9 0 ",
"q w e r > t y : u i 2 p a s d f < g > h j k k l z x c v b n m M ",
"N B V C Z A 9 x S D ; F G H J K L P I u U Y T R E W O k Q ! ~ ^ ",
"/ ( ) _ . ` ' ] [ D . { } |  .k ..h f X.o.O./ +.@.#.$.%.&.*.=.-.",
";.:.>.,.Y q <.1.2.3.A 4.5.6.7.o.( $ < 8.9.0.V 9.q.c w.e.r.t.y.u.",
"i., , p.a.s.d.f.g.h.j.k.l.f.z.x.-.y c.v.b.n.n.m.c M.N.c.$.B.V., ",
", , , C.Z.A.q S.D.F.G.H.J.K.L.P.I.U.Y.T.< * f R.E.W.& Q.* >.!.g ",
", , , ~.>.C.^./.7.(.Z.)._.`.f.M I.'.].f [.{.L !.}.: ].+ ,.|.].f ",
", , , ,  Xi.M..XXXs oXOX+X@XM #X$X%X&X*X=XX J -X;X:X>X..,X*X!.<X",
", , , M.w.~., g 1X].2X8.3X4X5X6X7X8X9X0XqX=XwXeX/ rXtXyXuXf _ , ",
", , , < & iX, = 1 pX6 * b.A.aXy.t Z.sX, i.dXc fXgX` hXU.jX|.kX, ",
", , , N.lXsX, zX<XM., , sXxXkXcX= sX, , , g vXf lXp.,.= M.bXw.dX",
", , , , , <XbX, , , , , , , , , , , , , , *XQ.dX X X X, , , T.nX",
", , , , , ~.M., , , , , , , , , , , , , , M.6 dX, , , , , , , , ",
", , , , , , , , , , , <X_ g , , , , , , , , , , , , , , M.M., , ",
", , , , , , , , , , , <XkXlXM., , , , , , , , , , , , , >.>., , ",
", , , , , , , , , , , , , , , , , , , , , , , , , , , , , , , , ",
", , , , , , , , , , , , , , , , , , , , , , , , , , , , , , , , ",
", , , , , , , , , , , , , , , , , , , , , , , , , , , , , , , , ",
", , , , , , , , , , , , , , , , , , , , , , , , , , , , , , , , ",
", , , , , , , , , , , , , , , , , , , , , , , N.lXmX, , , , , , ",
", , , , , , , , , , , , , , , , , , , , , , , <XMX& <X, , , , , ",
", , , , , , dXdX, , , , , , , , , , , , , , , , >.> M., , , , , ",
", , , , , , <X<X, , , , , , , , , , , NX* <X, , , , , , , , , , ",
", , , , , , , , , , , , , , , , , , , nXW.g  X, , , , , , , , , ",
", , , , , , , , , , , , , , , , , , , NXsX<X, , , , , , , , , , ",
", , , ~.~., , , , , , , , , , , , , , , , , , , , , , , , , , , ",
", , , C.C., , , , , , , , , >.>., , , , , , , NX<X, , , , , , , ",
", , , f f , , , , , , , , , NXNX, , , , , , , N.w., , , , , , , ",
", , , , , , , , , , , , , , , , , , , , , , , , , , , , , , , , ",
", , , , , , , , , , , , , , , , , , , , , , , , , , , , , , , , ",
", , , , , , , , , , , , , , , , , , , , , , , , , , , , , , , , "
};
