/* XPM */
static char *result[] = {
/* columns rows colors chars-per-pixel */
"32 32 234 2 ",
"   c #33271C",
".  c #3B2D1F",
"X  c #805F41",
"o  c #AE835B",
"O  c #AB8058",
"+  c #AA8058",
"@  c #755639",
"#  c #35281D",
"$  c #34281C",
"%  c #372A1D",
"&  c #34271C",
"*  c #32261C",
"=  c #37291D",
"-  c #543E28",
";  c #826142",
":  c #B98D63",
">  c #B58960",
",  c #A57C55",
"<  c #735538",
"1  c #3B2C1F",
"2  c #382A1E",
"3  c #392B1E",
"4  c #3A2C1E",
"5  c #3B2C1E",
"6  c #4F3925",
"7  c #3C2D1F",
"8  c #3E2E1F",
"9  c #413020",
"0  c #543D28",
"q  c #AC8159",
"w  c #C19368",
"e  c #A87F58",
"r  c #77593B",
"t  c #57402A",
"y  c #36291D",
"u  c #473524",
"i  c #6E5135",
"p  c #483523",
"a  c #AD8258",
"s  c #CC9B6C",
"d  c #936E4B",
"f  c #553F29",
"g  c #382A1D",
"h  c #694E34",
"j  c #AF845B",
"k  c #624930",
"l  c #6C5034",
"z  c #AD8259",
"x  c #7C5C3D",
"c  c #493523",
"v  c #403022",
"b  c #4A3724",
"n  c #A07852",
"m  c #B4895F",
"M  c #6E5136",
"N  c #4A3624",
"B  c #5D442C",
"V  c #573F28",
"C  c #3D2E1F",
"Z  c #59422D",
"A  c #3A2B1E",
"S  c #4A3725",
"D  c #A77E56",
"F  c #B88A60",
"G  c #96704C",
"H  c #6A4E33",
"J  c #503C28",
"K  c #4B3825",
"L  c #463322",
"P  c #58412B",
"I  c #634930",
"U  c #8D6947",
"Y  c #B4885D",
"T  c #7C5C3E",
"R  c #4C3826",
"E  c #4E3925",
"W  c #60462D",
"Q  c #443221",
"!  c #4C3724",
"~  c #3D2D1F",
"^  c #5A422C",
"/  c #9A734E",
"(  c #71543A",
")  c #3F2F20",
"_  c #4B3623",
"`  c #664A30",
"'  c #694D32",
"]  c #5B422B",
"[  c #463422",
"{  c #443322",
"}  c #423121",
"|  c #684C31",
" . c #856343",
".. c #664C34",
"X. c #B3885E",
"o. c #6C4F34",
"O. c #563F28",
"+. c #483422",
"@. c #866442",
"#. c #BF9063",
"$. c #B1855B",
"%. c #32261B",
"&. c #916E4D",
"*. c #C59669",
"=. c #AB8059",
"-. c #8C6847",
";. c #6D5135",
":. c #533D27",
">. c #3F2F1F",
",. c #62472E",
"<. c #AE8359",
"1. c #B0845A",
"2. c #926C49",
"3. c #61472D",
"4. c #76593D",
"5. c #B0855C",
"6. c #BA8D61",
"7. c #866443",
"8. c #6C5035",
"9. c #61472E",
"0. c #B6895E",
"q. c #C09064",
"w. c #886544",
"e. c #553D27",
"r. c #AE835A",
"t. c #9E7751",
"y. c #5F462E",
"u. c #403020",
"i. c #725437",
"p. c #8C6846",
"a. c #493623",
"s. c #523D28",
"d. c #493727",
"f. c #4B3724",
"g. c #6C5036",
"h. c #403122",
"j. c #32271C",
"k. c #392B1D",
"l. c #7B5A3C",
"z. c #664B31",
"x. c #433121",
"c. c #523C27",
"v. c #876443",
"b. c #A57B55",
"n. c #8A6645",
"m. c #553E28",
"M. c #5B442F",
"N. c #4A3623",
"B. c #453322",
"V. c #9D754F",
"C. c #9C744F",
"Z. c #725438",
"A. c #523C26",
"S. c #503A25",
"D. c #674C31",
"F. c #A07954",
"G. c #8E6B49",
"H. c #35291D",
"J. c #473423",
"K. c #5A432D",
"L. c #5E462F",
"P. c #443222",
"I. c #654A31",
"U. c #9E7753",
"Y. c #B1865D",
"T. c #876444",
"R. c #402F20",
"E. c #503A26",
"W. c #866444",
"Q. c #B78B61",
"!. c #533C26",
"~. c #573F27",
"^. c #473422",
"/. c #816041",
"(. c #C09266",
"). c #CE9C6C",
"_. c #98724D",
"`. c #423120",
"'. c #4C3824",
"]. c #453321",
"[. c #573F29",
"{. c #836242",
"}. c #BB8D62",
"|. c #98724E",
" X c #533D29",
".X c #74573A",
"XX c #5F462F",
"oX c #513C27",
"OX c #433221",
"+X c #4D3825",
"@X c #7B5B3D",
"#X c #886645",
"$X c #7A5B3D",
"%X c #C29367",
"&X c #A77E58",
"*X c #836142",
"=X c #684C32",
"-X c #513C28",
";X c #57412C",
":X c #856342",
">X c #BD9065",
",X c #A67C55",
"<X c #9B744F",
"1X c #7D5D3E",
"2X c #705337",
"3X c #BF9164",
"4X c #CC9B6B",
"5X c #BB8E63",
"6X c #B68A60",
"7X c #3E2E20",
"8X c #AB8159",
"9X c #92704E",
"0X c #8A694A",
"qX c #806043",
"wX c #463424",
"eX c #533E29",
"rX c #725538",
"tX c #75573A",
"yX c #BE9064",
"uX c #694D33",
"iX c #4E3924",
"pX c #36291C",
"aX c #6D5238",
"sX c #CF9D6D",
"dX c #BA8D62",
"fX c #896645",
"gX c #5A4129",
"hX c #3C2D20",
"jX c #936F4C",
"kX c #BC8D61",
"lX c #AE8259",
"zX c #916C4A",
"xX c #60462E",
"cX c white",
/* pixels */
"                                                    . X o O + @ ",
"                  # $                 $ # $ % & * = - ; : > , < ",
"                  1 2                 3 4 5 6 7 8 9 0 q w e r t ",
"                                          y 8 u i 0 p a s d f = ",
"    % 2                                     g h j k 8 l z x c v ",
"    % 2                       # #         * b n m M 9 N B V C Z ",
"                              A A         * S D F G H J K L 4 P ",
"              # y                         * 4 I U Y , T R g E W ",
"          $ 3 Q ! #                     $ ~ g A ^ / / ( ) _ ` ' ",
"          $ A 4 C &                     9 W ] [ 8 { } ~ 0 |  .@ ",
"                                      * ..X., o.O.6 8 +.@.#.$.@ ",
"                                      %.&.*.=.-.;.:.>.,.<.1.2.3.",
"                                      %.4.5.6.7.8.:.>.9.0.q.w.e.",
"                                        [ < r.t.y.u.& c i.#.p.a.",
"                                        % p s.d.) u.) 7 f. .g.h.",
"                y                           j.k.- l.z.x.7 ) 8   ",
"              $ C # ~ 4                     $ c.v.b.n.m.~ _ y.M.",
"                  $ N.B.                    & y.V.C.Z.A.S.D.F.G.",
"                    y H.                    $ J.K.L.P.{ I.U.Y.T.",
"                                                R.N.R.E.W.Q.r.w.",
"                                            & 9 !.~.^.E /.(.)._.",
"                                          2 7 ) `.L '.].[.{.}.|.",
"                                          $ y  X.XXXoXOX) +X@X#X",
"                                            ) $X%X&X*X=X+X~ -X;X",
"                                          j.L :X).>X,X<X1X9.! g ",
"                % 7                         } 2X3X4X5X6Xq G z.} ",
"      5 7       $ H.                        # 7Xy.V.8X9X0XqX8.wX",
"      Q R.              $ H.            # 4 p % g B.eXb ! f.u 2 ",
"      #                 y 7             7 ~ p g * H.a.rXU i N.g ",
"                                              y # k.tXyX*.&XuXiX",
"                                            # f.x.pXaX5XsXdXfXgX",
"                                            $ ) 5 j.hXjXkXlXzXxX"
};
