/* XPM */
static char *result[] = {
/* columns rows colors chars-per-pixel */
"32 32 241 2 ",
"   c #33271C",
".  c #3C2D1F",
"X  c #35291D",
"o  c #34281C",
"O  c #413020",
"+  c #36291D",
"@  c #3A2B1E",
"#  c #443221",
"$  c #34271C",
"%  c #3B2C1E",
"&  c #32271C",
"*  c #3F2F20",
"=  c #4F3925",
"-  c #372A1D",
";  c #3A2C1E",
":  c #35281D",
">  c #423121",
",  c #392B1E",
"<  c #4F3A25",
"1  c #4E3924",
"2  c #3B2D1F",
"3  c #453322",
"4  c #473422",
"5  c #483523",
"6  c #3B2C1F",
"7  c #37291D",
"8  c #4C3824",
"9  c #463422",
"0  c #3D2E1F",
"q  c #463322",
"w  c #4C3825",
"e  c #4B3724",
"r  c #513B25",
"t  c #473423",
"y  c #453321",
"u  c #35281C",
"i  c #493623",
"p  c #3E2E20",
"a  c #76573A",
"s  c #9E7650",
"d  c #95704C",
"f  c #75573B",
"g  c #433222",
"h  c #3E2E1F",
"j  c #32261C",
"k  c #523C26",
"l  c #694D32",
"z  c #7E5E40",
"x  c #846342",
"c  c #78593B",
"v  c #59412A",
"b  c #4D3824",
"n  c #503A25",
"m  c #3D2D1F",
"M  c #382A1D",
"N  c #563F2A",
"B  c #936D4A",
"V  c #906C4A",
"C  c #A17A55",
"Z  c #A37A54",
"A  c #523C28",
"S  c #4D3825",
"D  c #74563A",
"F  c #5A442F",
"G  c #3D2E20",
"H  c #503A26",
"J  c #715337",
"K  c #A47C55",
"L  c #B68A60",
"P  c #B78A5F",
"I  c #BF9064",
"U  c #9C7550",
"Y  c #4F3A26",
"T  c #493523",
"R  c #563E27",
"E  c #523B26",
"W  c #4C3724",
"Q  c #6A4F36",
"!  c #7F5E3F",
"~  c #5A422A",
"^  c #694D33",
"/  c #876443",
"(  c #543E28",
")  c #543E29",
"_  c #846242",
"`  c #584028",
"'  c #816041",
"]  c #AA7F58",
"[  c #A97F57",
"{  c #A57B54",
"}  c #AD8159",
"|  c #BD8F62",
" . c #5A432C",
".. c #493522",
"X. c #513B26",
"o. c #463424",
"O. c #3E2F21",
"+. c #594029",
"@. c #5B422A",
"#. c #5A412A",
"$. c #5A422B",
"%. c #503C28",
"&. c #443222",
"*. c #7E5E3F",
"=. c #AA8058",
"-. c #A87E56",
";. c #B5895F",
":. c #A27A54",
">. c #4F3B27",
",. c #7A5B3C",
"<. c #A17953",
"1. c #8B6846",
"2. c #523D28",
"3. c #403020",
"4. c #382B1E",
"5. c #4B3723",
"6. c #B0835A",
"7. c #C29265",
"8. c #B88B61",
"9. c #6E5237",
"0. c #483624",
"q. c #8D6A48",
"w. c #B0855D",
"e. c #B98B60",
"r. c #B5885D",
"t. c #AB8159",
"y. c #473525",
"u. c #4C3927",
"i. c #433121",
"p. c #402F20",
"a. c #4A3624",
"s. c #563F28",
"d. c #403021",
"f. c #684C32",
"g. c #A77E57",
"h. c #C89869",
"j. c #C39366",
"k. c #624A33",
"l. c #7E5F43",
"z. c #AD825A",
"x. c #AF835B",
"c. c #A77D56",
"v. c #BE8F63",
"b. c #BA8D61",
"n. c #735538",
"m. c #503C29",
"M. c #A17952",
"N. c #7B5B3D",
"B. c #61482F",
"V. c #573F29",
"C. c #805F40",
"Z. c #9F7853",
"A. c #9D7651",
"S. c #6E5136",
"D. c #A57C55",
"F. c #A47B55",
"G. c #8F6A48",
"H. c #58422E",
"J. c #9F7854",
"K. c #A07852",
"L. c #AE845C",
"P. c #B68A61",
"I. c #B1865E",
"U. c #AF845C",
"Y. c #856343",
"T. c #553F2A",
"R. c #4E3B28",
"E. c #C19366",
"W. c #D19E6E",
"Q. c #C89768",
"!. c #735539",
"~. c #543D28",
"^. c #7D5C3E",
"/. c #9A734E",
"(. c #B78B61",
"). c #63492F",
"_. c #664B31",
"`. c #705337",
"'. c #78593C",
"]. c #826041",
"[. c #4E3A27",
"{. c #876545",
"}. c #725438",
"|. c #98734F",
" X c #A47C57",
".X c #896746",
"XX c #8A6847",
"oX c #694E34",
"OX c #AA7F57",
"+X c #B98D63",
"@X c #BF9266",
"#X c #BC8E62",
"$X c #423120",
"%X c #684D33",
"&X c #99724E",
"*X c #7F5F40",
"=X c #7B5C3D",
"-X c #96714D",
";X c #6E5236",
":X c #433221",
">X c #533C27",
",X c #4E3A26",
"<X c #6B4F34",
"1X c #4A3725",
"2X c #715439",
"3X c #6C5035",
"4X c #7A5B3D",
"5X c #674C32",
"6X c #77583B",
"7X c #57402A",
"8X c #4C3826",
"9X c #BE9165",
"0X c #B0855C",
"qX c #A37B55",
"wX c #8E6B4A",
"eX c #6D5035",
"rX c #553E28",
"tX c #7A5A3C",
"yX c #6F5237",
"uX c #806040",
"iX c #4B3725",
"pX c #3F2F21",
"aX c #58422C",
"sX c #60462D",
"dX c #715438",
"fX c #614832",
"gX c #9F7752",
"hX c #A17954",
"jX c #866443",
"kX c #5E452C",
"lX c #483522",
"zX c #584029",
"xX c #5F452D",
"cX c #61472E",
"vX c #5D452D",
"bX c #654A31",
"nX c #594129",
"mX c #644930",
"MX c #6D5136",
"NX c #926D4A",
"BX c white",
/* pixels */
"                                                                ",
"                                                                ",
"                                                                ",
"              . X               o o                   O O       ",
"              + o               @ @                   # #       ",
"                                                      $ $       ",
"                    + % o                                       ",
"                  & * = -                                       ",
"                    + ; o                       + +             ",
"          : > @                                 , ,             ",
"          + < 1 +                                               ",
"            2 3 X                                               ",
"                                                                ",
"                                                                ",
"                                                                ",
"                                                                ",
"    @ @                           : 3 4 +                       ",
"    : :                             * 5 +                       ",
"                , 6 :                             : $           ",
"- 7       & & & , 8 9                             0 +           ",
", . 0 : q w e 3 O r *       % q t 4 y %     : + u   % 3 X       ",
"  4 i p a s d f g h , j   % k l z x c v ; 6 b n q   m < M       ",
"  5 O N B V C Z A S D F G H J K L P I U Y T R E *   $ . :       ",
"+ W 9 Q ! ~ ^ / ( ) _ D 9 ` ' ] [ { } |  ...X.o.O.: j &         ",
"O R i w +.R @.#.W $.%.&.O R *.=.{ -.;.:.>.k ,.<.1.2.# @ $       ",
"* W @ ; 8 < = 3.4.O ; M 7 5.a =.6.7.8.9.0.q.w.e.r.t.c k #       ",
"  y.u.i.p.X : h a.s.s.v d.p.f.g.h.j.-.k.l.z.x.c.-.v.b.n.e     j ",
"m.z M.N.B.. h V.C.Z.A.C.Y M S.D.F.<.G.H.J.K.L.P.I.U.t.Y.w @ T.R.",
"g.E.W.Q.!.i.~.^./.Z (.F.).O _.! `.'.].[.{.}.|. X.XXXd }.5 oXD.Z ",
"OX+X@X#X`.$X%X&X*X=XY.-X;X:X>X$.,X) <X1X2X3X|.4X5X6XK.7X8XZ.9X0X",
"{ qXwXeXrXh 5XtXyX`.`.uX_.> * M O iXX.pXaXsXdX;X@.f.l > fXgXhXt.",
"jX6XkXlX6 > zX@.xXcXcXsXn M   > @.3XvXq ; < bXS.nXmX+.$XMX_ }.NX"
};
