/* XPM */
static char *result[] = {
/* columns rows colors chars-per-pixel */
"24 24 99 2 ",
"   c #1D0D04",
".  c #230E02",
"X  c #271501",
"o  c #2A1103",
"O  c #2E1A01",
"+  c #371501",
"@  c #3B1702",
"#  c #381902",
"$  c #401902",
"%  c #531F02",
"&  c #4F2902",
"*  c #572103",
"=  c #5E2303",
"-  c #6F2803",
";  c #722903",
":  c #7A2C03",
">  c #7A3C01",
",  c #9D1500",
"<  c #AB1C00",
"1  c #863003",
"2  c #BC2600",
"3  c #BB3901",
"4  c #F81C00",
"5  c #C22900",
"6  c #CA2E00",
"7  c #CE3100",
"8  c #D13300",
"9  c #DA3700",
"0  c #DE3B01",
"q  c #F72200",
"w  c #F42E00",
"e  c #E23D01",
"r  c #F23500",
"t  c #8E4501",
"y  c #DD4301",
"u  c #D54C04",
"i  c #DC4B04",
"p  c #C75A01",
"a  c #C85801",
"s  c #DF5703",
"d  c #DE5901",
"f  c #E34401",
"g  c #E84502",
"h  c #E44C03",
"j  c #EC4C02",
"k  c #F14E04",
"l  c #E55103",
"z  c #F25104",
"x  c #FE5C06",
"c  c #C96101",
"v  c #DD6500",
"b  c #D96801",
"n  c #E16200",
"m  c #EC6402",
"M  c #E56C02",
"N  c #EB6E01",
"B  c #F06001",
"V  c #FB6305",
"C  c #F76A04",
"Z  c #E77201",
"A  c #EB7401",
"S  c #E37C00",
"D  c #EB7C01",
"F  c #F27103",
"G  c #E76F13",
"H  c #DE8200",
"J  c #DB8800",
"K  c #DC9400",
"L  c #D99800",
"P  c #E68401",
"I  c #E88001",
"U  c #E28A01",
"Y  c #E39300",
"T  c #E29D00",
"R  c #E6A300",
"E  c #EBA600",
"W  c #EDA800",
"Q  c #F4AD00",
"!  c #FAAB09",
"~  c #FEB401",
"^  c #FDB70B",
"/  c #F9A511",
"(  c #FEBD1D",
")  c #FBB121",
"_  c #FFBF25",
"`  c #FAB032",
"'  c #FFC63C",
"]  c #FFC741",
"[  c #FFC845",
"{  c #FFCB4E",
"}  c #FFCC51",
"|  c #FFD266",
" . c #FFD369",
".. c #FCCC77",
"X. c #FFD573",
"o. c #FFD97C",
"O. c #FFDA84",
"+. c #FFDC8B",
"@. c None",
/* pixels */
"@.@.@.@.@.@.@.@.@.y y 0 y 0 y @.@.@.@.@.@.@.@.@.",
"@.@.@.@.@.@.@.f v J S Z Z N Z l y @.@.@.@.@.@.@.",
"@.@.@.@.@.i G / ! W L K U D D A N u % @.@.@.@.@.",
"@.@.@.@.M ` ..o.} ^ W L L U D D C N c & @.@.@.@.",
"@.@.@.n ) o.+.+.O.[ ~ W L L P D A V k p & @.@.@.",
"@.@.i Y _ +.+.+.+.{ ~ ~ R L U D D C x h p o @.@.",
"@.@.d T ( | O.+.O.' ~ ~ R L L P D D V g h * @.@.",
"@.y S T Q ' | | ] ~ ~ ~ R L L P D D V x h u . @.",
"@.l D L T Q ~ ~ ~ ~ Q R L L L P D D V x g i = @.",
"y A P K L L L Q Q Q R S J L L P D D V x e e u . ",
"f D I K L L L L L L S r r P K P D D V x e e i . ",
"f A D D K L L L L L M 4 q Z P D D D V x f e u . ",
"y D D D P U K L L L S j j Z I D D F V k e f u . ",
"f A F D D D I U U U m m m z D D D V x e 5 0 u . ",
"f A V F D D D D D D D D I D D D F V k e 5 0 i . ",
"3 t m V F D D D D D D D D D D F x k 0 2 9 h :   ",
"@.O b z V C F D D D D D D F C V k e 2 2 9 i . @.",
"@.@.> d k x V C C C C C C V x k 0 2 < 8 f ; @.@.",
"@.@.# l e g k x x x x x x k g e 2 , 2 9 i o @.@.",
"@.@.@.: f e e g g f g g f e 2 < 2 6 9 i ; @.@.@.",
"@.@.@.@.: l j e 6 < < < < < 2 6 0 j h ; @.@.@.@.",
"@.@.@.@.@.@ : h y 7 7 7 7 7 0 h h ; @ @.@.@.@.@.",
"@.@.@.@.@.@.@.@ 1 l l h h l h : # @.@.@.@.@.@.@.",
"@.@.@.@.@.@.@.@.o + + + + @ @ @.@.@.@.@.@.@.@.@."
};
