/* XPM */
static char *result[] = {
/* columns rows colors chars-per-pixel */
"24 24 126 2 ",
"   c #180E01",
".  c #200E01",
"X  c #271103",
"o  c #2C1304",
"O  c #311301",
"+  c #3C1702",
"@  c #3D1802",
"#  c #451A02",
"$  c #402101",
"%  c #632403",
"&  c #6A2703",
"*  c #742A03",
"=  c #7E2E03",
"-  c #663401",
";  c #9E1600",
":  c #A41400",
">  c #A91C00",
",  c #BC1200",
"<  c #B51C00",
"1  c #822F03",
"2  c #863003",
"3  c #8B3203",
"4  c #803D01",
"5  c #B42200",
"6  c #BB2400",
"7  c #CD1201",
"8  c #C61E01",
"9  c #C91800",
"0  c #FE0E01",
"q  c #E21A02",
"w  c #FC1300",
"e  c #F91B00",
"r  c #CB2401",
"t  c #C42A00",
"y  c #CA2F00",
"u  c #D52F00",
"i  c #CD3000",
"p  c #D33400",
"a  c #D93600",
"s  c #DE3D01",
"d  c #EA2402",
"f  c #F52600",
"g  c #F92600",
"h  c #F52900",
"j  c #FF2D03",
"k  c #E63101",
"l  c #E13D00",
"z  c #FD3503",
"x  c #F33B00",
"c  c #FF3C03",
"v  c #FF3623",
"b  c #D74703",
"n  c #DB4201",
"m  c #DC4C04",
"M  c #CE5203",
"N  c #DC5201",
"B  c #D55901",
"V  c #DB5C01",
"C  c #E54302",
"Z  c #EA4502",
"A  c #E44C03",
"S  c #EC4C02",
"D  c #F24000",
"F  c #F24D01",
"G  c #FE4A04",
"H  c #E55103",
"J  c #EC5203",
"K  c #E45D03",
"L  c #EC5D01",
"P  c #F25302",
"I  c #FB5004",
"U  c #F15A01",
"Y  c #FD5D05",
"T  c #C46201",
"R  c #DB6602",
"E  c #E66300",
"W  c #EB6501",
"Q  c #E46A00",
"!  c #EB6D01",
"~  c #F06001",
"^  c #FD6304",
"/  c #F56C04",
"(  c #F86804",
")  c #FF6508",
"_  c #E67201",
"`  c #EA7301",
"'  c #E07A00",
"]  c #EB7C01",
"[  c #F27203",
"{  c #E56614",
"}  c #FF7D49",
"|  c #DE8300",
" . c #DD8C00",
".. c #DB9500",
"X. c #DA9A00",
"o. c #E58401",
"O. c #E98101",
"+. c #E18B01",
"@. c #FF8600",
"#. c #FF8E00",
"$. c #FF9B00",
"%. c #E9A600",
"&. c #EEAA00",
"*. c #FEA304",
"=. c #F1AB00",
"-. c #FBAD0E",
";. c #F5B103",
":. c #FEB300",
">. c #F9A614",
",. c #FBB710",
"<. c #FDBA16",
"1. c #F9AA27",
"2. c #FF8553",
"3. c #FFAC4E",
"4. c #FFB974",
"5. c #FFC95B",
"6. c #FFD25E",
"7. c #FFD266",
"8. c #FCCB74",
"9. c #FFD776",
"0. c #FFDA7E",
"q. c #FFCE84",
"w. c #FFD486",
"e. c #FFD980",
"r. c #FFDE8B",
"t. c None",
/* pixels */
"t.t.t.t.t.t.t.t.t.n b s n s n t.t.t.t.t.t.t.t.t.",
"t.t.t.t.t.t.t.m V  .| ` ` ` ` K n t.t.t.t.t.t.t.",
"t.t.t.t.t.m { >.-.=.X.+.O.O.] ` ` H & t.t.t.t.t.",
"t.t.t.t.K 1.8.0.5.*.=.X.X.+.` ` [ / R - t.t.t.t.",
"t.t.t.V >.9.r.w.2.c $.=.X. .D x [ / J B - t.t.t.",
"t.t.b +.<.e.r.4.v 0 ^ :.&.Q w w U / Y Z V $ t.t.",
"t.t.N +.,.7.r.q.} G #.:.&.| S x ! ] ) S S * t.t.",
"t.s _ X.=.<.6.3.) @.^ :.%.Q E L P ] ( Y A A @ t.",
"t.H ] ..X.=.;.:.:.:.:.%.X...X.| ] ] ( Y Z A * t.",
"n Q O...X...` =.=.=.%.| ' X.X. .] W Y Y Z l A @ ",
"C Q ]  . .J e E ..X.| x f ' ..o.~ e d P Z s A @ ",
"l ` ] ] o.x w J ..X.' h e E o.] P w q S Z l H @ ",
"n ` ] ] ` P D E ..X.o.J S E ] ] U z k C l s H @ ",
"l ! [ ] ` F ! P +.+.Q L ! U ] ] L I C a t a H @ ",
"l ! ^ / ] ] ] ] ] ] ] ] ] ] ] ] [ ) P l t a J @ ",
"t.4 R ^ / ] ] ] W F ] ] ] ] U I ) P l t p Z 3 o ",
"t.  T P Y ( / ! g 0 F ` ] V 9 7 a l t 6 a H @ t.",
"t.t.- B S Y Y Y j w G ( ( J 8 , u t ; t Z 2 t.t.",
"t.t.. M C Z S G j z z Y ) Z r 8 < : 5 a H # t.t.",
"t.t.t.% b l l l k l k l C a 6 : < y a A = t.t.t.",
"t.t.t.t.% m A l l y > > > > 6 i a Z H 1 t.t.t.t.",
"t.t.t.t.t.+ % m A s p p p i a C H 1 @ t.t.t.t.t.",
"t.t.t.t.t.t.t.O & m H A H N H 3 O t.t.t.t.t.t.t.",
"t.t.t.t.t.t.t.t.t.o o O o O O X t.t.t.t.t.t.t.t."
};
