/* XPM */
static char *result[] = {
/* columns rows colors chars-per-pixel */
"24 24 110 2 ",
"   c #240F02",
".  c #201301",
"X  c #2D1202",
"o  c #361501",
"O  c #3A1702",
"+  c #351C02",
"@  c #401902",
"#  c #5D2202",
"$  c #592E02",
"%  c #632503",
"&  c #6A2703",
"*  c #6F2803",
"=  c #732A03",
"-  c #7A2C03",
";  c #6E3701",
":  c #9D1500",
">  c #AB1C00",
",  c #812F03",
"<  c #853003",
"1  c #883103",
"2  c #B62300",
"3  c #BC2600",
"4  c #BF2800",
"5  c #FB1200",
"6  c #FA1D00",
"7  c #C22900",
"8  c #CA2E00",
"9  c #CE3100",
"0  c #D63500",
"q  c #D93700",
"w  c #DC3C01",
"e  c #F72500",
"r  c #FA2300",
"t  c #E13C01",
"y  c #FF3400",
"u  c #F53F00",
"i  c #884101",
"p  c #DC4202",
"a  c #DD4C04",
"s  c #CF5801",
"d  c #D75503",
"f  c #DD5302",
"g  c #D05B01",
"h  c #D95801",
"j  c #E64302",
"k  c #E94402",
"l  c #E44D04",
"z  c #EC4B03",
"x  c #FD4D05",
"c  c #E45103",
"v  c #EB5100",
"b  c #E45E00",
"n  c #F35204",
"m  c #FF5703",
"M  c #F35B02",
"N  c #FE5D06",
"B  c #CE6501",
"V  c #D06401",
"C  c #DE6000",
"Z  c #DF7E00",
"A  c #E56403",
"S  c #EE6301",
"D  c #EB6C01",
"F  c #F06001",
"G  c #FB6505",
"H  c #F66B04",
"J  c #F86804",
"K  c #E47501",
"L  c #E97201",
"P  c #E47B01",
"I  c #EB7C01",
"U  c #F17303",
"Y  c #E56813",
"T  c #DE8700",
"R  c #DE8D00",
"E  c #DB9500",
"W  c #D99900",
"Q  c #E58501",
"!  c #E98101",
"~  c #E28B01",
"^  c #F28A00",
"/  c #E19600",
"(  c #E09900",
")  c #FB9200",
"_  c #FF9C05",
"`  c #E4A200",
"'  c #EBA600",
"]  c #EFA900",
"[  c #F4AD01",
"{  c #FFA805",
"}  c #FAAA0B",
"|  c #F7B105",
" . c #FEB500",
".. c #FEB80D",
"X. c #F9A411",
"o. c #FAAB1A",
"O. c #FCBA17",
"+. c #FEBD1E",
"@. c #F9AC2B",
"#. c #FFBB48",
"$. c #FFCA45",
"%. c #FFCB4F",
"&. c #FFCF59",
"*. c #FFD164",
"=. c #FFD46C",
"-. c #FCCA75",
";. c #FFD87A",
":. c #FFDB84",
">. c #FFDC8B",
",. c None",
/* pixels */
",.,.,.,.,.,.,.,.,.p p p w p w ,.,.,.,.,.,.,.,.,.",
",.,.,.,.,.,.,.p C T Z L L D D b p ,.,.,.,.,.,.,.",
",.,.,.,.,.a Y X.} ] W E ~ I I K D a # ,.,.,.,.,.",
",.,.,.,.A @.-.;.&...[ W W ~ I I U H V $ ,.,.,.,.",
",.,.,.b o.;.>.>.>.%. .] W W Q I I J n s $ ,.,.,.",
",.,.a ~ +.:.>.>.>.&. . .' W ~ I I J N j g + ,.,.",
",.,.f / O.=.>.>.:.$. . .] E W ~ I I J z l % ,.,.",
",.p K ( [ +.*.=.#._  . .` W E ~ I I J N k a o ,.",
",.c P E W ] | { m y ) ` W W W ~ I U J N j l & ,.",
"p L ! W W W ` ^ e 5 S W W E W Q I I J N t t a X ",
"p L I R W W W T v k K W W E E ! I I J N k t l X ",
"p L I I E W W P b K A W E E Q I I I J N j t a X ",
"p L I I I ~ E W W W W W E A F ! I U G n t w l X ",
"w L U I I I I ~ R ~ ~ R D 6 e F I J N j 7 w l X ",
"p D G H I I I I I I I I M 6 r H H G n t 7 w l X ",
",.i A G H I I I I I I I M u u M G n t 7 0 l 1   ",
",.. B n N H H I I I I I S M x x n t 7 3 q l o ,.",
",.,.; h v N G H H J J J J G N n t 3 : 8 l , ,.,.",
",.,.X d t k z N N N N N N n k t 3 : 2 q l O ,.,.",
",.,.,.* p t t k k j j j j j 7 > 3 8 w l - ,.,.,.",
",.,.,.,.= c z t 9 > > > > > 3 8 w z l - ,.,.,.,.",
",.,.,.,.,.@ = l p 9 9 9 9 8 q l l - @ ,.,.,.,.,.",
",.,.,.,.,.,.,.O - l c l l c c < O ,.,.,.,.,.,.,.",
",.,.,.,.,.,.,.,.,.O O o O O o X ,.,.,.,.,.,.,.,."
};
