/* XPM */
static char *result[] = {
/* columns rows colors chars-per-pixel */
"64 64 169 2 ",
"   c #010101",
".  c #0B0400",
"X  c #040608",
"o  c #060808",
"O  c #0A0A09",
"+  c #130902",
"@  c #1B0D01",
"#  c #1D1008",
"$  c #231403",
"%  c #2C1001",
"&  c #2E170A",
"*  c #351402",
"=  c #3D1702",
"-  c #331B02",
";  c #3D1A02",
":  c #411903",
">  c #4E1D03",
",  c #411D09",
"<  c #501E02",
"1  c #711C00",
"2  c #4E2800",
"3  c #4C2B08",
"4  c #562102",
"5  c #5F2202",
"6  c #542D01",
"7  c #672803",
"8  c #6A2803",
"9  c #6F2309",
"0  c #7C2A02",
"q  c #712A03",
"w  c #623301",
"e  c #683700",
"r  c #7C3004",
"t  c #7C3E00",
"y  c #8F0D00",
"u  c #920F00",
"i  c #941000",
"p  c #9B1400",
"a  c #A11700",
"s  c #A41900",
"d  c #AC1D00",
"f  c #833104",
"g  c #8E3504",
"h  c #993A03",
"j  c #973704",
"k  c #B32100",
"l  c #B92400",
"z  c #BF2800",
"x  c #A43E04",
"c  c #B83E03",
"v  c #BD360A",
"b  c #BF3C0A",
"n  c #FF0000",
"m  c #FD0900",
"M  c #FA1400",
"N  c #F81F00",
"B  c #C42A00",
"V  c #C92D00",
"C  c #CD3302",
"Z  c #CF3B05",
"A  c #C23709",
"S  c #C23C08",
"D  c #D43400",
"F  c #DC3600",
"G  c #D53803",
"H  c #DE3900",
"J  c #F62400",
"K  c #F52A00",
"L  c #F82900",
"P  c #E13C00",
"I  c #EF3E00",
"U  c #F43200",
"Y  c #8B4901",
"T  c #904401",
"R  c #904A00",
"E  c #AD4004",
"W  c #BA4404",
"Q  c #B56001",
"!  c #BD6401",
"~  c #C84704",
"^  c #C64B05",
"/  c #C94D08",
"(  c #C14504",
")  c #D34503",
"_  c #DD4601",
"`  c #D64803",
"'  c #DD4A01",
"]  c #D45203",
"[  c #DC5305",
"{  c #DC5C01",
"}  c #D65B02",
"|  c #E34301",
" . c #EA4502",
".. c #E44901",
"X. c #ED4A03",
"o. c #E24A0C",
"O. c #F14F04",
"+. c #E65404",
"@. c #EA5302",
"#. c #E55B00",
"$. c #E95C01",
"%. c #F65404",
"&. c #F95705",
"*. c #F55B06",
"=. c #FE5D06",
"-. c #E14A12",
";. c #C76A01",
":. c #CA6B01",
">. c #DC6000",
",. c #D56802",
"<. c #D67201",
"1. c #DB7001",
"2. c #DF7D00",
"3. c #E66301",
"4. c #ED6501",
"5. c #E66A01",
"6. c #EC6D01",
"7. c #FD6206",
"8. c #F56C04",
"9. c #F86804",
"0. c #E67601",
"q. c #EC7501",
"w. c #E27A00",
"e. c #EB7C01",
"r. c #F17302",
"t. c #E86412",
"y. c #DA8600",
"u. c #DD8C00",
"i. c #DB9400",
"p. c #D79F00",
"a. c #D99800",
"s. c #E58501",
"d. c #E98101",
"f. c #E28A00",
"g. c #F28101",
"h. c #E19E00",
"j. c #F79B00",
"k. c #F28A13",
"l. c #E5A100",
"z. c #EBA600",
"x. c #EEA900",
"c. c #FAA502",
"v. c #F5AE00",
"b. c #F8AF00",
"n. c #F7B000",
"m. c #FEB500",
"M. c #FFB800",
"N. c #FFB70B",
"B. c #FFB80D",
"V. c #FFBA13",
"C. c #FFBD1E",
"Z. c #FDB412",
"A. c #FFBF28",
"S. c #FFC12A",
"D. c #FFC232",
"F. c #FFC63E",
"G. c #FABD54",
"H. c #FFC845",
"J. c #FFCD57",
"K. c #FFD265",
"L. c #FFD36A",
"P. c #FAC77B",
"I. c #FBCB79",
"U. c #FFD675",
"Y. c #FFD779",
"T. c #FFD97D",
"R. c #FFDB85",
"E. c #FFDC8A",
"W. c None",
/* pixels */
"W.W.W.W.W.W.W.W.W.W.W.W.W.W.W.W.W.W.W.W.W.W.W.G G G G G G G G G G G G G G G G G W.W.W.W.W.W.W.W.W.W.W.W.W.W.W.W.W.W.W.W.W.W.W.W.",
"W.W.W.W.W.W.W.W.W.W.W.W.W.W.W.W.W.W.W.W.W.W.W.G P P P F H H H F F H F H P F P P H W.W.W.W.W.W.W.W.W.W.W.W.W.W.W.W.W.W.W.W.W.W.W.",
"W.W.W.W.W.W.W.W.W.W.W.W.W.W.W.W.W.W.W.W.W.W.W.` ' ' _ _ | | | | | | _ | | | P | _ W.W.W.W.W.W.W.W.W.W.W.W.W.W.W.W.W.W.W.W.W.W.W.",
"W.W.W.W.W.W.W.W.W.W.W.W.W.W.W.W.W.W.H F H G _ y.i.u.i.u.e.0.0.e.0.e.0.q.0.q.0.0.6.H G H H G W.W.W.W.W.W.W.W.W.W.W.W.W.W.W.W.W.W.",
"W.W.W.W.W.W.W.W.W.W.W.W.W.W.W.W.W.W.F P F P _ i.i.a.a.i.d.e.e.e.e.e.e.e.e.e.e.e.6.H H G F G W.W.W.W.W.W.W.W.W.W.W.W.W.W.W.W.W.W.",
"W.W.W.W.W.W.W.W.W.W.W.W.W.A A v v / e.e.r.e.g.z.z.h.a.a.f.f.f.f.f.e.e.e.e.e.e.e.0.#.$.3.$.{ b v 9 o W.W.W.W.W.W.W.W.W.W.W.W.W.W.",
"W.W.W.W.W.W.W.W.W.W.W.W.W.H P F F +.m.M.m.m.m.m.M.z.a.i.a.a.a.a.a.s.e.e.e.e.e.e.e.e.e.e.e.q.H P 1     W.W.W.W.W.W.W.W.W.W.W.W.W.",
"W.W.W.W.W.W.W.W.W.W.W.W.W.| | o.-.t.Z.V.V.V.Z.m.m.z.p.p.a.a.a.a.a.s.d.e.e.e.e.e.e.e.e.e.e.6...H 0 @ $ W.W.W.W.W.W.W.W.W.W.W.W.W.",
"W.W.W.W.W.W.W.W.W.W.A D #.c.c.G.P.I.T.T.Y.Y.L.B.m.m.b.v.p.a.a.a.a.i.a.f.e.e.e.e.e.e.e.8.7.7.q.q.1.:.! $   W.W.W.W.W.W.W.W.W.W.W.",
"W.W.W.W.W.W.W.W.W.W.G P $.m.m.K.E.E.E.E.E.E.U.B.m.m.m.m.h.i.a.a.a.a.a.u.e.e.e.e.e.e.e.9.=.7.e.e.e.g.<.$   X W.W.W.W.W.W.W.W.W.W.",
"W.W.W.W.W.W.W.W.W.( >.6.k.F.H.U.E.E.E.E.E.E.R.H.F.C.m.m.z.z.h.a.a.a.a.i.f.s.e.e.e.e.e.r.8.8.8.8.6.$.} t e 3 O W.W.W.W.W.W.W.W.W.",
"W.W.W.W.W.W.W.W.H H j.M.S.E.R.R.E.E.E.E.E.E.R.E.E.H.m.m.m.m.v.a.a.a.a.a.a.a.s.e.e.e.e.e.e.e.7.=.X.H H q.g.Y     W.W.W.W.W.W.W.W.",
"W.W.W.W.W.W.W.W.H | j.m.S.E.E.E.E.R.E.E.E.E.E.E.E.H.N.m.m.M.v.a.a.i.a.a.a.i.s.0.e.e.e.e.e.q.7.=.O.P | 5.e.R + + W.W.W.W.W.W.W.W.",
"W.W.W.W.W.G H } y.u.v.m.S.R.E.E.E.E.E.E.E.E.E.E.E.H.m.m.m.m.n.n.v.h.a.a.a.i.s.e.e.e.e.e.e.q.7.=.&.&.&...| ] ! Q -   W.W.W.W.W.W.",
"W.W.W.W.W.G P >.p.a.v.m.A.R.E.E.E.E.E.E.E.R.E.E.R.H.m.m.m.m.m.m.m.h.a.a.a.a.f.e.e.e.e.e.e.r.7.=.=.=.&.| F +.e.w.-     W.W.W.W.W.",
"W.W.W.W.W.G F { a.a.v.m.D.R.E.E.E.E.E.E.E.E.E.E.E.H.m.m.m.m.M.m.m.h.a.a.a.a.f.s.d.e.e.e.e.e.8.9.7.7.&.P F +.r.5.-   X W.W.W.W.W.",
"W.W.W.W.W.G H { a.a.n.m.S.E.E.E.E.E.E.E.E.E.E.E.E.H.m.m.m.m.m.m.m.p.a.a.a.a.a.a.i.e.e.e.e.e.e.e.8.=.&.| H  .7.*.*   X W.W.W.W.W.",
"W.W.W.W.W.G H >.a.a.n.m.S.R.R.R.E.E.E.E.E.E.E.E.R.H.m.m.M.m.m.m.m.p.a.a.a.a.a.i.u.e.e.e.e.e.e.e.8.7.&.P H  .=.*.= . + W.W.W.W.W.",
"W.W.W.G G 3.5.w.a.a.n.m.B.S.S.L.E.E.E.E.E.E.T.D.S.V.m.m.m.m.m.m.m.h.a.a.a.a.i.a.i.e.e.e.e.e.e.e.8.=.7.&.%.O. .| ( W f O X W.W.W.",
"W.W.W.P _ q.d.f.a.a.n.m.m.m.m.K.E.E.E.E.E.E.U.B.m.m.m.M.m.m.m.M.m.h.a.i.a.a.i.a.i.e.e.e.e.e.e.e.8.=.=.=.7.O.F H &.7.E     W.W.W.",
"W.W.W.P P q.e.s.a.a.x.v.n.m.m.H.K.K.K.L.L.K.J.N.m.m.m.m.m.m.n.v.v.p.a.a.a.a.a.a.i.e.e.e.e.e.e.e.8.=.=.=.7.O.H P &.7.E     W.W.W.",
"W.W.W.H _ 5.e.f.a.a.a.a.l.m.m.M.N.N.N.M.N.N.N.m.m.m.m.m.m.m.v.a.i.i.a.a.a.a.a.a.f.e.e.e.e.e.e.e.8.=.=.=.=.O.H H &.7.x     W.W.W.",
"W.W.W.P H q.e.s.a.i.a.a.l.m.m.m.m.m.m.m.m.m.m.m.m.m.m.m.m.m.v.a.a.a.a.a.a.a.a.a.i.e.e.e.e.e.e.e.8.=.=.=.7.O.F P &.=.c     W.W.W.",
"Z Z [ 3.3.e.e.s.a.a.a.a.p.l.l.l.l.z.m.m.m.m.m.m.m.m.m.m.z.l.h.a.a.a.a.a.a.a.a.a.i.e.e.e.e.e.e.e.8.=.=.=.=.%.H H  . .) x x , X O ",
"F F #.e.e.e.e.s.a.a.a.a.i.a.i.a.a.h.m.m.m.m.m.m.m.m.m.m.p.i.a.a.a.a.a.a.a.a.a.a.u.e.e.e.e.e.e.e.8.=.=.=.=.O.H H F H  .7.=.<   X ",
"F P #.e.e.e.e.s.a.a.a.a.i.i.a.a.a.h.v.v.b.m.b.b.n.n.n.v.p.a.u.w.2.i.a.a.i.a.a.a.i.e.e.e.e.e.e.e.8.=.7.=.=.%.H H H H  .=.*.>   X ",
"F P #.e.e.e.e.s.a.a.a.a.a.a.a.a.a.a.a.a.a.a.a.a.h.a.a.a.a.a.$.m M w.i.a.a.a.a.a.i.e.e.e.e.e.e.e.8.=.=.=.=.%.H H H H  .=.*.>     ",
"P F #.e.e.e.e.f.a.a.a.a.a.a.a.a.a.a.a.a.a.a.a.a.a.a.a.a.a.p.$.n m 2.a.a.a.a.a.a.i.e.e.e.e.e.e.e.8.=.=.=.7.X.H H H F  .=.&.<   X ",
"P F #.e.e.e.e.w.f.f.i.i.a.a.a.a.a.a.a.a.a.a.a.a.a.a.a.u.@. .K n m U  .3.a.a.y.u.s.e.e.e.e.e.e.e.8.=.=.=.=.O.H H H H  .=.*.>   X ",
"P F #.e.e.e.e.e.e.e.i.a.a.a.a.a.a.a.a.a.a.a.a.a.a.a.a.u.M n n n n n n K a.a.d.e.e.e.e.e.e.e.e.e.8.=.=.=.7.X.H H H H  .=.*.4     ",
"P P +.e.e.e.e.e.e.e.u.a.a.a.a.a.a.i.a.a.a.a.a.a.a.a.a.u.K M m n n M M I i.a.d.e.e.e.e.e.e.e.e.e.8.=.=.=.=.%.H H H H  .=.*.<   X ",
"F F #.e.e.e.e.e.e.e.e.d.s.a.a.a.a.a.a.a.a.a.a.a.a.a.a.a.y.u.@.n m 5.u.y.e.d.e.e.e.e.e.e.e.e.e.e.8.=.=.=.=.O.H H P G  .=.*.<     ",
"P F #.e.e.e.e.e.e.e.e.e.d.a.a.a.a.a.a.a.a.a.a.a.a.a.a.a.a.p.$.n m w.p.i.e.e.e.e.e.e.e.e.e.e.e.e.8.=.=.=.=.O.F H H H  .7.*.<   X ",
"F P #.e.e.e.e.e.e.e.e.e.d.f.f.f.f.f.a.a.a.a.a.a.a.a.a.i.$.@.@.X.X.@.@.4.e.e.e.e.e.e.e.e.e.e.r.8.9.=.=.O.O. .H H H F  .=.*.<   X ",
"P F #.e.e.e.e.e.e.e.e.e.e.e.e.e.e.s.i.a.a.a.a.a.a.a.a.u.M n I a.i.K n L e.e.e.e.e.e.e.e.e.r.7.=.=.=.&.| F F F P H F  .=.*.>   . ",
"F P #.e.e.0.e.e.e.e.e.e.e.e.e.e.e.e.i.a.a.a.i.i.i.i.i.u.J m  .a.u.K m K q.e.e.e.e.e.e.e.e.q.7.7.=.=.=.P P F G G H H  .=.*.>   X ",
"P F #.q.e.9.7.8.e.e.e.e.e.e.e.e.e.e.s.e.d.s.d.d.e.s.e.w.6.4.q.e.d.6.4.6.e.e.e.e.e.e.e.e.e.r.7.=.=.=.&.| H B a s D H  .=.*.<     ",
"F P #.e.e.7.=.9.e.e.e.e.e.e.e.e.e.e.e.e.e.e.e.e.e.e.e.e.e.e.e.e.e.e.e.e.e.e.e.e.e.e.e.e.e.e.7.=.=.=.=.P H z u u C H  .=.&.>   X ",
"P P #.e.e.=.=.9.r.r.e.e.e.e.e.e.e.e.e.e.e.e.e.e.e.e.e.e.e.e.e.e.e.e.e.e.e.e.e.e.e.e.e.q.r.8.7.=.&.O.O.P H V k k D H  .7.*.<   X ",
"F F #.e.e.=.=.=.=.=.q.e.e.e.e.e.e.e.e.e.e.e.e.e.e.e.e.e.e.e.e.e.e.e.e.e.e.e.e.e.e.e.e.9.=.=.=.=.O.F H H H H H H H F  .=.*.<     ",
"F F #.w.0.9.=.=.=.7.r.e.e.e.e.e.e.e.e.e.e.e.e.e.e.e.e.e.e.e.e.e.e.e.e.e.e.e.e.e.e.e.e.9.=.=.=.=.X.F F F F F H H H H  .*.*.>   X ",
"W.W.W.; 2 ,.r.8.=.=.7.9.8.e.e.e.e.e.e.e.e.e.e.e.e.e.e.e.e.e.e.e.e.e.e.e.e.e.e.e.e.7.9.7.7.&. .| P P G k s z H H %.&.c : = & W.W.",
"W.W.W.  @ ;.e.r.=.=.=.=.9.e.e.e.e.e.e.e.e.e.e.e.e.e.e.e.e.e.e.e.e.e.e.e.e.e.e.e.r.=.=.=.=.&.P H P P G p u k H P &.7.x     W.W.W.",
"W.W.W.  @ :.e.8.%.%.=.=.9.r.r.r.q.q.e.e.e.e.e.e.e.e.e.e.e.e.e.e.e.e.e.e.q.r.r.r.r.7.=.&.%.O.P H D V B k s z F P &.=.E .   W.W.W.",
"W.W.W.  @ ;.d.3.H P &.7.=.7.=.7.=.9.q.e.e.e.e.e.e.e.e.e.e.e.e.e.e.e.e.r.=.=.7.=.=.=.=. .H P H H l u a D H F P P &.7.E     W.W.W.",
"W.W.W.  @ ;.e.3.H P &.=.=.=.=.=.=.7.e.e.e.e.e.e.e.e.e.e.e.e.e.e.e.e.e.r.=.=.=.=.=.=.=.X.H H F P k u p D F P F P %.*.E     W.W.W.",
"W.W.W.W.W.6 6 T 3.3... .O.=.=.=.=.7.9.9.9.9.9.9.9.9.9.9.9.9.9.9.9.9.9.9.=.=.=.=.&.X. .P H D k d a u p D H | %.+.0 4 > W.W.W.W.W.",
"W.W.W.W.W.    w d.e...F  .=.7.=.=.=.=.=.=.=.=.=.=.=.=.=.=.=.=.=.=.=.=.=.=.7.=.7.&.H G P P D i u u u p D H  .=.*.*     W.W.W.W.W.",
"W.W.W.W.W.    w r.q...F  .%.&.%.&.&.=.=.=.=.7.=.=.=.7.=.=.=.=.=.=.=.=.&.%.%.%.&.O.P P D V B i u p s d D H X.=.*.*     W.W.W.W.W.",
"W.W.W.W.W.X   7 7.=.| F H P P P H  .=.=.=.=.=.=.=.=.=.=.=.=.=.=.=.=.7.%.P P P P P F F k i p p u k F G F H  .=.*.*     W.W.W.W.W.",
"W.W.W.W.W.    7 =.=.| H H H F H H | =.=.=.=.=.=.=.=.=.=.=.=.=.=.=.=.=.%.F P F F F P F k u u u u k P P P F X.=.*.*     W.W.W.W.W.",
"W.W.W.W.W.W.W.> 8 q ) O.X.H H H H H X.X.X.X.X.X.X.X.X.X.X.X.X.X.X.X.X. .H F B k k k k l B B z z D P P  .O.c 7 7 & W.W.W.W.W.W.W.",
"W.W.W.W.W.W.W.W.  . ^ 7.%.H H H H H H H F F F H H H F F H H F H H H H H F F d u u u u B P P P P F F H =.7.g     W.W.W.W.W.W.W.W.",
"W.W.W.W.W.W.W.W.  + E [ ' P | P P P H H H P F D D G D D D D D D D D D D D D d p p a p B F P P P P P | ' +.f     W.W.W.W.W.W.W.W.",
"W.W.W.W.W.W.W.W.W.W.@ + 7 &.&.=.=.%.P H H P D p p p p p p p p p p p i p p p B D D G G F P P &.&.&.=.+.= + # W.W.W.W.W.W.W.W.W.W.",
"W.W.W.W.W.W.W.W.W.W.    > =.=.7.=.&.H F H H D p u u u u u u u u u u u i u p V P P F P F F | =.=.=.7.+.%   X W.W.W.W.W.W.W.W.W.W.",
"W.W.W.W.W.W.W.W.W.W.W.W.: f f f f j ..X.O.X.| z l k l l l l l l l l l k l l D F P O. .X.O._ g f f f r W.W.W.W.W.W.W.W.W.W.W.W.W.",
"W.W.W.W.W.W.W.W.W.W.W.W.W.        = *.=.=.=.=.P P P H P F H H P F P P P P P F F | =.=.=.7.] +         W.W.W.W.W.W.W.W.W.W.W.W.W.",
"W.W.W.W.W.W.W.W.W.W.W.W.W.        = [ +.+.+.+.P P P P P P P P P P P P P P P P P | +.+.+.+.^ #       X W.W.W.W.W.W.W.W.W.W.W.W.W.",
"W.W.W.W.W.W.W.W.W.W.W.W.W.W.W.W.W.W.% % % % < +.&.&.&.&.&.&.&.&.&.&.&.&.&.&.&.&.~ * % % * % W.W.W.W.W.W.W.W.W.W.W.W.W.W.W.W.W.W.",
"W.W.W.W.W.W.W.W.W.W.W.W.W.W.W.W.W.W.        % #.7.=.7.7.=.7.=.7.7.=.7.=.7.7.7.7./ .         W.W.W.W.W.W.W.W.W.W.W.W.W.W.W.W.W.W.",
"W.W.W.W.W.W.W.W.W.W.W.W.W.W.W.W.W.W.W.X   X & g h h h h h h h h h h h h h h h h f + X X X W.W.W.W.W.W.W.W.W.W.W.W.W.W.W.W.W.W.W.",
"W.W.W.W.W.W.W.W.W.W.W.W.W.W.W.W.W.W.W.W.W.W.W..     .                       .     W.W.W.W.W.W.W.W.W.W.W.W.W.W.W.W.W.W.W.W.W.W.W.",
"W.W.W.W.W.W.W.W.W.W.W.W.W.W.W.W.W.W.W.W.W.W.W.                                    W.W.W.W.W.W.W.W.W.W.W.W.W.W.W.W.W.W.W.W.W.W.W."
};
