/* XPM */
static char *result[] = {
/* columns rows colors chars-per-pixel */
"64 64 193 2 ",
"   c #010101",
".  c #090400",
"X  c #0A0B0B",
"o  c #0A0806",
"O  c #120901",
"+  c #1E0B01",
"@  c #191613",
"#  c #230D01",
"$  c #241107",
"%  c #2C1401",
"&  c #2F1800",
"*  c #201108",
"=  c #2F1608",
"-  c #341402",
";  c #361806",
":  c #461B03",
">  c #4D1C02",
",  c #531F02",
"<  c #432606",
"1  c #4C2209",
"2  c #4B2903",
"3  c #522409",
"4  c #5F3200",
"5  c #652602",
"6  c #6E2A03",
"7  c #762B02",
"8  c #792D03",
"9  c #673702",
"0  c #693601",
"q  c #793801",
"w  c #8F0D00",
"e  c #920F00",
"r  c #951100",
"t  c #9B1400",
"y  c #AC0000",
"u  c #B20300",
"i  c #B50A01",
"p  c #B80B01",
"a  c #BA0000",
"s  c #A41800",
"d  c #AC1E00",
"f  c #BB1201",
"g  c #B01F00",
"h  c #9E2800",
"j  c #823203",
"k  c #8D3503",
"l  c #923704",
"z  c #963904",
"x  c #9A3904",
"c  c #9F3B09",
"v  c #A12C00",
"b  c #B42200",
"n  c #BB2600",
"m  c #BF2800",
"M  c #A53E04",
"N  c #AD3B03",
"B  c #BB3F03",
"V  c #C40E01",
"C  c #C11800",
"Z  c #EC0100",
"A  c #FF0100",
"S  c #FD0C00",
"D  c #F10000",
"F  c #FC1300",
"G  c #FB1B00",
"H  c #C42B00",
"J  c #CA2D00",
"K  c #C72601",
"L  c #D42E03",
"P  c #DC2E03",
"I  c #CE3101",
"U  c #CB3905",
"Y  c #C43200",
"T  c #D33301",
"R  c #DB3600",
"E  c #D23804",
"W  c #DE3900",
"Q  c #DF3F08",
"!  c #F62200",
"~  c #FB2400",
"^  c #F52B00",
"/  c #F92B00",
"(  c #E13C01",
")  c #EF3E00",
"_  c #F53300",
"`  c #FD3202",
"'  c #F33A00",
"]  c #FF3D00",
"[  c #884200",
"{  c #9C5301",
"}  c #AC4004",
"|  c #B54205",
" . c #BE4605",
".. c #BF4109",
"X. c #A45601",
"o. c #B35F01",
"O. c #BA6201",
"+. c #C24404",
"@. c #CC4605",
"#. c #CC4B05",
"$. c #C24805",
"%. c #DC4201",
"&. c #D44B05",
"*. c #DD4B02",
"=. c #C15B02",
"-. c #D65104",
";. c #DB5304",
":. c #DE5A01",
">. c #E44301",
",. c #EA4502",
"<. c #E14C00",
"1. c #ED4A03",
"2. c #E24908",
"3. c #F44401",
"4. c #FC4201",
"5. c #F14E03",
"6. c #FF4B00",
"7. c #E35401",
"8. c #EA5301",
"9. c #E55B01",
"0. c #EB5B03",
"q. c #F55404",
"w. c #F95605",
"e. c #F15D02",
"r. c #FE5D06",
"t. c #D86801",
"y. c #DB7601",
"u. c #DE7D00",
"i. c #E56401",
"p. c #EE6301",
"a. c #E56B00",
"s. c #EC6A01",
"d. c #F16203",
"f. c #FE6106",
"g. c #F56C04",
"h. c #FA6902",
"j. c #E27100",
"k. c #EB7301",
"l. c #E37B00",
"z. c #EB7C01",
"x. c #F17302",
"c. c #FF7000",
"v. c #F07F00",
"b. c #FF7F00",
"n. c #DD8400",
"m. c #DC8B00",
"M. c #D79700",
"N. c #DA9500",
"B. c #D79F00",
"V. c #D99800",
"C. c #E68401",
"Z. c #E88101",
"A. c #E18B00",
"S. c #F28101",
"D. c #FF8D00",
"F. c #F18E01",
"G. c #E29F00",
"H. c #E99700",
"J. c #F79700",
"K. c #FF9200",
"L. c #E5A100",
"P. c #EBA600",
"I. c #EEA800",
"U. c #FEA400",
"Y. c #F4AD00",
"T. c #FDAC00",
"R. c #F8A304",
"E. c #F7B100",
"W. c #FFB500",
"Q. c #FFBA00",
"!. c #FFB608",
"~. c #FFB90E",
"^. c #FFBA15",
"/. c #FFBD1C",
"(. c #FFBE20",
"). c #FCB527",
"_. c #F6A533",
"`. c #FFC02A",
"'. c #FFC539",
"]. c #FFC332",
"[. c #F7B66A",
"{. c #FFC742",
"}. c #FFCA48",
"|. c #FFCD59",
" X c #FDCD69",
".X c #FFD164",
"XX c #FFD369",
"oX c #FFD676",
"OX c #FFD778",
"+X c #FFD87B",
"@X c #FFDB87",
"#X c #FFDC8A",
"$X c None",
/* pixels */
"$X$X$X$X$X$X$X$X$X$X$X$X$X$X$X$X$X$X$X$X$X$X$X$XU U U U U U U U U U U U U U U U $X$X$X$X$X$X$X$X$X$X$X$X$X$X$X$X$X$X$X$X$X$X$X$X",
"$X$X$X$X$X$X$X$X$X$X$X$X$X$X$X$X$X$X$X$X$X$X$XR R W R R W W W E Q R W W W W W E E $X$X$X$X$X$X$X$X$X$X$X$X$X$X$X$X$X$X$X$X$X$X$X",
"$X$X$X$X$X$X$X$X$X$X$X$X$X$X$X$X$X$X$X$X$X$X$X%.W Q %.%.W W %.W W W %.W ( W W %.E $X$X$X$X$X$X$X$X$X$X$X$X$X$X$X$X$X$X$X$X$X$X$X",
"$X$X$X$X$X$X$X$X$X$X$X$X$X$X$X$X$X$XU R W R Q y.m.m.n.m.l.k.k.k.j.k.k.k.k.k.j.k.a.%.R R W W $X$X$X$X$X$X$X$X$X$X$X$X$X$X$X$X$X$X",
"$X$X$X$X$X$X$X$X$X$X$X$X$X$X$X$X$X$XE ( ( ( W u.M.B.V.V.C.z.z.z.z.z.z.z.z.z.z.z.z.%.R ( W R $X$X$X$X$X$X$X$X$X$X$X$X$X$X$X$X$X$X",
"$X$X$X$X$X$X$X$X$X$X$X$X$X$X$X$X$X$Xt.p.p.a.a.H.L.G.V.V.A.C.C.A.A.Z.z.z.z.z.z.z.k.9.7.7.7.7...$X$X$X$X$X$X$X$X$X$X$X$X$X$X$X$X$X",
"$X$X$X$X$X$X$X$X$X$X$X$X$XE W W ( >.J.W.W.W.W.W.Q.Y.V.V.V.V.V.V.V.A.z.z.z.z.z.z.z.z.z.z.z.z.<.( h .   $X$X$X$X$X$X$X$X$X$X$X$X$X",
"$X$X$X$X$X$X$X$X$X$X$X$X$X%.( ( %.2.R.!.!.!.!.W.W.Y.V.V.V.V.V.V.V.C.z.Z.z.z.z.z.z.z.z.z.z.k.<.( v O o @ $X$X$X$X$X$X$X$X$X$X$X$X",
"$X$X$X$X$X$X$X$X$X$X$XE &.F.J._.[.[. XoXXXXX.X/.W.W.E.Y.V.V.V.V.V.N.N.m.z.z.z.z.z.z.z.k.f.g.s.s.t.O.O.<   $X$X$X$X$X$X$X$X$X$X$X",
"$X$X$X$X$X$X$X$X$X$XR ( >.T.W.{.#X#X#X#X#X#X#X(.W.W.W.W.L.V.V.V.V.V.V.N.Z.z.z.z.z.z.z.x.r.r.k.z.z.Z.z.2   . $X$X$X$X$X$X$X$X$X$X",
"$X$X$X$X$X$X$X$X$X$X-.9.s.).`.|.#X#X#X#X#X#X#X{.(.(.W.W.I.L.H.j.a.m.V.N.C.C.z.z.z.z.z.x.h.h.x.x.k.s.a.q 2 < @ $X$X$X$X$X$X$X$X$X",
"$X$X$X$X$X$X$X$XW R z.W.^.OX#X#X#X#X@X#X#X#X#X@X#X.X!.W.W.Q.K.F A 0.V.V.V.V.A.z.z.z.z.z.z.z.f.r.q.W W i.l.O.o   X $X$X$X$X$X$X$X",
"$X$X$X$X$X$X$X$XW W S.W.^.+X#X#X@X#X#X#X#X@X#X#X#X.X!.W.W.W.K.S A 0.N.N.V.V.A.z.z.z.z.z.z.z.g.r.q.( W i.z.O.O . @ $X$X$X$X$X$X$X",
"$X$X$X$X$X$XU @.y.u.H.W.^.+X#X#X#X#X#X#X#X#X#X#X#XXX!.W.f.] ` A A G _ ,.m.V.A.z.z.z.z.z.z.z.f.r.w.q.q.1.7.-.X.X.2 X X $X$X$X$X$X",
"$X$X$X$X$XE W *.N.V.I.W.^.+X#X#X#X#X@X#X#X#X#X#X@X.XW.W.] A A A A A A S m.V.m.z.z.z.z.z.z.z.f.r.r.f.f.,.W >.z.S.9     $X$X$X$X$X",
"$X$X$X$X$XE W *.N.V.I.W.^.+X#X#X#X#X#X#X#X#X#X@X#X.X!.W.r.~ ~ A A F ! _ m.V.N.Z.Z.z.z.z.z.z.g.f.f.r.r.>.W >.k.x.9   . $X$X$X$X$X",
"$X$X$X$X$XE W *.N.N.P.W.^.+X#X#X#X#X#X#X#X#X#X@X#XXX!.W.W.T.D.S A 8.N.N.N.V.V.N.N.Z.z.z.z.z.z.z.x.f.r.,.( ( r.f.6     $X$X$X$X$X",
"$X$X$X$X$XE ( *.N.V.I.W.^.+X#X#X#X#X#X#X#X#X#X#X#X.X!.W.W.Q.K.S A 9.V.V.V.V.V.V.N.Z.z.z.z.z.z.z.x.r.r.,.R >.r.r.6   . $X$X$X$X$X",
"$X$X$XE W :.9.a.N.V.I.W.!.].'..X#X#X#X#X#X#X@X}.'.).W.W.c.6.w.h.h.q.) 1.N.N.V.V.N.Z.z.z.z.z.z.Z.x.r.r.w.5.5.1.1.B z j *   $X$X$X",
"$X$X$XW W i.z.Z.V.V.I.W.W.W.W.{.#X#X#X#X#X#X#X(.W.W.W.W.] A ~ T.Q.6.A S m.V.V.N.N.Z.z.z.z.z.z.z.x.f.r.r.r.w.R W 5.f.;.#   $X$X$X",
"$X$X$XW W i.z.Z.N.V.P.W.E.W.W.'.oXoXoXoXOXoXoX/.W.W.W.W.w.G ] T.W.w.G ^ m.V.V.V.V.Z.z.z.z.z.z.z.x.r.f.r.r.w.( R 5.f.-.+   $X$X$X",
"$X$X$XE W i.z.C.N.V.V.V.G.W.W.!.~.~.^.~.~.^.~.W.W.W.W.W.T.U.R.V.V.N.m.m.N.V.V.V.N.Z.z.z.z.z.z.z.x.f.r.r.f.w.( W 5.r.-.#   X $X$X",
"$X$X$XW W i.z.C.V.V.V.V.V.W.W.W.W.W.Q.W.W.W.W.W.W.W.W.W.W.W.W.V.V.V.N.V.V.V.V.V.V.Z.z.z.Z.z.z.z.x.f.r.r.r.w.( W 5.f.-.+   X $X$X",
"$X$X@.7.9.k.z.Z.N.V.V.V.V.P.P.P.I.P.h.r.b.W.W.W.W.W.W.W.Y.I.L.V.V.V.V.V.V.V.V.V.N.Z.Z.d.3.3.s.z.x.r.r.r.f.w.( R ,.5.*.k 8 3 X $X",
"E ( <.k.z.z.z.C.N.V.V.N.V.V.V.N.V.m.G A 4.W.W.W.W.W.W.W.L.N.V.V.V.N.V.V.V.V.V.V.N.Z.Z.q.A A p.Z.x.f.r.r.r.w.( R R R ( r.f.j     ",
"U ( <.z.z.z.z.C.N.V.V.M.V.V.V.N.m.u.G A ] U.U.W.W.W.W.E.L.N.V.V.V.V.V.V.N.V.V.V.N.z.k.3.A S q.k.g.r.r.f.r.w.( W W ( ( w.f.j     ",
"I ( <.z.z.z.z.z.V.V.V.V.V.V.V.9.G G A A S ~ ~ l.V.G.V.V.V.V.V.V.V.V.V.V.N.V.V.V.m.^ F S A A S F / r.r.r.r.w.W W W R ( r.r.j     ",
"U R <.z.z.z.z.C.N.V.V.V.V.V.V.8.A A A A A A A a.V.V.V.V.V.V.V.V.V.V.N.V.V.V.V.V.m.G A A A A A A G r.r.r.f.w.( W R ( ( r.f.j     ",
"E R <.z.z.z.z.z.m.m.N.V.V.V.V.a.) ) S A G ) ,.n.V.V.V.V.V.V.N.V.N.V.V.V.V.V.N.m.C.3._ ~ A A / _ 4.r.r.r.f.w.( W W W >.w.f.j     ",
"E ( <.z.z.z.z.z.z.z.A.V.V.V.V.V.V.m.G A ' V.N.N.V.V.V.V.V.V.V.V.V.V.V.V.V.V.A.z.z.z.z.5.A A 0.z.x.r.r.r.r.w.( W W W ( r.r.j     ",
"I ( <.z.z.z.z.z.z.z.A.V.V.V.V.N.N.m.G A ' m.N.N.V.V.V.V.V.V.V.V.V.V.V.V.N.V.A.z.z.z.x.5.S S e.z.x.r.r.r.r.w.( W W W ( w.r.j     ",
"U ( <.k.z.z.z.z.z.z.Z.C.C.N.V.i.G ^ t.u.9.! ^ u.V.V.V.V.V.V.V.V.V.V.V.N.C.Z.z.z.z./ G ' p.e./ G ` r.r.f.r.w.( W W W >.w.f.j     ",
"U ( <.z.z.z.z.z.z.z.z.z.z.N.V.8.A S n.B.9.A A j.V.V.V.V.V.V.N.V.V.V.V.N.Z.z.z.z.k.F A / Z.z.G A G r.r.r.r.w.( W W W ( w.f.j     ",
"E R <.z.z.z.z.z.z.z.z.z.Z.A.N.i.~ _ n.V.j._ _ u.V.V.N.V.V.V.V.V.N.N.m.m.z.z.z.z.k._ ~ 5.z.k.` G ` r.r.w.q.5.W W W W >.w.f.j     ",
"E R <.k.z.z.z.z.z.z.z.z.z.z.z.z.z.z.N.N.V.V.V.V.V.V.V.V.V.V.V.V.V.m.z.z.z.z.z.z.z.z.z.z.z.z.h.r.r.r.r.,.W W W W W W ( r.r.j     ",
"E ( *.z.z.z.z.z.z.z.z.z.z.z.z.z.z.z.N.V.V.V.V.V.V.V.V.V.N.V.V.V.V.C.z.z.z.z.z.z.z.z.z.z.z.z.h.r.r.r.r.,.W W R W W W ( w.f.j     ",
"E ( >.z.z.g.g.g.z.z.z.z.z.z.z.z.z.z.C.C.Z.C.C.C.C.C.C.C.Z.C.C.C.C.Z.z.z.z.z.z.z.z.z.z.z.z.z.f.r.f.r.r.,.W T g d J W >.w.f.j     ",
"E R *.k.z.f.r.f.z.z.z.z.z.z.z.z.z.z.z.z.z.z.z.z.Z.z.z.z.z.z.z.z.z.z.z.z.z.z.z.Z.z.z.z.z.z.z.h.r.r.r.r.,.W I r e m ( ( r.r.j     ",
"E ( <.z.z.g.r.f.x.x.x.z.z.z.z.z.z.z.z.z.z.z.z.p.p.p.z.z.z.z.z.z.z.z.z.z.z.z.k.e.d.z.z.z.x.k.f.f.r.q.q.>.W T s s H W ( w.r.j     ",
"E R <.z.z.g.r.r.f.r.x.z.z.z.z.z.z.z.z.z.z.z.z.~ A ^ z.z.z.z.z.z.z.z.z.z.z.Z.3.A F d.z.x.f.f.r.r.q.( ( Q W W R R W W >.w.f.j     ",
"E R <.z.z.f.r.f.r.r.g.z.z.z.z.z.z.z.z.z.z.z.z.G A ! z.z.z.z.z.z.z.z.z.z.z.z.3.A S d.Z.x.r.r.r.f.q.W W W W W W W W R ( w.f.j     ",
"$X$Xc 9 4 =.x.g.f.r.f.g.g.z.z.z.z.z.z.z.p._ _ S A F ` _ p.z.z.z.z.z.z.k.' _ G A A J Y %.r.r.5.,.>.W W m d n R W ,.q.*.7 5 1 $X$X",
"$X$X$X    { z.x.f.f.r.r.f.z.z.z.z.z.z.z.5.A A A A A A A q.Z.z.z.z.z.z.g.S A A A A a y K f.r.>.W W W W d e s R W 5.f.;.+   $X$X$X",
"$X$X$X    { v.z.w.w.r.r.f.x.z.x.k.z.z.z.q.G F A A A F G 0.z.z.z.z.z.z.s.G S S D Z V f L w.w.>.W R T T b t d R W 5.f.-.+   $X$X$X",
"$X$X$X    { z.k.>.W 5.r.r.f.f.f.r.h.z.z.z.k.s.G A ! s.k.z.z.z.z.z.z.z.k.r.r.P u i 2.r.1.Q W W W J t t H R R R ( 5.f.-.#   $X$X$X",
"$X$X$X  . { S.s.( R 5.f.r.r.r.r.r.f.k.z.z.z.z.~ A / z.z.z.z.z.z.z.z.z.z.f.f.L y i 5.f.q.W W W ( J r r H ( W W R 5.f.;.+   $X$X$X",
"$X$X$X$X$X9 q [ :.9.8.1.5.r.r.f.r.f.h.g.0.U U _ ` ' U U 0.g.g.g.g.g.g.d.R L L R P L L P W W H b d r r H W ( 1.1.N 8 6 * $X$X$X$X",
"$X$X$X$X$X$X  % y.S.7.W ( w.r.r.r.r.r.f.W y y 1.f.1.y y ( f.r.r.f.r.r.q.i y L f.w.f y f W W s e e r r H ( >.r.r.6     $X$X$X$X$X",
"$X$X$X$X$X    & y.z.8.W ( w.r.w.r.w.r.f.>.p p 1.r.2.p p >.r.r.f.r.r.r.w.p u T w.w.f u f T L s e r t t J ( ( r.r.6   . $X$X$X$X$X",
"$X$X$X$X$X.   - e.f.1.R W ( ( >.( ( w.f.w.q.q.r.r.r.q.q.r.r.r.r.r.f.r.w.R P ( ( >.R T K s s t e s T T W W >.r.r.6     $X$X$X$X$X",
"$X$X$X$X$X    ; w.f.1.R R W W W R ( w.r.r.f.f.r.f.r.r.r.f.r.r.f.f.r.r.w.>.W W ( W W ( H e e e e s W W W W ( r.f.6     $X$X$X$X$X",
"$X$X$X$X$X$Xo = k l +.1.,.( W W W ( 1.5.5.5.5.5.5.5.5.5.5.5.5.1.5.5.5.1.( W I m m m K n g g g g H W W ,.1.%.x l 1 X $X$X$X$X$X$X",
"$X$X$X$X$X$X$X$X    k r.r.( W W R ( R ( W W W W W W W W W W Q W W W W W W W n r r e e d ( ( R ( W W ( q.f.#.o   X $X$X$X$X$X$X$X",
"$X$X$X$X$X$X$X$X    k 0.8.( W ( ( ( ( R W W W W W W R R R R R R R R R R R R n r r t r b R ( ( ( ( W ( <.0. .O   $X$X$X$X$X$X$X$X",
"$X$X$X$X$X$X$X$X$X$X; ; , ;.w.w.w.q.( W W W W W W J s s s s s t s s s s s s n J I T T T Q R 5.w.w.w.w.7 - ; $X$X$X$X$X$X$X$X$X$X",
"$X$X$X$X$X$X$X$X$X$X$X  $ 7.f.f.f.r.>.W R W W W ( J r e w e w r e e e e e e b ( W W W W R ( w.f.f.f.r.,     $X$X$X$X$X$X$X$X$X$X",
"$X$X$X$X$X$X$X$X$X$X$X  $ z M M M } %.1.>.,.>.( W I d d d d d d d d d b s b m W W >.,.,.,.>.| M M M M 1   $X$X$X$X$X$X$X$X$X$X$X",
"$X$X$X$X$X$X$X$X$X$X$X$X$Xo . . . + &.f.r.f.r.>.W W W W W W W W W W W W W W W W ( w.r.f.r.e.:   . .   $X$X$X$X$X$X$X$X$X$X$X$X$X",
"$X$X$X$X$X$X$X$X$X$X$X$X$X        O #.r.r.w.r.>.W ( W W W W W W W W W W W W W W >.e.r.w.r.0.:         $X$X$X$X$X$X$X$X$X$X$X$X$X",
"$X$X$X$X$X$X$X$X$X$X$X$X$X$X$X$X$X$X: : : : : @.w.q.q.q.w.w.q.w.q.q.q.w.w.q.q.q.2.5 : : : : $X$X$X$X$X$X$X$X$X$X$X$X$X$X$X$X$X$X",
"$X$X$X$X$X$X$X$X$X$X$X$X$X$X$X$X$X$X        . $.f.r.r.f.r.f.r.f.f.r.f.r.f.f.f.f.0.%         $X$X$X$X$X$X$X$X$X$X$X$X$X$X$X$X$X$X",
"$X$X$X$X$X$X$X$X$X$X$X$X$X$X$X$X$X$X.       . x $. . . . . . . . . . . . . . .$.| -         $X$X$X$X$X$X$X$X$X$X$X$X$X$X$X$X$X$X",
"$X$X$X$X$X$X$X$X$X$X$X$X$X$X$X$X$X$X$X$X$X$X$X. . . . . . . . . . . . . . . . . o $X$X$X$X$X$X$X$X$X$X$X$X$X$X$X$X$X$X$X$X$X$X$X",
"$X$X$X$X$X$X$X$X$X$X$X$X$X$X$X$X$X$X$X$X$X$X$X                                    $X$X$X$X$X$X$X$X$X$X$X$X$X$X$X$X$X$X$X$X$X$X$X"
};
