/* XPM */
static char *result[] = {
/* columns rows colors chars-per-pixel */
"24 24 118 2 ",
"   c #231103",
".  c #2D1201",
"X  c #311401",
"o  c #3B1702",
"O  c #361C02",
"+  c #5F2301",
"@  c #5C2F01",
"#  c #5E3001",
"$  c #692703",
"%  c #6E2803",
"&  c #742A03",
"*  c #7A2D03",
"=  c #693401",
"-  c #980F00",
";  c #A10600",
":  c #A40900",
">  c #A90E00",
",  c #B80D00",
"<  c #A21200",
"1  c #A91B00",
"2  c #B61E00",
"3  c #812F03",
"4  c #813E02",
"5  c #BC2400",
"6  c #DB1301",
"7  c #FB0E00",
"8  c #FB1200",
"9  c #FC1D00",
"0  c #CE2701",
"q  c #C22900",
"w  c #CA2E00",
"e  c #D72600",
"r  c #D12C02",
"t  c #DA2C03",
"y  c #CD3000",
"u  c #D13300",
"i  c #DA3501",
"p  c #DB3800",
"a  c #F52600",
"s  c #FC2300",
"d  c #F42C00",
"f  c #E13C01",
"g  c #F53301",
"h  c #F53E00",
"j  c #DC4102",
"k  c #DE4C04",
"l  c #D65403",
"z  c #DF5402",
"x  c #D25A01",
"c  c #D95901",
"v  c #E64202",
"b  c #EB4401",
"n  c #E34D04",
"m  c #ED4B02",
"M  c #F44201",
"N  c #F34C02",
"B  c #FB4A04",
"V  c #E25303",
"C  c #EA5400",
"Z  c #E35F00",
"A  c #EB5B01",
"S  c #F35203",
"D  c #FC5302",
"F  c #F05D01",
"G  c #FE5C05",
"H  c #CD6501",
"J  c #D36501",
"K  c #DE6200",
"L  c #E56502",
"P  c #EF6301",
"I  c #E46C00",
"U  c #EC6C01",
"Y  c #F06001",
"T  c #FB6405",
"R  c #F46D03",
"E  c #F86904",
"W  c #E77601",
"Q  c #E97201",
"!  c #E27B00",
"~  c #EB7C01",
"^  c #F27203",
"/  c #E76B14",
"(  c #DE8200",
")  c #DD8B00",
"_  c #DA9600",
"`  c #DA9900",
"'  c #E58501",
"]  c #E98101",
"[  c #E28C01",
"{  c #FE8400",
"}  c #E19600",
"|  c #FF9104",
" . c #E8A200",
".. c #EFAB00",
"X. c #F6A103",
"o. c #FFA000",
"O. c #F2AC00",
"+. c #FEA800",
"@. c #FBAD0C",
"#. c #FEB401",
"$. c #FFB804",
"%. c #FEB80F",
"&. c #FAA713",
"*. c #FAAD1B",
"=. c #FCBA16",
"-. c #FEBD1D",
";. c #FAAF2E",
":. c #FFC944",
">. c #FFCC51",
",. c #FFCF5A",
"<. c #FFD05A",
"1. c #FFD363",
"2. c #FFD36B",
"3. c #FDCD77",
"4. c #FFD97C",
"5. c #FFDB83",
"6. c #FFDC8B",
"7. c None",
/* pixels */
"7.7.7.7.7.7.7.7.7.j j j j p j 7.7.7.7.7.7.7.7.7.",
"7.7.7.7.7.7.7.j K ) ! Q Q Q W z j 7.7.7.7.7.7.7.",
"7.7.7.7.7.k / &.@.O.` [ ] ~ ~ ~ Q z + 7.7.7.7.7.",
"7.7.7.7.L ;.3.4.<.=.O.} ) [ ~ ~ R R J @ 7.7.7.7.",
"7.7.7.L *.4.6.6.6.>.+.D b ) ' ~ ~ T S l # 7.7.7.",
"7.7.j } -.5.6.6.6.<.{ 9 8 L [ ~ ~ R G n x O 7.7.",
"7.7.z } =.2.6.6.5.:.o.G N ( ` [ ~ ~ T m V $ 7.7.",
"7.j W ` O.-.,.2.:.$.{ R R L ` ' ~ ~ E G v n X 7.",
"7.z ~ _ ` O.X.| #.#.O. .` ` ` [ / U T G v n % 7.",
"j Q ~ _ ` ) m s { O. .` ` ` _ I 9 g G G v f k . ",
"j Q ~ _ ` [ d 8 A ` ` ` ` _ _ A 7 s D G v f n . ",
"j Q ~ ~ ) ) A b I ` ` ! ! _ ] F h h G G v f n . ",
"j Q ~ ~ ] W A ! L ` ! d a P ~ A P B B S v f k . ",
"j U ^ ~ ~ ~ ] [ [ [ U s 9 F ~ ~ ~ E G v q i n . ",
"j U T R ~ ~ ~ ~ ~ ~ A M h F ~ ~ ^ T S f q p n X ",
"7.4 L T R ~ P N ~ ~ R Y Y A ~ ^ v f f 5 i n 3   ",
"7.  H C G A e 8 N ~ ~ ~ ~ ^ E j , , 2 5 p V X 7.",
"7.7.= c S S t 6 B E T E E T G f , : - r n * 7.7.",
"7.7.. l f f r i i G G G G S v 0 > ; 5 i n o 7.7.",
"7.7.7.$ k i i f i v v v v p q < 5 r i n & 7.7.7.",
"7.7.7.7.$ n n f f w 1 1 1 1 5 r i m V & 7.7.7.7.",
"7.7.7.7.7.o % n n p u r u u p n V * o 7.7.7.7.7.",
"7.7.7.7.7.7.7.X & V n V V n n 3 X 7.7.7.7.7.7.7.",
"7.7.7.7.7.7.7.7.7.X . X . . X   7.7.7.7.7.7.7.7."
};
