/* XPM */
static char *result[] = {
/* columns rows colors chars-per-pixel */
"64 64 177 2 ",
"   c #010101",
".  c #090300",
"X  c #0D0806",
"o  c #070809",
"O  c #0A0909",
"+  c #120600",
"@  c #1D0E00",
"#  c #140A05",
"$  c #17120D",
"%  c #210D01",
"&  c #231301",
"*  c #29150A",
"=  c #321301",
"-  c #381603",
";  c #33190B",
":  c #221B12",
">  c #461A02",
",  c #481B02",
"<  c #492700",
"1  c #472603",
"2  c #5B2606",
"3  c #572F03",
"4  c #5D3303",
"5  c #622604",
"6  c #6D2903",
"7  c #642906",
"8  c #762C03",
"9  c #7B2E03",
"0  c #653604",
"q  c #6F3B00",
"w  c #783702",
"e  c #7E4201",
"r  c #8F0D00",
"t  c #920F00",
"y  c #951100",
"u  c #9B1400",
"i  c #AD0100",
"p  c #B60A00",
"a  c #B80D00",
"s  c #A01700",
"d  c #A41900",
"f  c #AD1E00",
"g  c #B01F00",
"h  c #802E02",
"j  c #8E3503",
"k  c #813305",
"l  c #923603",
"z  c #953803",
"x  c #9C3807",
"c  c #B42200",
"v  c #BC2600",
"b  c #BD2900",
"n  c #A63E04",
"m  c #A83F04",
"M  c #BA3200",
"N  c #BB3F03",
"B  c #BE3709",
"V  c #B43F03",
"C  c #FF0100",
"Z  c #FD0B00",
"A  c #FD1400",
"S  c #F71F00",
"D  c #FB1C00",
"F  c #CC2501",
"G  c #C42A00",
"H  c #CE2C00",
"J  c #CE3202",
"K  c #C73E06",
"L  c #C93806",
"P  c #C03709",
"I  c #C23809",
"U  c #D43400",
"Y  c #DB3600",
"T  c #D33904",
"R  c #DE3900",
"E  c #DF3F08",
"W  c #F62400",
"Q  c #F92300",
"!  c #F92A00",
"~  c #E13C00",
"^  c #EF3F00",
"/  c #F63201",
"(  c #F43D00",
")  c #FE3A04",
"_  c #864501",
"`  c #934600",
"'  c #BE4605",
"]  c #BF4904",
"[  c #B64504",
"{  c #AC5402",
"}  c #A35601",
"|  c #B45F01",
" . c #B85F01",
".. c #CB4306",
"X. c #CD4E06",
"o. c #C64103",
"O. c #DD4100",
"+. c #DC4D01",
"@. c #D34704",
"#. c #DA5304",
"$. c #D55801",
"%. c #E24301",
"&. c #EA4602",
"*. c #E44C02",
"=. c #ED4A03",
"-. c #E04208",
";. c #F04700",
":. c #FF4504",
">. c #F14E03",
",. c #FE4903",
"<. c #E25201",
"1. c #EB5401",
"2. c #E55C01",
"3. c #EE5906",
"4. c #F55304",
"5. c #F95705",
"6. c #F25C03",
"7. c #FE5D06",
"8. c #CC6B01",
"9. c #D46D01",
"0. c #DF6901",
"q. c #DD7C00",
"w. c #D87301",
"e. c #E56201",
"r. c #EC6302",
"t. c #E56A00",
"y. c #EB6B01",
"u. c #F06001",
"i. c #FE6106",
"p. c #F56C04",
"a. c #F86804",
"s. c #E27300",
"d. c #EC7501",
"f. c #E27C00",
"g. c #EB7C01",
"h. c #F17303",
"j. c #F37B01",
"k. c #DE8500",
"l. c #DD8C00",
"z. c #DA9500",
"x. c #D79D00",
"c. c #D99800",
"v. c #E68401",
"b. c #E98101",
"n. c #E18B01",
"m. c #E88D00",
"M. c #F38101",
"N. c #F18801",
"B. c #FF8B00",
"V. c #EB9800",
"C. c #F69500",
"Z. c #FC9C00",
"A. c #F59408",
"S. c #E6A200",
"D. c #EAA500",
"F. c #EDA800",
"G. c #FFA600",
"H. c #F4AD00",
"J. c #FFAA00",
"K. c #FEB500",
"L. c #FFB800",
"P. c #FFB708",
"I. c #FFB90D",
"U. c #F8A724",
"Y. c #FFBE24",
"T. c #FFC12C",
"R. c #FFC434",
"E. c #FFC538",
"W. c #F7B569",
"Q. c #FFCB4D",
"!. c #FFCE58",
"~. c #FFCD54",
"^. c #FCCA69",
"/. c #FFD46C",
"(. c #FFD575",
"). c #FFDC8A",
"_. c None",
/* pixels */
"_._._._._._._._._._._._._._._._._._._._._._._._.L L L L L L L L L L L L L L L L K _._._._._._._._._._._._._._._._._._._._._._._.",
"_._._._._._._._._._._._._._._._._._._._._._._.L R R R R R R Y R R R R Y R T R ~ R _._._._._._._._._._._._._._._._._._._._._._._.",
"_._._._._._._._._._._._._._._._._._._._._._._.K O.R E R O.R R ~ O.~ R R R ~ ~ R R _._._._._._._._._._._._._._._._._._._._._._._.",
"_._._._._._._._._._._._._._._._._._.T Y Y R Y w.l.l.k.l.f.y.d.d.d.s.d.d.d.s.d.d.y.+.Y Y Y T _._._._._._._._._._._._._._._._._._.",
"_._._._._._._._._._._._._._._._._._.T R ~ Y R w.x.c.c.c.n.g.g.g.g.g.g.g.g.g.g.g.g.*.Y ~ R R _._._._._._._._._._._._._._._._._._.",
"_._._._._._._._._._._._._._._._._._.e.r.r.y.y.m.D.c.c.c.n.v.n.v.n.v.g.g.g.g.g.g.g.2.<.<.<.<..._._._._._._._._._._._._._._._._._.",
"_._._._._._._._._._._._._.R R R Y ~ C.L.K.K.K.K.L.K.c.c.c.c.c.c.c.n.g.g.g.g.g.g.g.g.g.g.g.g.<.~ M +   _._._._._._._._._._._._._.",
"_._._._._._._._._._._._._.R ~ ~ E -.A.P.P.P.P.K.K.H.x.c.x.c.c.c.c.n.g.g.g.g.g.g.g.g.g.g.g.g.<.~ M % X $ _._._._._._._._._._._._.",
"_._._._._._._._._._._.T O.N.C.U.W.W.^././.!./.T.K.K.H.H.S.z.c.c.c.z.z.l.b.g.g.g.g.g.g.d.a.i.y.y.t. .| 4 o _._._._._._._._._._._.",
"_._._._._._._._._._._.Y ~ Z.K.R.).).).).).).).R.K.K.L.K.D.x.c.c.c.c.c.z.b.g.g.g.g.g.g.h.7.7.h.g.b.b.M.q     _._._._._._._._._._.",
"_._._._._._._._._._.X.2.r.U.T.Q.).).).).).).).Q.T.Y.L.K.H.V.S.c.c.c.c.c.n.b.b.g.g.g.g.d.a.a.h.h.h.y.y.` < < : _._._._._._._._._.",
"_._._._._._._._.T Y d.K.P./.).).).).).).).).).).).(.I.K.K.K.K.c.z.c.c.c.c.c.n.g.g.g.g.g.g.g.a.7.5.~ ~ $.d.8.&     _._._._._._._.",
"_._._._._._._._.T Y y.K.P./.).).).).).).).).).).).(.P.K.K.K.K.c.c.c.c.c.z.c.z.g.g.g.g.g.g.g.a.7.5.R R 2.g.9.&   O _._._._._._._.",
"_._._._._._.L ..w.q.V.K.P./.).).).).).).).).).).).(.I.K.K.K.K.H.H.S.c.c.c.c.n.g.g.g.g.g.g.g.a.7.7.4.4.1.*.#.{ } 0 O O _._._._._.",
"_._._._._.P Y O.l.x.D.K.P./.).).).).).).).).).).).(.I.K.K.K.K.K.K.F.c.c.c.c.l.g.g.g.g.g.g.g.a.7.7.7.7.=.Y ~ d.M._     _._._._._.",
"_._._._._.P Y O.l.c.D.K.P.(.).).).).).).).).).).).(.I.K.K.K.K.K.K.F.c.c.c.c.z.b.b.b.g.g.g.g.p.a.i.7.7.=.R %.y.j._     _._._._._.",
"_._._._._.P R O.l.c.S.K.P./.).).).).).).).).).).).(.I.K.K.K.K.K.K.D.c.c.c.c.c.z.c.v.g.g.g.g.g.g.d.i.7.=.Y ~ 7.i.j     _._._._._.",
"_._._._._.B R O.l.c.S.K.P.(.).).).).).).).).).).).(.I.K.K.K.K.K.L.D.c.c.c.c.c.c.c.b.g.g.g.g.g.g.d.i.7.=.R ~ 5.i.j     _._._._._.",
"_._._.Y R #.e.t.l.x.D.K.K.T.E.~.).).).).).).).!.E.T.P.K.K.L.J.5.,.y.c.c.c.c.c.c.c.v.g.g.g.g.g.g.d.i.i.5.4.>.=.=.o.z l *   _._._.",
"_._._.Y R 2.g.b.z.c.D.K.K.K.K.T.).).).).).).).R.K.K.K.K.K.L.G.D C ;.c.c.c.c.c.c.c.v.g.g.g.g.g.g.h.i.7.7.7.5.~ Y =.7.3.=   o _._.",
"_._._.R R 2.g.g.z.c.S.K.K.K.K.T.(.(.(.(.(.(.(.R.K.K.K.K.J.Z.B.D C ( k.k.z.z.x.c.c.v.d.g.g.g.g.g.d.i.7.i.7.7.~ ~ =.7.3.=     _._.",
"_._._.T R 2.g.b.z.c.c.c.c.H.K.P.I.I.I.I.I.I.I.P.K.K.K.L.7.Z A C C Z Z A q.c.z.c.z.v.g.g.g.g.g.g.j.i.7.7.7.5.~ R =.7.3.=   o _._.",
"_._._.Y R 2.g.b.z.z.c.z.c.K.K.K.P.P.K.K.K.K.P.K.K.K.K.L.5.C C C C C C Z q.x.c.c.c.v.g.g.g.g.g.g.d.i.7.7.7.5.~ Y =.7.3.=   o _._.",
"_._...2.2.t.g.g.z.c.c.c.c.S.D.S.D.D.K.K.K.K.K.K.K.K.K.L.j.=.&.Z C W =.<.k.c.c.c.c.v.g.g.g.g.g.g.d.i.i.7.7.7.-.R %.>.*.z 9 7 O _.",
"R ~ %.d.g.g.g.b.z.c.c.c.c.z.c.c.c.c.H.K.K.K.K.K.K.K.K.K.D.x.l.A C &.x.x.z.c.c.x.z.v.g.g.g.g.g.g.d.i.7.7.i.5.~ R Y ~ R 5.i.m     ",
"T ~ %.d.g.g.g.b.z.c.c.c.c.c.c.c.c.c.H.K.K.K.K.K.K.H.K.K.V.l.q.W A &.l.l.z.c.z.z.c.v.g.g.g.g.g.g.h.i.i.7.7.7.~ R ~ Y ~ 5.7.m     ",
"Y R O.d.g.g.g.b.z.c.c.c.c.c.c.c.c.c.c.c.c.c.V.c.c.c.c.S.1.D W s.v.1.D W q.z.x.z.c.v.g.g.g.g.g.g.g.i.7.7.7.5.~ ~ Y ~ ~ 5.7.m     ",
"T R O.g.g.g.g.b.z.c.c.c.c.c.z.c.c.c.c.c.c.x.x.c.c.c.c.x.&.C A k.x.<.C Z f.x.z.x.c.v.g.g.g.g.g.g.h.7.i.7.7.7.~ R ~ Y ~ 4.7.m     ",
"R ~ O.g.g.g.g.g.k.l.z.z.c.c.c.c.c.c.z.c.c.x.c.c.c.c.c.c.t.( &.l.x.s.^ =.k.c.z.l.n.b.g.g.g.g.g.g.g.i.7.i.7.5.%.R R R R 5.i.m     ",
"R Y O.d.g.g.g.g.g.g.v.x.c.c.c.c.c.c.c.c.z.z.c.c.c.c.c.c.c.c.c.c.z.z.c.c.c.c.n.g.g.g.g.g.g.g.g.g.h.i.7.7.7.7.~ ~ R R R 5.i.m     ",
"R ~ %.d.g.g.g.g.g.g.v.c.z.x.c.c.c.c.c.c.x.z.z.c.c.c.c.c.c.c.c.c.c.c.c.c.c.c.z.g.g.g.g.g.g.g.g.g.d.i.7.7.7.5.~ R R R ~ 5.7.n     ",
"R Y %.d.g.g.g.g.g.g.g.b.b.z.c.c.c.z.c.c.z.x.x.z.c.c.c.c.c.c.c.c.c.c.z.z.n.b.g.g.g.g.g.g.g.g.g.g.h.i.i.7.7.7.~ R R R ~ 5.i.m     ",
"R R O.g.g.g.g.g.g.g.g.g.g.z.x.c.c.c.c.c.c.c.x.c.z.c.c.c.c.c.c.c.c.z.c.z.b.g.g.g.g.g.b.g.g.g.g.g.d.i.i.7.7.5.~ ~ R R ~ 5.7.m     ",
"~ R O.d.g.g.g.g.g.g.g.g.g.n.n.n.z.n.z.c.l.t.t.k.z.c.z.c.c.c.c.c.x.z.l.l.b.g.g.g.g.6.4.r.g.g.d.h.p.i.i.5.4.>.~ ~ R R R 5.i.m     ",
"~ Y %.g.g.g.g.g.g.g.g.g.g.g.g.g.g.g.z.c.s.Z C e.x.z.c.c.c.c.c.c.z.n.g.g.g.g.g.g.g.Q C Q d.g.a.7.7.7.i.=.~ Y ~ Y R Y ~ 5.7.n     ",
"~ Y O.d.g.g.g.g.g.g.g.g.g.g.g.g.g.g.l.z.s.Z C e.x.z.c.c.c.c.c.x.x.n.g.g.g.g.g.g.d.Q C S d.g.a.7.i.7.7.=.Y ~ Y Y Y ~ ~ 5.i.m     ",
"~ R ~ d.b.h.a.a.g.g.g.g.g.g.g.g.g.g.;./ W C C S / ^ f.v.v.v.v.v.v.b.g.g.g.g.u.! Q Z C Z Q ! ,.7.7.7.7.=.E U g f G R R 5.7.m     ",
"R Y O.d.g.p.7.7.d.g.g.g.g.g.g.g.g.g.Q C C C C C C A d.g.d.g.g.g.g.g.g.g.g.g.4.C C C C C C C ) i.7.i.i.=.~ U u t g R ~ 5.i.m     ",
"R R %.g.g.p.7.i.h.h.d.b.g.g.g.g.g.g.( D D C C A D / d.g.g.g.g.g.g.g.g.g.g.g.3.Q S Z C Z A D :.i.7.5.5.&.Y U g d v ~ ~ 5.7.n     ",
"R R O.d.g.p.7.7.i.i.p.g.g.g.g.g.g.g.d.g.4.Z C >.g.d.g.g.g.g.g.g.g.g.g.g.g.g.g.d.h.Q C A 5.7.7.7.5.~ R R ~ Y Y Y R Y ~ 5.i.m     ",
"~ R O.d.g.p.7.7.7.7.p.g.g.g.g.g.g.g.g.g.u.Z C >.b.g.g.g.g.g.g.g.g.g.g.g.g.g.g.g.g.Q C D 7.7.7.7.5.~ R R R R R R R R R 5.i.[     ",
"_._.x 0 4 { h.p.i.7.i.p.a.g.g.g.g.g.;./ ( >.>.( / ( d.g.g.g.g.g.g.g.g.g.g.g.u./ / ) ) / F F ~ =.&.R R G g c Y R &.>.=.9 5 2 _._.",
"_._._.    e M.d.i.7.7.7.i.h.g.b.g.g.Q C D g.g./ C A d.g.g.g.g.g.g.g.g.g.g.g.4.C C :.i.=.i i F R R R R c t u U R =.7.3.=     _._.",
"_._._.    e M.d.6.5.7.7.7.h.d.d.d.h./ A / g.g.) A Q d.g.g.g.g.g.g.g.g.g.g.d.4.A A ,.i.=.p p F R Y U U v s d U R =.7.3.=   o _._.",
"_._._.    e b.d.%.~ =.7.7.i.i.i.i.i.p.d.d.g.g.d.d.d.g.g.g.g.g.g.g.g.g.g.a.7.7.5.5.7.7.5.Y Y R ~ U u u v Y Y Y R =.7.3.=   o _._.",
"_._._.    e M.d.%.~ &.7.7.7.7.7.7.7.d.b.g.g.g.g.g.g.g.g.g.g.g.g.g.g.g.g.i.7.7.i.7.7.7.5.R R ~ ~ U y y v ~ R R Y =.7.6.=     _._.",
"_._._._._.3 q _ $.2.1.=.>.5.7.7.7.7.a.p.p.p.p.p.p.p.p.p.p.p.p.p.p.p.p.p.i.7.7.7.7.>.=.&.R R G c c y t v R ~ =.>.N 9 9 = _._._._.",
"_._._._._._.  @ 8.b.e.R R 5.i.7.7.7.7.7.i.7.7.7.7.7.i.7.7.7.i.7.7.7.i.7.i.7.i.7.7.&.R R R R g t t t t v ~ ~ 5.i.j     _._._._._.",
"_._._._._._.  @ 8.h.1.R ~ 5.5.5.5.5.i.7.7.7.7.i.7.7.7.i.7.i.7.7.7.7.7.7.7.5.5.5.5.%.R R U U g t y u u v ~ ~ 5.i.l     _._._._._.",
"_._._._._.o   @ $.i.1.R R ~ ~ %.~ %.5.7.7.i.7.7.7.7.7.7.7.7.7.7.7.7.7.7.&.~ %.~ %.R R H d u u t u U U Y R ~ 5.i.j     _._._._._.",
"_._._._._.O   @ #.i.4.Y R R R ~ R R 5.7.7.i.i.7.7.i.i.7.i.7.i.7.7.7.7.7.%.~ Y ~ ~ ~ ~ H t t t t u Y R R R ~ 7.i.j     _._._._._.",
"_._._._._._.o * k z N =.&.~ R R R R &.>.>.>.>.>.>.>.>.>.>.>.>.>.>.>.>.>.~ Y U v v G v G c c c c v Y ~ %.=.%.x l 7 o _._._._._._.",
"_._._._._._._._.    8 i.7.~ R R R R R R R R R R R R R R R R R R R R R R ~ ~ G t t t t f R R R R ~ Y Y >.i.<.%     _._._._._._._.",
"_._._._._._._._.    7 3.3.%.~ ~ ~ R ~ R R R R R R R Y Y Y Y Y Y Y Y Y Y Y Y G u u t t f Y R R ~ ~ ~ ~ *.3.X.&   _._._._._._._._.",
"_._._._._._._._._._.* - > @.5.5.5.5.~ ~ R R R R R U d d s s d s s s s s s s c J U H H U R R =.5.5.5.5.j = - _._._._._._._._._._.",
"_._._._._._._._._._._.  . X.i.7.i.7.&.Y R Y R R ~ U y t t t t t y t t y t r f R R ~ Y ~ R R 4.i.7.i.i.8     _._._._._._._._._._.",
"_._._._._._._._._._._.  # j m m [ n ..&.&.&.&.%.R U c f f f f f f f f f f f b R Y &.&.&.&.&.o.n n [ m 2 o _._._._._._._._._._._.",
"_._._._._._._._._._._._._.o       X [ 7.7.7.5.&.R R Y Y R R R R R R R Y R R R R ~ 4.7.7.7.7.5         _._._._._._._._._._._._._.",
"_._._._._._._._._._._._._.        X X.5.6.5.i.&.R R R R R R R R R R R R R R R R R 1.5.5.5.6.2         _._._._._._._._._._._._._.",
"_._._._._._._._._._._._._._._._._._.- > , , > [ 4.5.5.4.4.5.5.4.5.4.5.4.4.4.5.5.4.8 1 > > > ; _._._._._._._._._._._._._._._._._.",
"_._._._._._._._._._._._._._._._._._.          n i.i.i.i.7.i.i.i.i.i.i.7.i.i.7.i.7.>         _._._._._._._._._._._._._._._._._._.",
"_._._._._._._._._._._._._._._._._._._.        l o.] ' ' ' ' ' ' ' ' ' ' ' ' ' ' ' ,         _._._._._._._._._._._._._._._._._._.",
"_._._._._._._._._._._._._._._._._._._._._._._.X .     . . . .   . . . . .   . .   _._._._._._._._._._._._._._._._._._._._._._._.",
"_._._._._._._._._._._._._._._._._._._._._._._.o                                   _._._._._._._._._._._._._._._._._._._._._._._."
};
