/* XPM */
static char *result[] = {
/* columns rows colors chars-per-pixel */
"24 24 111 2 ",
"   c #130B00",
".  c #1A0C01",
"X  c #2E1506",
"o  c #341503",
"O  c #441A02",
"+  c #4D1E02",
"@  c #462502",
"#  c #6A2502",
"$  c #6C2803",
"%  c #712903",
"&  c #623303",
"*  c #6D3701",
"=  c #A01700",
"-  c #AD1E00",
";  c #8F3303",
":  c #963503",
">  c #9D3703",
",  c #9D3803",
"<  c #B92300",
"1  c #D51702",
"2  c #FF0D00",
"3  c #E71F00",
"4  c #FB1300",
"5  c #C52B00",
"6  c #C92D00",
"7  c #D43300",
"8  c #DA3401",
"9  c #D03802",
"0  c #DC3C01",
"q  c #E62300",
"w  c #FB2200",
"e  c #E13C01",
"r  c #F73500",
"t  c #FE3606",
"y  c #F63A01",
"u  c #FF3810",
"i  c #904301",
"p  c #BE6001",
"a  c #DC4402",
"s  c #DE4C02",
"d  c #C95303",
"f  c #D25701",
"g  c #DC5501",
"h  c #D35A01",
"j  c #E54201",
"k  c #EA4602",
"l  c #E24D03",
"z  c #EC4B03",
"x  c #F54101",
"c  c #FB4303",
"v  c #F34E01",
"b  c #E25702",
"n  c #EB5104",
"m  c #E25901",
"M  c #E55C0E",
"N  c #F35403",
"B  c #FF5506",
"V  c #FE5D05",
"C  c #D26501",
"Z  c #DE6303",
"A  c #DE7C00",
"S  c #E66700",
"D  c #EF6401",
"F  c #E66D01",
"G  c #E96C01",
"H  c #F36302",
"J  c #FB6505",
"K  c #F66C04",
"L  c #FA6A02",
"P  c #E27700",
"I  c #EC7401",
"U  c #E47F00",
"Y  c #EB7C01",
"T  c #F17402",
"R  c #DE8400",
"E  c #DD8D00",
"W  c #DB9500",
"Q  c #DA9900",
"!  c #E48501",
"~  c #E98001",
"^  c #E18C00",
"/  c #FC8600",
"(  c #E29500",
")  c #FF9507",
"_  c #F89C07",
"`  c #F79B0D",
"'  c #F69E10",
"]  c #F69F1E",
"[  c #EDA600",
"{  c #EEA800",
"}  c #F1AB00",
"|  c #F9A409",
" . c #FEB501",
".. c #FAB70F",
"X. c #FAB613",
"o. c #FEB810",
"O. c #FFBC19",
"+. c #FF8D5A",
"@. c #FFCC53",
"#. c #FFCE59",
"$. c #FFD05D",
"%. c #FFCD66",
"&. c #FBC26A",
"*. c #FFD267",
"=. c #FFD46C",
"-. c #FFC075",
";. c #FFD676",
":. c #FFD97D",
">. c #FFD586",
",. c #FFDD8B",
"<. c None",
/* pixels */
"<.<.<.<.<.<.<.<.<.0 0 0 0 0 0 <.<.<.<.<.<.<.<.<.",
"<.<.<.<.<.<.<.a g R A I F F F m 0 <.<.<.<.<.<.<.",
"<.<.<.<.<.a M ` | } Q W ^ ~ Y I F b # <.<.<.<.<.",
"<.<.<.<.b ] &.;.$.o.} Q Q ^ Y ~ K K C & <.<.<.<.",
"<.<.<.g ' =.,.,.,.#. .} Q Q ! Y Y K N f & <.<.<.",
"<.<.a R X.:.,.,.,.*. . .} Q E Y Y T V k h @ <.<.",
"<.<.l ( X.*.,.>.-.#. . .{ Q Q ~ I I J z n $ <.<.",
"<.0 F W } O.%.+.u )  . .[ Q E k r I K V z l O <.",
"<.l I W Q } _ t 2 V  .[ Q Q S 4 4 N T V k k % <.",
"0 G ~ W Q Q ( L x / [ Q Q Q R k y G K V k e l O ",
"0 F ~ ^ Q Q R z P n W Q Q Q S N N N K V k e z O ",
"0 G Y ~ ^ Q Q Q Q Q Q Q Q Q ! Y Y I K V k 0 n O ",
"0 F Y Y Y E E Q Q Q Q Q W ! Y Y Y I J B j e n O ",
"0 G T Y Y Y Y ! S ^ ^ E ! Y Y D K K J k 6 7 n O ",
"0 G J K Y Y I y 4 v Y Y Y Y D w q n N j 5 7 n + ",
"<.i Z J K Y I r 2 v Y Y Y Y H 3 1 e j 5 7 j , o ",
"<.  d N J K H x y N I Y Y Y M 7 8 8 6 < 7 n O <.",
"<.<.* f n V B c V c K K K J z e 8 < = 5 k : o <.",
"<.<.. d j k z J V J V V V N z j 5 = - 7 N + <.<.",
"<.<.<.$ a e e k k k k k k j 6 - < 5 8 j ; X <.<.",
"<.<.<.<.# s z 0 0 7 - - - - < 5 7 k n ; X <.<.<.",
"<.<.<.<.<.+ $ l z 8 6 6 6 6 7 k n : + o <.<.<.<.",
"<.<.<.<.<.<.<.O % l n n n n n > O o <.<.<.<.<.<.",
"<.<.<.<.<.<.<.<.<.O O O O o O o <.<.<.<.<.<.<.<."
};
