/* XPM */
static char *result[] = {
/* columns rows colors chars-per-pixel */
"64 64 187 2 ",
"   c #010101",
".  c #090400",
"X  c #0D0805",
"o  c #0D0B09",
"O  c #100600",
"+  c #140E0B",
"@  c #200800",
"#  c #2C0F00",
"$  c #2B190E",
"%  c #371604",
"&  c #3B1601",
"*  c #3B1B04",
"=  c #3A1D06",
"-  c #271C12",
";  c #461B02",
":  c #4B1D02",
">  c #521F02",
",  c #492702",
"<  c #492803",
"1  c #5E2504",
"2  c #502004",
"3  c #5E3200",
"4  c #632602",
"5  c #6C2C07",
"6  c #7D2E03",
"7  c #772E04",
"8  c #663302",
"9  c #7B3005",
"0  c #733E03",
"q  c #783E00",
"w  c #8F0D00",
"e  c #910F00",
"r  c #951000",
"t  c #9A1400",
"y  c #AC0100",
"u  c #B40500",
"i  c #B30A00",
"p  c #BA0F01",
"a  c #A31800",
"s  c #AC1E00",
"d  c #A01600",
"f  c #B61000",
"g  c #BA1001",
"h  c #B01F00",
"j  c #8D3203",
"k  c #803103",
"l  c #933803",
"z  c #9C3903",
"x  c #933704",
"c  c #B42200",
"v  c #BB2500",
"b  c #BE2800",
"n  c #A63E04",
"m  c #AC3D03",
"M  c #CD0501",
"N  c #C61C01",
"B  c #F20100",
"V  c #FF0100",
"C  c #FD0B00",
"Z  c #FC1300",
"A  c #FB1C00",
"S  c #FF140D",
"D  c #CA2200",
"F  c #C02800",
"G  c #CB2F00",
"H  c #DB2000",
"J  c #CD3301",
"K  c #CB3806",
"L  c #C63A04",
"P  c #D43300",
"I  c #DB3600",
"U  c #D33904",
"Y  c #DE3900",
"T  c #DF3F08",
"R  c #F72100",
"E  c #FC2400",
"W  c #FC2D00",
"Q  c #F32F00",
"!  c #E13C00",
"~  c #EF3F00",
"^  c #F63400",
"/  c #FD3002",
"(  c #F43D00",
")  c #FE3A03",
"_  c #8E4B00",
"`  c #994B01",
"'  c #AA4004",
"]  c #A84E01",
"[  c #BE4605",
"{  c #B74708",
"}  c #A35401",
"|  c #B55901",
" . c #B66101",
".. c #BB6001",
"X. c #CC4303",
"o. c #C34805",
"O. c #C64203",
"+. c #DE4000",
"@. c #DE4F01",
"#. c #D44A04",
"$. c #CB5501",
"%. c #DC5204",
"&. c #DF5801",
"*. c #E54201",
"=. c #E94502",
"-. c #E34B01",
";. c #EC4A03",
":. c #F44201",
">. c #FF4502",
",. c #F14E03",
"<. c #FD4F02",
"1. c #E35401",
"2. c #ED5201",
"3. c #E45C01",
"4. c #EC5B03",
"5. c #F55304",
"6. c #F95605",
"7. c #F05C01",
"8. c #FE5E06",
"9. c #FF580F",
"0. c #DA6201",
"q. c #D96B01",
"w. c #DD7401",
"e. c #DB7900",
"r. c #E66201",
"t. c #ED6201",
"y. c #E46901",
"u. c #ED6A01",
"i. c #F36202",
"p. c #FE6106",
"a. c #F56C04",
"s. c #F86804",
"d. c #E27500",
"f. c #EB7301",
"g. c #E27A00",
"h. c #EB7C01",
"j. c #F27103",
"k. c #F37B01",
"l. c #FF5938",
"z. c #FF6841",
"x. c #DC8300",
"c. c #DD8D00",
"v. c #DB9400",
"b. c #D99800",
"n. c #E68401",
"m. c #EA8101",
"M. c #E28B00",
"N. c #F38201",
"B. c #F78C03",
"V. c #E19E00",
"C. c #F79800",
"Z. c #FF9D00",
"A. c #F69D18",
"S. c #E4A100",
"D. c #EBA700",
"F. c #EFA900",
"G. c #FFA600",
"H. c #F4AD00",
"J. c #FFA800",
"K. c #F0A000",
"L. c #FEB500",
"P. c #FFBA00",
"I. c #FFB609",
"U. c #FFB90C",
"Y. c #F8A21E",
"T. c #FFBB17",
"R. c #FFBD1D",
"E. c #FF9139",
"W. c #FFBF27",
"Q. c #FFC12A",
"!. c #FFC435",
"~. c #FFC639",
"^. c #FFA165",
"/. c #F6B467",
"(. c #FFBE77",
"). c #FFC846",
"_. c #FFCE5E",
"`. c #FCC769",
"'. c #FFD061",
"]. c #FFD36A",
"[. c #FFC87A",
"{. c #FFD674",
"}. c #FFD87D",
"|. c #FFDC86",
" X c #FFDC8A",
".X c #FFE18D",
"XX c None",
/* pixels */
"XXXXXXXXXXXXXXXXXXXXXXXXXXXXXXXXXXXXXXXXXXXXXXXXK K K K K L K K K K K L K L K L K XXXXXXXXXXXXXXXXXXXXXXXXXXXXXXXXXXXXXXXXXXXXXX",
"XXXXXXXXXXXXXXXXXXXXXXXXXXXXXXXXXXXXXXXXXXXXXXXXY T I P Y Y I Y Y U I I I T Y Y Y XXXXXXXXXXXXXXXXXXXXXXXXXXXXXXXXXXXXXXXXXXXXXX",
"XXXXXXXXXXXXXXXXXXXXXXXXXXXXXXXXXXXXXXXXXXXXXXX.+.+.T +.+.+.T T T +.T Y Y Y T T T XXXXXXXXXXXXXXXXXXXXXXXXXXXXXXXXXXXXXXXXXXXXXX",
"XXXXXXXXXXXXXXXXXXXXXXXXXXXXXXXXXXXXXXU Y U I 0.c.x.x.c.e.f.u.f.f.u.f.f.d.f.f.u.f.%.I I I I XXXXXXXXXXXXXXXXXXXXXXXXXXXXXXXXXXXX",
"XXXXXXXXXXXXXXXXXXXXXXXXXXXXXXXXXXXXI I Y Y I q.b.b.b.b.M.m.h.h.h.h.h.h.h.h.h.m.h.1.Y Y Y Y XXXXXXXXXXXXXXXXXXXXXXXXXXXXXXXXXXXX",
"XXXXXXXXXXXXXXXXXXXXXXXXXXXXXXXXXXXX3.u.t.u.t.m.S.V.b.b.v.M.n.M.M.n.h.h.h.h.h.h.h.r.1.1.-.1.#.XXXXXXXXXXXXXXXXXXXXXXXXXXXXXXXXXX",
"XXXXXXXXXXXXXXXXXXXXXXXXXXK Y Y T I N.P.L.L.L.L.P.L.b.b.v.b.b.b.b.c.h.h.h.h.h.h.h.h.h.h.h.h.3.! J @   . XXXXXXXXXXXXXXXXXXXXXXXX",
"XXXXXXXXXXXXXXXXXXXXXXXXXXK ! ! +.+.N.I.I.I.I.L.P.H.S.b.b.b.b.b.v.v.h.h.h.h.h.h.h.h.h.h.h.h.3.! L # . + XXXXXXXXXXXXXXXXXXXXXXXX",
"XXXXXXXXXXXXXXXXXXXXXXU U h.C.A././.`.].].].].~.L.L.H.H.D.b.b.b.b.v.v.v.m.h.h.h.h.h.h.f.s.s.s.y.y... .0 o   XXXXXXXXXXXXXXXXXXXX",
"XXXXXXXXXXXXXXXXXXXXXXY ! B.P.Q.|. X X X X X.X).L.L.L.P.F.b.b.b.b.b.b.b.n.h.h.h.h.h.h.h.8.8.a.h.h.h.N._     XXXXXXXXXXXXXXXXXXXX",
"XXXXXXXXXXXXXXXXXXXX{ 3.3.Y.Q.).|. X X X X X X_.Q.W.L.L.H.V.V.b.b.b.b.v.c.n.n.h.h.h.h.h.a.s.a.j.f.u.u.] , , - XXXXXXXXXXXXXXXXXX",
"XXXXXXXXXXXXXXXXU I r.L.L._.|.|. X|. X X X X X X X}.T.L.L.L.L.V.b.b.b.b.b.v.v.h.h.h.h.h.h.h.a.8.6.*.Y 1.g.w.=   o XXXXXXXXXXXXXX",
"XXXXXXXXXXXXXXXXU ! 3.L.L.'..X X|. X X X X X X X X}.T.L.L.L.L.S.b.b.b.b.b.b.c.h.h.h.h.h.h.h.a.8.8.! Y 1.h.d.=   o XXXXXXXXXXXXXX",
"XXXXXXXXXXXXK K q.e.M.L.L.'. X X X X X X X X X X X}.T.L.L.L.L.H.H.D.b.v.b.b.v.h.h.h.h.h.h.h.a.8.8.5.5.2.-.@.| } 0 o X XXXXXXXXXX",
"XXXXXXXXXXXX! +.x.b.S.L.L.'. X X X X X X X X X X X}.T.L.L.L.L.L.L.H.b.b.b.b.v.h.h.h.h.h.h.h.a.8.8.8.8.,.I T u.N.} .   XXXXXXXXXX",
"XXXXXXXXXXXXY +.x.b.V.L.L.]. X X X X X|. X X X X X}.T.L.L.L.P.L.L.H.b.b.b.b.v.n.h.h.h.h.h.h.j.s.s.8.8.5.I T u.k.} .   XXXXXXXXXX",
"XXXXXXXXXXXXY T x.b.b.L.L.'. X X X X X X X X X X X}.T.L.L.L.L.L.L.H.b.b.b.b.b.b.b.n.h.h.h.h.h.h.f.p.8.5.I ! 6.p.' .   XXXXXXXXXX",
"XXXXXXXXXXXXY T x.b.S.L.L.'. X X X X X X X X X X X}.T.L.L.L.L.L.L.H.b.b.b.b.b.b.b.M.h.h.h.h.h.h.h.p.8.,.Y ! 6.p.'     XXXXXXXXXX",
"XXXXXXXXI @.3.r.c.b.S.L.P.Q.~.). X X X X[.z.l.E.~.!.I.L.L.L.L.L.L.H.b.b.b.b.b.b.b.4.^ ( f.h.h.h.h.p.8.6.,.,.;.;.X.z x = o XXXXXX",
"XXXXXXY Y 1.m.h.v.b.S.L.L.L.L.W.|. X X.X(.S V 8.P.P.L.L.L.L.L.L.L.H.b.b.b.b.b.b.b.( V Z j.m.h.h.h.p.8.8.8.8.! I ;.8.8.:     XXXX",
"XXXXXXI Y 1.h.h.v.v.S.L.H.L.L.R.{.{.[.(.^.S V <.Z.G.J.L.L.L.L.L.L.F.b.b.b.b.v.x.x.^ V Z t.u.f.h.h.8.p.8.8.8.*.! *.8.8.:     XXXX",
"XXXXXXI Y 1.h.h.v.b.b.b.b.H.L.L.U.U.9.S S V V C Z E Z.P.L.L.L.S.v.b.b.b.b.b.d.A Z C V V C C :.m.h.p.8.8.8.8.! ! *.8.8.:     XXXX",
"XXXXXXY Y 1.h.h.v.v.b.b.b.H.L.L.L.L.>.V V V V V V Z Z.L.L.L.L.b.b.b.b.b.b.b.d.C V V V V V V :.h.f.p.8.8.8.8.! I =.p.8.;     XXXX",
"XXXXXX1.3.y.h.h.v.b.b.b.v.D.D.D.D.D.k.8.<.C V W 8.p.J.P.H.F.D.b.b.b.b.b.b.b.x.1.;.A V C ) :.7.h.h.p.8.8.8.8.*.Y *.,.;.z 9 5 + XX",
"U Y ! f.h.h.h.h.v.b.b.b.b.b.b.b.b.v.F.P.Z.Z V 8.P.P.L.L.F.b.b.b.b.b.b.b.b.b.b.b.b.~ V Z f.n.h.h.h.p.8.8.8.8.! Y U ! ! ,.p.o..   ",
"K Y T f.h.h.h.h.v.b.b.b.b.b.b.b.b.b.D.J.B.E C 8.J.J.L.L.D.b.b.b.b.b.b.b.b.b.v.c.c.( C A u.f.f.h.f.p.8.8.8.8.*.Y Y Y ! 5.8.o..   ",
"K I T f.n.h.h.h.c.b.b.b.b.b.b.b.b.b.,.A ^ d.x.2.A W M.b.b.v.b.b.b.b.b.b.b.b.e.R A ,.u.4.A Z ,.h.h.p.8.8.8.8.*.Y Y Y ! 5.8.o..   ",
"K I Y f.h.h.h.h.v.b.b.b.b.b.b.b.b.v.( V Z v.b.;.V C x.b.b.b.b.b.b.b.b.b.b.b.w.C V ,.h.a.C V ( h.h.p.8.8.8.8.! Y Y Y Y ,.p.o..   ",
"K ! *.f.h.h.h.h.M.c.v.v.b.b.b.b.b.b.r.~ ;.v.b.y.:.;.c.b.b.b.b.b.b.b.b.b.b.b.x.( ^ t.h.f.( ^ 5.h.h.p.8.8.8.8.*.Y Y Y ! 5.p.o..   ",
"K Y +.y.h.h.h.h.h.h.n.v.b.b.b.b.b.b.b.b.b.b.b.b.b.b.b.b.b.b.b.b.v.b.b.b.v.b.v.h.h.h.h.h.h.h.h.h.f.p.p.8.8.6.*.Y Y Y Y 5.8.o..   ",
"U Y T f.h.h.h.h.h.h.n.v.b.v.b.b.b.b.b.b.b.b.b.b.b.b.b.b.b.b.b.b.b.b.b.b.v.v.v.h.h.h.h.h.h.h.h.h.h.p.8.8.8.8.! Y Y Y Y 5.8.o..   ",
"K Y T f.h.h.h.h.h.h.h.n.n.v.b.b.b.b.b.b.b.b.b.b.b.b.b.b.b.b.b.b.b.b.b.b.M.n.m.h.h.h.h.h.h.h.h.h.h.p.8.8.8.8.~ I Y Y ! 5.p.o..   ",
"K Y Y f.h.h.h.h.h.h.h.h.h.c.b.v.b.v.b.b.b.b.b.b.v.b.b.b.b.b.b.b.b.b.b.b.n.h.h.h.h.h.h.h.h.h.h.h.h.p.8.8.8.8.! Y Y Y ! 5.8.o..   ",
"K I +.f.h.h.h.h.h.h.h.h.h.M.v.v.v.v.v.b.b.b.b.b.b.b.b.b.b.b.v.b.b.v.v.M.m.h.h.h.h.h.h.h.h.h.h.j.a.p.p.6.5.5.! ! Y Y ! ,.8.o..   ",
"K Y T f.h.h.h.h.h.h.h.h.h.h.h.h.h.h.c.v.b.b.b.b.b.b.b.b.b.b.b.b.b.c.h.h.h.h.h.h.h.h.h.h.h.h.a.8.8.8.p.,.Y I Y Y ! Y ! 5.8.o..   ",
"K Y T f.h.h.h.h.h.h.h.h.h.h.h.h.h.h.c.b.b.b.v.v.b.b.b.b.b.b.b.b.b.v.h.h.h.h.h.h.h.h.h.h.h.h.a.8.8.8.p.,.Y Y Y I I Y Y 5.p.o..   ",
"U Y ! f.h.j.s.s.f.h.h.h.h.h.h.h.h.h.h.n.f.( Q 4.n.n.n.M.n.n.n.n.n.n.h.h.h.h.h.h.h.,.R ^ f.h.a.8.8.8.p.,.Y Y c s v Y ! 5.p.o..   ",
"K Y +.u.h.j.8.p.k.h.h.h.h.h.h.h.h.h.h.m.u.C V ( m.h.h.h.h.h.h.h.h.h.h.h.h.h.h.h.h.^ V Z j.m.a.8.8.p.8.,.Y I a e s Y Y 5.8.o..   ",
"K I +.f.h.j.8.8.j.f.f.h.h.h.h.h.h.h.u.i.,.C V W t.i.f.h.h.h.h.h.h.h.h.h.h.h.f.t.i.E V C &.0.4.p.8.6.6.;.Y I h a h Y Y 5.8.o..   ",
"K I Y f.h.j.8.8.p.p.s.h.h.h.h.h.h.h.^ C C V V C C Z u.h.h.h.h.h.h.h.h.h.h.h.i.Z V C V B i i U p.8.! Y ! Y Y I I Y ! ! 5.p.o..   ",
"U T T f.h.j.8.8.8.8.s.h.h.h.h.h.h.h.^ V V V V V V C u.h.h.h.h.h.h.h.h.h.h.h.7.C V V V B u y P 9.6.! I ! ! ! I Y Y Y Y 5.8.o..   ",
"XXXXXX8 3 ` j.a.p.8.p.a.s.f.h.h.h.h.7.,.:.C V R ,.2.f.m.h.h.h.h.h.h.h.h.h.h.f.5.,.H M M I Y ~ =.=.! ! G h h P Y ! ,.,.j 4 1 XXXX",
"XXXXXX    3 h.h.s.p.8.8.p.j.h.h.h.h.h.m.u.C V :.h.h.h.h.h.h.h.h.h.h.h.h.h.h.h.m.h.L y g 9.p.,.I ! ! ! v w r G Y *.8.8.;     XXXX",
"XXXXXX    8 h.h.6.6.8.8.8.j.h.j.f.h.a.u.7.E Z :.u.u.h.h.h.h.h.h.h.h.h.h.h.h.f.y.0.J p N ;.,.*.! I P P F d a P Y =.8.6.,     XXXX",
"XXXXXX    3 h.h.-.! =.8.8.p.p.p.8.p.W C A u.f.:.C A u.h.h.h.h.h.h.h.h.h.s.p.;.f i Y 6.,.g i N ! P a t h P P ! Y =.8.8.:     XXXX",
"XXXXXX    3 k.h.-.Y *.8.8.8.8.8.8.8.E V Z f.m.( V C a.h.h.h.h.h.h.h.h.h.s.8.=.u y T p.,.i y N ! P d e h ! Y ! I =.8.8.:     XXXX",
"XXXXXXXXXX, 0 q $.3.1.;.;.8.9.p.8.8.>.W ) s.a.6.W ) s.a.a.a.a.a.a.a.a.a.p.8.5.I P *.;.=.D N h v h t e h Y Y ;.,.O.6 7 * XXXXXXXX",
"XXXXXXXXXXXX  .  .h.u.Y Y 5.p.8.8.8.p.8.8.8.8.8.p.8.8.8.8.8.8.8.8.8.8.8.8.8.8.p.8.=.Y Y Y ! F e t e t h Y ! 6.p.'     XXXXXXXXXX",
"XXXXXXXXXXXX  O ..k.r.Y Y 5.6.8.8.6.8.8.8.8.p.8.9.8.8.8.8.8.8.8.8.8.8.8.8.6.6.6.8.*.Y Y I P h e e t t v Y ! 6.8.'     XXXXXXXXXX",
"XXXXXXXXXXXX  . o.p.5.Y Y T ! T ! ! 5.8.8.8.8.8.p.p.8.8.8.8.8.p.8.8.p.8.;.~ ! ! ! ! Y P a d t t t G P P Y ! 6.8.' .   XXXXXXXXXX",
"XXXXXXXXXXXX  O o.p.6.Y Y Y Y Y Y Y 5.p.8.p.8.8.8.p.p.8.p.8.8.8.p.8.8.8.*.Y ! ! Y ! ! P t e e e t P ! ! Y ! 6.p.'     XXXXXXXXXX",
"XXXXXXXXXXXX. + 9 l ' ;.;.! Y Y Y Y =.,.,.,.,.,.,.,.,.,.,.,.,.,.,.,.,.,.! Y P F v v F v v h h h v P ! ! ;.*.n x 5 + o XXXXXXXXXX",
"XXXXXXXXXXXXXXXX    2 8.8.=.Y Y Y Y Y Y Y Y Y Y Y Y Y Y Y Y Y Y Y Y Y Y ! ! G e e e e d I ! Y Y ! Y Y ;.8.4.%   . XXXXXXXXXXXXXX",
"XXXXXXXXXXXXXXXX    , 1.4.*.Y Y Y ! Y Y Y Y Y Y Y Y I I I I I I I I I I P Y G t t t t a P Y Y ! ! ! ! *.4.%.*     XXXXXXXXXXXXXX",
"XXXXXXXXXXXXXXXXXXXX$ % & { 6.6.6.6.*.! Y Y Y Y Y P s a d a a a a a d a d a s G G P G P Y ! ;.6.5.6.6.n % % - XXXXXXXXXXXXXXXXXX",
"XXXXXXXXXXXXXXXXXXXXXX    { p.p.8.p.:.I I Y Y ! Y I t e e e e e e e e e e e a Y Y Y Y Y I I ,.p.8.8.p.z     XXXXXXXXXXXXXXXXXXXX",
"XXXXXXXXXXXXXXXXXXXXXXX o 7 n n n n X.=.=.=.=.! Y I c s s s s s s s s s s s v I Y *.=.=.=.=.O.n n n n 5 o XXXXXXXXXXXXXXXXXXXXXX",
"XXXXXXXXXXXXXXXXXXXXXXXXXXo .       z p.8.8.8.,.I Y Y Y Y Y Y Y Y Y Y Y Y Y Y Y Y ,.8.8.8.p.6     .   o XXXXXXXXXXXXXXXXXXXXXXXX",
"XXXXXXXXXXXXXXXXXXXXXXXXXXXX        z 8.8.6.i.;.Y Y Y ! Y ! ! Y Y Y ! Y Y ! Y Y Y ;.6.8.8.8.7         XXXXXXXXXXXXXXXXXXXXXXXXXX",
"XXXXXXXXXXXXXXXXXXXXXXXXXXXXXXXXXXXX; ; ; ; ; z 5.5.5.5.5.5.5.5.5.5.5.5.5.5.5.5.4.j ; ; ; ; * XXXXXXXXXXXXXXXXXXXXXXXXXXXXXXXXXX",
"XXXXXXXXXXXXXXXXXXXXXXXXXXXXXXXXXXXX          k p.p.p.8.8.p.8.p.p.8.p.8.p.p.p.8.p.4         XXXXXXXXXXXXXXXXXXXXXXXXXXXXXXXXXXXX",
"XXXXXXXXXXXXXXXXXXXXXXXXXXXXXXXXXXXXXX        7 [ o.[ [ [ o.[ [ [ [ [ o.[ [ [ [ [ 1         XXXXXXXXXXXXXXXXXXXXXXXXXXXXXXXXXXXX",
"XXXXXXXXXXXXXXXXXXXXXXXXXXXXXXXXXXXXXXXXXXXXXXXX.   . . .   .   . . .   .   . . . XXXXXXXXXXXXXXXXXXXXXXXXXXXXXXXXXXXXXXXXXXXXXX",
"XXXXXXXXXXXXXXXXXXXXXXXXXXXXXXXXXXXXXXXXXXXXXXXX                                  XXXXXXXXXXXXXXXXXXXXXXXXXXXXXXXXXXXXXXXXXXXXXX"
};
