/* XPM */
static char *result[] = {
/* columns rows colors chars-per-pixel */
"24 24 115 2 ",
"   c #211301",
".  c #2D1202",
"X  c #321402",
"o  c #3B1702",
"O  c #351D03",
"+  c #431902",
"@  c #4C1D02",
"#  c #591E01",
"$  c #5C2303",
"%  c #532B03",
"&  c #622403",
"*  c #772C03",
"=  c #7B2C03",
"-  c #783B01",
";  c #9E1600",
":  c #AD1E00",
">  c #812F04",
",  c #873003",
"<  c #8C3203",
"1  c #923503",
"2  c #B22100",
"3  c #BA2400",
"4  c #D51C02",
"5  c #FD0E00",
"6  c #E81501",
"7  c #FB1500",
"8  c #FC1C00",
"9  c #C42B00",
"0  c #CA2E00",
"q  c #C13B04",
"w  c #D63301",
"e  c #D93500",
"r  c #DB3C01",
"t  c #E22400",
"y  c #F92600",
"u  c #F42B00",
"i  c #FA2C00",
"p  c #E93602",
"a  c #E23D01",
"s  c #F63A01",
"d  c #964801",
"f  c #D74702",
"g  c #DC4202",
"h  c #DB4D03",
"j  c #CB5901",
"k  c #DB5402",
"l  c #DE5B00",
"z  c #E54302",
"x  c #EA4602",
"c  c #E34D04",
"v  c #EA4A03",
"b  c #F44301",
"n  c #F84502",
"m  c #F14F03",
"M  c #FF4B05",
"N  c #E35103",
"B  c #EB5202",
"V  c #E45F03",
"C  c #E85C02",
"Z  c #F35303",
"A  c #FE5402",
"S  c #F05C01",
"D  c #FD5D05",
"F  c #CC6401",
"G  c #DF7A00",
"H  c #E66301",
"J  c #EF6301",
"K  c #E76F01",
"L  c #EB6C01",
"P  c #E6630E",
"I  c #FC6504",
"U  c #F56C03",
"Y  c #F96904",
"T  c #E57400",
"R  c #EA7201",
"E  c #E77A01",
"W  c #EB7C01",
"Q  c #F17302",
"!  c #DD8300",
"~  c #DD8E00",
"^  c #DB9400",
"/  c #D99800",
"(  c #E58601",
")  c #E88101",
"_  c #E18C00",
"`  c #FF8201",
"'  c #FC8E00",
"]  c #E09500",
"[  c #E09C00",
"{  c #F79D0D",
"}  c #FF9B08",
"|  c #EAA300",
" . c #EEA900",
".. c #FFA200",
"X. c #F5AE01",
"o. c #FDAD01",
"O. c #F9A608",
"+. c #F8A808",
"@. c #FFB703",
"#. c #FFB907",
"$. c #FDB70B",
"%. c #F9A719",
"&. c #FCBA17",
"*. c #FCBB1D",
"=. c #F7A526",
"-. c #FFBE21",
";. c #FFCB4C",
":. c #FFCE53",
">. c #FFD15B",
",. c #FBC56F",
"<. c #FFD46A",
"1. c #FFD673",
"2. c #FFDB85",
"3. c #FFDD8B",
"4. c None",
/* pixels */
"4.4.4.4.4.4.4.4.4.g r r r r r 4.4.4.4.4.4.4.4.4.",
"4.4.4.4.4.4.4.g l ! E K T K K k r 4.4.4.4.4.4.4.",
"4.4.4.4.4.g P { +. ./ ^ _ W W R K h # 4.4.4.4.4.",
"4.4.4.4.H =.,.1.:.$. .^ ~ _ W W Y L F % 4.4.4.4.",
"4.4.4.l %.1.3.3.2.;.o.I m ~ ( W W Y m j % 4.4.4.",
"4.4.f _ *.2.3.3.3.>.` 8 5 H ~ W W Y D c j O 4.4.",
"4.4.k ] &.1.3.3.2.;...A b ! / ( W W I x B $ 4.4.",
"4.g R ^ X.-.<.<.;.#.` I U H / ( W W Y D z h X 4.",
"4.h E ^ | X.+.} #.@.@.[ ^ ^ ^ _ P R Y D x c & 4.",
"g R ) ^ / ^ B i ' X.| / / / / T y s I D z a h X ",
"g R ) ^ / ! u 5 B ^ / / ^ ^ ^ B 5 8 M D z a N . ",
"g R W E ~ ~ B x T ^ / / / ^ ( J s n D D a p h X ",
"g R W W ) T B E C / / / ^ ( W Z S M M Z z r c X ",
"g R Q W W W ) ( _ _ _ _ ( W W W W Y D z 9 r c . ",
"g L I U W W W W L S W W W W J J Q I Z a 9 w c . ",
"q d H I U W W L i 7 S W W S 8 t B Z a 9 w c 1 . ",
"4.  F S D Y Q L y 7 Z ) W D 6 4 a a 3 3 w N X 4.",
"4.4.- k B D I C r p h U Y c w w w 9 : 0 x , 4.4.",
"4.4.. k a x m Z x Z x D D a w w 3 : : w B o 4.4.",
"4.4.4.* c r p x x x x x x z 9 2 3 9 w c > 4.4.4.",
"4.4.4.4.* c v a a 0 : : : : 3 9 w v B > 4.4.4.4.",
"4.4.4.4.4.@ = c v w 0 0 0 0 e x m , @ 4.4.4.4.4.",
"4.4.4.4.4.4.4.+ = B B B B B B < + 4.4.4.4.4.4.4.",
"4.4.4.4.4.4.4.4.4.+ + o + + + X 4.4.4.4.4.4.4.4."
};
