/* XPM */
static char *result[] = {
/* columns rows colors chars-per-pixel */
"64 64 198 2 ",
"   c #010101",
".  c #0D0501",
"X  c #090909",
"o  c #130601",
"O  c #1B0C01",
"+  c #140802",
"@  c #1E1308",
"#  c #210C01",
"$  c #251202",
"%  c #2A1707",
"&  c #341402",
"*  c #3A1C00",
"=  c #391904",
"-  c #3E2305",
";  c #451C04",
":  c #551F02",
">  c #472205",
",  c #5C2303",
"<  c #542B00",
"1  c #6B2904",
"2  c #682703",
"3  c #712A03",
"4  c #7A2F03",
"5  c #6F3B02",
"6  c #733D02",
"7  c #794101",
"8  c #8F0E00",
"9  c #930F00",
"0  c #9C0A00",
"q  c #951100",
"w  c #991300",
"e  c #AD0100",
"r  c #B10200",
"t  c #B50A01",
"y  c #BA0F00",
"u  c #A21400",
"i  c #A41900",
"p  c #AB1D00",
"a  c #BD1300",
"s  c #BB1E00",
"d  c #833203",
"f  c #893505",
"g  c #933704",
"h  c #9A3804",
"j  c #B32100",
"k  c #BD2600",
"l  c #BD2C00",
"z  c #A23C04",
"x  c #AD3705",
"c  c #C41C01",
"v  c #C21101",
"b  c #E00200",
"n  c #F30300",
"m  c #FF0100",
"M  c #FE0C01",
"N  c #FF0E09",
"B  c #FC1400",
"V  c #F71E00",
"C  c #FC1B00",
"Z  c #CB2401",
"A  c #C42B00",
"S  c #CA2D00",
"D  c #C32300",
"F  c #D32C01",
"G  c #D02102",
"H  c #CD3302",
"J  c #CE3805",
"K  c #C23A06",
"L  c #D43301",
"P  c #DB3700",
"I  c #D13805",
"U  c #DE3900",
"Y  c #E92600",
"T  c #E92900",
"R  c #E02B03",
"E  c #F62300",
"W  c #FB2501",
"Q  c #F52C00",
"!  c #FB2A01",
"~  c #E13C01",
"^  c #E93A01",
"/  c #F53300",
"(  c #FE3302",
")  c #F23C00",
"_  c #FF3B03",
"`  c #FF2B1B",
"'  c #FF2115",
"]  c #FF301E",
"[  c #FF3B25",
"{  c #8C4501",
"}  c #914901",
"|  c #AC4004",
" . c #AF4D00",
".. c #BA4605",
"X. c #CB4B05",
"o. c #C54604",
"O. c #D54403",
"+. c #DD4301",
"@. c #DD4D01",
"#. c #D34B05",
"$. c #D55104",
"%. c #D95204",
"&. c #DB5B02",
"*. c #E34201",
"=. c #EB4501",
"-. c #E14A01",
";. c #EC4A02",
":. c #F44301",
">. c #FF4404",
",. c #F14E03",
"<. c #FF4B03",
"1. c #E45503",
"2. c #EB5301",
"3. c #E65A01",
"4. c #E95C01",
"5. c #F45304",
"6. c #F95605",
"7. c #F25A04",
"8. c #FE5D06",
"9. c #E45416",
"0. c #CE6301",
"q. c #CC6C01",
"w. c #D86D01",
"e. c #DA7301",
"r. c #D67101",
"t. c #E66301",
"y. c #EF6401",
"u. c #E56A00",
"i. c #ED6C01",
"p. c #F06001",
"a. c #FE6106",
"s. c #F56C03",
"d. c #FD6C01",
"f. c #FF6D0C",
"g. c #E47401",
"h. c #EC7501",
"j. c #E27900",
"k. c #EB7C01",
"l. c #F17303",
"z. c #F17C02",
"x. c #FC7702",
"c. c #FF5939",
"v. c #FF5633",
"b. c #FF623D",
"n. c #FF6942",
"m. c #DD8200",
"M. c #DC8C00",
"N. c #DA9400",
"B. c #D79E00",
"V. c #D99900",
"C. c #E58401",
"Z. c #EA8001",
"A. c #E18C00",
"S. c #F28300",
"D. c #FF8200",
"F. c #FF8800",
"G. c #E29F00",
"H. c #EC9C00",
"J. c #F59200",
"K. c #FF9500",
"L. c #FD9B00",
"P. c #F19B00",
"I. c #F69C16",
"U. c #D7A000",
"Y. c #E5A100",
"T. c #EAA500",
"R. c #EFA900",
"E. c #FFA400",
"W. c #F4AD00",
"Q. c #FFAB00",
"!. c #FFB500",
"~. c #FFB901",
"^. c #FFB709",
"/. c #FFBC16",
"(. c #FFBC1B",
"). c #FF8D38",
"_. c #FCB830",
"`. c #FFC12B",
"'. c #FFC536",
"]. c #FFAE47",
"[. c #FFA96B",
"{. c #FFB16F",
"}. c #FFB571",
"|. c #FFC944",
" X c #FFCF5B",
".X c #FFD15D",
"XX c #FFD36D",
"oX c #FFD266",
"OX c #FFC57B",
"+X c #FCCF7F",
"@X c #FFD97F",
"#X c #FED67F",
"$X c #FFCF82",
"%X c #FFD485",
"&X c #FFDA82",
"*X c #FFDC8B",
"=X c #FFE08D",
"-X c None",
/* pixels */
"-X-X-X-X-X-X-X-X-X-X-X-X-X-X-X-X-X-X-X-X-X-X-X-XI J J J I I I I J I H I J I J J J -X-X-X-X-X-X-X-X-X-X-X-X-X-X-X-X-X-X-X-X-X-X-X",
"-X-X-X-X-X-X-X-X-X-X-X-X-X-X-X-X-X-X-X-X-X-X-XK ~ U U ~ P U U ~ ~ P ~ P P ~ P ~ U -X-X-X-X-X-X-X-X-X-X-X-X-X-X-X-X-X-X-X-X-X-X-X",
"-X-X-X-X-X-X-X-X-X-X-X-X-X-X-X-X-X-X-X-X-X-X-XX.@.@.@.@.@.+.-.-.-.@.-.-.-.@.-.*.-.-X-X-X-X-X-X-X-X-X-X-X-X-X-X-X-X-X-X-X-X-X-X-X",
"-X-X-X-X-X-X-X-X-X-X-X-X-X-X-X-X-X-XI P P U P r.N.N.N.N.C.k.h.k.h.h.h.k.h.h.k.h.k.@.P P U I -X-X-X-X-X-X-X-X-X-X-X-X-X-X-X-X-X-X",
"-X-X-X-X-X-X-X-X-X-X-X-X-X-X-X-X-X-XI ~ U U U e.B.N.V.V.A.k.k.k.k.k.k.k.k.k.k.k.k.-.U U U P -X-X-X-X-X-X-X-X-X-X-X-X-X-X-X-X-X-X",
"-X-X-X-X-X-X-X-X-X-X-X-X-XJ J J J J g.S.S.S.S.P.R.T.V.V.N.A.A.k.k.k.k.k.k.k.k.k.k.i.t.t.t.t.#.J x # X -X-X-X-X-X-X-X-X-X-X-X-X-X",
"-X-X-X-X-X-X-X-X-X-X-X-X-XP P P P ~ J.~.~.~.!.!.~.W.V.V.V.V.N.k.k.k.k.k.k.k.k.k.k.k.k.Z.k.k.1.U l +   X -X-X-X-X-X-X-X-X-X-X-X-X",
"-X-X-X-X-X-X-X-X-X-X-X-X-X@.-.1.9.9.I././././.^.!.!.Y.V.G.V.V.C.C.k.C.k.k.k.k.k.k.k.k.k.h.h.1.*.K = $ % -X-X-X-X-X-X-X-X-X-X-X-X",
"-X-X-X-X-X-X-X-X-X-X-XP U J.Q._.+X+X#X#X@X@X@X'.!.!.!.!.Y.N.V.V.V.N.V.N.C.h.k.k.k.k.k.l.a.a.s.k.g.e.e.5     -X-X-X-X-X-X-X-X-X-X",
"-X-X-X-X-X-X-X-X-X-X-XU +.L.!.`.*X*X*X*X*X*X=X'.!.!.!.!.T.N.V.V.V.V.V.N.C.k.k.k.Z.k.k.l.8.8.l.k.k.k.S.6     -X-X-X-X-X-X-X-X-X-X",
"-X-X-X-X-X-X-X-X-X-X&.h.z._.|..X*X*X*X*X*X*X*X).6.d.Q.~.W.R.T.V.N.V.V.V.A.A.h.) ) s.Z.h.l.s.s.s.s.3.3. .7 7 % -X-X-X-X-X-X-X-X-X",
"-X-X-X-X-X-X-X-XI P i.~.^.XX=X*X*X*X*X*X*X*X*Xv.m C E.~.!.~.!.G.V.V.V.V.V.B.u.m m 7.Z.Z.k.h.s.8.6.U U 4.Z.r.$     -X-X-X-X-X-X-X",
"-X-X-X-X-X-X-X-XO.U h.!.^.XX=X*X*X*X*X*X%XOXOXv.m C K.E.Q.!.!.G.N.V.B.N.M.M.3.m m ,.h.h.h.k.s.8.8.~ U 3.h.w.* O @ -X-X-X-X-X-X-X",
"-X-X-X-X-X-XU +.m.M.H.!.^.XX*X*X*X*X*X*X}.` ' N m m C C d.!.!.W.!.R.N.N.^ B B m m M B ! h.k.s.8.8.8.8.;.+.@.0.q.7 X   -X-X-X-X-X",
"-X-X-X-X-XK U +.M.B.Y.!.^.XX=X*X*X*X*X=X[.N m m m m m m 8.!.!.!.!.R.N.M.V m m m m m m V h.k.s.8.8.8.8.;.U U h.S.{     -X-X-X-X-X",
"-X-X-X-X-X-XU I M.V.Y.!.^.XX*X*X*X*X*X=X}.n.b.` m M <.<.F.!.!.!.!.R.B.N.2.=.Q m m W / :.k.k.l.s.s.a.a.;.U U s.s.{     -X-X-X-X-X",
"-X-X-X-X-X-X~ +.M.N.Y.!.^.XX*X*X*X*X*X*X*X*X*Xc.m C Q.~.!.!.!.!.!.R.V.V.V.B.u.m m 7.Z.h.k.k.k.k.l.a.a.;.U ~ 6.a.g     -X-X-X-X-X",
"-X-X-X-X-XK ~ +.M.B.Y.!.^.oX&X&X*X*X*X*X*X$X%Xc.M ! L.Q.!.!.!.!.!.R.V.V.N.N.t.B M 7.h.h.k.k.k.k.h.a.8.,.U *.6.a.h + + -X-X-X-X-X",
"-X-X-XI J &.i.g.M.N.T.!.!./.(.|.*X*X*X*X}.[ ] f.L.D.! W d.!.!.!.!.R.V.N.) V ^ j.j./ C / h.k.k.k.h.a.8.8.6.5.=.*.O.X...&   -X-X-X",
"-X-X-XU P 3.k.Z.N.V.T.!.~.!.!.`.*X*X*X=X[.N m d.~.L.M m 8.!.!.!.!.R.V.N.V m Q V.B.Q m C h.k.k.k.l.a.8.8.8.8.~ U ;.8.7.=   X -X-X",
"-X-X-XU ~ 3.h.Z.N.V.G.W.W.!.!.(. X X X X].>.>.F.!.E.<._ x.!.!.W.W.G.V.N.;./ 1.V.N.;.W ) k.k.k.k.z.a.8.a.8.8.~ U ;.8.7.&     -X-X",
"-X-X-XU P 3.k.Z.N.V.N.V.V.W.!.!.!.!.!.!.!.!.!.!.!.!.!.!.!.!.!.V.V.V.V.V.N.V.V.V.B.C.k.k.k.k.k.k.k.8.8.8.8.8.~ U ;.8.5.&   X -X-X",
"-X-X-XU U 3.k.Z.N.V.V.V.V.W.!.!.!.!.!.!.!.!.!.!.!.!.!.!.!.!.!.V.V.V.V.V.V.V.V.V.V.C.k.k.k.k.k.k.h.a.8.a.8.6.~ U ;.8.7.&   X -X-X",
"-XP +.t.u.h.k.Z.N.V.V.V.V.G.G.G.G.G.W.!.!.!.!.!.!.!.!.!.W.Y.G.V.V.V.N.V.N.V.V.V.V.C.k.k.k.k.k.k.l.a.8.8.8.8.~ U ~ =.*.o...f X   ",
"~ U *.h.Z.k.k.C.N.V.V.V.N.B.N.N.V.B.W.!.!.!.!.!.!.!.!.~.T.V.V.B.V.V.V.B.V.V.V.V.V.C.k.k.k.k.k.k.h.a.8.8.8.8.~ U U U ~ 6.a.|     ",
"U U +.h.k.k.k.k.N.V.V.V.B.N.B.M.g.g.H.W.W.W.W.W.W.W.W.W.Y.B.N.g.g.e.V.V.V.V.V.V.N.C.k.k.k.k.i.7.7.8.a.8.8.8.~ U U U ~ 5.a.|     ",
"~ U +.h.k.k.k.k.M.V.V.V.B.N.B.u.M M u.B.V.V.V.V.V.V.V.V.B.N.M.V m :.V.V.N.B.N.N.N.C.k.k.k.k./ m C 6.a.8.8.8.~ ~ U U U 8.a.| .   ",
"U U +.h.k.k.k.k.N.V.V.V.N.N.B.u.m m u.V.V.V.V.V.V.V.V.V.N.N.M.C m =.V.V.N.N.B.N.N.C.k.k.k.k./ m B 6.8.a.8.6.~ U U U ~ 5.8.|     ",
"~ P +.h.k.k.k.k.C.C.A.V.V.;.) E m m Q ) ;.N.V.V.V.V.V.V.u.) / M m C ) =.M.V.N.C.C.k.k.i./ Q B m M c Z =.8.8.~ U U U U 6.a.|     ",
"~ ~ +.h.k.k.k.k.k.k.C.V.N.E m m m m m m E N.V.V.V.V.V.V.=.m m m m m m m e.V.A.k.k.k.k.y.m m m m n r e L a.6.~ ~ U U U 6.a.x     ",
"P ~ ~ h.k.k.k.k.k.k.C.V.M./ V B m m C V ^ N.V.V.V.V.V.V.4.V C m m M V Q j.V.A.k.k.k.k.y.C C M m n v a U a.8.-.U U U ~ 6.a.|     ",
"~ P *.h.k.k.k.k.k.k.k.k.k.A.N.t.m m t.M.N.V.V.V.N.V.V.V.N.M.e.V m ^ M.M.C.Z.k.k.k.k.k.k.h.h.Q m N 6.6.6.8.8.~ U U U U 6.a.| .   ",
"~ P +.h.k.k.k.k.k.k.k.k.k.N.B.u.m m u.B.N.B.V.V.V.V.V.V.B.B.M.B m :.B.V.C.k.k.k.k.k.k.k.Z.Z.Q m B 8.8.8.8.8.~ U U U U 6.a.|     ",
"U U *.h.k.k.k.k.k.k.k.k.h.2.=.=.:.:.=.=.3.M.V.V.V.V.V.V.u.=.;.2.3.;.;.;.h.h.k.k.k.k.k.s.) ) _ _ / F F ~ ;.=.~ U U U U 6.a.|     ",
"~ P +.k.k.k.k.k.k.k.k.k.h.C m E Z.Z.W m E N.B.B.V.V.V.V.;.m M m.B.4.m m p.k.k.k.k.k.Z.p.m m _ a.,.t e c U U ~ U U U U 6.a.|     ",
"~ P *.h.k.k.k.h.k.k.k.k.h.! M / k.k./ M / M.N.N.V.N.V.V.;.M V C.V.3.B B p.Z.k.k.k.k.Z.p.B B _ 8.5.a t Z ~ U I P P U ~ 6.a.|     ",
"~ ~ ~ h.k.l.a.a.h.k.k.k.k.h.i.l.k.k.h.s.h.k.k.k.k.k.k.C.h.i.h.k.k.k.s.i.k.k.k.k.k.k.k.h.h.i.a.8.8.5.6.*.U I i w k U ~ 6.a.| X   ",
"~ P +.h.k.l.8.8.z.k.k.k.k.k.k.k.k.k.k.k.k.k.k.k.k.k.k.k.k.k.k.k.k.k.Z.k.k.k.k.k.k.k.k.k.k.Z.s.8.8.8.a.,.U P w 9 j U ~ 5.a.x     ",
"~ ~ *.h.k.s.8.a.s.s.l.k.k.k.k.k.k.k.k.k.k.k.k.k.k.k.k.k.k.k.k.k.k.k.k.k.k.k.k.k.k.k.Z.h.s.s.a.a.8.5.,.*.U P k j A U ~ 6.a.|     ",
"~ P +.h.k.s.8.8.a.8.s.k.k.k.k.k.k.k.k.k.k.k.k.k.k.k.k.k.k.k.k.k.k.k.k.k.k.k.k.Z.k.k.k.l.a.8.8.8.6.U P U U U U U U U ~ 6.a.|     ",
"L P O.w.e.i.a.a.8.8.s.k.k.k.k.k.k.k.k.k.k.k.k.h.h.h.k.k.k.k.k.k.k.k.k.k.k.k.h.h.h.k.k.l.a.8.8.8.6.~ U U P P U U U U ~ 2.7.z X   ",
"-X-X-X= % } z.l.a.8.a.a.a.l.k.k.k.k.k.k.k.k.k.:.B ! h.k.k.k.k.k.k.k.k.k.k.k.p.C C <.a.a.8.8.;.*.~ P ~ k w p L U ;.6.5.: % % -X-X",
"-X-X-X    7 z.h.a.8.8.8.a.h.k.k.k.k.k.k.k.k.k./ m B h.k.k.k.k.k.k.k.k.k.Z.Z.5.m m >.a.a.a.8.=.~ U U ~ j 9 w L ~ ;.a.7.&     -X-X",
"-X-X-X    7 S.h.7.5.6.8.a.s.l.l.l.l.h.k.h.5.5.W m M ,.5.y.k.k.k.k.k.k.k.&.$.P b b R U *.,.,.*.P P S A k p j L U ;.8.4.&   X -X-X",
"-X-X-X    7 k.h.*.P ;.8.8.8.8.8.8.8.l.k.4.M m m m m m m :.Z.k.k.k.k.k.h.k e e e e e e y P ~ P ~ L w q k U U U U ;.a.7.&   X -X-X",
"-X-X-X    7 j.g.+.U ;.8.8.8.a.8.a.a.l.k.p.M m m m m m m :.k.k.h.k.k.k.j.s e r e e r r y P P ~ P H w 8 k U U U ~ =.7.1.&   -X-X-X",
"-X-X-X-X-X- > < 0.i.4.*.=.6.8.a.8.8.a.s.8.<.<.C m N >.>.8.a.a.s.a.s.a.a.;.;.L r e c F F ~ ~ k i i q 9 k ~ ~ 5.6.z ; ; % -X-X-X-X",
"-X-X-X-X-X-X  O q.Z.t.P U 6.8.a.8.a.8.8.8.a.a.W m M 8.a.8.8.8.8.8.8.8.8.a.a.*.e e F ~ ~ ~ P p 9 9 9 q j U ~ 6.a.g     -X-X-X-X-X",
"-X-X-X-X-X-X  O 0.z.4.U ~ ,.5.5.5.5.8.8.8.>.>.! C W >.>.6.8.8.8.a.8.a.a.;.=.L a y Z F S S S p 9 q i p A U ~ 8.8.g     -X-X-X-X-X",
"-X-X-X-X-X-X  O $.a.,.U U U ~ ~ U ~ 5.8.>.N m _ a.<.M m ( 8.8.8.8.8.8.6.c e v U P a e e q w 9 9 i L P U U ~ 6.a.g     -X-X-X-X-X",
"-X-X-X-X-X-X  O $.8.,.P U U U U U ~ 6.a.<.m m _ a.6.N m ( 8.8.8.8.8.8.6.a e a U U a r e 9 q 9 q w P U U U ~ 6.a.g     -X-X-X-X-X",
"-X-X-X-X-X-X-X-X, : h 5.5.~ U U U P *.=.^ T T ^ =.^ T Y ^ =.=.=.=.;.;.=.F Z D p p u 0 u A A A A H P U =.6.-.1 : ; -X-X-X-X-X-X-X",
"-X-X-X-X-X-X-X-X    1 a.8.*.P ~ U U U P U U U U U U P ~ U U ~ U U U U U ~ ~ A 9 9 q 9 i U U U ~ U U P ,.a.1.#     -X-X-X-X-X-X-X",
"-X-X-X-X-X-X-X-X-X  , X.X.*.=.~ ~ *.~ U U U U U U P H L S L S H H H L S H H A u u u w j U U ~ ~ *.*.*.O.X...$   -X-X-X-X-X-X-X-X",
"-X-X-X-X-X-X-X-X-X-X-X. + X.8.8.8.8.*.U U U U U ~ L w w w w w w q w w w q q p P P P U P U ~ ,.8.8.8.8.d . o -X-X-X-X-X-X-X-X-X-X",
"-X-X-X-X-X-X-X-X-X-X-X  . X.8.8.8.8.=.U U U U U U L w 9 9 9 9 9 9 9 9 9 q q p U U U U U U U ,.8.8.8.a.4     -X-X-X-X-X-X-X-X-X-X",
"-X-X-X-X-X-X-X-X-X-X-X-X-X1 3 1 3 3 o.5.,.,.,.*.U P A k k k k k k D k k k k S U U =.,.,.,.,.z 1 3 3 3 > -X-X-X-X-X-X-X-X-X-X-X-X",
"-X-X-X-X-X-X-X-X-X-X-X-X-X          | a.a.a.a.;.U U U U ~ ~ ~ ~ U U U U ~ ~ U U U 6.8.a.8.a.2         -X-X-X-X-X-X-X-X-X-X-X-X-X",
"-X-X-X-X-X-X-X-X-X-X-X-X-X-X      . z %.%.%.$.*.~ ~ ~ *.~ ~ ~ ~ *.U ~ U *.~ ~ ~ ~ %.%.%.$.$.1   X     -X-X-X-X-X-X-X-X-X-X-X-X-X",
"-X-X-X-X-X-X-X-X-X-X-X-X-X-X-X-X-X-X-X# # # # z 6.8.8.6.6.8.6.8.8.8.8.8.8.6.8.8.5.2 O O # @ -X-X-X-X-X-X-X-X-X-X-X-X-X-X-X-X-X-X",
"-X-X-X-X-X-X-X-X-X-X-X-X-X-X-X-X-X-X-X        h a.a.a.a.8.a.a.a.a.a.a.8.8.a.a.8.8.;         -X-X-X-X-X-X-X-X-X-X-X-X-X-X-X-X-X-X",
"-X-X-X-X-X-X-X-X-X-X-X-X-X-X-X-X-X-X-X-X-X-XX 2 d d d d d d d d d d d d d d d d f = X -X-X-X-X-X-X-X-X-X-X-X-X-X-X-X-X-X-X-X-X-X",
"-X-X-X-X-X-X-X-X-X-X-X-X-X-X-X-X-X-X-X-X-X-X-XX                                   -X-X-X-X-X-X-X-X-X-X-X-X-X-X-X-X-X-X-X-X-X-X-X",
"-X-X-X-X-X-X-X-X-X-X-X-X-X-X-X-X-X-X-X-X-X-X-X-X                                  -X-X-X-X-X-X-X-X-X-X-X-X-X-X-X-X-X-X-X-X-X-X-X"
};
