/* XPM */
static char *result[] = {
/* columns rows colors chars-per-pixel */
"64 64 178 2 ",
"   c #010101",
".  c #0B0500",
"X  c #0F0803",
"o  c #0C0A09",
"O  c #140903",
"+  c #1C0B02",
"@  c #1F1004",
"#  c #14100C",
"$  c #221100",
"%  c #2C1001",
"&  c #2E1609",
"*  c #351401",
"=  c #3D1701",
"-  c #321A01",
";  c #3C1A03",
":  c #3F2101",
">  c #4F1D02",
",  c #461F09",
"<  c #531E02",
"1  c #452502",
"2  c #482704",
"3  c #572103",
"4  c #582701",
"5  c #5A3104",
"6  c #692703",
"7  c #602807",
"8  c #6B2803",
"9  c #672703",
"0  c #7D2F03",
"q  c #712A03",
"w  c #653400",
"e  c #7D3003",
"r  c #713800",
"t  c #8F0D00",
"y  c #920F00",
"u  c #951100",
"i  c #9B1400",
"p  c #A11700",
"a  c #A41900",
"s  c #AB1C00",
"d  c #892A0A",
"f  c #9A2700",
"g  c #823103",
"h  c #8C3504",
"j  c #953604",
"k  c #993A03",
"l  c #9C3703",
"z  c #B42200",
"x  c #B82400",
"c  c #BF2800",
"v  c #A73A03",
"b  c #BD370A",
"n  c #B83E03",
"m  c #FF0100",
"M  c #FD0C00",
"N  c #FC1400",
"B  c #FA1A00",
"V  c #C52B00",
"C  c #CA2E00",
"Z  c #CE3403",
"A  c #CF3805",
"S  c #C13709",
"D  c #D43401",
"F  c #DC3600",
"G  c #D53803",
"H  c #DE3900",
"J  c #F72200",
"K  c #FB2301",
"L  c #F62E00",
"P  c #FB2900",
"I  c #E23D01",
"U  c #F63200",
"Y  c #FC3102",
"T  c #F53E00",
"R  c #FF3C00",
"E  c #8E4300",
"W  c #9F5401",
"Q  c #AF4205",
"!  c #B74604",
"~  c #A05501",
"^  c #B65902",
"/  c #BB6201",
"(  c #C94604",
")  c #C64B05",
"_  c #CF4F05",
"`  c #C44209",
"'  c #DC4502",
"]  c #D54A05",
"[  c #DC4B01",
"{  c #D24603",
"}  c #D45005",
"|  c #DC5205",
" . c #E34301",
".. c #EA4502",
"X. c #E24C00",
"o. c #EC4A03",
"O. c #E24909",
"+. c #F44300",
"@. c #FF4200",
"#. c #F24E03",
"$. c #FC4C04",
"%. c #E55504",
"&. c #E95402",
"*. c #E55D02",
"=. c #E95B00",
"-. c #F55404",
";. c #F95705",
":. c #F25B04",
">. c #FE5D06",
",. c #E24B12",
"<. c #E45512",
"1. c #CD6C01",
"2. c #C06301",
"3. c #DE6103",
"4. c #DC7B01",
"5. c #E66501",
"6. c #EF6501",
"7. c #E56C00",
"8. c #EC6B01",
"9. c #F36403",
"0. c #FE6106",
"q. c #F46D03",
"w. c #F86804",
"e. c #E37401",
"r. c #EC7501",
"t. c #E27C00",
"y. c #EB7C01",
"u. c #EF7C0A",
"i. c #F17302",
"p. c #F87600",
"a. c #F07D01",
"s. c #DC8500",
"d. c #DD8E00",
"f. c #D79700",
"g. c #DA9500",
"h. c #D99800",
"j. c #E68301",
"k. c #E88101",
"l. c #E28A00",
"z. c #F18200",
"x. c #FF8600",
"c. c #ED9D00",
"v. c #FF9500",
"b. c #F69B01",
"n. c #FF9718",
"m. c #D7A000",
"M. c #E5A200",
"N. c #E9A400",
"B. c #EFA900",
"V. c #FBA400",
"C. c #F4AE00",
"Z. c #FEAC02",
"A. c #FFB501",
"S. c #FFB900",
"D. c #FAA812",
"F. c #FFBA15",
"G. c #FFBD1D",
"H. c #FFBF24",
"J. c #FFBF28",
"K. c #FCBA3A",
"L. c #FFC01F",
"P. c #FFC12B",
"I. c #FFC63E",
"U. c #FFC334",
"Y. c #FFC946",
"T. c #FFCB4F",
"R. c #FFCE59",
"E. c #FFD05F",
"W. c #FFCF62",
"Q. c #FFD164",
"!. c #FFD268",
"~. c #FBC87A",
"^. c #FFD674",
"/. c #FFD679",
"(. c #FFD87D",
"). c #FFDB87",
"_. c #FFDC8B",
"`. c None",
/* pixels */
"`.`.`.`.`.`.`.`.`.`.`.`.`.`.`.`.`.`.`.`.`.`.`.`.G G G G G G G G G G G G G G F G G `.`.`.`.`.`.`.`.`.`.`.`.`.`.`.`.`.`.`.`.`.`.`.",
"`.`.`.`.`.`.`.`.`.`.`.`.`.`.`.`.`.`.`.`.`.`.`.H H I H H H H H H H H H H H H H H G `.`.`.`.`.`.`.`.`.`.`.`.`.`.`.`.`.`.`.`.`.`.`.",
"`.`.`.`.`.`.`.`.`.`.`.`.`.`.`.`.`.`.`.`.`.`.`.] [ ' ' ' '  . . .' '  .'  .' '  .' `.`.`.`.`.`.`.`.`.`.`.`.`.`.`.`.`.`.`.`.`.`.`.",
"`.`.`.`.`.`.`.`.`.`.`.`.`.`.`.`.`.`.G H F F ' 4.g.g.d.g.t.r.y.y.r.r.r.r.y.r.r.r.r.' F H H F `.`.`.`.`.`.`.`.`.`.`.`.`.`.`.`.`.`.",
"`.`.`.`.`.`.`.`.`.`.`.`.`.`.`.`.`.`.G I H H H s.f.f.h.h.j.y.k.y.y.y.y.y.y.y.y.y.r. .H H H H `.`.`.`.`.`.`.`.`.`.`.`.`.`.`.`.`.`.",
"`.`.`.`.`.`.`.`.`.`.`.`.`.`.b b b S e.a.y.a.y.c.B.M.h.h.l.l.l.l.l.j.y.y.y.y.y.y.y.*.*.*.*.*.` b d o `.`.`.`.`.`.`.`.`.`.`.`.`.`.",
"`.`.`.`.`.`.`.`.`.`.`.`.`.F H H H  .V.S.A.A.A.A.A.C.f.h.h.h.h.h.h.l.y.y.y.y.y.y.y.y.y.y.y.y.X.I f     `.`.`.`.`.`.`.`.`.`.`.`.`.",
"`.`.`.`.`.`.`.`.`.`.`.`.`.[  .O.,.<.D.F.F.F.F.A.A.C.h.h.h.h.h.h.g.l.y.t.y.y.y.y.y.y.y.y.y.r.X.I v @ + `.`.`.`.`.`.`.`.`.`.`.`.`.",
"`.`.`.`.`.`.`.`.`.`.`.G ] b.V.K.~.~./.(.(.^.^.G.A.A.C.A.M.g.h.h.h.g.g.g.y.y.y.y.y.y.y.i.0.0.r.r.e.1.1.1     `.`.`.`.`.`.`.`.`.`.",
"`.`.`.`.`.`.`.`.`.`.G H  .Z.A.Y._._._._._._.).G.A.A.A.A.M.h.h.h.h.h.g.g.y.y.y.y.y.y.y.i.>.0.r.y.y.y.y.1     `.`.`.`.`.`.`.`.`.`.",
"`.`.`.`.`.`.`.`.`.`.3.8.a.K.I.Q._._._.)._._.).T.I.P.A.A.B.N.M.h.h.h.h.g.l.l.t.y.y.y.y.i.q.w.q.i.8.*.5.E w 5 # `.`.`.`.`.`.`.`.`.",
"`.`.`.`.`.`.`.`.H H z.A.F.)._._._._._._._._._._._.Q.S.A.A.A.C.h.g.h.h.h.h.h.l.y.y.y.y.y.y.y.0.>.-.H H 8.z./ X   `.`.`.`.`.`.`.`.",
"`.`.`.`.`.`.`.`.H H z.S.F.(._._._._._._.)._._._._.Q.A.A.A.A.C.h.h.h.g.h.h.h.l.y.y.y.y.y.y.y.0.>.-.I I 5.y.^ @ X `.`.`.`.`.`.`.`.",
"`.`.`.`.`.G I [ s.s.B.A.F.)._._.)._._._._._._._._.Q.A.A.A.A.A.A.A.M.h.h.h.h.l.y.y.y.y.y.y.y.w.>.>.;.;.O.X.[ 2.2.5     `.`.`.`.`.",
"`.`.`.`.`.G H [ f.h.B.A.F.(._.)._._._.)._._._._._.E.A.A.S.A.A.A.A.N.f.h.h.h.l.y.y.y.y.y.y.r.0.>.>.>.>...H  .u.z.w     `.`.`.`.`.",
"`.`.`.`.`.G H [ g.h.B.A.F.(._._._._._._._._._._._.E.F.A.A.A.A.A.A.N.f.h.h.h.g.j.j.j.y.y.y.y.q.w.w.>.>...G  .q.i.w     `.`.`.`.`.",
"`.`.`.`.`.G I [ g.g.B.A.F.(.)._._._._._._._._._._.Q.A.A.A.A.A.A.A.N.g.h.h.h.h.g.g.j.y.y.y.y.y.y.i.>.>...H I >.>.9     `.`.`.`.`.",
"`.`.`.`.`.G H [ g.h.B.A.F.(.).)._.)._._._._._._._.Q.A.A.A.A.A.A.A.N.h.h.h.h.h.h.g.j.y.y.y.y.y.y.i.>.>...I  .>.>.8 . O `.`.`.`.`.",
"`.`.`.G G *.8.e.g.h.B.A.A.P.J.R._._._._._._.).Y.J.F.A.A.A.A.A.A.A.N.f.h.h.h.h.h.g.y.y.y.y.y.y.y.i.>.>.;.-.#...O.( ! k @ o `.`.`.",
"`.`.`.G H 7.y.j.h.h.B.S.A.A.A.Y._._._._._._.).G.A.A.A.A.A.A.A.A.A.N.g.h.h.h.h.h.g.j.y.y.y.y.y.y.i.>.>.>.>.;.H H #.0.| +   `.`.`.",
"`.`.`.F H 5.y.j.h.h.N.C.C.A.A.U.!.!.!.!.!.Q.W.n.x.v.A.A.A.A.A.C.C.M.h.h.g.h.h.h.g.y.y.y.y.y.y.y.i.0.>.>.0.;.I H #.>.} +   `.`.`.",
"`.`.`.F H 7.y.j.h.h.h.h.h.A.A.A.F.A.A.A.A.F.Z.Y m R A.A.A.A.C.h.h.h.h.h.h.h.h.h.g.k.y.y.y.y.y.k.i.>.0.>.>.-.H H -.0.} +   `.`.`.",
"`.`.`.F I 5.y.j.h.h.h.h.c.C.A.A.A.A.A.A.A.A.Z.P m R A.S.A.A.A.g.h.h.h.h.h.h.h.h.g.k.y.y.y.y.y.y.i.>.0.>.0.-.I H #.>.} +   o `.`.",
"S A { 5.5.r.y.j.h.h.h.h.h.M.M.M.M.N.A.S.x.@.R N m N @.@.k.N.m.h.h.h.h.h.h.h.h.g.g.j.y.y.y.y.y.y.i.>.>.>.>.;.H H  ...' Q v 4 o   ",
"A H X.y.y.y.y.j.g.h.h.h.h.h.f.f.g.h.A.S.w.m m m m m m m 5.h.h.h.f.h.g.h.h.h.h.h.g.y.y.y.y.y.y.y.i.>.>.>.>.;.I H H H I >.0.g     ",
"A H X.y.y.y.y.t.h.h.h.h.h.h.h.h.h.h.C.C.p.B B M m M B B e.h.h.h.h.h.h.h.h.h.h.h.g.j.y.y.y.y.y.y.i.0.>.>.0.;.H H H H  .;.0.0     ",
"A H X.y.y.y.y.j.g.h.h.g.g.h.h.h.h.h.h.h.h.g.s.J m L d.g.f.g.h.h.h.h.h.h.h.h.h.f.g.j.y.y.y.y.y.y.i.>.0.>.>.;.I H H H I ;.>.0     ",
"A H X.y.y.y.y.j.h.h.h.h.h.h.h.h.h.h.h.h.h.h.g.J m L h.h.h.h.h.h.f.h.f.h.h.h.h.h.g.j.y.y.y.y.y.y.i.0.>.>.>.;.H H H H  .>.0.0     ",
"A H X.y.y.y.y.y.l.l.g.g.h.h.h.h.h.h.h.h.t.o...&.%.&.o.o.t.g.h.h.h.h.h.h.h.h.g.l.j.y.y.y.y.y.y.j.i.>.>.0.0.;.H H H H H >.0.0     ",
"A H X.y.y.y.y.y.y.u.d.h.h.h.h.h.h.h.h.h.=.m m e.h.7.m m 7.h.h.h.h.h.h.h.g.h.l.y.y.y.y.y.y.y.y.y.i.>.>.>.>.;.I H H H  .>.>.e     ",
"A H X.y.y.y.y.y.y.y.l.g.g.h.h.h.h.h.h.h.5.N B t.h.4.N B 7.h.h.h.h.h.g.g.g.g.j.y.y.y.y.y.y.y.y.y.i.>.>.>.>.;.H H H H I >.>.0     ",
"A I X.y.y.y.y.y.y.y.y.y.j.g.h.g.h.h.h.h.g.s.s.g.h.h.s.s.f.g.h.h.h.h.g.g.j.j.y.y.y.y.y.y.y.y.y.y.i.>.0.>.0.;.H H H H I >.0.0     ",
"A H X.y.y.y.y.y.y.y.y.y.j.h.h.h.h.h.h.h.h.h.h.h.h.h.h.h.h.h.h.h.h.h.h.g.t.y.y.y.y.y.y.y.y.y.y.y.i.>.>.>.>.;.H H H H I >.0.0     ",
"A H X.y.y.y.y.y.y.y.y.y.y.l.s.l.l.l.g.h.h.h.h.h.h.h.h.h.h.g.h.h.h.d.l.j.#.+.9.y.y.y.y.y.y.y.r.q.w.>.>.-.#...H H H H I ;.>.e     ",
"G H X.y.y.y.y.y.y.y.y.y.y.y.y.y.y.y.g.h.h.h.h.h.h.h.h.h.h.h.g.h.h.l.y.6.M m T y.y.y.y.y.y.y.0.>.>.>.>...F H H H H H I >.>.0     ",
"A H X.y.y.r.y.u.y.y.y.y.y.y.y.y.y.j.g.g.g.g.g.g.g.g.h.g.g.g.g.g.g.j.r.6.M m T r.r.y.y.y.y.y.0.>.>.>.>...H F F F H H  .>.0.0     ",
"A H X.y.y.w.0.w.y.y.y.y.y.y.y.y.y.y.y.j.j.j.y.j.j.j.j.y.t.j.j.j.j.+.N N m m M N J q.y.y.y.y.w.0.>.>.>...H C a p V H H >.0.0     ",
"A H X.r.y.w.>.w.y.y.y.y.y.y.y.y.y.y.y.y.y.y.y.y.y.y.y.y.y.y.u.y.y.U m m m m m m M 8.y.y.y.y.0.>.>.0.>.O.I C y y c H  .>.>.e     ",
"A H X.y.y.w.>.0.i.i.i.y.y.y.y.y.y.y.y.y.y.y.y.y.y.y.y.y.y.y.y.y.y.#.U P m m B L T 8.y.i.i.q.0.>.>.#.-.I I D z z C I I >.>.0     ",
"A H X.y.y.w.>.>.>.>.i.y.y.y.y.y.y.y.y.y.y.y.y.y.y.y.y.y.y.y.y.y.y.y.y.8.M m T y.y.y.y.i.>.>.>.>.-.H H H I F F F H H I >.0.0     ",
"A H [ e.t.w.0.0.>.>.i.y.y.y.y.y.y.y.y.y.y.y.y.y.y.y.y.y.y.y.y.y.y.y.y.9.M m +.y.y.y.y.q.>.>.>.>.-.H H H F F H H H H I :.>.0     ",
"`.`.`.: ; ^ p.q.0.>.0.w.w.r.y.y.y.y.y.y.y.y.y.y.y.y.y.y.y.y.y.y.y.+.B P &.6.T B K >.w.0.>.>.o. .I H H z a z H H o.;.] < = ; `.`.",
"`.`.`.    ~ k.i.>.>.>.>.0.y.y.y.y.y.y.y.y.y.y.y.y.y.y.y.y.y.y.y.y.U m N r.y.T m m $.>.>.>.>. .H H H H s t p G I #.0.} +   `.`.`.",
"`.`.`.    ~ a.r.;.-.>.>.0.i.i.i.i.i.y.y.y.y.y.y.y.y.y.y.y.y.y.y.y.+.J U q.i.$.B K ;.>.>.-.-.I H G C C z s z H H #.>.} +   `.`.`.",
"`.`.`.    W y.r.H H -.>.>.>.>.0.0.0.r.y.y.y.y.y.y.y.y.y.y.y.y.y.y.y.y.i.0.>.>.>.>.0.>.#.H H H H V u u C H H H H o.0.} +   `.`.`.",
"`.`.`.  . W y.7.I H o.0.>.0.>.>.>.0.i.y.y.y.y.y.y.y.y.y.y.y.y.u.y.y.y.r.0.>.>.>.>.>.>.-.H H H I V u y V H H H H &.0.] +   `.`.`.",
"`.`.`.`.`.2 4 r 3.7.&.O.o.>.>.>.>.0.w.w.w.w.w.w.w.w.w.w.w.w.w.w.w.w.w.w.0.>.>.>.>.o...I H G x s s y u C H I -.-.l < 3 `.`.`.`.`.",
"`.`.`.`.`.    - e.y.%.F I >.>.0.>.>.>.>.>.>.>.>.>.>.>.>.>.>.>.>.>.>.>.>.>.0.>.0.>.I H H H H a y y y u V H I >.>.9     `.`.`.`.`.",
"`.`.`.`.`.    - 7.r.%.H I -.;.-.-.;.>.>.>.0.0.>.>.>.0.>.>.>.>.>.>.>.>.>.-.-.-.-.-.I H D C C p y u a a C H I >.>.6     `.`.`.`.`.",
"`.`.`.`.`.    ; :.0.o.H H H H I I I ;.>.>.>.>.>.>.>.>.>.>.>.>.>.>.>.>.;.I I I I I H H c i u y y s H F H H  .>.>.6     `.`.`.`.`.",
"`.`.`.`.`.    ; :.0.o.H H H H H H I ;.>.>.>.>.>.>.>.>.0.>.>.>.>.>.0.0.>.I I I F H I I V y y y y s H H H H  .>.>.6     `.`.`.`.`.",
"`.`.`.`.`.`.`.& 6 6 n #.o.I H H H I ..o.o.o.o.o.o.o.o.o.o.o.o...o.o.+.I I I V z z z z z V V c V C H H ..#.{ q 6 , `.`.`.`.`.`.`.",
"`.`.`.`.`.`.`.`.    j 0.>.I I H H H H H H H H I H H H H H H H H H H H H H I x y y y y z I H I H H H I -.0.) .   `.`.`.`.`.`.`.`.",
"`.`.`.`.`.`.`.`.    h } ] I I I I I H H H H H D D D D D D D D D D D D D D F x i i i i z H H I I I I I [ | Q X   `.`.`.`.`.`.`.`.",
"`.`.`.`.`.`.`.`.`.`.+ + = %.>.>.>.;.I H H H H s i i i i i i i i i i u i i u x D F D F F H H -.>.>.>.>.3 O + `.`.`.`.`.`.`.`.`.`.",
"`.`.`.`.`.`.`.`.`.`.`.  * %.0.>.>.>.I H H H G a y y y y y y y y y y y y y y x H H H H H H H ;.0.0.>.>.>   . `.`.`.`.`.`.`.`.`.`.",
"`.`.`.`.`.`.`.`.`.`.`.`.`.e g g g h ' o.o.#.o.V x x x x x z x x x x x x x z C I I ..o.o.#.O.l 0 g g 0 , `.`.`.`.`.`.`.`.`.`.`.`.",
"`.`.`.`.`.`.`.`.`.`.`.`.`.        O | 0.0.>.>. .H H H H I I H H I I H I I H I F I ;.0.>.0.:.=         `.`.`.`.`.`.`.`.`.`.`.`.`.",
"`.`.`.`.`.`.`.`.`.`.`.`.`.        + ) %.%.%.%. .I I I I I I H I I I I I I I I I I %.%.%.%.} ;         `.`.`.`.`.`.`.`.`.`.`.`.`.",
"`.`.`.`.`.`.`.`.`.`.`.`.`.`.`.`.`.`.% % % % = ( ;.;.;.;.;.;.;.>.-.;.;.;.;.;.-.-.%.> % % % * `.`.`.`.`.`.`.`.`.`.`.`.`.`.`.`.`.`.",
"`.`.`.`.`.`.`.`.`.`.`.`.`.`.`.`.`.`.        . ) 0.>.0.0.>.0.0.>.>.0.0.>.>.>.0.0.=.%         `.`.`.`.`.`.`.`.`.`.`.`.`.`.`.`.`.`.",
"`.`.`.`.`.`.`.`.`.`.`.`.`.`.`.`.`.`.`.o   o O h k k k k k k k k k k k k k k k k h & o `.`.`.`.`.`.`.`.`.`.`.`.`.`.`.`.`.`.`.`.`.",
"`.`.`.`.`.`.`.`.`.`.`.`.`.`.`.`.`.`.`.`.`.`.`.        .                     .     `.`.`.`.`.`.`.`.`.`.`.`.`.`.`.`.`.`.`.`.`.`.`.",
"`.`.`.`.`.`.`.`.`.`.`.`.`.`.`.`.`.`.`.`.`.`.`.                                    `.`.`.`.`.`.`.`.`.`.`.`.`.`.`.`.`.`.`.`.`.`.`."
};
