/* XPM */
static char *result[] = {
/* columns rows colors chars-per-pixel */
"64 64 191 2 ",
"   c #010101",
".  c #0B0501",
"X  c #0B0A09",
"o  c #060809",
"O  c #100600",
"+  c #130903",
"@  c #1C0B02",
"#  c #140D09",
"$  c #1F160C",
"%  c #210D01",
"&  c #271401",
"*  c #2A1101",
"=  c #2B170B",
"-  c #281806",
";  c #351401",
":  c #311A01",
">  c #3D1B09",
",  c #3A1803",
"<  c #3D2103",
"1  c #451A02",
"2  c #4E1D02",
"3  c #462501",
"4  c #562002",
"5  c #5C2102",
"6  c #5F260A",
"7  c #5D3203",
"8  c #692703",
"9  c #6D2A04",
"0  c #662B02",
"q  c #722B03",
"w  c #7D2F03",
"e  c #643300",
"r  c #6B3A03",
"t  c #7D3004",
"y  c #7A4100",
"u  c #8F0D00",
"i  c #930F00",
"p  c #9C0C00",
"a  c #941000",
"s  c #991200",
"d  c #A60600",
"f  c #AD0100",
"g  c #A50800",
"h  c #B30400",
"j  c #B60B01",
"k  c #B90F01",
"l  c #A31800",
"z  c #AC1C00",
"x  c #A01600",
"c  c #BC1301",
"v  c #992803",
"b  c #833203",
"n  c #8E3303",
"m  c #923703",
"M  c #B42200",
"N  c #BC2600",
"B  c #BE2800",
"V  c #A53903",
"C  c #B03D03",
"Z  c #C10000",
"A  c #C80C01",
"S  c #C41C00",
"D  c #DA1C02",
"F  c #EF0100",
"G  c #FF0100",
"H  c #FD0C00",
"J  c #F20000",
"K  c #FB1400",
"L  c #F71F00",
"P  c #FB1C00",
"I  c #CC2501",
"U  c #C52B00",
"Y  c #C92D00",
"T  c #D22B01",
"R  c #CE3201",
"E  c #CE3805",
"W  c #C83708",
"Q  c #D43301",
"!  c #DB3600",
"~  c #D13804",
"^  c #DE3900",
"/  c #FB2301",
"(  c #F42B00",
")  c #FB2900",
"_  c #F52600",
"`  c #E23D01",
"'  c #E03701",
"]  c #F53300",
"[  c #FF3502",
"{  c #F43B00",
"}  c #FF3C00",
"|  c #9B4800",
" . c #9E5401",
".. c #AE4405",
"X. c #BC4504",
"o. c #BB4805",
"O. c #A05501",
"+. c #B75C01",
"@. c #BA6301",
"#. c #CE4306",
"$. c #CC4D05",
"%. c #C64A05",
"&. c #D24704",
"*. c #DD4301",
"=. c #D34C04",
"-. c #DC4D01",
";. c #D55005",
":. c #D95204",
">. c #E44102",
",. c #EA4502",
"<. c #E24B00",
"1. c #EC4B03",
"2. c #F44301",
"3. c #FD4502",
"4. c #F14E02",
"5. c #FE4C01",
"6. c #E45403",
"7. c #EB5301",
"8. c #E45901",
"9. c #E95B01",
"0. c #E3500B",
"q. c #F55404",
"w. c #FB5503",
"e. c #F25C03",
"r. c #FE5D06",
"t. c #E55817",
"y. c #CC6B01",
"u. c #DF6701",
"i. c #DB7301",
"p. c #DF7C00",
"a. c #D67101",
"s. c #E66301",
"d. c #EF6401",
"f. c #E56A01",
"g. c #EC6B01",
"h. c #F16402",
"j. c #FD6206",
"k. c #F46D03",
"l. c #F96805",
"z. c #E37500",
"x. c #ED7501",
"c. c #E17B00",
"v. c #EB7C01",
"b. c #F27203",
"n. c #F17901",
"m. c #FF7F00",
"M. c #FF7200",
"N. c #DC8200",
"B. c #DC8B00",
"V. c #DB9500",
"C. c #D79E00",
"Z. c #D99900",
"A. c #E68301",
"S. c #E98101",
"D. c #E28A01",
"F. c #F28400",
"G. c #FF8B00",
"H. c #F1850C",
"J. c #E19E00",
"K. c #EA9500",
"L. c #FF9200",
"P. c #E4A100",
"I. c #ECA500",
"U. c #EFA900",
"Y. c #F3A400",
"T. c #FBA300",
"R. c #F4AD00",
"E. c #FEAC00",
"W. c #FFB501",
"Q. c #FFB900",
"!. c #FAAB16",
"~. c #FFBB16",
"^. c #FFBC1D",
"/. c #FFBE20",
"(. c #FFC22E",
"). c #FFC436",
"_. c #FCBD40",
"`. c #FFC946",
"'. c #FFC948",
"]. c #FDC141",
"[. c #FFCF5B",
"{. c #FFCC54",
"}. c #FFD162",
"|. c #FFD269",
" X c #FDD47F",
".X c #FFD87D",
"XX c #FFD675",
"oX c #FFDA85",
"OX c #FFDC8B",
"+X c #FCD081",
"@X c None",
/* pixels */
"@X@X@X@X@X@X@X@X@X@X@X@X@X@X@X@X@X@X@X@X@X@X@XE E E E E E E ~ ~ ~ E E E ~ ~ ~ E W @X@X@X@X@X@X@X@X@X@X@X@X@X@X@X@X@X@X@X@X@X@X@X",
"@X@X@X@X@X@X@X@X@X@X@X@X@X@X@X@X@X@X@X@X@X@X@X^ ' ^ ^ ' ' ^ ^ ^ ' ! ^ ^ ^ ! ' ' ~ @X@X@X@X@X@X@X@X@X@X@X@X@X@X@X@X@X@X@X@X@X@X@X",
"@X@X@X@X@X@X@X@X@X@X@X@X@X@X@X@X@X@X@X@X@X@X@X=.-.-.-.:.-.<.<.<.<.-.<.<.<.<.<.<.*.@X@X@X@X@X@X@X@X@X@X@X@X@X@X@X@X@X@X@X@X@X@X@X",
"@X@X@X@X@X@X@X@X@X@X@X@X@X@X@X@X@X@X~ ! ^ ^ *.N.V.V.V.V.A.x.v.x.x.x.x.v.v.z.x.x.z.*.! ! ^ ~ @X@X@X@X@X@X@X@X@X@X@X@X@X@X@X@X@X@X",
"@X@X@X@X@X@X@X@X@X@X@X@X@X@X@X@X@X@X! ^ ^ ^ ! N.Z.Z.Z.Z.A.v.v.v.v.v.v.v.v.v.v.v.x.<.^ ^ ^ ^ @X@X@X@X@X@X@X@X@X@X@X@X@X@X@X@X@X@X",
"@X@X@X@X@X@X@X@X@X@X@X@X@XW W E W E v.F.F.F.F.Y.R.I.Z.Z.V.D.D.v.v.v.v.v.v.v.v.v.v.s.9.s.s.s.#.E v X o @X@X@X@X@X@X@X@X@X@X@X@X@X",
"@X@X@X@X@X@X@X@X@X@X@X@X@X! ' ^ ^ *.T.Q.Q.Q.W.W.W.R.Z.Z.Z.Z.D.S.v.v.v.v.v.v.v.v.v.S.v.S.v.v.*.' v .   @X@X@X@X@X@X@X@X@X@X@X@X@X",
"@X@X@X@X@X@X@X@X@X@X@X@X@X-.<.0.t.t.!.~.~.~.~.W.W.R.Z.J.Z.Z.V.A.A.v.A.v.v.v.v.v.v.v.v.x.x.x.6.>.V * & $ @X@X@X@X@X@X@X@X@X@X@X@X",
"@X@X@X@X@X@X@X@X@X@X@X! -.T.E._.+X X.XoX.X.X.X^.W.W.R.W.P.Z.V.V.V.V.Z.V.S.v.v.v.v.v.v.b.r.j.x.v.z.i.a.3     @X@X@X@X@X@X@X@X@X@X",
"@X@X@X@X@X@X@X@X@X@X~ ^ <.T.W.`.OXOXOXOXOXOXoX/.W.W.Q.W.P.Z.Z.Z.Z.Z.V.V.v.S.v.v.v.v.v.b.r.j.b.v.v.v.v.3     @X@X@X@X@X@X@X@X@X@X",
"@X@X@X@X@X@X@X@X@X@Xf.x.H.].'.|.OXOXOXOXOXOXoX[.'.).W.W.U.I.K.q.1.c.Z.V.D.D.A.v.v.v.v.x.k.k.k.k.h.8.8.| y r # @X@X@X@X@X@X@X@X@X",
"@X@X@X@X@X@X@X@X' ^ F.Q.~.oXOXOXOXOXOXOXOXOXOXOXOX}.W.W.Q.Q.G.H G 9.C.Z.Z.Z.D.v.v.v.v.v.v.v.j.r.q.^ ^ g.F.@..   @X@X@X@X@X@X@X@X",
"@X@X@X@X@X@X@X@X*.^ F.W.~..XOXOXOXOXOXOXOXOXOXOXOX}.W.W.E.T.m.H G 7.B.B.V.Z.D.v.v.v.v.v.v.x.j.j.q.` ` s.x.+.& @ - @X@X@X@X@X@X@X",
"@X@X@X@X@X! ' :.B.B.U.W.~..XOXOXOXOXOXoXOXOXOXOXOX}.W.W.5.P K G G H P _ B.Z.D.v.v.v.v.v.v.v.l.r.r.r.r.,.>.-.y.y.7     @X@X@X@X@X",
"@X@X@X@X@X! ! -.V.Z.U.W.~..XOXOXOXOXOXOXOXOXOXOXOX}.W.W.} G G G G G G K B.Z.D.x.x.v.v.v.v.v.j.r.r.r.r.>.^ -.v.v.e   o @X@X@X@X@X",
"@X@X@X@X@XQ ^ -.V.Z.U.W.~..XOXOXOXOXOXOXOXOXOXOXOX|.W.W.M.5.3.G G _ ,.1.V.V.V.A.D.S.v.v.v.v.b.l.l.r.r.,.^ >.k.k.e     @X@X@X@X@X",
"@X@X@X@X@X! ^ :.V.V.U.W.~..XOXOXOXOXOXOXOXOXOXOXOX}.W.W.Q.Q.G.H G 8.C.C.Z.Z.Z.Z.V.v.v.v.v.v.v.v.b.r.r.,.^ >.r.r.8     @X@X@X@X@X",
"@X@X@X@X@X~ ` :.V.Z.U.W.~.XXoXoXOXOXOXOXOXOXOXoXoX[.W.W.E.E.G.P H 9.B.B.V.Z.V.Z.V.A.v.v.v.v.v.v.b.r.r.,.^ ,.r.r.q . # @X@X@X@X@X",
"@X@X@XE ~ 8.g.z.V.Z.U.W.W.^.^.{.OXOXOXOXOXOXoX).^.~.W.W.r./ 3.G.L.w.L ] B.C.Z.Z.V.A.v.v.v.v.v.v.b.r.r.r.q.q.>.>.&.$...% o @X@X@X",
"@X@X@X^ ` g.S.A.Z.Z.U.W.W.W.W.`.OXOXOXOXOXOXOX/.W.W.W.W.} G / E.Q.3.G K B.Z.Z.Z.V.A.v.v.v.v.v.v.b.r.r.r.j.q.` ^ 4.j.;.@   @X@X@X",
"@X@X@X! ^ f.v.S.V.Z.P.R.R.W.W.(.[.[.[.[.[.}.[.~.W.W.W.W.j.} w.R.R.h.] ,.B.Z.Z.Z.V.A.v.v.v.v.v.v.b.j.r.r.j.q.^ ^ 4.j.=.@   @X@X@X",
"@X@X@X! ^ f.v.A.Z.Z.Z.Z.Z.W.W.W.W.W.W.W.W.W.W.W.W.W.W.W.W.W.W.Z.Z.Z.Z.Z.Z.Z.Z.Z.V.v.v.v.v.v.v.v.b.r.r.r.j.q.' ^ 4.j.;.@   @X@X@X",
"@X@X@X^ ^ f.v.S.V.Z.Z.Z.Z.W.W.W.W.W.W.W.W.W.W.W.W.W.W.W.W.W.R.Z.Z.Z.Z.Z.V.Z.Z.Z.V.A.v.v.v.v.v.v.b.r.r.j.j.q.` ^ 4.j.=.% o X @X@X",
"W ! -.f.f.x.v.A.Z.V.Z.Z.Z.J.P.P.P.K.3.) j.W.W.W.W.W.W.W.I.P.Z.Z.Z.Z.Z.V.Z.Z.Z.V.V.v.v.e./ ) g.v.b.j.r.r.r.q.` ^ ` ,.*.X.X.9     ",
"~ ^ 6.v.v.v.v.A.V.Z.Z.Z.V.Z.Z.C.C.B.K G 3.Q.Q.Q.W.W.Q.W.P.V.Z.Z.Z.V.V.Z.Z.Z.Z.V.V.S.S.4.G G d.v.b.j.r.r.j.w.^ ^ ^ ^ ` r.r.w     ",
"E ' <.v.v.v.v.A.V.Z.V.Z.Z.Z.Z.N.i.f.K G [ G.G.Y.R.R.R.R.P.Z.Z.Z.Z.Z.Z.Z.Z.Z.Z.Z.V.s.e.{ G G 4.e.e.r.r.r.r.q.` ^ ^ ^ ` r.j.w     ",
"E ' <.v.v.v.v.A.V.Z.Z.Z.Z.Z.Z.7.G G G G G G H z.Z.Z.Z.Z.V.Z.Z.Z.Z.V.Z.Z.Z.Z.Z.Z.B.L G G G G G G / r.r.j.j.q.` ^ ^ ^ ` r.r.w     ",
"~ ^ <.v.v.v.v.A.V.Z.Z.Z.Z.V.C.7.G G G G G G H z.C.Z.Z.Z.Z.Z.Z.Z.Z.Z.Z.Z.V.Z.Z.Z.B.P G G G G G G / r.r.r.j.q.` ^ ^ ^ ` r.j.w     ",
"E ^ <.v.v.v.v.v.D.A.V.V.V.Z.Z.p.f.7.H G _ s.f.B.Z.Z.V.Z.Z.Z.Z.V.Z.Z.Z.Z.C.V.B.D.A.9.q.] G H { q.q.r.r.j.r.q.` ^ ^ ^ ^ r.j.w     ",
"~ ' 6.v.v.v.v.v.v.v.B.Z.Z.Z.Z.Z.C.V.P G { C.C.V.Z.Z.Z.Z.Z.Z.Z.Z.Z.Z.Z.Z.V.C.D.v.v.v.S.4.G G d.A.b.r.r.r.j.q.' ^ ^ ^ >.r.r.w     ",
"E ^ <.x.v.v.v.v.v.v.D.V.V.Z.Z.B.p.z.( L >.p.p.V.V.Z.Z.Z.V.Z.V.N.p.B.Z.V.V.V.D.v.x.g.g.2.P P q.d.l.r.r.r.j.w.^ ^ ^ ^ ` r.r.w     ",
"~ ^ <.v.v.v.v.v.v.v.v.v.S.V.C.7.H P p.B.9.H K c.Z.Z.Z.Z.Z.Z.c.K H s.Z.V.v.v.v.v.x.P H { x.g./ H / r.r.j.j.q.^ ^ ^ ^ ` r.j.w     ",
"~ ' <.v.v.v.v.v.v.v.v.v.S.V.Z.1.G H A.C.8.G G z.Z.Z.Z.Z.Z.C.p.H G 9.C.V.v.v.v.v.x.K G [ v.x.P G P r.r.r.r.q.` ^ ^ ^ ` r.r.w     ",
"~ ^ <.v.v.v.v.v.v.v.v.v.v.D.D.g.2.4.B.C.c.7.8.B.Z.V.Z.Z.s.,.] G G ( 1.1.x.v.v.v.x.q.2.9.v.v.3.[ 3.r.r.4.1.,.' ^ ^ ^ >.q.j.w     ",
"E ^ 6.x.v.v.v.v.v.v.v.v.v.v.v.v.v.S.Z.Z.Z.C.C.Z.Z.Z.Z.V.] G G G G G G K x.v.v.v.v.v.S.v.v.v.l.r.r.r.r.,.^ ^ ^ ` ^ ^ >.r.r.w     ",
"~ ^ <.v.v.v.x.v.v.v.v.v.v.v.v.v.v.v.D.V.V.V.V.V.V.V.V.V.{ H H G G H H P x.v.v.v.v.v.v.v.v.v.j.r.r.r.r.,.^ ^ Q Q ! ^ >.r.j.w     ",
"~ ' <.v.v.l.j.l.v.v.v.v.v.v.v.v.v.v.A.v.v.v.A.v.A.v.A.v.x.g.e.G G 2.x.g.v.v.v.v.v.v.v.v.v.v.l.r.r.j.r.,.^ E l s U ^ ^ r.j.w     ",
"E ^ <.v.v.l.r.j.v.v.v.v.v.v.v.v.v.v.v.v.v.v.v.v.v.v.v.v.v.S.d.G G 4.S.v.v.v.v.v.v.v.v.v.v.v.j.r.r.r.r.,.^ T a a B ^ >.r.r.w     ",
"E ` <.v.v.l.r.j.k.k.b.v.v.v.v.v.v.v.v.v.v.v.v.v.v.v.v.v.e.2.2.{ { { 2.4.x.v.v.v.v.v.v.n.k.k.j.r.r.4.4.` ^ Q M M R ^ ` r.j.w     ",
"~ ' <.v.v.l.r.r.r.r.b.v.v.v.v.v.v.v.v.v.v.v.v.v.v.v.v.v._ G P x.v.] G K x.v.v.v.v.v.v.k.r.r.r.r.q.! ! ^ ^ ^ ' ^ ^ ^ ` r.r.w     ",
"E ! =.i.i.h.j.j.r.r.k.v.x.v.v.v.v.v.x.x.x.v.v.v.v.v.v.v.[ H / x.v.] H P x.v.v.v.v.x.x.b.q.r.r.r.q.^ ^ ! ! ! ^ ^ ^ ' ` 7.e.t     ",
"@X@X6 : : +.b.b.j.r.j.l.l.v.v.v.v.x.) K 2.v.v.v.v.v.v.v.g.d.g.v.v.x.h.h.v.v.v.v.v.l.l.>.c S Q >.*.^ ^ M s z ! ^ 1.r.=.1 * = @X@X",
"@X@X@X     .S.b.r.r.r.r.j.v.v.S.v.x.K G ] S.v.v.v.v.v.v.v.v.v.v.v.v.v.v.v.v.v.v.v.r.j.^ f f T ' ^ ^ ^ z a l ! ^ 4.r.;.@   @X@X@X",
"@X@X@X    O.F.x.q.4.r.r.j.k.b.8.;.=.H G / 1.q.x.v.v.v.v.v.v.v.v.v.v.v.v.b.b.b.b.h.0.` I f h S I I U U M z N ! ^ 4.j.;.@   @X@X@X",
"@X@X@X     .v.g.^ ^ q.j.r.r.r.Q f h J G G G G d.v.v.v.v.v.v.v.v.v.v.v.x.j.j.r.r.q.c f f f h f f g i a Y ^ ^ ^ ^ q.j.;.@   @X@X@X",
"@X@X@X  .  .v.f.` ^ 1.r.r.r.r.~ h h J G G G H h.v.v.v.v.v.v.v.v.v.v.v.b.j.r.r.j.q.c f f f f f f g i a U ^ ^ ^ ` 1.e.$.@   @X@X@X",
"@X@X@X@X@X< < e f.f.0.>.,.r.r.q.,.>.A h D 3.3.r.l.j.j.l.j.l.l.j.l.l.j.l.r.r.r.r.r.Q T S f f p p p a a Y ^ ` q.q.n 1 1 @X@X@X@X@X",
"@X@X@X@X@X    : c.v.6.! ` r.r.j.r.r.c f I j.j.r.r.r.j.r.r.j.r.r.r.r.r.j.r.j.j.r.r.>.^ I f f p i a i i Y ^ >.r.r.8     @X@X@X@X@X",
"@X@X@X@X@X    : f.b.0.' ` q.q.1.,.>.I S T 0.,.r.r.r.r.r.r.r.j.r.r.r.r.r.q.q.q.q.q.T T S d d p p s z z Y ^ >.r.r.8   o @X@X@X@X@X",
"@X@X@X@X@X    , e.j.,.^ ^ ' ^ I f j 1.r.' f h 2.r.r.r.r.r.r.r.r.r.r.r.w.>.^ ^ ^ ! j f d p i d f c ! ! ^ ' >.r.r.8     @X@X@X@X@X",
"@X@X@X@X@X    , e.r.1.^ ^ ^ ^ S f j q.j.' f h 0.r.r.r.r.r.j.r.r.j.r.j.r.>.^ ^ ^ ! j f d i a d h c ^ ^ ^ ^ >.r.r.8     @X@X@X@X@X",
"@X@X@X@X@X@X@X= 4 4 C q.4.^ ^ ! I I >.,.' I T ` ,.,.,.0.,.,.,.,.,.,.,.,.^ ^ U z z p p z U U I I T ^ ^ 1.q.#.5 4 > @X@X@X@X@X@X@X",
"@X@X@X@X@X@X@X@X    m j.r.` ! ^ ^ ^ ^ ^ ^ ^ ^ ^ ^ ^ ^ ^ ^ ^ ^ ^ ^ ^ ^ ^ ^ ' N a i i i M ^ ^ ` ^ ^ ^ ^ q.j.%..   @X@X@X@X@X@X@X@X",
"@X@X@X@X@X@X@X@X  o t =.#.>.>.>.` ` ^ ^ ^ ^ ^ ^ ^ ! T E R R R R Q R R R R Q M l l l l M ^ ^ ` >.` >.` &.$.V +   @X@X@X@X@X@X@X@X",
"@X@X@X@X@X@X@X@X@X@X# . , :.r.r.r.r.` ^ ^ ^ ^ ^ ^ Y s a s s a s s s s a a a N ! ! ! ! ! ^ ` q.r.r.r.r.4 . + @X@X@X@X@X@X@X@X@X@X",
"@X@X@X@X@X@X@X@X@X@X@X  * 6.r.r.r.r.>.^ ^ ^ ^ ^ ' Y a a i i a i i i i i a a M ^ ^ ^ ^ ^ ' ' q.r.r.j.r.2   o @X@X@X@X@X@X@X@X@X@X",
"@X@X@X@X@X@X@X@X@X@X@X@X@X9 q 9 q w *.q.1.1.4.` ^ Q B B B B B B B B B B B B R ^ ^ 1.4.4.4.1.n 9 9 q q > @X@X@X@X@X@X@X@X@X@X@X@X",
"@X@X@X@X@X@X@X@X@X@X@X@X@X        + :.j.j.j.r.>.^ ^ ^ ^ ' ^ ^ ^ ' ^ ^ ^ ^ ^ ^ ^ ^ r.j.j.j.e.>         @X@X@X@X@X@X@X@X@X@X@X@X@X",
"@X@X@X@X@X@X@X@X@X@X@X@X@X    o   @ o.:.:.:.:.` ` ` ` ` ` ` ' ` ` ^ ` ^ ` ` ' ` >.-.:.:.:.$.>         @X@X@X@X@X@X@X@X@X@X@X@X@X",
"@X@X@X@X@X@X@X@X@X@X@X@X@X@X@X@X@X@X& % % % * $.r.r.q.r.r.r.r.r.r.r.r.r.r.w.r.r.6.1 @ % @ % @X@X@X@X@X@X@X@X@X@X@X@X@X@X@X@X@X@X",
"@X@X@X@X@X@X@X@X@X@X@X@X@X@X@X@X@X@X        . =.r.j.r.j.r.j.j.r.r.j.j.r.r.j.r.j.6.*         @X@X@X@X@X@X@X@X@X@X@X@X@X@X@X@X@X@X",
"@X@X@X@X@X@X@X@X@X@X@X@X@X@X@X@X@X@X@X@X@Xo # q b b b b b b b b b b b b b b b b t = o @X@X@X@X@X@X@X@X@X@X@X@X@X@X@X@X@X@X@X@X@X",
"@X@X@X@X@X@X@X@X@X@X@X@X@X@X@X@X@X@X@X@X@X@X@X                                    @X@X@X@X@X@X@X@X@X@X@X@X@X@X@X@X@X@X@X@X@X@X@X",
"@X@X@X@X@X@X@X@X@X@X@X@X@X@X@X@X@X@X@X@X@X@X@X                                    @X@X@X@X@X@X@X@X@X@X@X@X@X@X@X@X@X@X@X@X@X@X@X"
};
