/* XPM */
static char *result[] = {
/* columns rows colors chars-per-pixel */
"24 24 112 2 ",
"   c #1B0F01",
".  c #210F02",
"X  c #2F1404",
"o  c #311403",
"O  c #3B1601",
"+  c #3E1802",
"@  c #3D2002",
"#  c #431902",
"$  c #4C1D02",
"%  c #5A2F02",
"&  c #5D3002",
"*  c #642302",
"=  c #692703",
"-  c #6E2804",
";  c #732A04",
":  c #782B03",
">  c #723901",
",  c #9F1600",
"<  c #AD1E00",
"1  c #B01F00",
"2  c #8B3203",
"3  c #943403",
"4  c #993603",
"5  c #B92400",
"6  c #FD1301",
"7  c #F91C00",
"8  c #C52B00",
"9  c #C92E00",
"0  c #D42D00",
"q  c #CE3000",
"w  c #D53400",
"e  c #D93700",
"r  c #DC3D01",
"t  c #FA2000",
"y  c #F82B00",
"u  c #E83003",
"i  c #E03C00",
"p  c #FA3602",
"a  c #F43C00",
"s  c #924502",
"d  c #D54402",
"f  c #DF4402",
"g  c #DE4E03",
"h  c #CE5801",
"j  c #D45602",
"k  c #DA5501",
"l  c #D05A01",
"z  c #DD5800",
"x  c #E54202",
"c  c #EA4602",
"v  c #E54D04",
"b  c #EB4B02",
"n  c #F44301",
"m  c #F24E02",
"M  c #FD4B04",
"N  c #E45303",
"B  c #EB5104",
"V  c #E35A03",
"C  c #EC5D01",
"Z  c #F45403",
"A  c #FA5704",
"S  c #F05C01",
"D  c #FE5D06",
"F  c #C76301",
"G  c #CE6401",
"H  c #DF7D00",
"J  c #E66401",
"K  c #EF6401",
"L  c #E66D01",
"P  c #EB6D01",
"I  c #E6600E",
"U  c #F56203",
"Y  c #FC6305",
"T  c #F56C04",
"R  c #F86904",
"E  c #E47300",
"W  c #EB7401",
"Q  c #EB7C01",
"!  c #F27203",
"~  c #DD8500",
"^  c #DE8D00",
"/  c #DB9500",
"(  c #DA9900",
")  c #E58601",
"_  c #E98001",
"`  c #E28A01",
"'  c #FC8900",
"]  c #EF9700",
"[  c #E09D00",
"{  c #F79C0D",
"}  c #EEA900",
"|  c #F4AD00",
" . c #FFAA00",
".. c #F9A508",
"X. c #FEB503",
"o. c #FFB800",
"O. c #FFB708",
"+. c #FFB80C",
"@. c #F8A313",
"#. c #FBB915",
"$. c #FFBD1C",
"%. c #F7A221",
"&. c #FFCB4F",
"*. c #FFCC53",
"=. c #FFCF58",
"-. c #FBC46C",
";. c #FFD164",
":. c #FFD46D",
">. c #FFD572",
",. c #FFDB83",
"<. c #FFDC8B",
"1. c None",
/* pixels */
"1.1.1.1.1.1.1.1.1.r r r r r r 1.1.1.1.1.1.1.1.1.",
"1.1.1.1.1.1.1.f k ~ H L L L L V f 1.1.1.1.1.1.1.",
"1.1.1.1.1.f I { ..} ( / ` Q Q W L g * 1.1.1.1.1.",
"1.1.1.1.V %.-.>.=.+.| ( ( ` Q Q T T G % 1.1.1.1.",
"1.1.1.k @.>.<.<.,.*.X.} ( ( ) Q Q R B j % 1.1.1.",
"1.1.d ` #.,.<.<.<.;.X.X.} ( ^ Q Q R D v l @ 1.1.",
"1.1.k ^ #.:.<.<.,.*.X. .] ( ( ) Q Q R c B = 1.1.",
"1.r L [ | $.;.>.*.+. .A a ~ ( ^ Q Q R D c g O 1.",
"1.g W / [ | | O.X.o.' t 6 J ( ` Q Q R D c v = 1.",
"r L _ / ( ( [ | | | ] b c H ( ` Q Q R D i i v O ",
"f P Q / ( ( ( ( ( ( E C L V / ) Q Q R D c i v O ",
"r W Q Q ^ ( ( ( ( ( ( ( ( / ) Q Q Q R D c i v + ",
"i W Q Q _ ` ` ` E ( ( ( / ) Q K K W Y A x i v O ",
"r P ! Q Q Q Q c 7 L ` ` ) Q K 7 y D Y c 9 e v O ",
"f P Y T Q Q W y 6 m Q Q Q Q C 7 6 M Z i 8 w B + ",
"1.s J Y T Q P n a m Q Q Q Q S p u x x 8 w x 4 o ",
"1.  F Z D T U Z P Z Q Q Q ! M M r 0 8 5 w B + 1.",
"1.1.> j b D Y T T T T T T Y D Z i 8 , 8 c 3 1.1.",
"1.1.. j x c b D D D D D D Z b x 9 , 1 w B # 1.1.",
"1.1.1.; g i i c c c c c b i 8 1 5 8 w b 2 X 1.1.",
"1.1.1.1.- v b e e w < < < < 5 8 w b B 2 1.1.1.1.",
"1.1.1.1.1.$ : v b e 8 q 9 8 w b B 2 $ 1.1.1.1.1.",
"1.1.1.1.1.1.1.# : v B v B B B 4 # o 1.1.1.1.1.1.",
"1.1.1.1.1.1.1.1.1.# # # # # # o 1.1.1.1.1.1.1.1."
};
