/* XPM */
static char *result[] = {
/* columns rows colors chars-per-pixel */
"25 32 75 1 ",
"  c black",
". c #010000",
"X c #070200",
"o c #080000",
"O c #160000",
"+ c #170100",
"@ c #180000",
"# c #1A0100",
"$ c #190200",
"% c #380000",
"& c #3B0000",
"* c #251400",
"= c #000025",
"- c #00002E",
"; c #00003B",
": c #4A0000",
"> c #470B00",
", c #720000",
"< c #710D00",
"1 c #711800",
"2 c #7A3400",
"3 c #703800",
"4 c #713800",
"5 c #505050",
"6 c #880000",
"7 c #970000",
"8 c #9A3700",
"9 c #943800",
"0 c #983E00",
"q c #A13400",
"w c #C20200",
"e c #E11A00",
"r c #E21B00",
"t c #E71B00",
"y c #F11700",
"u c #D72000",
"i c #DA3100",
"p c #DF3200",
"a c #E02700",
"s c #EA2100",
"d c #E82300",
"f c #EC2B00",
"g c #F53200",
"h c #884800",
"j c #954200",
"k c #9D4100",
"l c #805018",
"z c #A74700",
"x c #AF4200",
"c c #A84800",
"v c #A86828",
"b c #A87838",
"n c #D84300",
"m c #C85900",
"M c #FF5D00",
"N c #C66E00",
"B c #D06000",
"V c #F57300",
"C c #F87000",
"Z c #FF7905",
"A c #F17A0F",
"S c #E68C02",
"D c #F08926",
"F c #F8B028",
"G c #D8A860",
"H c #F0C070",
"J c #200080",
"K c #3010A8",
"L c #4020D0",
"P c #0E79D3",
"I c #0A7CD7",
"U c #009CFF",
"Y c #A0A0A0",
"T c #F8F8F8",
"R c None",
/* pixels */
"RRRRRRRRRRRRRRRRRRRRRRRRR",
"RRRRRRRRRRRRRRRRRRRRRRRRR",
"RRRRRRRRRRRRRRRRRRRRRRRRR",
"RRRRRRR   X+RRRRRRRRRRRRR",
"RRRRRRRR     RRRRRRRRRRRR",
"RR;-    U     R>&RRRRRRRR",
"RRRR            $RRRRRRRR",
"RRRRR            ORRRRRRR",
"RRRRRP            #RRRRRR",
"RRRRRIU            .RRRRR",
"RRRRR               RRRRR",
"RRR=  .o  l         RRRRR",
"RRRRRRRR@ lb  l       RRR",
"RRRRRRRRRxb   b  l       ",
"RRRRRRRRRA  YGG lGl    RR",
"RRRRRRRRNGH5THHGGbl  RRRR",
"RRRRRRRRRSG THGbll    RRR",
"RRRRRRRRRRbGHGll3JJ    RR",
"RRRRRRRRRLKlll333JllzRRRR",
"RRRRRRRRRLHGlJKJlllJlqRRR",
"RRRRRRRRRRGbGbLJGHblbb9RR",
"RRRRRRRRRRRlbbKGHblZVDkRR",
"RRRRRRRRwRdJKJlllbRRRmRRR",
"RRRRRRRscBBBcBBBcpRRRRRRR",
"RRRRRRRtBBB3re3BCcRRRRRRR",
"RRRRRRRucBcRRRRcBCcnRRRRR",
"RRRRRRRf333RRRRRBCBc8RRRR",
"RRRRRR0MJJyRRRRRgBc332RRR",
"RRRRRj3333a76,RRRiJLvJRRR",
"RRRRR1        :RRRR3B34RR",
"RRRRR<        %RRRRRLFcRR",
"RRRRRR*       RRRRRhvvhhh"
};
