/* XPM */
static char *result[] = {
/* columns rows colors chars-per-pixel */
"25 32 67 1 ",
"  c black",
". c #020000",
"X c #030000",
"o c #040000",
"O c #060000",
"+ c #070000",
"@ c #0A0000",
"# c #0B0000",
"$ c #0D0000",
"% c #0F0000",
"& c #160000",
"* c #170000",
"= c #180000",
"- c #3D0000",
"; c #331100",
": c #311A00",
"> c #03002B",
", c #4F0100",
"< c #580300",
"1 c #670500",
"2 c #4C2F00",
"3 c #5B2000",
"4 c #4A3304",
"5 c #683D00",
"6 c #703800",
"7 c #006F13",
"8 c #911800",
"9 c #911A00",
"0 c #802C00",
"q c #872D00",
"w c #8A2D00",
"e c #CC3000",
"r c #D03331",
"t c #884800",
"y c #96500C",
"u c #805018",
"i c #A84800",
"p c #A84A00",
"a c #AD6509",
"s c #AD6D0C",
"d c #B56409",
"f c #9C662A",
"g c #A76726",
"h c #A86828",
"j c #A87838",
"k c #C54D00",
"l c #D55A00",
"z c #D35C00",
"x c #CB6D00",
"c c #D06000",
"v c #E77600",
"b c #F87000",
"n c #9A3A5A",
"m c #C58417",
"M c #E28400",
"N c #FE8F28",
"B c #C09050",
"V c #D8A860",
"C c #FFBB6D",
"Z c #200080",
"A c #3010A8",
"S c #4020D0",
"D c #009CFF",
"F c #0EB5FF",
"G c #4B9ED7",
"H c #53B7F2",
"J c None",
/* pixels */
"JJJJJJJJJJJJJJJJJJJJJJJJJ",
"JJJJJJJJJJ    JJJJJJJJJJJ",
"JJJJJJJJJ    JJJ     JJJJ",
"JJJJJJJJJ    J      JJJJJ",
"JJJJJJJ            JJJJJJ",
"JJJJJJ           =JJJJJJJ",
"JJJJJ             X  JJJJ",
"JJJJJ                  JJ",
"JJJJJ                   J",
"JJJJ               #+JJJJ",
"JJJ               $JJJJJJ",
"JJ .o              *&OJJJ",
"JJJJJ             ,-JJJJJ",
"JJJ$             1JJJJJJJ",
"JJ@%            98<JJJJJJ",
"JJJJJJ=      ZArJJJJJJJJJ",
"JJJJJJnZ    ZuuuJJJJJJJJJ",
"JJJJJJJA66i6ujVjJJJJJJJJJ",
"JJJJJJJwc6ciujVVJJJuJJJJJ",
"JJJJJJJqiici6uVjCJJNzJJJJ",
"JJJJJJJ0ZZZAAAuZASZuuyJJJ",
"JJJJJJ66iiAASSAZAAAVvJJJJ",
"JJJJJJ2iiicccbcuZZBjaJJJJ",
"JJJJJJ:ic6icccciuumsJJJJJ",
"JJJJJJ>i66666ibciMJJJJJJJ",
"JJJJJJ;cb3GDD66iixpJJJJJJ",
"JJJJJ4AShZDDD6icbc6JJJJJJ",
"JJJJJJ5fgtDDD66icc6JJJJJJ",
"JJJJJJJHD     ZhA6eJJJJJJ",
"JJJJJJJJ      ibikJJJJJJJ",
"JJJJJJJD      ZhSdlJJJJJJ",
"JJJJJJJJF     tht7JJJJJJJ"
};
