/* XPM */
static char *result[] = {
/* columns rows colors chars-per-pixel */
"25 32 89 1 ",
"  c black",
". c #000500",
"X c #000700",
"o c #000800",
"O c #000900",
"+ c #000A00",
"@ c #000E00",
"# c #000F00",
"$ c #160200",
"% c #001300",
"& c #001500",
"* c #001600",
"= c #001700",
"- c #001800",
"; c #191B00",
": c #002000",
"> c #002100",
", c #002400",
"< c #002500",
"1 c #002A00",
"2 c #022E00",
"3 c #092D00",
"4 c #033200",
"5 c #063600",
"6 c #0F3000",
"7 c #0A3F00",
"8 c #103700",
"9 c #193300",
"0 c #5D1E00",
"q c #620800",
"w c #661700",
"e c #721C00",
"r c #781E00",
"t c #483D00",
"y c #5C3A00",
"u c #703800",
"i c #1B4000",
"p c #114900",
"a c #1D5200",
"s c #285600",
"d c #255900",
"f c #6C4300",
"g c #704E00",
"h c #6F5900",
"j c #505050",
"k c #A90D00",
"l c #B51F00",
"z c #892400",
"x c #8D4300",
"c c #874B00",
"v c #884800",
"b c #8D4D00",
"n c #984A00",
"m c #9C4E00",
"M c #885000",
"N c #8B5800",
"B c #945100",
"V c #9A5400",
"C c #9F5500",
"Z c #805018",
"A c #A14100",
"S c #AD4100",
"D c #AB4700",
"F c #A84800",
"G c #AD4A00",
"H c #A94F00",
"J c #B24400",
"K c #B24700",
"L c #B24D00",
"P c #A45900",
"I c #BF6600",
"U c #A27D00",
"Y c #A86828",
"T c #A87838",
"R c #D94400",
"E c #C75B00",
"W c #EF4E00",
"Q c #E35700",
"! c #E15A00",
"~ c #D06000",
"^ c #F87000",
"/ c #F8B028",
"( c #D8A860",
") c #F0C070",
"_ c #200080",
"` c #3010A8",
"' c #A0A0A0",
"] c #F8F8F8",
"[ c None",
/* pixels */
"[[[[[[[[[[[[[[[[[[[[[[[[[",
"[[[[[[[[[[[[[[[[[[[[[[[[[",
"[[[[[[[[[[[-ps9[[[[[[[[[[",
"[[[[ :82=[[[d  3[[[[[[[[[",
"[[[[[&   4*[i  6[[[[[[[[[",
"[[[[[[<a   5    1,%[[[[[[",
"[[[[[[[7           #[[[[[",
"[[[[ o>              [[[[",
"[[                  +[[[[",
"[ [[                @[[[[",
"[[[[ .       Z  Z     [[[",
"[[[[[[    Z  T  TZ      [",
"[[[      Z  Z( ZTT Z     ",
"[[[[[  OZT   T   ( (Z [[[",
"[[[[[[[ Z(T'j 'j((TTZ  [[",
"[[[[[[   ZT] (] (TZU;X   ",
"[[[[[[tTZ  TZZ(TZZ $[[[[[",
"[[[[[[gZZ__TZ`_F~Fn[[[[[[",
"[[[[[[N(_`_Z)T`_~~Fy[[[[[",
"[[[[[[c_`Tu)((T`~^Ff[[[[[",
"[[[[[[x`T)TZTT`_F_h[[[[[[",
"[[[[[[[VZ))TZZ____[[[[[[[",
"[[[[[[[DZZZZuFFFFFM[[[[[[",
"[[[[[[[AFFuubBm~~~F0[[[[[",
"[[[[[[[SFF~C[[[K~^~w[[[[[",
"[[[[[[[[RuuG[[[H~^~e[[[[[",
"[[[[[[[[[lF_[[[PF~Fr[[[[[",
"[[[[[[[[WQ!EI[[[Juuq[[[[[",
"[[[[[[[[[[[[[[[[[`Yz[[[[[",
"[[[[[[[[[[[[[[[[L^~u[[[[[",
"[[[[[[[[[[[[[[[[[`/`k[[[[",
"[[[[[[[[[[[[[[[[vYYYv[[[["
};
