/* XPM */
static char *result[] = {
/* columns rows colors chars-per-pixel */
"26 32 86 1 ",
"  c black",
". c #000300",
"X c #0E0000",
"o c #120000",
"O c #140600",
"+ c #1E0000",
"@ c #2C0000",
"# c #340000",
"$ c #370000",
"% c #320B00",
"& c #430D00",
"* c #703800",
"= c #713900",
"- c #7A3F00",
"; c #735700",
": c #686200",
"> c #505050",
", c #800900",
"< c #850B00",
"1 c #870C00",
"2 c #900600",
"3 c #9D0A00",
"4 c #921500",
"5 c #BF0F00",
"6 c #BF1100",
"7 c #8E2700",
"8 c #823D00",
"9 c #973D00",
"0 c #BD3900",
"q c #CD1000",
"w c #CC1100",
"e c #F91D00",
"r c #CD2100",
"t c #C93400",
"y c #EF2500",
"u c #E52B00",
"i c #F72200",
"p c #F92A00",
"a c #F03700",
"s c #F83E00",
"d c #884800",
"f c #925D00",
"g c #805018",
"h c #A84800",
"j c #B54700",
"k c #AF5000",
"l c #B25000",
"z c #907D00",
"x c #AD7300",
"c c #B17E00",
"v c #B36411",
"b c #A86828",
"n c #B87B28",
"m c #A87838",
"M c #C94100",
"N c #D94300",
"B c #DC4100",
"V c #FC4600",
"C c #F74900",
"Z c #EA5500",
"A c #FF5D00",
"S c #C06000",
"D c #D06000",
"F c #F87000",
"G c #FC7500",
"H c #F47A00",
"J c #C98D03",
"K c #D08B03",
"L c #DA880A",
"P c #D79E00",
"I c #E79609",
"U c #EBA001",
"Y c #EEA000",
"T c #FFA300",
"R c #F4AF00",
"E c #FFAB2F",
"W c #F8B028",
"Q c #FFC600",
"! c #D8A860",
"~ c #F0C070",
"^ c #200080",
"/ c #3010A8",
"( c #4020D0",
") c #A0A0A0",
"_ c #F8F8F8",
"` c None",
/* pixels */
"````` ```   ``````````````",
"````  ``  X```````````````",
"````   `.   ``` ``````````",
"````         `  ``````````",
"````            ``````````",
"`````            `````````",
"``` `             ````````",
"```  `             ```````",
"````               ```````",
"`````    g         ```````",
"``````` Og  mg        ` ``",
"````````;m   m  g     ````",
"````````z  )!! g!g  ``````",
"`=`````:!~>_~~!!gg   `````",
"vIf`````c! _~!mgg o   ````",
"E~Ux``-8gm!~!gg+@ ````````",
"n~!!(/!mg!m(/*h4``````````",
"L!~!(/~~m~!/(^hh,`````````",
"`mm/(/!!mm!m(/^h<`````````",
"`mgTY`Skljggg/^h1`````````",
"KQR````````(((/^``````````",
"JP````````6^//^^2`````````",
"`````````ahDDhDhh5````````",
"````````sDFh*VhFDhq```````",
"````````pFFDC``hFFhw``````",
"````````ihDh```ZhFFhr`````",
"````````e**t````BDFDhy````",
"```````Gu^^0`````NDh**````",
"``````Hbb**9$#%```M^(W^```",
"``````3        &````*D*A``",
"``````7         `````(Wh``",
"```````        `````dbbddd"
};
