/* XPM */
static char *result[] = {
/* columns rows colors chars-per-pixel */
"25 32 79 1 ",
"  c black",
". c #050000",
"X c #060000",
"o c #0A0000",
"O c #0E0000",
"+ c #190000",
"@ c #170D00",
"# c #210000",
"$ c #240000",
"% c #290000",
"& c #2C0000",
"* c #2E0000",
"= c #2A0600",
"- c #250E00",
"; c #2E0800",
": c #2E0E00",
"> c #330000",
", c #380000",
"< c #370800",
"1 c #271700",
"2 c #2F1100",
"3 c #351100",
"4 c #3D1500",
"5 c #3F1C00",
"6 c #400000",
"7 c #411C00",
"8 c #4A1D00",
"9 c #6B0B00",
"0 c #601B00",
"q c #5D3400",
"w c #662800",
"e c #632C00",
"r c #743600",
"t c #703800",
"y c #7C5F00",
"u c #7F0348",
"i c #505050",
"p c #871100",
"a c #8E2000",
"s c #853100",
"d c #A02E00",
"f c #FC1500",
"g c #D52700",
"h c #C23E00",
"j c #CD3E00",
"k c #FF2D00",
"l c #FF3000",
"z c #FF3700",
"x c #884800",
"c c #9A4600",
"v c #805018",
"b c #A84800",
"n c #A86828",
"m c #A87838",
"M c #DF4400",
"N c #C55B00",
"B c #CE5F00",
"V c #FF4200",
"C c #FF4F00",
"Z c #FF5000",
"A c #F75A00",
"S c #FF5800",
"D c #FF5C00",
"F c #D06000",
"G c #D77000",
"H c #DD7300",
"J c #DC7600",
"K c #F87000",
"L c #FF7E00",
"P c #F8B028",
"I c #C09050",
"U c #D8A860",
"Y c #F0C070",
"T c #200080",
"R c #3010A8",
"E c #A0A0A0",
"W c #FFDE87",
"Q c #F8F8F8",
"! c None",
/* pixels */
"!!!!!!X!!!! 6!!!!!!!!!!!!",
"!!!!!!ew!!!  !!!!!!!!!!!!",
"!!!!!!q 5!!   0!!!!!!!!!!",
"!!!#!!2  -!    *!!!!!!!!!",
"!!!3<!7         =+!!!!!!!",
"!!!8 :!1           !!!!!!",
"!!!4  @             !!!!!",
"!!!*                !!!!!",
"!!!!%               !!!!!",
"!!!o!$  v    v  v v  ! !!",
"!!!!.  v    m mUmv   !!!!",
"!!!!!O  m vUUmUUm v#!!!!!",
"!!!!!!&mY    m    Uv  !!!",
"!!!!! #mUm Ei iEUmUv !!!!",
"!!!!!!!>mmYQ U QUvv;!!!!!",
"!!!!!!!!  mUvvvmv ,!!!!!!",
"!!!!!!!TIImmvvmmvvT!!!!!!",
"!!!!!!sIYmmvtTtmYIvy!!!!!",
"!!!!!!!mmYTTmbmYImv!!!!!!",
"!!!!!!!!!mmmUmTmTv!!!!!!!",
"!!!!!!!!!!YIYTmUm!!!!!!!!",
"!!!!!!!M!mUYmmUmm!!!!!!!!",
"!!!!!!jbmmmmmUYIUmS!!!!!!",
"!!!!!!hFFFFFLmUUmbk!!!!!!",
"!!!!!!rbFFbH!DvvKFf!!!!!!",
"!!!!!!!dttTJ!!CFFFl!!!!!!",
"!!!!!!!!gbTN!!AbFbZ!!!!!!",
"!!!!!!!cGnnB!!WbbbV!!!!!!",
"!!!!!!!!!a     TRPz!!!!!!",
"!!!!!!!!9p     bKKb!!!!!!",
"!!!!!!!!       TRPRu!!!!!",
"!!!!!!!!!      xnPnx!!!!!"
};
