/* XPM */
static char *result[] = {
/* columns rows colors chars-per-pixel */
"26 32 99 2 ",
"   c black",
".  c #020000",
"X  c #040000",
"o  c #060500",
"O  c #090000",
"+  c #0B0000",
"@  c #0F0000",
"#  c #120000",
"$  c #190000",
"%  c #1B0000",
"&  c #001000",
"*  c #001200",
"=  c #001900",
"-  c #0D1800",
";  c #0C1D00",
":  c #2F0000",
">  c #360000",
",  c #3A0000",
"<  c #321500",
"1  c #351700",
"2  c #162300",
"3  c #1A2500",
"4  c #1F2D00",
"5  c #302100",
"6  c #4D0000",
"7  c #4C0500",
"8  c #4A0900",
"9  c #500000",
"0  c #471B00",
"q  c #511F00",
"w  c #432200",
"e  c #5C2100",
"r  c #642100",
"t  c #7A2600",
"y  c #793200",
"u  c #703800",
"i  c #703C00",
"p  c #6D4A00",
"a  c #6D5B00",
"s  c #505050",
"d  c #8D1900",
"f  c #B50100",
"g  c #BB0000",
"h  c #BB0100",
"j  c #BF0600",
"k  c #A91400",
"l  c #B71200",
"z  c #8D2500",
"x  c #9D2500",
"c  c #BF2E00",
"v  c #8E1F27",
"b  c #C11200",
"n  c #C21E00",
"m  c #D51600",
"M  c #D73400",
"N  c #DF3300",
"B  c #E13200",
"V  c #884800",
"C  c #8E4D00",
"Z  c #9D5200",
"A  c #9E5200",
"S  c #805018",
"D  c #A94700",
"F  c #A84800",
"G  c #A15500",
"H  c #A25900",
"J  c #A05B00",
"K  c #AF5900",
"L  c #A95E00",
"P  c #B76400",
"I  c #A86828",
"U  c #A87838",
"Y  c #FF5500",
"T  c #D06000",
"R  c #DC6B00",
"E  c #FF6000",
"W  c #FF6900",
"Q  c #F87000",
"!  c #988000",
"~  c #B08B00",
"^  c #E39300",
"/  c #E29800",
"(  c #D5B102",
")  c #D4B905",
"_  c #F9A200",
"`  c #FFAD00",
"'  c #FFBC00",
"]  c #F8B028",
"[  c #FFC300",
"{  c #FFDA00",
"}  c #D8A860",
"|  c #F0C070",
" . c #200080",
".. c #3010A8",
"X. c #4020D0",
"o. c #009CFF",
"O. c #A0A0A0",
"+. c #F8F8F8",
"@. c None",
/* pixels */
"@.@.@.@.@.@.@.@.@.@.@.@.@.@.% : 9 @.@.@.O @.@.@.@.@.",
"@.@.@.@.@.@.@.@.@.@.@.@.@.@.@.@.  x @.@.l f @.@.@.@.",
"@.@.@.@.@.@.@.@.@.@.@.@.@.@.q     1 @.0   7 @.@.@.@.",
"@.@.@.@.@.@.@.@.@.@.> 8 @.<         o     @ @.@.@.@.",
"@.@.@.@.@.@.@.@.@.@.w   5                 X @.@.@.@.",
"@.@.@.@.@.@.@.@.@.$                     ; @.@.@.@.@.",
"@.@.@.@.@.@.@.@.+                     3 - @.  @.@.@.",
"@.@.@.@.@.@.@.                        4 @.    @.@.@.",
"@.@.@.@.@.@.@.                          *   @.@.@.@.",
"@.@.@.@.@.@.@..                 S     =   @.@.@.@.@.",
"@.@.@.@.                S U     S 2 & @.@.@.@.@.@.@.",
"@.@.@.@.@.@.      S     U       U ! @.@.@.@.@.@.@.@.",
"@.@.@.@.@.@.    S } S   } } O.    ) @.@.@.@.@.@.@.@.",
"@.@.@.@.@.      S S } } | | +.s | } ~ @.@.@.@.@.C @.",
"@.@.@.@.@.        S S U } | +.  } ( @.@.@.@.@.H _ K ",
"@.@.@.@.@.@.@.@.      S S } | } U S @.i @.@.J / | { ",
"@.@.@.@.@.@.@.@.@.@.@.F u ..X.U } S U } ..X.} } | ` ",
"@.@.@.@.@.@.@.@.@., F F  .X...} | U | | ..X.} | } @.",
"@.@.@.@.@.@.@.@.@.r F  ...X.U } U U } } ..X...U U @.",
"@.@.@.@.@.@.@.@.@.y F  ...S S S @.@.@.@.@.t z S U @.",
"@.@.@.@.@.@.@.@.@.@. ...X.X.X.@.@.@.@.@.@.@.@.@.W @.",
"@.@.@.@.@.@.@.@.@.D  . ..... .@.@.@.@.@.@.@.@.@.E Y ",
"@.@.@.@.@.@.@.@.R F F T F T T F @.@.@.@.@.@.@.@.@.@.",
"@.@.@.@.@.@.@.P F T Q F N u F Q T @.@.@.@.@.@.@.@.@.",
"@.@.@.@.@.@.Z F Q Q F @.@.m T Q Q j @.@.@.@.@.@.@.@.",
"@.@.@.@.@.A F Q Q F @.@.@.M F T F g @.@.@.@.@.@.@.@.",
"@.@.@.@.G F T Q T @.@.@.@.@.b u u h @.@.@.@.@.@.@.@.",
"@.@.@.L u u F T ' @.@.@.@.@.k  . .n B @.@.@.@.@.@.@.",
"@.@.@. .] X. .[ @.@.@.p e 6 d u u I I c @.@.@.@.@.@.",
"@.@.^ u T u @.@.@.@.a                 # @.@.@.@.@.@.",
"@.v F ] X.@.@.@.@.@.                    @.@.@.@.@.@.",
"V V V I I V @.@.@.@.o.                @.@.@.@.@.@.@."
};
