/* XPM */
static char *result[] = {
/* columns rows colors chars-per-pixel */
"25 32 14 1 ",
"  c black",
". c #703800",
"X c #884800",
"o c #A84800",
"O c #A86828",
"+ c #A87838",
"@ c #D06000",
"# c #F87000",
"$ c #F0C070",
"% c #200080",
"& c #3010A8",
"* c #4020D0",
"= c #009CFF",
"- c None",
/* pixels */
"-----------======--------",
"---------+++     =-------",
"--------+$     =     ----",
"-------                --",
"------               ----",
"-----               -----",
"-----                 ---",
"-----                  --",
"----                    -",
"---                     -",
"--                   ----",
"-  --                 ---",
"----                   --",
"---                ------",
"--  --           % ------",
"-------&o.     .o%%------",
"-------o@......o@.-------",
"-------o#@....o@o--------",
"-------oo@o..ooo-.-------",
"-------.%*%%%%*----------",
"--------%*&%%&*----------",
"-------.oo...oo----------",
"------.o......oo.--------",
"------...o.....o---------",
"------%o..--....o.-------",
"------.@#.--....o.-------",
"-----X&*O%--=.....-------",
"------XOOX--=.%.&o.------",
"---------     oo...------",
"--------      %O&.-------",
"--------      XOX&.------",
"---------      %...------"
};
