/* XPM */
static char *result[] = {
/* columns rows colors chars-per-pixel */
"25 32 67 1 ",
"  c black",
". c #010000",
"X c #070000",
"o c #0A0000",
"O c #0B0000",
"+ c #0F0000",
"@ c #110000",
"# c #140000",
"$ c #190000",
"% c #200000",
"& c #2A0000",
"* c #2F0000",
"= c #320000",
"- c #390000",
"; c #3E0900",
": c #3D0A00",
"> c #3E3300",
", c #703800",
"< c #7D3E00",
"1 c #585100",
"2 c #695900",
"3 c #77760C",
"4 c #505050",
"5 c #992300",
"6 c #803500",
"7 c #923C00",
"8 c #A52000",
"9 c #A72F00",
"0 c #BD3600",
"q c #8D2030",
"w c #E01F00",
"e c #CD2B00",
"r c #884800",
"t c #984500",
"y c #815000",
"u c #805018",
"i c #A64900",
"p c #A84800",
"a c #A05700",
"s c #9C6410",
"d c #BB6D00",
"f c #B77A00",
"g c #A86828",
"h c #A87838",
"j c #D24100",
"k c #CD5500",
"l c #DA5D00",
"z c #EC5C00",
"x c #D06000",
"c c #F87000",
"v c #F87600",
"b c #858E24",
"n c #E5B700",
"m c #FFBE00",
"M c #C9A837",
"N c #F8B028",
"B c #D8A860",
"V c #F0C070",
"C c #200080",
"Z c #3010A8",
"A c #487095",
"S c #4020D0",
"D c #009CFF",
"F c #0EB3EB",
"G c #A0A0A0",
"H c #F8F8F8",
"J c None",
/* pixels */
"JJJJJJJJJJJJJJJJJJJJJJJJJ",
"JJJJJJJJJJJJJJJJJJJJJJJJJ",
"JJJJJJJJJJJJJJJJJJJJJJJJJ",
"JJJJJJJJJJJJJ*:;=%JJJJJJJ",
"JJJJJJJJJXJJ+   @JJJJJJJJ",
"JJJJJJJJO J.    J#o    JJ",
"JJJJJJJJ             JJJJ",
"JJJJJJJ             JJJJJ",
"JJJJJJ             JJJJJJ",
"JJJJJ            $JJJJJJJ",
"JJJJJ               JJJJJ",
"JJJJD         u  %X   JJJ",
"JJJ       u  hu-&JJJJJJJJ",
"       u  h   h8JJJJJJJJJ",
"JJ    uBu BBG  jJJJJJJJJJ",
"JJJF  uhBBVVH4VB9JJJJJJJJ",
"JJJ    uuhBVH BlJJJJJJJJJ",
"JJ    CC,uuBVBhqJJJJJJJJJ",
"JJJJuuuC,,,uuuZSJJJJJJJJJ",
"JJJyuCuuuCZCuBVSJJJJJJJJJ",
"JJ3hhuhVBCShBhBJJJJJJJJJJ",
"JJbMatuhVBZhhuJJJJJJJJJJJ",
"JJJsJJihuuuCZCwJJJJJJJJJJ",
"JJJJJJJ5pxxxpxxxpJJJJJJJJ",
"JJJJJJ7pcx,0e,xxxJJJJJJJJ",
"JJJJJ<pcxpJJJJpxpJJJJJJJJ",
"JJJJ,pxcxdJJJJ,,,vJJJJJJJ",
"JJJ,,,px,JJJJJzCCmnJJJJJJ",
"JJACgSC,JJJ  6k,,,,fJJJJJ",
"JJ,,x,CJJJ         2JJJJJ",
"JJpNSJJJJJ         1JJJJJ",
"rrrggrJJJJJ       >JJJJJJ"
};
