/* XPM */
static char *result[] = {
/* columns rows colors chars-per-pixel */
"25 32 65 1 ",
"  c black",
". c #010000",
"X c #000300",
"o c #040000",
"O c #000400",
"+ c #0C0000",
"@ c #0E0000",
"# c #0F0000",
"$ c #000A00",
"% c #060A00",
"& c #0A0E00",
"* c #110000",
"= c #1D0000",
"- c #011400",
"; c #001600",
": c #0A1C00",
"> c #121900",
", c #141C00",
"< c #210000",
"1 c #270000",
"2 c #370000",
"3 c #241200",
"4 c #331000",
"5 c #102000",
"6 c #192600",
"7 c #152F00",
"8 c #5E0000",
"9 c #670004",
"0 c #6F0600",
"q c #7B0000",
"w c #600017",
"e c #703800",
"r c #820D00",
"t c #971700",
"y c #9A1200",
"u c #9E1900",
"i c #BA0000",
"p c #BE1400",
"a c #952400",
"s c #982E00",
"d c #9C3600",
"f c #BE2F00",
"g c #B53C00",
"h c #964600",
"j c #805018",
"k c #AA4400",
"l c #A84800",
"z c #AB5800",
"x c #A06830",
"c c #A87838",
"v c #D06000",
"b c #CA7300",
"n c #D0790F",
"m c #CB6C1D",
"M c #F87000",
"N c #FF8B09",
"B c #F8B028",
"V c #C09050",
"C c #D8A860",
"Z c #F0C070",
"A c #200080",
"S c #3010A8",
"D c #4020D0",
"F c #009CFF",
"G c None",
/* pixels */
"GGGGGGGGGG    GGGGGGGGGGG",
"GGG  ,:-GGG7  >GGGGGGGGGG",
"GGGGO   ;$G6  5GGGGGGGGGG",
"GGGGG     %    &X GGGGGGG",
"GGGGGG+            GGGGGG",
"GGG                 GGGGG",
"G                  .GGGGG",
"          j  j  j  @GGGGG",
"GGG      j   c  cj  GGGGG",
"GGGGG       jC jc     GGG",
"GG      c    c    j  GGGG",
"GGGG   cZc ZCCZCCcCj3GGGG",
"GGGGGG@cCcZZCCZCCjcj GGGG",
"GGGGG #=njCcjZcjcjh4GGGGG",
"GGGGGGGGo cCZZCcj *GGGGGG",
"GGGGGGGGlllcccjjeeeGGGGGG",
"GGGGGGGAevvlSDAelveAGGGGG",
"GGGGGGbZAlMMlSelvlAcgGGGG",
"GGGGGGzcclvMMllvlejjfGGGG",
"GGGGGkCCcjASDDDSAjcCcGGGG",
"GGGGG1SDAFASSAAAAFADSsGGG",
"GGGGG<SSAelvvlvleeASSuGGG",
"GGGGG2VZjlvMlllvlejZVyGGG",
"GGGGGtcCjlMMvevMvejNcGGGG",
"GGGGGGadGlMMvevMveGpiGGGG",
"GGGGGGGGGlvMlelvleGGGGGGG",
"GGGGGGGGG0eeeFeeewGGGGGGG",
"GGGGGGGGG8xSAFASx9GGGGGGG",
"GGGGGGGGGqMvl lMvrGGGGGGG",
"GGGGGGGGGBSAj jAABGGGGGGG",
"GGGGGGGGmxjj   xxjjGGGGGG",
"GGGGGGGGG        GGGGGGGG"
};
