/* XPM */
static char *result[] = {
/* columns rows colors chars-per-pixel */
"25 32 67 1 ",
"  c black",
". c #000100",
"X c #020000",
"o c #030000",
"O c #010200",
"+ c #040000",
"@ c #040500",
"# c #0B0000",
"$ c #0E0000",
"% c #0F0000",
"& c #000A00",
"* c #010B00",
"= c #140000",
"- c #1D0000",
"; c #061100",
": c #081200",
"> c #0C1000",
", c #0E1100",
"< c #111700",
"1 c #101F00",
"2 c #240000",
"3 c #260000",
"4 c #2B0D00",
"5 c #2D0C00",
"6 c #3B0000",
"7 c #5C001B",
"8 c #61000B",
"9 c #720900",
"0 c #7D1600",
"q c #7E1600",
"w c #703800",
"e c #505050",
"r c #980C00",
"t c #801B00",
"y c #9C1300",
"u c #BB0000",
"i c #B21700",
"p c #962700",
"a c #983200",
"s c #A12600",
"d c #B52A00",
"f c #AB3800",
"g c #9A4100",
"h c #984800",
"j c #805018",
"k c #A84800",
"l c #B04B00",
"z c #AC5A00",
"x c #A06830",
"c c #A87838",
"v c #D06000",
"b c #CB7100",
"n c #DC7C00",
"m c #D97219",
"M c #F87000",
"N c #FF890C",
"B c #F8B028",
"V c #C09050",
"C c #D8A860",
"Z c #F0C070",
"A c #200080",
"S c #3010A8",
"D c #4020D0",
"F c #009CFF",
"G c #A0A0A0",
"H c #F8F8F8",
"J c None",
/* pixels */
"JJJJJJJJJJ    JJJJJJJJJJJ",
"JJJ  ,;*JJJ1  >JJJJJJJJJJ",
"JJJJ    &.J<  :JJJJJJJJJJ",
"JJJJJ     O    @  JJJJJJJ",
"JJJJJJ+            JJJJJJ",
"JJJ                 JJJJJ",
"J                  XJJJJJ",
"          j  j  j  %JJJJJ",
"JJJ      j   c  cj   JJJJ",
"JJJJJ       jC jc     JJJ",
"JJ      c    c    j  JJJJ",
"JJJJ   cZc G C GCcCj4JJJJ",
"JJJJJJ#cCcZHeCeHCjcj JJJJ",
"JJJJJ o2njCH Z Hcjh5JJJJJ",
"JJJJJJJJ$ cCZZCcj =JJJJJJ",
"JJJJJJJJkkkcccjjwwwJJJJJJ",
"JJJJJJJAwvvkSDAwkvwAJJJJJ",
"JJJJJJbZAkMMkSwkvkAcfJJJJ",
"JJJJJJzcckvMMkkvkwjjdJJJJ",
"JJJJJlCCcjASDDDSAjcCcJJJJ",
"JJJJJ3SDAFASSAAAAFADSpJJJ",
"JJJJJ-SSAwkvvkvkwwASSyJJJ",
"JJJJJ6VZjkvMkkkvkwjZVrJJJ",
"JJJJJscCjkMMvwvMvwjNcJJJJ",
"JJJJJJagJkMMvwvMvwJiuJJJJ",
"JJJJJJJJJkvMkwkvkwJJJJJJJ",
"JJJJJJJJJqwwwFwww7JJJJJJJ",
"JJJJJJJJJ9xSAFASx8JJJJJJJ",
"JJJJJJJJJ0Mvk kMvtJJJJJJJ",
"JJJJJJJJJBSAj jAABJJJJJJJ",
"JJJJJJJJmxjj   xxjjJJJJJJ",
"JJJJJJJJJ        JJJJJJJJ"
};
