/* XPM */
static char *result[] = {
/* columns rows colors chars-per-pixel */
"31 32 35 1 ",
"  c black",
". c #0D0000",
"X c #100000",
"o c #110000",
"O c #550000",
"+ c #511100",
"@ c #620700",
"# c #6B0100",
"$ c #680800",
"% c #720600",
"& c #7F2500",
"* c #703800",
"= c #753A00",
"- c #CF3B00",
"; c #F73C00",
": c #814000",
"> c #884800",
", c #805018",
"< c #A84800",
"1 c #A86828",
"2 c #A87838",
"3 c #D24E00",
"4 c #D44F00",
"5 c #FD5600",
"6 c #D06000",
"7 c #D96100",
"8 c #F87000",
"9 c #F8B028",
"0 c #D8A860",
"q c #F0C070",
"w c #200080",
"e c #3010A8",
"r c #4020D0",
"t c #009CFF",
"y c None",
/* pixels */
"yyyyyyyyyyyyyyyyyyyyyyyyyyyyyyy",
"yyyyyyyyyyyyyyyyyyyyyyyyyyyyyyy",
"yyyyyyyyyyyyyyyyyyyyyyyyyyyyyyy",
"yyyyyyyyyyyyyyyyyyyyyyyyyyyyyyy",
"yyyyyyyyyyyyyyyyyyyyyyyyyyyyyyy",
"yyyyyyyyyyyyyyyyyyyyyyyyyyyyyyy",
"yyyyyyyyyyyyyyyyyyyyyyyyyyyyyyy",
"yyyyyyyyyyyyyyyyyyyyyyyyyyyyyyy",
"yyyyyyyyyyyyyyyyyyyyyyyyyyyyyyy",
"yyyyyyyyyyyyyyyyyyyyyyyyyyyyyyy",
"yyyyyyyyyyyyyyyyyyyyyyyyyyyyyyy",
"yyyyyyyyyyyyyyyyyyyyyyyyyyyyyyy",
"yyyyyyyyyyyyyyyyyyyyyyyyyyyyyyy",
"yyyyyyyyyyyyyyyyyyyyyyyyyyyyyyy",
"yyyyyyyyyyyyyyyyyyyyyyyyyyyyyyy",
"yyyyyyyyyyyyyyyyyyyyyy     yyyy",
"yyyyyyyyyyyyyyyyyyyy.Xo  yyyyyy",
"yyyyyyyyyyyyyyyyyy yO        yy",
"yyyyyyyyyyyyyyyyy#            y",
"yyyyyyyyyyyyyyyy               ",
"yyyyyyyyyyyyyyy@           yyyy",
"yyy;w5yyyyyyyyy             yyy",
"yy>ww*7yyyyyyyy        ,      y",
"yy>w*<664yyyyy:    ,   ,       ",
"t>*w*<<6<3-%$   ,  2, 22,w22+yy",
">e*r****<<     ,0, 0000q2,&=yyy",
"1r61*686***we  ,200qq2,,0,yyyyy",
"19*w*<6866<we8<<*ee,2,2we,,,yyy",
"1ww  *<8886wr86<ww0q022er2222yy",
"tt    **86<wr8<wer2020qer0q202y",
"yy      ***we**we,,,,20we0002,t",
"yyy        tttttttttt,,tt,,,yyy"
};
