/* XPM */
static char *result[] = {
/* columns rows colors chars-per-pixel */
"25 32 62 1 ",
"  c black",
". c #010000",
"X c #020000",
"o c #040000",
"O c #050000",
"+ c #060000",
"@ c #130000",
"# c #2E0000",
"$ c #3D0000",
"% c #3F0000",
"& c #480000",
"* c #520000",
"= c #630000",
"- c #680D00",
"; c #701F00",
": c #7D2F00",
"> c #7D3100",
", c #7E3200",
"< c #793400",
"1 c #703800",
"2 c #871E00",
"3 c #8A2700",
"4 c #822A00",
"5 c #8A2A00",
"6 c #8E2E00",
"7 c #902F00",
"8 c #932F00",
"9 c #983500",
"0 c #9E3B00",
"q c #A33800",
"w c #A43800",
"e c #B23100",
"r c #BF3B00",
"t c #B93E00",
"y c #C13700",
"u c #884800",
"i c #805018",
"p c #A54900",
"a c #A84800",
"s c #BD4E00",
"d c #BB5500",
"f c #A86828",
"g c #A87838",
"h c #CC5700",
"j c #F84C00",
"k c #FF5800",
"l c #D06000",
"z c #C77101",
"x c #F87000",
"c c #FF7500",
"v c #EF8600",
"b c #F38D00",
"n c #FF8E00",
"m c #F8B028",
"M c #D8A860",
"N c #F0C070",
"B c #200080",
"V c #3010A8",
"C c #4020D0",
"Z c #009CFF",
"A c #F8F8F8",
"S c None",
/* pixels */
"SSSSSSSSSSSSSSSSSSSSSSSSS",
"SSSSSSSSSSSSSSSSSSSSSSSSS",
"SSSSSSSSSSSSSSS@SSSS SSSS",
"SSSSSSSSSSSSSSSSoXSS  SSS",
"SSSSSSSSSSSSSSSSX OS   SS",
"SSSSSSSSSSSSSSSS  +S   SS",
"SSSSSSSSSSS  SSS.       S",
"SSSSSSSSSSSS  S         S",
"SSSSSSSSSSSS            S",
"SSSSSSSSSSSS           SS",
"SSSSSSSSSSS            S ",
"SSSSSSSSSS               ",
"SSSSSSSSSS              S",
"SSSSSS  SS   i    ii   SS",
"SSSSSSS       iigigi  SSS",
"SSSSSSSS    i  gMg giSSSS",
"SSSSSSSSS  iMi MM NggSSSS",
"SSSSSSS    iggMNNMMNMgSSS",
"SSSSSSSSS   iigMNA MgSSSS",
"SSSSSSSSSSS  BBiMNMzSSSSS",
"SSSSSSSSSSSS#VCViiiBwpSSS",
"SSSSSSSSSSS;VMNNi11BgMdSS",
"SSSSSSSSS-SBigMggiSygghSS",
"SSSS4><,:aVVaigMNgiZrsSSS",
"SSS3alxxxllCCVqgMMVBSSSSS",
"S05B1llxllaa2SStgVCgcSSSS",
"eVaC11ala967SSSSSigMNvSSS",
"fClV11118SSSSSSSSjgMgbSSS",
"fV1f uB1$SSSSSSSSSkknSSSS",
"fmf   uB&*SSSSSSSSSSSSSSS",
"         =SSSSSSSSSSSSSSS",
"Z       %SSSSSSSSSSSSSSSS"
};
