/* XPM */
static char *result[] = {
/* columns rows colors chars-per-pixel */
"25 32 82 1 ",
"  c black",
". c #000100",
"X c #000200",
"o c #040000",
"O c #000400",
"+ c #000500",
"@ c #000800",
"# c #000900",
"$ c #000A00",
"% c #010B00",
"& c #000D00",
"* c #020C00",
"= c #000E00",
"- c #020F00",
"; c #1D0000",
": c #001000",
"> c #001200",
", c #051100",
"< c #001400",
"1 c #001700",
"2 c #041500",
"3 c #0C1200",
"4 c #001800",
"5 c #001B00",
"6 c #081900",
"7 c #091F00",
"8 c #0E1C00",
"9 c #2E0000",
"0 c #3C0000",
"q c #002700",
"w c #142400",
"e c #112800",
"r c #322800",
"t c #322E00",
"y c #203800",
"u c #3A3300",
"i c #4C0600",
"p c #5F0000",
"a c #670700",
"s c #780300",
"d c #721E00",
"f c #4C2C00",
"g c #772C00",
"h c #643800",
"j c #703800",
"k c #2E4E00",
"l c #584B00",
"z c #594E00",
"x c #6A5100",
"c c #7A5100",
"v c #7D5A00",
"b c #7F500D",
"n c #5E6700",
"m c #505050",
"M c #980800",
"N c #8C1A00",
"B c #892600",
"V c #8C2700",
"C c #923F00",
"Z c #A22B00",
"A c #864500",
"S c #8A4700",
"D c #884800",
"F c #805018",
"G c #A04D00",
"H c #A84800",
"J c #B35600",
"K c #A86828",
"L c #A87838",
"P c #D06000",
"I c #F87000",
"U c #F8B028",
"Y c #C09050",
"T c #D8A860",
"R c #F0C070",
"E c #200080",
"W c #3010A8",
"Q c #4020D0",
"! c #109DF6",
"~ c #A0A0A0",
"^ c #F8F8F8",
"/ c None",
/* pixels */
"//////     //////////////",
"///////y   8//%//////////",
"/ .2  7/    6/e-/////////",
"///+         , */////////",
"////#           O////////",
"/////&           $///////",
"//////4           &//////",
"//// @            ://////",
"///   /  F        =//////",
"////////5FL  F     <$////",
"////////kL   L  F    #  /",
"////////nR ~TT FTF  q ///",
"///////tTRm^RRTTLF >/////",
"////////zT ^RTLFF    ////",
"/////////lTRTFF3w1<<X ///",
"//////////rFFjju/////////",
"///////////PWWEEf////////",
"//////////IWQQQW:////////",
"/////////iIPLRYFh////////",
"/////////oQWLLFLc////////",
"////////9EWEEYRYb////////",
"////////aHPHWQW//////////",
"////////NjIPLLQ//////////",
"/////////VHLRTLx/////////",
"//////////AFLRTv/////////",
"//////////SPFFFJd////////",
"//////////GjHPPHB////////",
"/////////ZgEjjjC/////////",
"////////MDDDEKQs/////////",
"///////0   EjPjjp////////",
"///////;  DEUQWD ////////",
"////////   KKKD !////////"
};
