/* XPM */
static char *result[] = {
/* columns rows colors chars-per-pixel */
"25 32 74 1 ",
"  c black",
". c #020000",
"X c #000500",
"o c #000700",
"O c #000900",
"+ c #010900",
"@ c #000A00",
"# c #000C00",
"$ c #010C00",
"% c #000F00",
"& c #021000",
"* c #031000",
"= c #001400",
"- c #001500",
"; c #001600",
": c #061400",
"> c #001900",
", c #001B00",
"< c #0D1A00",
"1 c #121E00",
"2 c #2E0000",
"3 c #330000",
"4 c #002200",
"5 c #002300",
"6 c #002500",
"7 c #062500",
"8 c #0B2200",
"9 c #0E2300",
"0 c #002D00",
"q c #002E00",
"w c #1A2F00",
"e c #223C00",
"r c #470000",
"t c #460900",
"y c #700E00",
"u c #463D00",
"i c #663C00",
"p c #7B3500",
"a c #703800",
"s c #514B00",
"d c #6F5B00",
"f c #7E5203",
"g c #7B5400",
"h c #486B00",
"j c #6F6500",
"k c #776400",
"l c #871600",
"z c #992300",
"x c #8D3F00",
"c c #933400",
"v c #C43100",
"b c #844900",
"n c #874D00",
"m c #884800",
"M c #9B480F",
"N c #805018",
"B c #A84800",
"V c #AE4D00",
"C c #B54700",
"Z c #A45A00",
"A c #886800",
"S c #A86828",
"D c #A87838",
"F c #D06000",
"G c #F87000",
"H c #798A00",
"J c #F8B028",
"K c #C09050",
"L c #D8A860",
"P c #F0C070",
"I c #200080",
"U c #3010A8",
"Y c #4020D0",
"T c None",
/* pixels */
"TTTTTT     TTTTTTTTTTTTTT",
"TTTTTTTe   <TT+TTTTTTTTTT",
"T  -  8T    :T9&TTTTTTTTT",
"TTTo         * $TTTTTTTTT",
"TTTT#           XTTTTTTTT",
"TTTTTo0          #TTTTTTT",
"TTTTTT=           %TTTTTT",
"TTTT              ;TTTTTT",
"TTTT  T  N        =TTTTTT",
"TTTTTTTT6ND  N     >OTTTT",
"TTTTTTTThD   D  N    @  T",
"TTTTTTTTHPPLLL NLN  q TTT",
"TTTTTTTTLPPLPPLLDN ,TTTTT",
"TTTTTTTTkLDDPLDNN    TTTT",
"TTTTTTTTTjLPLNN1w754O TTT",
"TTTTTTTTTTuNNaasTTTTTTTTT",
"TTTTTTTTTTTFUUIIaTTTTTTTT",
"TTTTTTTTTTGUYYYU>TTTTTTTT",
"TTTTTTTTTtGFDPKNiTTTTTTTT",
"TTTTTTTTT.YUDDNDgTTTTTTTT",
"TTTTTTTT3IUIIKPKfTTTTTTTT",
"TTTTTTTTyBFBUYUTTTTTTTTTT",
"TTTTTTTTzaGFDDYTTTTTTTTTT",
"TTTTTTTTTcBDPLDdTTTTTTTTT",
"TTTTTTTTTTnNDPLATTTTTTTTT",
"TTTTTTTTTTbFNNNVpTTTTTTTT",
"TTTTTTTTTTZaBFFBxTTTTTTTT",
"TTTTTTTTTCMIaaaaTTTTTTTTT",
"TTTTTTTTvmmmISYlTTTTTTTTT",
"TTTTTTTT   IaFaarTTTTTTTT",
"TTTTTTT2  mIJYUm TTTTTTTT",
"TTTTTTTT   SSSm TTTTTTTTT"
};
