/* XPM */
static char *result[] = {
/* columns rows colors chars-per-pixel */
"25 32 50 1 ",
"  c black",
". c #020000",
"X c #000400",
"o c #000500",
"O c #070500",
"+ c #000900",
"@ c #000C00",
"# c #020E00",
"$ c #1F0600",
"% c #071000",
"& c #001400",
"* c #0B1400",
"= c #041900",
"- c #0C2101",
"; c #0C2800",
": c #2F2200",
"> c #491C00",
", c #703800",
"< c #7C3A00",
"1 c #744700",
"2 c #505050",
"3 c #CA3A00",
"4 c #814600",
"5 c #884800",
"6 c #814F13",
"7 c #805018",
"8 c #A54500",
"9 c #A64400",
"0 c #A84800",
"q c #AC5500",
"w c #BF6600",
"e c #A86828",
"r c #A87838",
"t c #EA5800",
"y c #D06000",
"u c #E66000",
"i c #F87000",
"p c #9E8000",
"a c #A08200",
"s c #A89100",
"d c #F8B028",
"f c #C09050",
"g c #D8A860",
"h c #F0C070",
"j c #200080",
"k c #3010A8",
"l c #4020D0",
"z c #A0A0A0",
"x c #F8F8F8",
"c c None",
/* pixels */
"cccccccccccccc     cccccc",
"cccccccccc%cc     ccccccc",
"ccccccccc&=co    c#  +O c",
"ccccccccc@ X          ccc",
"cccccccc             cccc",
"ccccccc             ccccc",
"cccccc             cccccc",
"cccccc               cccc",
"cccccc         7  ccccccc",
"ccccc      7  r7;cccccccc",
"ccc     7  r   rccccccccc",
"ccccc  7g7 ggz hccccccccc",
"ccccc  7rgghhx2hgpccccccc",
"ccccc   77rghx gscccccccc",
"cccc  ccc 77ghgaccccccccc",
"cccccccccc,,771cccccccccc",
"cccccccccjjkkyccccccccccc",
"cccccccc klllkicccccccccc",
"cccccccc*7fhryi9ccccccccc",
"cccccccc:r7rrkl>ccccccccc",
"cccccccccfhfjjkj<cccccccc",
"ccccccccccklk0y04cccccccc",
"cccccccccclrryi,6cccccccc",
"cccccccccqrghr0,ccccccccc",
"cccccccccwghr7,cccccccccc",
"cccccccc3u777y,cccccccccc",
"cccccccct0yy0,,cccccccccc",
"ccccccccc8,,,jk,ccccccccc",
"cccccccccclej555,cccccccc",
"ccccccccc,,y,j   .ccccccc",
"cccccccc$5kldj5   ccccccc",
"ccccccccc-5eee   cccccccc"
};
