/* XPM */
static char *result[] = {
/* columns rows colors chars-per-pixel */
"25 32 46 1 ",
"  c black",
". c #020300",
"X c #020400",
"o c #000700",
"O c #0E0000",
"+ c #0C0A00",
"@ c #0F0A00",
"# c #130E00",
"$ c #180A00",
"% c #190E00",
"& c #001100",
"* c #001200",
"= c #121500",
"- c #002200",
"; c #0E2700",
": c #383600",
"> c #460000",
", c #570E00",
"< c #401F00",
"1 c #703800",
"2 c #6E3A16",
"3 c #7F4800",
"4 c #814903",
"5 c #884800",
"6 c #805018",
"7 c #A84800",
"8 c #AA5B00",
"9 c #AC6800",
"0 c #A86828",
"q c #A87838",
"w c #D05400",
"e c #D06000",
"r c #DD6000",
"t c #F87000",
"y c #718300",
"u c #9D8400",
"i c #AA8B00",
"p c #B19D00",
"a c #F8B028",
"s c #C09050",
"d c #D8A860",
"f c #F0C070",
"g c #200080",
"h c #3010A8",
"j c #4020D0",
"k c None",
/* pixels */
"kkkkkkkkkkkkkk     kkkkkk",
"kkkkkkkkkk%kk     kkkkkkk",
"kkkkkkkkk@#k     k.  XO k",
"kkkkkkkkk+            kkk",
"kkkkkkkk&            kkkk",
"kkkkkkk*          o kkkkk",
"kkkkkk             kkkkkk",
"kkkkkk               kkkk",
"kkkkkk         6  kkkkkkk",
"kkkkk      6  q6;kkkkkkkk",
"kkk     6  q   qykkkkkkkk",
"kkkkk  6d6 dddffkkkkkkkkk",
"kkkkk  6qddffdffdukkkkkkk",
"kkkkk   66qdfqqdpkkkkkkkk",
"kkkk  kkk 66dfdikkkkkkkkk",
"kkkkkkkkk<11663kkkkkkkkkk",
"kkkkkkkkkgghhekkkkkkkkkkk",
"kkkkkkkk-hjjjhtkkkkkkkkkk",
"kkkkkkkk=6sfqet7kkkkkkkkk",
"kkkkkkkk:q6qqhj>kkkkkkkkk",
"kkkkkkkkksfsgghg4kkkkkkkk",
"kkkkkkkkkkhjh7e76kkkkkkkk",
"kkkkkkkkk2jqqet16kkkkkkkk",
"kkkkkkkkk8qdfq71kkkkkkkkk",
"kkkkkkkkk9dfq61kkkkkkkkkk",
"kkkkkkkkw7666e1kkkkkkkkkk",
"kkkkkkkkr7ee711kkkkkkkkkk",
"kkkkkkkkk1111gh1kkkkkkkkk",
"kkkkkkkkkkj0g5551kkkkkkkk",
"kkkkkkkk,11e1g    kkkkkkk",
"kkkkkkkk$5hjag5   kkkkkkk",
"kkkkkkkkk 5000   kkkkkkkk"
};
