/* XPM */
static char *result[] = {
/* columns rows colors chars-per-pixel */
"25 32 75 1 ",
"  c black",
". c #020000",
"X c #030000",
"o c #040000",
"O c #050000",
"+ c #060000",
"@ c #070000",
"# c #090000",
"$ c #0A0000",
"% c #0E0000",
"& c #0F0000",
"* c #100000",
"= c #130000",
"- c #140000",
"; c #160000",
": c #170000",
"> c #180000",
", c #1D0000",
"< c #1F0000",
"1 c #170900",
"2 c #110F00",
"3 c #1A1300",
"4 c #200000",
"5 c #220000",
"6 c #240000",
"7 c #260000",
"8 c #2A0B00",
"9 c #231E00",
"0 c #311300",
"q c #341100",
"w c #341C00",
"e c #282400",
"r c #343100",
"t c #4D0000",
"y c #530200",
"u c #5D0300",
"i c #5E0C00",
"p c #5F0D00",
"a c #700000",
"s c #631900",
"d c #503700",
"f c #563800",
"g c #7D2400",
"h c #6D3000",
"j c #723200",
"k c #703800",
"l c #675B00",
"z c #830700",
"x c #930000",
"c c #980000",
"v c #821400",
"b c #B90D00",
"n c #802C00",
"m c #952600",
"M c #BC2100",
"N c #834B00",
"B c #874B00",
"V c #884800",
"C c #805018",
"Z c #A84800",
"A c #B05500",
"S c #B16900",
"D c #A86828",
"F c #A87838",
"G c #D06000",
"H c #F87000",
"J c #989732",
"K c #C09050",
"L c #D8A860",
"P c #F0C070",
"I c #200080",
"U c #3010A8",
"Y c #4020D0",
"T c #009CFF",
"R c None",
/* pixels */
"RRRRRRRRRRRo *@RRRRRRRRRR",
"RRRRRRRRRR2  rRRRl   mRRR",
"RRRRRRRRRR1  9Re    RRRRR",
"RRRRRRR.%&        d0RRRRR",
"RRRRRR*           3RRRRRR",
"RRRRR%             $  RRR",
"RRRRR,                  R",
"RRRRR-                   ",
"RRRRO                 RRR",
"RR=$               >RRRRR",
"6;:;                   RR",
"RRRR@              X RRRR",
"RRR               5RRRRRR",
"R*+o#-           7< RRRRR",
"RRRRRR5         :RRRRRRRR",
"RRRRRRZZk     kkkRRRRRRRR",
"RRRRfIkHGZZkkkZGkItRRRRRR",
"RRRRSPIGHHHGHHGZIFnRRRRRR",
"RRRRBFFZGHGZHGZkCCgRRRRRR",
"RRRALLFCUYYYYUICFLFsRRRRR",
"RRRqUYITUUYYUIITIYU@RRRRR",
"RRR4UUIZZGGGGZkkIUU.RRRRR",
"RRR8KPCZGZZkkZGkCPKORRRRR",
"RRRjFJpZGHGkGHGkbLFuRRRRR",
"RRRRRRRhHHGkGHGzRcaRRRRRR",
"RRRRRRRiZHZkZGZxRRRRRRRRR",
"RRRRRRRRkkkTkkkRRRRRRRRRR",
"RRRRRRRwUDITIYDRRRRRRRRRR",
"RRRRRRRyGHk ZZHMRRRRRRRRR",
"RRRRRRNUYDI CUDUIvRRRRRRR",
"RRRRRRRVDDV  VDVVRRRRRRRR",
"RRRRRRRR        RRRRRRRRR"
};
