/* XPM */
static char *cfee318ff3994759a96aab9ff38a656abXL5wl66wWYyc5JW[] = {
/* columns rows colors chars-per-pixel */
"64 64 141 2 ",
"   c None",
".  c #000000",
"X  c #080600",
"o  c #0D0A00",
"O  c #050508",
"+  c #07080C",
"@  c #0A0A0C",
"#  c #110D00",
"$  c #151100",
"%  c #1A1500",
"&  c #1E1900",
"*  c #0C0D11",
"=  c #0F1013",
"-  c #121316",
";  c #16171A",
":  c #17181A",
">  c #1A1A1C",
",  c #231D01",
"<  c #262000",
"1  c #2C2303",
"2  c #362B03",
"3  c #382E00",
"4  c #3D3300",
"5  c #1E1E20",
"6  c #232427",
"7  c #262629",
"8  c #2B2B2C",
"9  c #333334",
"0  c #37383A",
"q  c #3A3A3B",
"w  c #433603",
"e  c #433901",
"r  c #493B03",
"t  c #4D4200",
"y  c #554602",
"u  c #594607",
"i  c #564800",
"p  c #5B4D01",
"a  c #5F5001",
"s  c #645401",
"d  c #685701",
"f  c #6D5C01",
"g  c #6E5708",
"h  c #705E01",
"j  c #745C09",
"k  c #785F09",
"l  c #766401",
"z  c #796701",
"x  c #7E6A01",
"c  c #7C6209",
"v  c #434345",
"b  c #4F4F50",
"n  c #535455",
"m  c #575759",
"M  c #59595A",
"N  c #5F5F60",
"B  c #606061",
"V  c #69696A",
"C  c #727272",
"Z  c #7F7F7F",
"A  c #826E01",
"S  c #83670A",
"D  c #896C0A",
"F  c #867101",
"G  c #8B7401",
"H  c #8F7901",
"J  c #957D02",
"K  c #987F02",
"L  c #9D8402",
"P  c #A18602",
"I  c #A58B02",
"U  c #A98E02",
"Y  c #A5830D",
"T  c #B28C0E",
"R  c #AE9202",
"E  c #B49602",
"W  c #B79902",
"Q  c #BB9D02",
"!  c #B7900E",
"~  c #BA920E",
"^  c #BFA002",
"/  c #C4A402",
"(  c #C8A702",
")  c #CEAC02",
"_  c #D3B002",
"`  c #D9B602",
"'  c #DCB902",
"]  c #E3BF02",
"[  c #E6C102",
"{  c #EBC502",
"}  c #F5CD03",
"|  c #F8CF03",
" . c #FFD503",
".. c #FFD903",
"X. c #858585",
"o. c #878788",
"O. c #878888",
"+. c #898989",
"@. c #939393",
"#. c #9E9E9E",
"$. c #A5A5A5",
"%. c gray65",
"&. c #A7A7A7",
"*. c #A0A0A0",
"=. c gray67",
"-. c #ACACAC",
";. c gray68",
":. c #AEAEAE",
">. c #A9A9A9",
",. c #B7B7B7",
"<. c #B1B1B1",
"1. c gray73",
"2. c #BCBCBC",
"3. c gray76",
"4. c #C5C5C5",
"5. c gray78",
"6. c #C7C7C6",
"7. c #C8C8C8",
"8. c gray79",
"9. c #CBCBCB",
"0. c gray80",
"q. c #CDCDCD",
"w. c #CECECE",
"e. c #D0D0D0",
"r. c LightGray",
"t. c gray84",
"y. c #D5D5D5",
"u. c #DBDBDB",
"i. c #E6E6E6",
"p. c gray90",
"a. c gray91",
"s. c #EAEAEA",
"d. c #EFEFEF",
"f. c gray97",
"g. c gray97",
"h. c #F8F8F8",
"j. c gray98",
"k. c #FDFDFD",
"l. c #FEFEFE",
"z. c white",
"x. c #FFFFFF",
/* pixels */
"      . . . . . . . . . . . . . . . . . . . . . . . . . . . . . . . . . . . . . . . . . . . . . . . . . . . . . . . . . .       ",
"  . . . . . . . . . . . . . . . . . . . . . . . . . . . . . . . . . . . . . . . . . . . . . . . . . . . . . . . . . . . . . .   ",
"  . . e G L P P L L L L L L L L L L L L L L L L L L L L L L L L L L L L L L L L L L L L L L L L L L L L L L L L P P P G e . .   ",
". . e { ..{ ( )  ......................................................................................... ... .) / { ..[ 4 . . ",
". . G ../ 3 $ $ a [  . . . . . . . . . . . . . . . . . . . . . . . . . . . . . . . . . . . . . . . . . . . .] p $ # 4 ( ..F . . ",
". . L } 4 1 D j # A  . . . . . . . . . . . . . . . . . . . . . . . . . . . . . . . . . . . . . . . . . . . .x # j D 1 e | L . . ",
". . P ` % c ~ ! w r  . . . . . . . . . . . . . . . . . . . . . . . . . . . . . . . . . . . . . . . . . . .} e r ! ~ j % ` K . . ",
". . L [ , u T Y < s  . . . . . . . . . . . . . . . . ... . . . ... . . ... . . ... . . . . . . . . . . . . .p 1 Y T u < [ K . . ",
". . L ..F # 1 , , /  . . . . . . .} } } } } } } } } } } } } } } } } } } } } } } } } } } } } }  . . . . . . .^ % , 1 o G ..J O . ",
". . L ..} I s f (  . . . . . .} x 4 4 4 4 3 4 4 3 4 4 4 4 4 4 4 4 4 4 4 4 4 4 4 4 4 4 3 4 4 4 x }  . . . . . ./ f s U | ..J . . ",
". . L .. ... . . . . . . . .} l . ; 6 6 6 6 6 6 6 6 6 6 6 6 6 6 6 6 6 6 6 6 6 6 6 6 6 6 6 6 - . z | .. . . . . . . ... ...J . . ",
". . L .. . . . . . . . . . .z . 0 9.s.i.i.i.i.i.i.i.i.i.i.i.i.i.i.i.i.i.i.i.i.i.i.i.i.i.i.i.9.0 . x |  . . . . . . . . ...K . . ",
". . L .. . . . . . . . .| x . 0 y.l.l.l.l.l.l.l.l.l.l.l.l.l.l.l.l.l.l.l.l.l.l.l.l.l.l.l.l.l.l.r.9 X F  . . . . . . . . ...J . . ",
". . L .. . . . . . . . .F . 9 e.l.l.l.l.l.l.l.l.l.l.l.l.l.l.l.l.l.l.l.l.l.l.l.l.l.l.l.l.l.l.l.l.q.8 X F  . . . . . . . ...J . . ",
". . L .. . . . . . . .G X 8 9.l.l.l.l.l.l.l.l.l.l.l.l.l.l.l.l.l.l.l.l.l.l.l.l.l.l.l.l.l.l.l.l.l.l.9.7 X J  . . . . . . ...J . . ",
". . L .. . . . . . .` $ 6 6.l.l.l.l.l.l.l.l.l.l.l.l.l.l.l.l.l.l.l.l.l.l.l.l.l.l.l.l.l.l.l.l.l.l.l.l.3.5 % `  . . . . . ...K . . ",
". . L .. . . . . . .) o M l.l.l.l.l.l.l.l.l.l.j.,.$.%.%.%.%.$.$.$.$.&.$.$.$.$.2.j.l.l.l.l.l.l.l.l.l.l.m # _  . . . . . ...J . . ",
". . L .. . . . . ...) o B l.l.l.l.l.l.l.l.l.g.X.@ . . . . . . O . O . . . O . @ +.j.l.l.l.l.l.l.l.l.l.m # _ .. . . . . ...K . . ",
". . L .. . . . . ...) o B l.l.l.l.l.l.l.l.l.#.O 1 F J H H H H H H H H H H H G < + $.l.l.l.l.l.l.l.l.l.m o _ .. . . . . ...J . . ",
". . L .. . . . . . .) o N l.l.l.l.l.l.l.l.l.Z . R ............................I . X.l.l.l.l.l.l.l.l.l.m # _  . . . . . ...K . . ",
". . L .. . . . . ...) o B l.l.l.l.l.l.l.l.l.X.. Q  . . . . . . . . . . . . . .W X X.l.l.l.l.l.l.l.l.l.m $ _  . . . . . ...J . . ",
". . L .. . . . . ...) o N l.l.l.l.l.l.l.l.l.Z X Q .. . . . . . . . . . . . ...E . X.l.l.l.l.l.l.l.l.l.m # _ .. . . . . ...J . . ",
". . L .. . . . . . .) o N l.l.l.l.l.l.l.l.l.Z . Q .. . . . . . . . . . . . ...E X X.l.l.l.l.l.l.l.l.l.m o _ .. . . . . ...J . . ",
". . L .. . . . . ...) o N l.l.l.l.l.l.l.l.l.Z X Q .. . . . . . . . . . . . ...W . X.l.l.l.l.l.l.l.l.l.m # _  . . . . . ...K . . ",
". . L .. . . . . . .) o B l.l.l.l.l.l.l.l.l.X.. Q .. . . . . . . . . . . . ...E . O.l.l.l.l.l.l.l.l.l.m # _  . . . . . ...J . . ",
". . L .. . . . . ...) o b r.r.r.y.r.r.y.r.t.V . Q .. . . . . . . . . ... . ...W . X.l.l.l.l.l.l.l.l.l.m o _ .. . . . . ...K . . ",
". . L .. . . . . ...) o O = - - - - - - - - + . Q .. . . . . .} } } } } } } } x . o.l.l.l.l.l.l.l.l.l.m # _ .. . . . . ...J . . ",
". . L .. . . . . ...{ z i i y y i i i i i i y f ]  . . . . .I e 4 4 w 4 4 4 3 X 8 q.l.l.l.l.l.l.l.l.l.m # _  . . . . . ...K . . ",
". . L .. . . . . . . . . . . . . . . . .|  . . . . . . . .P # * 6 6 7 6 6 6 6 q 5.l.l.l.l.l.l.l.l.l.l.m # _ .. . . . . ...J . . ",
". . L .. . . . . . . . . . . . . . . . . . . . . . . . .I $ : :.s.s.s.s.s.s.i.g.l.l.l.l.l.l.l.l.l.l.l.n o _ .. . . . . ...J . . ",
". . L .. . . . . . . . . . . . . . . . . . . . . . . .R $ : :.l.l.l.l.l.l.l.l.l.l.l.l.l.l.l.l.l.l.l.-.- , '  . . . . . ...J . . ",
". . L .. . . . . . . . . . . . . . . . . . . . . . .R $ - =.l.l.l.l.l.l.l.l.l.l.l.l.l.l.l.l.l.l.l.-.; $ R  . . . . . . ...K . . ",
". . L .. . . . . . . . . . . . . . . . . . . . ...E % - =.l.l.l.l.l.l.l.l.l.l.l.l.l.l.l.l.l.l.l.<.; $ I  . . . . . . . ...J . . ",
". . L .. . . . . . . . . . . . . . . . . . . . . .i + *.l.l.l.l.l.l.l.l.l.l.l.l.l.l.l.l.l.l.l.<.> # I  . . . . . . . . ...K . . ",
". . L .. . . . . . . . . . . . . . . . . . . . . .y : u.l.l.l.l.l.l.l.l.l.l.y.=.&.=.=.=.=.=.@.> # P  . . . . . . . . . ...J . . ",
". . L  . . . . . . . . . . . . . . . . . . . . . .y > t.l.l.l.l.l.l.l.l.l.5.8 . . O . . . O . o P  . . . . . . . . . . ...K . . ",
". . L .. . . . . . . . . . . . . . . . . . . . . .y - u.l.l.l.l.l.l.l.l.i.9 X d G G G G G G G E  . . . . . . . . . . . ...J . . ",
". . L .. . . . . . . . . . . . . . . . . . . . . .y ; u.l.l.l.l.l.l.l.l.r.- t  ................. . . . . . . . . . . . ...J . . ",
". . L .. . . . . . . . . . . . . . . . . . . . . .i ; u.l.l.l.l.l.l.l.l.r.- p  . . . . . . . . . . . . . . . . . . . . ...J . . ",
". . L .. . . . . . . . . . . . . . . . . . . . . .i ; u.l.l.l.l.l.l.l.l.r.= p  . . . . . . . . . . . . . . . . . . . . ...K . . ",
". . L .. . . . . . . . . . . . . . . . . . . . . .y - u.l.l.l.l.l.l.l.l.r.- a  . . . . . . . . . . . . . . . . . . . . ...J . . ",
". . L .. . . . . . . . . . . . . . . . . . . . . .i : u.l.l.l.l.l.l.l.l.t.- a  . . . . . . . . . . . . . . . . . . . . ...K . . ",
". . L .. . . . . . . . . . . . . . . . . . . . . .y = *.2.1.1.1.2.1.2.2.#.@ p  . . . . . . . . . . . . . . . . . . . . ...J . . ",
". . L .. . . . . . . . . . . . . . . . . . . . . .p . O + + O O O O O + O . a  . . . . . . . . . . . . . . . . . . . . ...K . . ",
". . L .. . . . . . . . . . . . . . . . . . . . . .^ l l l l l l l l l l l l /  . . . . . . . . . . . . . . . . . . . . ...J . . ",
". . L .. . . . . . . . . . . . . . . . . . . . . ........................... . . . . . . . . . . . . . . . . . . . . . ...J . . ",
". . L .. . . . . . . . . . . . . . . . . . . . . .} ] ] ] ] ] ] ] ] ] ] ] [ }  . . . . . . . . . . . . . . . . . . . . ...J . . ",
". . L .. . . . . . . . . . . . . . . . . . . . . .F , , , , , , , , , , , , G .. . . . . . . . . . . . . . . . . . . . ...K . . ",
". . L .. . . . . . . . . . . . . . . . . . . . . .y O 0 v v v v v v v v 0 O i  . . . . . . . . . . . . . . . . . . . . ...J . . ",
". . L .. . . . . . . . . . . . . . . . . . . . . .y ; r.j.j.g.g.g.g.g.j.q.= p  . . . . . . . . . . . . . . . . . . . . ...K . . ",
". . L .. . . . . . . . . . . . . . . . . . . . . .i ; t.l.l.l.l.l.l.l.l.r.= p  . . . . . . . . . . . . . . . . . . . . ...J . . ",
". . L .. . . . . . . . . . . . . . . . . . . . . .i > t.l.l.l.l.l.l.l.k.y.; a  . . . . . . . . . . . . . . . . . . . . ...K . . ",
". . L .. . . . . . . . . . . . . . . . . . . . . .y : u.l.l.l.l.l.l.l.l.y.- p  . . . . . . . . . . . . . . . . . . . . ...J . . ",
". . L .. ... . . . . . . . . . . . . . . . . . . .y > u.l.l.l.l.l.l.l.l.y.- p  . . . . . . . . . . . . . . . . . . .......J . . ",
". . L ..} L p d /  . . . . . . . . . . . . . . . .y + C +.X.X.o.o.X.X.+.C + p  . . . . . . . . . . . . . . . ./ s p L | ..J . . ",
". . L  .x # 2 , & Q  . . . . . . . . . . . . . . .s . . . . . . . . . . . . f  . . . . . . . . . . . . . . .W % , 2 # A  .K . . ",
". . L [ < u T Y 1 p  . . . . . . . . . . . . . . .' R R R R R R R E R R R E '  . . . . . . . . . . . . . . .i 1 Y ! u , [ J . . ",
". . P ` % c ~ ! w r  . . . . . . . . . . . . . . ................. ......... . . . . . . . . . . . . . . . .e r ! ~ j % ' L . . ",
". . L } e 1 S g $ G  . . . . . . . . . . . . . . . . . . . . . . . . . . . . . . . . . . . . . . . . . . . .A # j S , r } K . . ",
". . G ../ 4 $ $ s {  . . . . . . . . . . . . . . . . . . . . . . . . . . . . . . . . . . . . . . . . . . . .[ a $ $ w ) ..F . . ",
". . w [ ..} ( _  ............................................................................... ............. ._ ) } ..[ 4 . . ",
"  . . 4 F K L K J J J J J J J J J K J J J J J K K J J K J K J J J J J K K J K J J K J J J J J J J J J J J K J K K K K F 4 . .   ",
"  . . . . . . . . . . . . . . . . . . . . . . . . . . . . . . . . . . . . . . . . . . . . . . . . . . . . . . . . . . . . . .   ",
"      . . . . . . . . . . . . . . . . . . . . . . . . . . . . . . . . . . . . . . . . . . . . . . . . . . . . . . . . . .       "
};
