/* XPM */
static char *cccc1671409866[] = {
/* columns rows colors chars-per-pixel */
"64 64 69 1 ",
"  c #855B3F",
". c #92673C",
"X c #94683B",
"o c #875E45",
"O c #8D6345",
"+ c #8D6548",
"@ c #926643",
"# c #956A45",
"$ c #9B6E45",
"% c #91664B",
"& c #956B4C",
"* c #9A6E4B",
"= c #9E7145",
"- c #9D724C",
"; c #8F6850",
": c #946B51",
"> c #996E52",
", c #9C7354",
"< c #9C7459",
"1 c #A37545",
"2 c #A2764C",
"3 c #A6784B",
"4 c #AB7D4C",
"5 c #A27653",
"6 c #A57A54",
"7 c #AA7E55",
"8 c #A0775A",
"9 c #A57B5B",
"0 c #A97E5C",
"q c #A67E60",
"w c #AF804E",
"e c #B1814E",
"r c #AE8153",
"t c #AD825C",
"y c #B48453",
"u c #B78856",
"i c #B98A56",
"p c #B1855D",
"a c #B6895B",
"s c #BC8D5B",
"d c #BF905D",
"f c #A78060",
"g c #AD8361",
"h c #AE8769",
"j c #B28662",
"k c #B58963",
"l c #BA8D64",
"z c #BB8F69",
"x c #BE9164",
"c c #BC9069",
"v c #C1925E",
"b c #C59563",
"n c #C79865",
"m c #C99966",
"M c #C2956A",
"N c #C6996C",
"B c #CC9D6B",
"V c #C29670",
"C c #C79B72",
"Z c #CB9E71",
"A c #CFA06E",
"S c #D1A16E",
"D c #CEA172",
"F c #D3A473",
"G c #D7A877",
"H c #D8A977",
"J c #D4A679",
"K c #D7A978",
"L c #DAAB79",
/* pixels */
"FnsvBBvuX>678Fvmm4&44v3@iFu4*ZbSGvvvmBb7@>705Fvmm4&34v1@sFiy=AbS",
"bAmbbbbs=%+&lSBmv4%:23589l72<FBSbSBbbbbv1%O%vSBmv4#:26580a72>FmF",
"mvABvsnm4%<8FvNni200ZGZZB0a9:0LBBvAmvvbB4&<5DbNbi2q0ZJABB005<0LB",
"dbbnvvvv4jBljBbs=ZLFBFvimBBBv&vAvvbmvvvv70AvqDbv=CLGAFvibBSBM%vS",
"BBFbunBu.lBv7905vGbBmmbmmmmvvi3DBBFb4mBvXvBv7005MSmmbBbmmmbvvi1Z",
"FBBvvBvv3pmu$&&8GbSMvmbbvBBmvv77FSSvbBvv40m0*%%,GbAbvBbbiBSmvv46",
"8Bnvbmby78p2k5%lFbSvvSSMvSSBmmv=>Smvbbv47905k5%MFbSvvASMvFSBmBb1",
"o>vvuiv1%kZFBblpSBZmmBbBSSmbmvv4o>vb4vv1%kSFBmvaSBAmmBbBFSmbmvv7",
"&<7vvi1#NSBmvbB7CBBmBBvSFBmsmvuy$<7vvu1#MABmvbm7CBmmBmvSFBBaBvyy",
"9FM73**lFBbmbvS7jSBmFSBGZBbivu1#9FM96**vFAvmbvB40SSbFSBGSBbsv41=",
"FmSb-;zGvBFbvmS4kSmvmSZvBmv441*kFBSb5%zGvAGbvmF4MSBvmSSvBmv171>0",
"Bmmv7$ZSvBSm4mv=8Bummmmumv444qCLBmbv7$ZAvBSb7mv=8Aubmmmymv444qFL",
"BmSmvvmBbbbBbu41>0BBSSmSBmbm5vFSBbSmvvmDbvvAb44=,0BBSSmSBmmm4vJZ",
"bSBbvb4MGbbBBbv-l5sbmBmmsivu*bZmbABvvv4MLbmBBmv2z8smmmmmviv7-mBB",
"BmbZvbv$MbBvvv10Sv$vbbv44u7=&FSnBbvAvmv#MmSvbv10Fi=ibmvy4y71%FBm",
"mmmBbbb4=kvvu3*9u**4i4v4u44$9GmbbBAAbbb4*0vvv1#57-*4i4i4ey4#0FBb",
"bmFmvbSB48>627ljzlz8655*8q:oMSbnnmGmvbSB48>929M0Mav8756*90:oMFbm",
"mZmsBvbnm78hMJFFBLmsq,0Bbm5oknnBmBNimvbbm78kMFGSBLNv0>0BMB5o0mmB",
"vbssnBnvv59FBmbvSFssv8nnvvv*zbbBvbvimBmvv59DBmbvAJsib5mNvvv$vbmB",
"vsnmnBSbmy&ZbmFBbbSsvyNBnsy6FSSbbsmmmBSbB4&FbmGBMvAvb7MBMv44DSSb",
"bnBnBvsvSs*bbmFFiuvnv3zSBv1*FnFBbnBmmbiiSv$bbmSFi4vmv4vSBb15DmFB",
"mbFBbvssu42FFbnnSn4sv18612pjNSFSnbFBvvvvi4-DSbmmSm4sv=87130qVFFF",
"BvBFBsvnis#FFFbBFBs44X6Np&ZuqNSFBvBSZvvbiv*ZFSbBFBv44X5V0>Ai0CAF",
"FbnFBbBsby@jFmKBbbvv$-FBnz*6CMMGFbnFmbBvb4@kGBGBbbsv$5FBbM>5CMMF",
"NFBvybs418t0MSvFBvu12Cnvuy5CSB65ZFmvybv4=500MSvSBvu12Cmv7i-CSB45",
"803uu4-60mvvsjbb4=1@<FbbBu2Fsbn1806uu4-60Nvvvkmb4==O>JbvSi5Fvvb1",
"h9:,8,,Mbvbbv$7*#kMcp0bBB=&MBsu0hq>>8><Mbvbbv*0**lMM00bBm=&MBv00",
"NNs6%%znbBbbB4%:MHBSFl0m77zqa1#jVma6%%MbbBbmm1%>vGBSGv0m47M001@M",
"sysm1#Nbynbmvu#pSbvmvb6q>FBN0,NSvyvm1#mb4Bmbvv%0Sbvmvv7q>DBb05mS",
"BbByu42nvmmbu45:MLBnZB4*VmvmjamBBbmy4y5mvbmb445>MLBMAB6-CbvBv0BZ",
"SKFsmF45Bibbv$5k,pBvnmv2ZvFv7ZBBBLSvnF45Bvbbv=5j50Bbmmv=ZvSv0ZmB",
"mBbBFBy47MSBi6MS4 9vbb42FBs4-JFnmmbBFmy46MSBs4mS4 9vbb45DBv4-JSm",
"GvvvBBvi@>705DvBm4#54v4%vFuu*ZmZFbvvBBbiX,705Dvmm4%44v4%vSv41ZmB",
"bAmbbbbv1OO;vABmb4%:36-88l4*>FmDbFBbvbbi1%+;vSBmv4%;35-99a4*,DmG",
"mvBmvvbB7%>qDMmbv=0jZGZBB0p8>jLZmvZmvvnB7%>9Dbmbu20kZGSSm009>0Lm",
"vvbbvvvb40Zv0mvv=MLFZFvummBBv*vBvvbmvvvv40Sk0DMv=NLFBGv7mBSBv>vS",
"BAFbumB4#vAv7002bFmBbmbmmbnvvi1DBBFb7mBiXlBv0902vJmmmmbmmmbvvs-D",
"SAAvvBbv40mi*%>9FbSbvBbbvBBnvv47FSSvvBbv40mi=%:8GbSMvmmbvBSmvv75",
"<Bbvmmm4790309%bFbSvvSSmvFSBmmb=>Sbvvbby79a-k6%kFbSvvSSMvSSBmBv1",
"o>vv4vv1%jZGmmv0SmZmmBbBFSBvmvveo>vviiv1%kZFBbvaSmBBmBbBGBmbmvb4",
"$<9vvv=#NSBmvvm7CSmmBmvSSBmsBsye$>0vvu1$MSBmvbm0BBBmBBvSSBbiBv4v",
"9FM53*#vFZvBbvS7kSZmFSZKFBbsvu3#9GM96**lFBvmbbB40SSmFSBFSBMvv71$",
"FmFb>;zFvBGbvBA4lSmvmSSvBnv141>jFmSv-;zFvBFbvmS4MSBvmSSvBmv141*0",
"Bmmv7$AAvmSm4Bv$8BybmmMunv444qZLBmmvy=ZSvBSm4Bv$8B7bmmmimv447qDL",
"BbABbvmAbbbBm442,0BBSSmSBmnn3lFSmmSmviBZbbvBbu4=<0BBSSbSmbmB4vJA",
"bABvbb7vGbbBBvv-l5vvmBmmsivy*nSBbZBbbb4MLbbBBbv-z8immSmmvvv4-mBB",
"BmvAvmv#MbBvbv3pFv=vbmv4yyy$&FBmBmvBsBv$MbBbvv=pSv1ibbvi4471&DAm",
"bBBAvmb4$avvi1&5u*%4i4v4y44&7JmbmmBSbMv4$kvvv1#97-&4e4v44i3$9JBv",
"bmGbvvSB48:656zjzjl8628*70:ozSbmbnFmvbSB48:629ljM0M3755>90%oMSbB",
"mAmvmbbbm08kMGFSBLBsg>0mMB5okbmBmFmimvbbm08kMFGSBLBv0>0mMB3O0BbB",
"vbv0mBbvv4qFSmbvFDssb8nnsvv*zbnBvbvumBmvv5qSBmvvSFv0b6mmvvv*MbmB",
"vvmmmBSbm4%FbmFBbvSvvyNBnse7DFBbbsmBmBZbB4&FbmGBmvSvb7MBbv46ZSSb",
"bbmmBbuvBi2MbmSGuyvbv4lFBb1*FBFBbnBmmvvsSu*bbmSGi7vmv4MBAb1>DBSB",
"mbGBbvvvi42DSbmbSb4vv=8712pjMFFFnbFBvvvsv42SSbmbSm4iv=87110vVSFS",
"mvmFBvvbis*BJFbBFBv44X6Vt#ZiqNSFBvBSBvvbiv*ZFGmBFBv44X3V0>Z0qCSF",
"FbmFmvBvby@kFmLBnvsv$-FBnl,5CMNFFbnFmbBvb4@kFmGBbbvv$-GBbv-5CMMG",
"VGmvybs4=507MSvBBvi12Cnbuy,CBB66CGBvybv4=500MAvSBvu12CMv0v5CSB45",
"893iy7-60Mvvlkbm4$1@,FbvBu2Fvbn1<03uy7260mbvikmb4$1.<FbvS45Svvb=",
"hq&,8-<Mmvbbv$0*%lMzp0nBB$&Mmvu0hq>>8>>Mbvbbv*0**kMM00bBm1>MBviq",
"Nml4%;bbbBbmB3%>vGBSFl0B76zgu1@jNma6%%MbbBbmB1%>MHmSFM0B47M9u3@j",
"v7vm1#mmymbnvi#aFbvBvb69,FBn0,NSvyvm1%Bn4mmmvv@kSvvBvb6q>FBb0>NS",
"mbBuu72Mvmmby45:MLBbZB4*NnvnjpmSmbByy42nvbmb442:bLBbSB4*VbvmkamB",
"SGSvmF45Binbv$8j80Bvnmv2BvFs7FBBSGSsmF45Bvbbv$5k50Zvbmv1ZbSv7ZmB",
"mBbBFB437NBBu2nS4 9vbb45FBv7*JSmnBnBFB430Mmmv5MF4o9vbb35FBv7-JSB"
};
