/* XPM */
static char *_57e50dac9ae4baaea87fdf18e819942XupsKO2bRsp1QZoy[] = {
/* columns rows colors chars-per-pixel */
"32 32 4 1 ",
"  c #6E924D",
". c #4D733E",
"X c #87B055",
"o c white",
/* pixels */
"                                ",
"                   .            ",
"                  . .           ",
"                   .            ",
"                                ",
"                                ",
"              X                 ",
"              XX                ",
"   X          XX  X             ",
"   X           X.XX             ",
"   X X         .XX.             ",
"   X X          ..              ",
"     X                          ",
"                                ",
"                                ",
"                             X  ",
"                            X X ",
"                             X  ",
"                                ",
"                                ",
"                                ",
"       .                        ",
"      . .                       ",
"       .                        ",
"                      X         ",
"                    X X         ",
"                    X X         ",
"                    X           ",
"                                ",
"          X                     ",
"         X X                    ",
"          X                     "
};
