/* XPM */
static char *result[] = {
/* columns rows colors chars-per-pixel */
"52 52 236 2 ",
"   c #000000",
".  c #0D0A01",
"X  c #0B0A0A",
"o  c #050908",
"O  c #120C08",
"+  c #1A130C",
"@  c #041818",
"#  c #131313",
"$  c #1C1C1C",
"%  c #1D1612",
"&  c #000F10",
"*  c #241C16",
"=  c #24160D",
"-  c #252217",
";  c #35281A",
":  c #033537",
">  c #0F2C2B",
",  c #232323",
"<  c #292928",
"1  c #352B26",
"2  c #3B3B3B",
"3  c #343434",
"4  c #36312C",
"5  c #472A18",
"6  c #5A371E",
"7  c #723B16",
"8  c #483629",
"9  c #453C38",
"0  c #523C30",
"q  c #632220",
"w  c #4B423A",
"e  c #594430",
"r  c #7A4727",
"t  c #754D36",
"y  c #77563A",
"u  c #654E36",
"i  c #7E491B",
"p  c #03484A",
"a  c #035455",
"s  c #0B4D4C",
"d  c #3C4142",
"f  c #02797D",
"g  c #006C70",
"h  c #33796D",
"j  c #005F69",
"k  c #424242",
"l  c #4C4D4D",
"z  c #585943",
"x  c #545353",
"c  c #5B5A5A",
"v  c #50504A",
"b  c #785948",
"n  c #6C574A",
"m  c #5A6449",
"M  c #726753",
"N  c #616161",
"B  c #7B6E6A",
"V  c #8D301B",
"C  c #BE5D00",
"Z  c #AB4601",
"A  c #864D2D",
"S  c #865736",
"D  c #955D3C",
"F  c #8F4C35",
"G  c #94623E",
"H  c #A85C1C",
"J  c #C65900",
"K  c #C36401",
"L  c #CA6600",
"P  c #CE6B00",
"I  c #C56606",
"U  c #D66E04",
"Y  c #D86F06",
"T  c #CB7400",
"R  c #CB7C00",
"E  c #D47000",
"W  c #D97304",
"Q  c #D37C00",
"!  c #DD7905",
"~  c #D5760B",
"^  c #D87B18",
"/  c #E17C00",
"(  c #EA6300",
")  c #865D47",
"_  c #8B5549",
"`  c #A85456",
"'  c #8C6546",
"]  c #976847",
"[  c #986C57",
"{  c #987257",
"}  c #8F6A51",
"|  c #A56949",
" . c #A87557",
".. c #B37A5B",
"X. c #A26D54",
"o. c #9B7A69",
"O. c #AD7C62",
"+. c #B77D62",
"@. c #D3586E",
"#. c #D37A6B",
"$. c #E6657B",
"%. c #C5645C",
"&. c #A23D54",
"*. c #61AF71",
"=. c #CA8200",
"-. c #D68700",
";. c #D99902",
":. c #E98B00",
">. c #E08500",
",. c #E89601",
"<. c #D6A916",
"1. c #D8B818",
"2. c #DAB003",
"3. c #ECB205",
"4. c #E7A31C",
"5. c #F5B617",
"6. c #EBAF0B",
"7. c #D8BB2C",
"8. c #E3A429",
"9. c #EDB130",
"0. c #DBCC16",
"q. c #DBCE1A",
"w. c #DAD01D",
"e. c #FAC300",
"r. c #FBCB00",
"t. c #F7C908",
"y. c #FADC1A",
"u. c #F3C90A",
"i. c #DBD220",
"p. c #ECC72C",
"a. c #EECA32",
"s. c #FAEA2C",
"d. c #FAE628",
"f. c #FCF035",
"g. c #FCEF35",
"h. c #B4815D",
"j. c #9F8373",
"k. c #BA8567",
"l. c #AF8974",
"z. c #B2B36D",
"x. c #B1B36E",
"c. c #C38B6C",
"v. c #C7886A",
"b. c #C98C71",
"n. c #CB9377",
"m. c #DB957C",
"M. c #D6957A",
"N. c #D78B74",
"B. c #E58879",
"V. c #E48F76",
"C. c #D79C73",
"Z. c #B2C57E",
"A. c #F2DC5E",
"S. c #F0DA4D",
"D. c #E8D964",
"F. c #EDE465",
"G. c #FBFB78",
"H. c #E8E978",
"J. c #C1C079",
"K. c #00999B",
"L. c #0D8C8E",
"P. c #0699A8",
"I. c #0099B2",
"U. c #08A5AC",
"Y. c #13A8A8",
"T. c #00ACBD",
"R. c #06A7B5",
"E. c #0DB2B6",
"W. c #08B6BA",
"Q. c #249E94",
"!. c #00B2C1",
"~. c #01BDC7",
"^. c #00AFC0",
"/. c #0DC8C5",
"(. c #00C4CD",
"). c #09C5C6",
"_. c #00C9D1",
"`. c #00C7D0",
"'. c #00D4DA",
"]. c #00D5DA",
"[. c #00DDE1",
"{. c #01E7E9",
"}. c #01F9F9",
"|. c #1BD5CE",
" X c #8D8E8E",
".X c #B29286",
"XX c #B6A89B",
"oX c #B4B2B1",
"OX c #C59882",
"+X c #D89B84",
"@X c #E29A82",
"#X c #E29C86",
"$X c #E68C81",
"%X c #D6A695",
"&X c #D3A993",
"*X c #E4A38A",
"=X c #E3AD9B",
"-X c #E9A996",
";X c #EEB09C",
":X c #D5B3A8",
">X c #E9B5A7",
",X c #F1B8AA",
"<X c #ECBDB2",
"1X c #F4BFB3",
"2X c #B0D48F",
"3X c #B0ECA9",
"4X c #CDCE8A",
"5X c #F3DE8F",
"6X c #F2DE95",
"7X c #E9DC8A",
"8X c #F9ED89",
"9X c #F5E196",
"0X c #F0E684",
"qX c #D1C3B9",
"wX c #F3DDAD",
"eX c #F4C4BA",
"rX c #F2DDB6",
"tX c #EBC3B9",
"yX c #F5E1B6",
"uX c #F8EDA6",
"iX c #D8D6D4",
"pX c #D3CEC7",
"aX c #F8CECA",
"sX c #F6CAC4",
"dX c #F6D5CA",
"fX c #F9D5D3",
"gX c #F9DADA",
"hX c #F7DBD9",
"jX c #EDD0CB",
"kX c #F6E2DB",
"lX c #F4E2C8",
"zX c #F4E8E6",
"xX c #F9F9F9",
"cX c #F5F6F6",
"vX c #EBEAEA",
"bX c None",
/* pixels */
"bXbXbXbXbXbXbXbXbXbXbXbXbXbXbXbXbXbXbXbXbXbXbXbXbXbXbXbXbXbXbXbXbXbXbXbXbXbXbXbXbXbXbXbXbXbXbXbXbXbXbXbX",
"bXbXbXbXbXbXbXbX,.-.-.=.L L J Q 8.8.,.-.P L E L L W W L L E L P W ;.8.4.Q C K K T R T R T =.=.J bXbXbXbX",
"bXbXbX~ p.s.d.t.y.e.r.e.,.:.>.,.^ D.f.3.W U ! Y W ! ! W Y ! U W 3.g.A.^ ,./ :.,.r.r.e.y.t.s.s.p.I bXbXbX",
"bXbX~ a.G.F.i.q.0.2.2.0.2.;.;.;.-.<.D.8X9X9XrXyXyXdXyXyXrXwX9X9X8XD.<.;.2.,.<.1.0.q.0.i.q.i.F.G.a.I bXbX",
"bXbXp.G.0X*.P.L.> . . . . . . . . . - z.z.z.z.z.x.4X4X4Xx.3Xz.z.x.- o + v w a /.E.W.E.E.U.P.*.0XG.p.T bX",
"bX3.s.F.*.I.T.T.f                               $ k l l 3 p           $ c w a _.`.!.^.R.^.^.I.*.F.g.;.bX",
"bXbXs.i.P.I.I.!.I.:                             X # # # X             $ c 2 a _._.`.W.!.I.^.T.P.w.d.;.bX",
"bXbXt.q.U.^.^.^.~.j                                                   , c 1 a _._._.`.~.~.I.^.R.w.t.-.bX",
"bXbXy.i.U.!.^.~.~.`.:                                             # 3 l x , f _.`.`.`.~.~.!.I.E.i.y.-.bX",
"bXbX3.0.E.^.^.~.~.`.:                                             # k x l : (.(.`.`.`._.`.!.^.Y.0.e.E bX",
"bXbXr.q.E.!.`.`.`.`.K.&                   o                         # 4 l d f ]._.`.`.`.`.`.!.E.0.r.=.bX",
"bXbXr.0.E.~.`.`.`.`.~.&               # < 3 <                         o < c 2 L.]._.`.`.`.`.(.E.0.r.T bX",
"bXbX,.1.).~.'.`.`.`.(.a             o 3 c k $                             < x 3 f _.].`._.`._./.1.,.K bX",
"bXbX:.2.a a a !.`.(.[.W.            # l x $         o $ , , $ $ X         o d x > ~.].`.`._.`.W.1.,.K bX",
"bXU ! ;.w k 3 > : > p K.            k x , , o     o , k x d 1 b ; 8         $ v > (.].].`._.`./.<./ J bX",
"bX:.,.6.M N c c c v k $ X         X l 4 t 0       * k l 2 8 ..} ) ' o       X 2 9 p _.]._._.`./.1.,.Q bX",
"bX8.^ ;.v c N N N N N c 3 o       , 3 t O.,     X 2 x , 1 ..@Xb [ ] o         , l p {.[._._.`./.<.^ 8.bX",
"bXS.D.<.+ # * 3 l c N N l #     X , * n.b       , x 4 ' b.#Xn.b b.]           $ k p {.{._.(.`./.7.A.8.bX",
"bX5.s.D.-     o o * 2 l l #     # * ' -Xb       3 k { V.#X1X.XN ;X] o         % 9 s _.].{.'.~.|.H.g.,.bX",
"bX,.3.8Xz.            $ , X       t @X-X0     , 9 X.m.#X,XtX} j.,X] O         # k x , f K.K.U.3X8X6.-.bX",
"bXQ W 9Xz.                      * +.-Xk.#   # 9 X.$X-X>XfX%Xe o.n 0 *           < l x 2 3 1 s 2X5XW L bX",
"bXW U 9Xz.                    + [ b 9 8 X   , n m.;XsXfXsXO.1 %   o #           X $ 3 3 2 d 2 J.9XU L bX",
"bXW ! rXz.                  o 1 ' -   o   o 8 k.;XfXgXfX-X8 ; _ X.y $     +         o     o X x.rX! E bX",
"bXU W yXz.                  O ] n 8 e 4   = ..;XaXgXgXsX[ 8 O.#X@Xb #   ; S %                 z.yXU L bX",
"bXL W yXx.                  O ] k.v. .6 - 8 +.eXgXgXgX:Xt k.v.| ' %   5 +.] .                 z.yXW L bX",
"bXW ! rXx.                  .  .m.| S l 5 X. .>XfXgXfXOX+.N. .oXo.+ 5 +.M.w                   x.dX! W bX",
"bX! ! lXx.            = O   o ) v.{ qXiXoX.Xb.*XsXgXsX@XM.OXiXxX XN S m. .<   . +             z.lX! ! bX",
"bXL W rX2X>         ; k.[ +   1 | XXxXxXxXiXk.m.<XgXsX+XOXiXxXxXxXqXD M.0   O ) k.;           z.yXW L bX",
"bXP Y rX3XU.f @     y *X*Xy ; 8 | XXxXxXxXiXo.m.<XgXsX$X.XpXcXcXxXpXG ' X % j.<XtXu           z.yXU L bX",
"bXU ! wX3XT._.f o   ) M.c.S G k.| &XxXxXxXN < #XsXgXfX-Xu l vXcXxXpXS y % { %Xn.=Xu           z.yX! E bX",
"bXL U 9Xx.o & &     y v.k.r G *X .XXxXxXxXk + %XfXfXgX1X8 $ vXxXxXiX .+X' n.n.jX>X0       & : Z.6XY L bX",
"bXL E 9Xz.          y &XM.S t m...XXvXxXxX X_ <X>XsXzXsXo. XcXxXxXpXl.>X{ c.+XaX%XX     a U.U.2X6XW P bX",
"bXQ 3.8X2Xp         u ;Xk.] r b.n.j.{ l.qXvXeXeXc.tXzXfXhXcXvX:Xl.o.%X%X' n.n.eXl..     p p @ x.8X3.-.bX",
"bX,.f.H.|.(.R.: @   e +Xn.h.r h.m.N.n.+X-XeXsXn.A :XkXgXgXfX>X=Xb.+XgX.X{ h.OX>X;           @ Q.H.f.,.bX",
"bX8.A.7./._.`._.W.p ; ] k.h.G ' m.b.h.v.*XeXdXk.7  .<XgXgXsX>XOX&XfXkXl.h.v.OXOX=       : g (.).7.A.8.bX",
"bX8.^ <./.`.`.`._.{.p r ..{ ] r b.m.#X>XdXhXsXsX+.] =Xo.o.=XgXgXkXzXdX| | h.*Xb o     p ]._.`./.<.^ 8.bX",
"bXR ,.1./.`.(.~.L.: o . 8 h.X.i h.M.*XdXfX1X_ e _ A H V 5 V fXgXzXcX&XG M.-X[ # o : U.`.'.`.`./.1.,.,.bX",
"bXJ / <./.`.).a : > : : > m y 7 A v.#XeXgX,X5 q ` @.@.$.q b fXgXcXkXk.y { ' # U.]._.{.`.(.`.`./.<./ bXbX",
"bXK :.1.E.`.`.`.~.].].].[.}.m ' y A v.-XfXjX_ &.$.$.$.@.&.>XgXzXzXOXX.c.r a K.}.{.[.].`.`._.`./.1.:.bXbX",
"bXK ,.1.E.`.`.`.`.(.[.].{.{.m  .k.S F v.1XgX<X` &.F &.&.>XfXgXzXl. .>X;XS {.}.{.{.].].`._.`.`./.1.,.bXbX",
"bXE r.0.E.!.`.`.`.`._._.[.[.u h.m.M.| A M.dXgX<X+XM.OX=XfXgXdXc.] =XfXeXG [.{.[.]._._._.(._.(.E.0.e.bXbX",
"bX=.r.0.E.(.(.(.`.`._.`._.[.m k.@X@Xm.| S k.sXgX,Xk.v.,XgXsX..G =XfXgXsX) ~.{.'._._.(._._._.W.E.q.r.bXbX",
"bXT e.q.E.!.!.(.`._.`._._._.z c.V.@Xm.m.| A ..eXaX>X>XsXsXX.D =XfXgXgXhX} (.].]._._._._.`.(.~.U.0.e.bXbX",
"bXR y.w.P.^.!.(.`.`._.`._._.u c.#Xm.@Xm.M.v.D  .<X<X1X,X .] =XsXaXgXkXkX' ).`.`._._._._.(.T.!.W.i.y.bXbX",
"bXT t.i.E.I.!.T.~.~._.`._._.u k.m.m.*XM.m.#XM.G A A A A ] =XfXeXsXgXzXzX[ Y.`._._._.`.(.T.!.!.E.q.t.bXbX",
"bX=.s.i.P.R.!.!.R.Q.W._.].Y.m n.*Xm.*X*Xv.m.m.N.......+.=XfXaXn.:XfXzXkX-XM Y._.Y.Q.Y.T.!.T.R.P.i.d.bXbX",
"bX=.s.F.*.I.R.I.m Z z h h m G M.;X,X*X*Xh.*Xm.m.@Xm.@X-XaXgX>Xb.tXtXzXzXsX*X} h i Z u Y.T.R.I.*.F.s.bXbX",
"bXK p.G.7X*.P.z C ( Z A H v...C.;XeX*X7X7X9X9X6X6X6X6X6XuXuX9X7X9XC.kXkXfXrX=Xv.V J J u Y.P.*.0XG.p.bXbX",
"bXbXI a.G.F.w.u.u.e.e.u.6.6.6.6.4.5.F.8X5X6XrXrXrXrXlXrXrXwX6X6X8XH.p.5.5.5.5.5.u.u.3.u.0.w.F.G.a.~ bXbX",
"bXbXbXI p.f.s.u.y.e.r.r.,.:./ ,.^ A.g.3./ Y Y Y W ! ! U U W Y W 3.f.A.^ :./ ,.,.r.r.e.y.u.s.s.p.~ bXbXbX",
"bXbXbXbXC =.=.T R T =.T K K C Q 8.8.,./ L J U P L W W K L E K P Q ,.8.9.Q J L L T R T R =.-.2.P bXbXbXbX",
"bXbXbXbXbXbXbXbXbXbXbXbXbXbXbXbXbXbX#.B.B.B.B.B.B.B.V.B.$X$X$XB.B.B.B.V.$X#.#.#.bXbXbXbXbXbXbXbXbXbXbXbX"
};
