/* XPM */
static char *result[] = {
/* columns rows colors chars-per-pixel */
"32 32 235 2 ",
"   c #7E4E15",
".  c #745433",
"X  c #4A3A77",
"o  c #5C5354",
"O  c #6D524E",
"+  c #5C755B",
"@  c #78625A",
"#  c #634869",
"$  c #49617E",
"%  c #7B6578",
"&  c #6F6871",
"*  c #99581D",
"=  c #964E1A",
"-  c #B85808",
";  c #A65514",
":  c #B75815",
">  c #A64E0F",
",  c #BB6503",
"<  c #BD651B",
"1  c #A7651A",
"2  c #885734",
"3  c #945C3A",
"4  c #83512D",
"5  c #A65D2A",
"6  c #B35821",
"7  c #A6562D",
"8  c #996A38",
"9  c #AA6228",
"0  c #B96A29",
"q  c #B87526",
"w  c #A96738",
"e  c #B67632",
"r  c #B07331",
"t  c #C65E01",
"y  c #C65F15",
"u  c #CC6400",
"i  c #C46707",
"p  c #D16608",
"a  c #D57508",
"s  c #C56717",
"d  c #D26F14",
"f  c #C87A1D",
"g  c #D4780F",
"h  c #C85C22",
"j  c #C96B2A",
"k  c #C87629",
"l  c #D47729",
"z  c #C97736",
"x  c #D47434",
"c  c #CE6B2E",
"v  c #8A6245",
"b  c #996747",
"n  c #9C6F53",
"m  c #9D7956",
"M  c #916F49",
"N  c #A36B4C",
"B  c #AA6C49",
"V  c #B5764B",
"C  c #AC7A5C",
"Z  c #A77457",
"A  c #AF7852",
"S  c #8B6D6B",
"D  c #B67C61",
"F  c #A97C63",
"G  c #8F5D46",
"H  c #D67C52",
"J  c #CC7946",
"K  c #BE982D",
"L  c #AC8538",
"P  c #DC8A08",
"I  c #C78A17",
"U  c #DB821D",
"Y  c #DA8B18",
"T  c #DC911B",
"R  c #C9830C",
"E  c #E28600",
"W  c #E58A00",
"Q  c #E08E19",
"!  c #E49818",
"~  c #EAA200",
"^  c #ECA706",
"/  c #F1BC03",
"(  c #F0AD11",
")  c #DC8423",
"_  c #D68629",
"`  c #D89626",
"'  c #D78636",
"]  c #CE8E38",
"[  c #E58B2B",
"{  c #E7962B",
"}  c #E89935",
"|  c #E78F33",
" . c #DDA222",
".. c #D3A237",
"X. c #F4A52A",
"o. c #F7AD28",
"O. c #E8B32B",
"+. c #FAB52D",
"@. c #E9B333",
"#. c #F4AE36",
"$. c #F2C60C",
"%. c #F6C503",
"&. c #F7D00F",
"*. c #F8D411",
"=. c #F1D426",
"-. c #F3D22D",
";. c #F5DE2A",
":. c #F4D732",
">. c #B28254",
",. c #B88959",
"<. c #BA974E",
"1. c #988878",
"2. c #AC8967",
"3. c #BB8766",
"4. c #B99768",
"5. c #B88977",
"6. c #B69D7A",
"7. c #A79471",
"8. c #BDA37B",
"9. c #CA8A4A",
"0. c #D6804D",
"q. c #C58B5B",
"w. c #DC8152",
"e. c #DB8753",
"r. c #D29846",
"t. c #E49647",
"y. c #E48B54",
"u. c #E39D52",
"i. c #D4B64A",
"p. c #D7B258",
"a. c #E1A148",
"s. c #E5A755",
"d. c #EBB74E",
"f. c #C4886B",
"g. c #C99A6C",
"h. c #C68C77",
"j. c #C8957C",
"k. c #D3967A",
"l. c #EC9D62",
"z. c #D5A565",
"x. c #DCB56C",
"c. c #E7BA68",
"v. c #EFBC6F",
"b. c #DEC255",
"n. c #F7C944",
"m. c #F8C65C",
"M. c #E6C154",
"N. c #F5C56A",
"B. c #E8C779",
"V. c #F3D06D",
"C. c #F4E96E",
"Z. c #F8E979",
"A. c #3E448D",
"S. c #2E48B3",
"D. c #2C5AB0",
"F. c #2E69AF",
"G. c #3E6D97",
"H. c #4C5495",
"J. c #496781",
"K. c #767A8B",
"L. c #7A788C",
"P. c #7A7591",
"I. c #2B2DD6",
"U. c #1735F9",
"Y. c #1A35F1",
"T. c #1D6ED6",
"R. c #1856EF",
"E. c #1758ED",
"W. c #144DF5",
"Q. c #194DF1",
"!. c #1843F4",
"~. c #1851F0",
"^. c #1754F3",
"/. c #194BEA",
"(. c #265FE9",
"). c #1869EC",
"_. c #1879E7",
"`. c #1761F1",
"'. c #2667E8",
"]. c #1784E8",
"[. c #A2968A",
"{. c #B99C8C",
"}. c #B6A28B",
"|. c #8FADA9",
" X c #C89A84",
".X c #D69D85",
"XX c #E19B84",
"oX c #C8A888",
"OX c #D6A88A",
"+X c #D4B58B",
"@X c #D7A997",
"#X c #D7BD99",
"$X c #CAB193",
"%X c #E4AD9C",
"&X c #E4AE8F",
"*X c #D6B4A7",
"=X c #DEB6AA",
"-X c #E9B8A9",
";X c #EBBEB4",
":X c #E9B3A6",
">X c #D7C998",
",X c #EBD887",
"<X c #F3D887",
"1X c #ECD693",
"2X c #F3DC96",
"3X c #E7CA91",
"4X c #F5E486",
"5X c #F6E898",
"6X c #D8C8A2",
"7X c #D1D2A4",
"8X c #D3D0AF",
"9X c #EAD7AC",
"0X c #EDC3BA",
"qX c #E4C9B7",
"wX c #F3C5BB",
"eX c #F4C6B9",
"rX c #E3D4B5",
"tX c #F3DEA8",
"yX c #F5E5AB",
"uX c #ECE0B9",
"iX c #F1E6B3",
"pX c #CAC9C6",
"aX c #F4CBC4",
"sX c #F6CBC6",
"dX c #F7D3CE",
"fX c #F8D5D3",
"gX c #F9DADA",
"hX c #F8D8D4",
"jX c #EECDC7",
"kX c #F5EFC8",
"lX c #F7E6DA",
"zX c #F8F6D5",
"xX c #FAF7CB",
"cX c #F5EAE5",
"vX c None",
/* pixels */
"vXvXvXvXvXvXvXvXvXvXvXvXvXvXvXu u vXt vXvXvXvXvXvXvXvXvXvXvXvXvX",
"vXvXO.;.*.%.%.^ W W @.:.T ) l [ [ ) ) Q :.O.W W ~ %.%.$.;.O.vXvX",
"vXO.C.Z.b.O.( ( Y R ! i.Z.5XyXiX1X2X4X,Xc.Y ! +.V.M.b.i.C.C. .vX",
"vX;.n.yXrX3.k +._ ; a k } +.x.6X9.+.@.<.k y l m.zXOX+X>XB.b.=.i ",
"vX*.{ v.zXrX,.{ { 1 p e _ o.m.+Xv.+.k _ 0 - I m.uX,.>Xu.c.K $., ",
"vX&.P | yXzX8Xu.X.k a q x x r.4.oXx.0 ` - - T N.6X$X-X' N.K %.s ",
"vX%.( s d.xXzXN.o.l d : 6 9 V ,.oX2.z j t > [ V.#X6X9.{ 1XK / < ",
"vX/ ( s | N.yX-.X.0 8 8 = l | } <X9X6.= > = w 6XoXg.d } +XL ~ < ",
"vXW ( l : X.+.#.z g.+XoX9 l ' u.5XxX8X  : t.+X2.3.s g } {.S P - ",
"vXW U l : x X.z $XB.x.r s x } yX6X9Xj.> y { ,XoXw p l u.8.M P a ",
"vX@.i.V s ; z oXiX9X6X9 l } B.6.9.g.>.1 ; d N.+X>.p c v.}...O.T ",
"vX:.5Xz.d = Z kXkXp.9 _ ' V.6.j.0XjX%Xf.0 6 a.+X>.y | <XoXB.-.a ",
"vXQ 4Xn.` w rXzXc.I 7 c d.4. XfXhXgXgX-X,.5 u.+Xn k d.3X] 4XQ u ",
"vX) 1X} X.q.zXyXp.n e r.4.h.dXgXhXsXdXsXj.8 z.#X3.} N.j l <XU t ",
"i ) 1Xk _ x rX2XM b ] x.C 0XgXhX:X.XdX0X>.r 4.7.+Xs.q.s _ 3X) t ",
"u ) 2X{ k 7 >X$X2 9 L <.h.gXcXfX X@X%XV = r 7.7.>.z - 0 v 7X[ u ",
"u ) >Xb ` - 2.>.v v 8   w -XcXjXZ V 7 w Z n 6.n h.3 < @ F.8X[ u ",
"t ) >X3 } _ M 4 N m 7.[.+ Z %X@X3 4 + pXpX5.n 2 h.V ; o O >X[ s ",
"i l 8XH.e ` B 2 2 D F }.|.1.B OXb S |.{.5.=XD 3 5.x ` 2 H.8Xg l ",
"u Q >X(.D.@ 7 f.4 f.f.Z Z 2.h.-X-Xh.h..X:X;XN N V r J.T.'.7XQ x ",
"a :.|.(.`.T.J.D B B XX:XaX%Xk.*XgXwXjXdXlX*XD D G J.].`.~.|.-.y.",
"vXO.P.W.^.).T.K.G 2 XXdXgX-XD  XhX0XdXcXcX Xb o F.]._.E.W.K.+.l.",
"vXE K.W.~.`._._.o . D eXgXsX3.Z  XoXaXcX=XZ  X@ ]._.`.E.W.K.W y.",
"- E L.W.~.^.).T.@ ,.3 h.sXjX*X{.*XdXlX*XC %X;X% ].).R.~.W.K.E H ",
"- ~ L.W.~.~.E.D.N .XD N Z 0XaX.XwXcX@XC ;XfX;X% ).`.E.~.W.K.~ H ",
", / L.U.Q.Q.^.S.A .Xf.f.M n ;XfXgX@Xn :XwXfXsXP.E.~.~.~.!.K./ e.",
"t / L.U./.~.^.S.F XX3.3.k.v b h.D n @X;X%XfXsXS /./.W./.U.K./ 0.",
", $.P.U.Y.Y.!.H.H %X.XZ k.f.v . 2  XfXXX:X;XsXS S.E./.Y.U.P.$.0.",
", =.[.I.# X # M f.wX XC k.XXk.f. XwX;Xk.;X.XsX@XD H.o # I.[.=.z ",
"vX .C.<.T R ....a.v.r.B.<X5XyXtXiXyX2X4X,Xa.v.v.N...R ` <.C.` z ",
"vXvX .=.$./ $.~ E E O.-.T U Q l Q l ) Y -.#.P P ^ / / $.=.` c vX",
"vXvXvX, , < k j J y.l.y.w.w.H H y.y.H H y.u.y.H H H e.0.z c vXvX"
};
