/* XPM */
static char *result[] = {
/* columns rows colors chars-per-pixel */
"32 32 208 2 ",
"   c #010101",
".  c #0C0C0B",
"X  c #020C0D",
"o  c #110E08",
"O  c #11120A",
"+  c #021616",
"@  c #131414",
"#  c #1A1814",
"$  c #0F1008",
"%  c #261D18",
"&  c #34271C",
"*  c #112924",
"=  c #083737",
"-  c #242323",
";  c #2D2928",
":  c #3B2C24",
">  c #35342C",
",  c #313233",
"<  c #383B39",
"1  c #432E1F",
"2  c #563C2A",
"3  c #443B37",
"4  c #4A3629",
"5  c #703028",
"6  c #684D03",
"7  c #6B5800",
"8  c #756615",
"9  c #5A4234",
"0  c #4D433D",
"q  c #684B38",
"w  c #76543A",
"e  c #78572F",
"r  c #787A2F",
"t  c #003F41",
"y  c #00454A",
"u  c #144C52",
"i  c #074F51",
"p  c #354843",
"a  c #255152",
"s  c #176A69",
"d  c #03777B",
"f  c #0A7170",
"g  c #276762",
"h  c #434242",
"j  c #4A4948",
"k  c #575250",
"l  c #6B5446",
"z  c #775745",
"x  c #605F5F",
"c  c #6B694E",
"v  c #447769",
"b  c #B95A07",
"n  c #BD6502",
"m  c #BE6609",
"M  c #8A5B39",
"N  c #82512F",
"B  c #96772A",
"V  c #C65E00",
"C  c #C66100",
"Z  c #CA6302",
"A  c #C5690B",
"S  c #CA7509",
"D  c #D87C06",
"F  c #CA6915",
"G  c #D07314",
"H  c #D77535",
"J  c #C76C27",
"K  c #913640",
"L  c #825747",
"P  c #A65451",
"I  c #88624B",
"U  c #996749",
"Y  c #8A6355",
"T  c #976C5B",
"R  c #A56E4D",
"E  c #A77556",
"W  c #B37B5D",
"Q  c #B6775C",
"!  c #B36559",
"~  c #AA7B64",
"^  c #B57D62",
"/  c #9B796D",
"(  c #D95A70",
")  c #2F837D",
"_  c #7A8876",
"`  c #6ABC6D",
"'  c #69B56A",
"]  c #69BD74",
"[  c #67BD7A",
"{  c #71B362",
"}  c #69A75A",
"|  c #6BC271",
" . c #BC8918",
".. c #909838",
"X. c #DC821E",
"o. c #DD8918",
"O. c #DF931B",
"+. c #D18201",
"@. c #E28500",
"#. c #E58A00",
"$. c #E98B00",
"%. c #E08E1A",
"&. c #E2941E",
"*. c #EBA200",
"=. c #F4AC00",
"-. c #F2BB02",
";. c #F0BD08",
":. c #DD8423",
">. c #DF842B",
",. c #D79923",
"<. c #D68D38",
"1. c #E08825",
"2. c #E49336",
"3. c #DDA323",
"4. c #E9AF2E",
"5. c #E9B32A",
"6. c #ECB433",
"7. c #FCC903",
"8. c #F5C50A",
"9. c #FCD30F",
"0. c #F4D52A",
"q. c #F6D632",
"w. c #FAE22B",
"e. c #908A45",
"r. c #878A7E",
"t. c #B98468",
"y. c #B68B77",
"u. c #B99179",
"i. c #AC8977",
"p. c #E49D47",
"a. c #C58769",
"s. c #C78976",
"d. c #CB957A",
"f. c #D2967B",
"g. c #D6977A",
"h. c #F2B869",
"j. c #97C56F",
"k. c #96C670",
"l. c #CEC67A",
"z. c #F2E96B",
"x. c #F7C97B",
"c. c #018F95",
"v. c #01959C",
"b. c #109491",
"n. c #219C97",
"m. c #329389",
"M. c #059CA9",
"N. c #03A3AD",
"B. c #02A9AB",
"V. c #00A6BE",
"C. c #02A7B1",
"Z. c #16B3B1",
"A. c #20A8A2",
"S. c #7B9184",
"D. c #00ABC1",
"F. c #00B3C2",
"G. c #00BBCA",
"H. c #00B8C5",
"J. c #00C4CD",
"K. c #03C0C7",
"L. c #00C5D3",
"P. c #00CAD2",
"I. c #00D4DA",
"U. c #00D4D9",
"Y. c #00DFE3",
"T. c #00E8EA",
"R. c #98918A",
"E. c #B0958D",
"W. c #C99A89",
"Q. c #D39A87",
"!. c #C49B90",
"~. c #E19A82",
"^. c #D7A48B",
"/. c #D9AA99",
"(. c #CCA392",
"). c #E2A28A",
"_. c #EBAB99",
"`. c #DCACA5",
"'. c #D7B5AB",
"]. c #C6B9AD",
"[. c #E9B7AA",
"{. c #EDBDB4",
"}. c #F1B6A6",
"|. c #90DE9D",
" X c #90C381",
".X c #CCC588",
"XX c #CED68A",
"oX c #CCC691",
"OX c #D2CE94",
"+X c #EED68B",
"@X c #F2E198",
"#X c #DDD4A1",
"$X c #F1DCA5",
"%X c #EBC3B8",
"&X c #F3C6B9",
"*X c #E1E3AC",
"=X c #D6CCC4",
"-X c #D2CFCD",
";X c #F7CDC7",
":X c #F7D1CC",
">X c #F9D5D3",
",X c #F9DBDA",
"<X c #F6D9D5",
"1X c #E3DFDC",
"2X c #E9E8E7",
"3X c #F6E7E5",
"4X c #F9FAFB",
"5X c None",
/* pixels */
"5X5X5X5X5X5X5X5X5XS O.D C C Z F F G F Z D &.G b m m A m n 5X5X5X",
"5X5X5.w.9.7.7.*.#.#.5.q.%.1.:.:.%.H G &.q.6.@.@.*.;.;.8.0.O.5X5X",
"5X5.z.k.} 8 7 7 6 6 6 e.l..X.X#X#XOXOXl.e.6 B r ] ] ` ` j.z.3.5X",
"5X0.k.N.V.y             o O O > 0 < * #   . h u L.G.V.V.N.j.w.5X",
"5X9.' V.D.v.X                             @ j u J.J.G.F.V.` 8.5X",
"5X7.` D.H.K.t                           @ h j d P.P.J.G.D.` 8.5X",
"5X7.` G.P.P.d           . .               - h s J.P.P.J.G.` -.n ",
"5X=.` G.P.I.C.+       . < , .               @ h s K.P.J.L.` *.b ",
"5X$.r u d v.N.=       , j @     # , - & o .   - < B.I.P.P.] #.b ",
"5X$.e.k j j p *     . < 9 %   @ h h z Y w     . < f I.P.P.] @.S ",
"5X6.N > j k x j .   @ 2 Y .   < 3 Y d.Y I       ; s T.P.L.[ 4.%.",
"5Xw.e.  . @ , < .   % ~ Y   O 0 ^ _.!.i.E .     - a B.P.J.|.q.D ",
"5X&.l.o       .     q Q.3   3 t._.{.~ Y q .     @ h p a g XX&.V ",
"5X1..XO           : w - o # T }.:X[.2 4 : o       O % - > .X1.V ",
"5X1..XO           q z 2 o 9 _.>X:X~ I s.z o 2 &         $ /.1.V ",
"Z 1.oXO           I a.I 2 Y [.,X%X~ t.E.: 2 ^ %         $ oX1.V ",
"A :.oXO     # 4   q ~ =X-X!.Q.>X[.f.%X1XR.Q z o 1 #     $ oX:.C ",
"n :.*Xb.=   w ^.2 2 i.4X4XE.Q.:X{.E.1X4X=XU % l /.l     o .X1.V ",
"V X.XXf y   w a.M t.u.4X2X< W.>X:Xl R.4X-Xe.z W.[.l     * .X:.V ",
"C o.l.@     z f.M Q y.=X1XR._.{.3XE.-X2X].(.t.d.[.:   i ) XX%.Z ",
"D q.|.v.y X q d.U Q d.t.^.;Xs.E.,X,X:X(.W.`.E d.y.o   X =  Xq.X.",
"O.6.[ P.J.B.p E E M g.g.}.;XW.U `.'.%X{.<X`.t.d.l   + d V.| 6.2.",
"S @.[ P.B.f @ 1 U N a._.>XW.L P P 5 !.3X2Xt.t.E = i N.U.I.| #.5X",
"b @.] L.B.c.v.B.m.e M g.;XE.K ( ( P '.3X'.E z s U.T.I.L.L.| $.5X",
"b *.] G.P.P.I.T.Z.R Q U ).;Xs.! ! `.,X'.y.}._ T.T.U.P.P.L.| =.5X",
"C -.` G.J.P.L.I.A.W g.a.U ^.:XQ.^.>XQ.^ &X>X_ U.U.P.P.P.G.| 7.5X",
"m ;.' D.K.P.L.P.n.W ~.~.a.R Q.[.{.Q.W %X,X,XS.J.L.P.J.K.F.` 7.5X",
"n 8.` D.F.F.L.P.n.t.~.g.g.g.R R U W %X{.<X,XR.Z.P.G.K.F.D.` 9.5X",
"n 0.j.N.M.c v m.x d.}.).d.).g.g.g.&X&X^.{.3X{.r.) e ) D.N.j.w.5X",
"5X,.z.k...$.+.m <.p.h.+X+X@X$X$X$X$X@X@X+X+Xx.h.,.+. .{ k.z.5.5X",
"5X5X,.0.8.8.8.*.@.#.4.0.O.o.:.:.:.:.:.O.6.4.@.@.*.-.;.8.0.5.5X5X",
"5X5X5Xn n n n b b G ,.:.H H H H H H H H p.p.<.J J F F S 5X5X5X5X"
};
