/* XPM */
static char *result[] = {
/* columns rows colors chars-per-pixel */
"52 52 256 2 ",
"   c #753B16",
".  c #65370E",
"X  c #5E381B",
"o  c #754413",
"O  c #7A4927",
"+  c #785329",
"@  c #765737",
"#  c #6B493A",
"$  c #59553B",
"%  c #394C72",
"&  c #38504F",
"*  c #574552",
"=  c #6E514A",
"-  c #494C6C",
";  c #78605D",
":  c #433974",
">  c #964718",
",  c #965619",
"<  c #8F480F",
"1  c #BB5A05",
"2  c #B85A15",
"3  c #A5510F",
"4  c #B96B1A",
"5  c #B06F16",
"6  c #854C28",
"7  c #944B26",
"8  c #89552A",
"9  c #895635",
"0  c #955A39",
"q  c #91522E",
"w  c #A54B27",
"e  c #A95827",
"r  c #B5582A",
"t  c #AF5733",
"y  c #8B643B",
"u  c #976537",
"i  c #90682C",
"p  c #A76926",
"a  c #BA6527",
"s  c #B96C36",
"d  c #AF6C32",
"f  c #9C690F",
"g  c #C85D05",
"h  c #CE5E0B",
"j  c #C46402",
"k  c #CA6601",
"l  c #CD6901",
"z  c #C6640B",
"x  c #D66E03",
"c  c #D66A06",
"v  c #CB7301",
"b  c #CB7B01",
"n  c #D97304",
"m  c #DC7A03",
"M  c #D47702",
"N  c #D87B19",
"B  c #CC681A",
"V  c #E17D00",
"C  c #E17B15",
"Z  c #C55A34",
"A  c #D05E30",
"S  c #C6692A",
"D  c #C77828",
"F  c #D37A2A",
"G  c #C76634",
"H  c #D46933",
"J  c #D77533",
"K  c #E37432",
"L  c #985E42",
"P  c #845741",
"I  c #896645",
"U  c #986846",
"Y  c #99734C",
"T  c #997555",
"R  c #8C7054",
"E  c #A3694A",
"W  c #A76D55",
"Q  c #A87858",
"!  c #B57A5A",
"~  c #B0754C",
"^  c #B67C64",
"/  c #947C6B",
"(  c #C7714B",
")  c #D47B70",
"_  c #813D11",
"`  c #B78830",
"'  c #CC8300",
"]  c #D98800",
"[  c #D59215",
"{  c #E78A00",
"}  c #E89701",
"|  c #E68A18",
" . c #EC961B",
".. c #DBA91C",
"X. c #DEB919",
"o. c #EAA706",
"O. c #E9B404",
"+. c #F0AE13",
"@. c #D78828",
"#. c #DC9828",
"$. c #CD8E34",
"%. c #E78B2D",
"&. c #E7962A",
"*. c #F19B2B",
"=. c #E98733",
"-. c #EB9234",
";. c #F29731",
":. c #DBAD28",
">. c #E8A429",
",. c #F6A928",
"<. c #F9B126",
"1. c #F9B229",
"2. c #F7BB2D",
"3. c #F7B636",
"4. c #EDAA32",
"5. c #FAC400",
"6. c #FACC01",
"7. c #F4C90B",
"8. c #FAD10C",
"9. c #F9D919",
"0. c #ECC50E",
"q. c #DEC326",
"w. c #ECC72B",
"e. c #F4CB32",
"r. c #FAEB2C",
"t. c #F8E728",
"y. c #FBF035",
"u. c #FAEE35",
"i. c #DEC11C",
"p. c #B7845A",
"a. c #B08752",
"s. c #9E8569",
"d. c #A78767",
"f. c #B68566",
"g. c #AD9675",
"h. c #B69977",
"j. c #B69170",
"k. c #9D8254",
"l. c #C38758",
"z. c #CD8E4D",
"x. c #D3A94D",
"c. c #F0B74E",
"v. c #C58A6A",
"b. c #CA8E72",
"n. c #CA9676",
"m. c #DA967C",
"M. c #D49579",
"N. c #CF906C",
"B. c #D1AC74",
"V. c #E99C63",
"C. c #F9C94A",
"Z. c #F2DB5E",
"A. c #F0CD55",
"S. c #F3E15A",
"D. c #D2C675",
"F. c #F9CB68",
"G. c #F6D76E",
"H. c #F6D877",
"J. c #E9D476",
"K. c #F8E678",
"L. c #FAFC77",
"P. c #F7E969",
"I. c #353892",
"U. c #2B38AA",
"Y. c #374990",
"T. c #2F5AAA",
"R. c #75669C",
"E. c #1C38F5",
"W. c #1E2BF7",
"Q. c #2835EA",
"!. c #2123E9",
"~. c #1C72D0",
"^. c #185BEF",
"/. c #1759EE",
"(. c #184DF1",
"). c #1948F3",
"_. c #1850F0",
"`. c #1653F5",
"'. c #184FED",
"]. c #2744E7",
"[. c #2456E4",
"{. c #186DEC",
"}. c #1766ED",
"|. c #187CE9",
" X c #166BF3",
".X c #2861D4",
"XX c #26A3A1",
"oX c #609A94",
"OX c #1788EB",
"+X c #1589F1",
"@X c #1E81D6",
"#X c #B5A38A",
"$X c #B6B0A9",
"%X c #A2998E",
"&X c #DC9C84",
"*X c #CE9889",
"=X c #E19981",
"-X c #E59B8A",
";X c #E69195",
":X c #ED9696",
">X c #ED9D95",
",X c #E99090",
"<X c #C6A98B",
"1X c #D7A789",
"2X c #DAA895",
"3X c #D7BA99",
"4X c #CAB694",
"5X c #E4A28A",
"6X c #E8AA97",
"7X c #F4AC98",
"8X c #EEB694",
"9X c #D4B5AA",
"0X c #EAB6A6",
"qX c #F3B8A9",
"wX c #F3BEB3",
"eX c #E6BAB0",
"rX c #B7C8AF",
"tX c #D3C793",
"yX c #EDDB8B",
"uX c #F6DC8A",
"iX c #E8CA98",
"pX c #F1DD96",
"aX c #EED399",
"sX c #F8EA89",
"dX c #F7E699",
"fX c #F5EC91",
"gX c #D9C6A6",
"hX c #D9D1B2",
"jX c #E4C8A7",
"kX c #E6D3A7",
"lX c #F5C5BB",
"zX c #EAD9B9",
"xX c #F1DDB4",
"cX c #F2DDBD",
"vX c #EFD1B4",
"bX c #F7E8A6",
"nX c #F6E8B5",
"mX c #F6EEB3",
"MX c #F6CCC7",
"NX c #F7D4CB",
"BX c #F9D5D3",
"VX c #F8D9D9",
"CX c #F8D9D5",
"ZX c #E6D5CE",
"AX c #ECE3C3",
"SX c #F3EBCB",
"DX c #F9F3C7",
"FX c #F6E8DA",
"GX c #F8F9DB",
"HX c #F8F5D4",
"JX c #E1E0DD",
"KX c #F4EAE5",
"LX c #F2F1F2",
"PX c #DBCECC",
"IX c #A7D8D9",
"UX c None",
/* pixels */
"UXUXUXUXUXUXUXUXUXUXUXUXUXUXUXUXUXUXUXUXUXUXUXUXUXUXUXUXUXUXUXUXUXUXUXUXUXUXUXUXUXUXUXUXUXUXUXUXUXUXUXUX",
"UXUXUXUXUXO.O.} } ] ] ] M ] n { &.>.o.] x x M l x M M l l n k x ] o.4.#.] x m n ] ] ] ] } O.UXUXUXUXUXUX",
"UXUXUXN w.u.t.7.9.5.6.6.} { V { @.Z.y.O.x x m n x m m n x n x n O.u.Z.N } V { } 6.6.5.9.7.t.t.w.x UXUXUX",
"UXUXn e.L.P.9.0.9.6.7.6.O.O.o.o.o.+.G.sXpXpXxXxXxXcXNXxXcXxXpXyXsXP...o.O.o.+.7.9.0.9.0.0.9.P.L.e.z UXUX",
"UXUXw.L.sXfXnXg.B.,.D >.1.@.3 , +.n s K.K.K.K.dXfXmXD.H.K.K.sXyXG.-.p | D >.F.HXvXl.DXp.T nXK.sXL.w.j UX",
"UXo.t.P.e.mXSXgXd.J a ,.1.&.> , | g 4 *.*.<.c.3X1XNXu *.1.1.A.Q @.s 1 B Z ,.F.GXSXl.kXn.zXyXuXx.S.u.] UX",
"UXUXt.7.-.H.GXHXgXQ e 4.1.1.d , | g p -.=.<.2.H.n.kX~ <.<.<.d p ,.8 g 3 F <.H.GXzXp.n.tXzX$.uXU 0.t.' UX",
"UXUX8.7.K 3.nXGXHXgXQ G ,.1.H , | g u &.F <.<.F.B.tXaX3.<.>.0 @.K 2 l < @.<.F.GX3Xp 1XcXl. .uXY O.7.b UX",
"UXUX9.0.S =.H.HXHXHXgX! K 2.K , | g u %.Z =.;.4.uXj.zXbXe.r p <.p g k < @.<.F.HXa.h.DX1XG <.uXY 0.9.' UX",
"UXUX5.5.z S 3.SXGXHXSXiX;.1.>.4 | k i | H Z t d j.P Y h.iX8 &.*.w g g > &.<.H.HXT AXSX! H 1.dXY O.7.v UX",
"UXUX6.6.| 2 %.F.HXGXGXnXe.1.,.D | k 1 p s 6 d j., n.4Xd.Y t =.D 2 g 3 w *.1.sXAXp.SX1X2 &.C.DXY O.6.b UX",
"UXUX6.7. .1 G ,.G.HXGXbX3.,.,.H e 3 3   w 2 #.G -.C.mXSX9Xk.0 w g h < > A c.HXh.9X3XB c &.F.SXU 0.6.v UX",
"UXUX} O.,.z r ;.1.G.dXC.1.1.-.w 7 Y Q 9 < @.H ;.*.-.c.dXmXHXh.< 3 3   L u ~ HXj.gXv.g  .K F.3X= o.} j UX",
"UXUX{ O.<.| > r <.1.2.3.<.;.e ^ 3XSXSX#X3 2 &.&.G z.c.dXDXGX4X. _ 3 B F.zXI h.1Xp.z g  .F G.g.U...] j UX",
"UXl m o.=.@.2 > =.<.<.<.-.w <XbXx.p.u i 2 H &.G -.bXDXGXGXGX#Xo g H *.C.nXp.j.0 h g m =.S H.g.U.:.m 1 UX",
"UX{ } o.r %.D 1 r =.1.-.e <XSXx.V.aX` 3 H %.S =.uXGXhX3XkXzXy 1 1 h F 3.bXn.jXU 1 k N S J sXj.% ..{ M UX",
"UX>.N o.Q s B 2 > H *.t j.SXyX1XHXzX6 z %.G -.A.nX4X` d l.kX, f 5 1 h =.H.jXn.g.5 x F Z 3.HXf.8 } N ..UX",
"UXA.Z.2.tX! N B 3 w e j.AXSXmXSXzXa.1 %.G @.C.mXh.U x.N.N.n., 5 5   2 K c.kXn.g.1 c S F c.DXg.n.w.G.>.UX",
"UXO.r.L.DX<Xs c 2 < O zXHXHXmXA.5 3  .@.F C.mXh.y M.qXNXMXMX5Xa.$.Z 7 A 4.iXn.#X1 A G ;.Z.cXf.1XK.y.} UX",
"UX} O.sXbXG.@.@.2 8 4XHXGXmXc.5   t =.S *.bXh.y 2XBXCXVXBXVXNX6Xf.@.7 4 ,.iXB.g.3 A -.2.mX4Xz.dXsXO.M UX",
"UXM n pXK.e.C.@.7 d.SXHXHXB.[ >.7 Z G #.F.h.U 2XBXVXVXVXBXVXVXeX&Xf.t e c.B.gXk.6 K <.G.kXl.| G.dXn l UX",
"UXl c pXK.4.2.,.Z 1XGXGXbXc.B.i 0 G a A.n.u 5XBXBXVXVXVXVXBXVXVX6XM.9 p iXj.AXk.s ;.2.aX( z B J.pXx k UX",
"UXM n xXJ.d -.1.@.B.GXHXuXJ.y Q ~ #.z.tXy N.lXCXVXVXVXMXeXwXVXVX6Xb.9 ` z.kX#X<Xz.3.dXN.z h @.uXxXm x UX",
"UXk n cXH.4 t -.%.( AXmXG.R y W ~ >.G.d.U 0XCXCXVXVXMXn.b.wXVXBX6XQ , :.g.s.T AX( c.iXs 2 F D J.xXx k UX",
"UXl c cXK. .B d K Z kXHXB.I 8 5 @ :.aXY &XMXKXCXVXVX0Xf.5XNXBX6XU O $.` R k.g.4X$.B.s g , =.< D.nXc l UX",
"UXM m nXyX%.,.4 q o gXSXd.@ O H d x.Y 0 5XNXKXKXVXBX*XQ 7XwXb.6 w < $.+ g.hXR I S s g 3 D a % rXNXm M UX",
"UXM V NX4XO %.,.c < j.hXy 9 y O @ $.o . ~ eXKXKXVXZXT E N.E w a F + Y 9 hX#XU 0XW > 3 N S - }.rXnXm n UX",
"UXl x xXtX* r =.&.< i 4X. y f.R %Xf + < r z.jXKXVXlXL ^ t < p ; / $X%XE g.@ y ! eX6 D a % ~.Y.tXxXn l UX",
"UXl c nXD._ J 4.,.e W Y o 8 ) I %XR $XoX& i l.0XBX*X0 q > $ oXPXLXJX%X^ E 6 U Q eX7 S . & * _ B.xXx c UX",
"UXx m xXrX% r 3.e.a v.9 O 6 ^ E R rXZXIXXXoXL t *Xj.    ; XXXXJXJX#XW wXb.6 0 2XT H >.#.[ > : rXxXm x UX",
"UXk c pXrX'.% e @.=.7 W +   Q M.E 9 L #X$X9X/ 0 2X0Xf.R $X$X#XE L W 0XBXL L U *Xy >.:.a * % /.rXpXn g ) ",
"UXl M sXrX'.{.Y.* D 7 -Xj.  q m.&Xb.! 9 9 L W j.5XMXBXM.W W ) 7X>XqXMXwX9 9 E p.s F = % ~. X/.gXuXn l m.",
"UXM O.sXhX`.`. X}.* o ! v.E o b.m.b.b.m.1XM.M.&Xv.vXNX6X6X7X6X7XwXNXVX*X0 M.! E Z # ~.OX}.^.'.rXsXO.b ,X",
"UX} y.J..X_._.{. X~.~.y m.v.O ~ =X-XqXBXNXMX6Xm.! PXKXBXNXNXNXVXLXFXBX/ ^ *XW 7 # ~.OX{.{.'._..XyXu.} :X",
"UX>.S.:.[._._._.{.{.|.- ! W O 6 m.7XBXVXBXwX-Xv.b.ZXFXVXBXMXCXKXLXKXMXW W f.$ & ~.OXOX|.^._._.[.:.Z.>.,X",
"UX#.N :.[._._._./.{.OX~.Y.; q O v.7XBXVXVXMX6X! 0 h.0XVX<X5XCXKXLXVX>X6 u 6 & +X@XOX|.}.{._._.[...N  .7X",
"UXv { ..[._._.(.^.{.|.{.+X- + + U =XwXCXVXVXMXn.U f.2X/ *X0XCXKXLXeXW E 6X! - OXOX|.{.^.^._._.[...{ b >X",
"UX1 V ..[._._._._.^.{.OXOX- U Y + E 1XBXVXBX2Xs./ d.j.2XMXBXKXLXPXE E 6XMXv.- OX|.{.}._.(._._.[...{ g ;X",
"UXj { ..].(._._.(.}.}.{.~.* p.n.T # U 0XBXVXVXBX9X<XlXVXBXVXFX9XU E 0XMXBX) - OX{.{.^._._._._.[...{ z :X",
"UXk } ..].(._._._.(.{.{.Y.8 m.m.b.Q 0 L f.ZXVXlXb.^ 0XVXVXKX*X9 v.MXVXVXBXN.- |.|.^.^._._._._.[...} j ;X",
"UXv 6.i.].E._.`.(._.^.`.Y.0 m.=Xb.v.v.I + ^ MXNXwXqXNXVXKX9X+ ^ MXBXMXVXBXm.- {.}.(.(._._._.(.].i.6.v ;X",
"UX' 6.X.Q.).).(._._.(.`.I.u m.=Xn.Q N.v.R + d.MXBXVXVXVX6X9 Q wXMXwXNXVXVX&X- /._._._._._._.E.].i.6.b ;X",
"UXv 5.X.].E.E.)._._._.`.Y.E m.=Xm.T f.m.v.I + ) 0XMXMX2XP U 0XNX7X5XBXVXVX&X- ^.(._._._._.].).Q.i.5.1 ;X",
"UXb 9.w.Q.E.E.)._._._._.I.E =X=X&X^ p.&Xm.Q = + q L L 6 I *XNXwXb.6XBXMXVX&X: )._._._._.).E.E.].q.9.b ;X",
"UXv 8.q.Q.W.E.E.E.E._._.I.~ -X>X6XN.R N.m.m.Q = # @ + I b.MXBX2X*XMXwXMXVX5X* ].'.'._.).E.E.E.Q.i.8.v ,X",
"UX' t.q.!.W.E.U.Q.).T.I.  ~ -XlX9XN.Y Q m.m.m.~ I I I b.qXCXlXb.2XNX&X2XVX0XW @ Y.'.[.I.U.E.W.W.q.r.' ,X",
"UX' r.P.R.W.I.7 X : @ E U ! 5XCX2Xv.f.Y m.m.6X5Xb.v.&XqXBXlX-Xp.eXNXn.&XBXlX1X8XW I.* f 7 I.W.R.G.u.' ) ",
"UX1 w.L.yXR q | e 6 p.B.p.v.7XBX<XY m.yXpXsXdXbXdXdXdXbXmXdXyXyXbX0Xl.-XjXlX0XNX7X~ O S H q I pXL.w.j UX",
"UXUXz e.L.S.0.8.0.0.7.7.+.O.+.<.o.+.K.sXyXpXxXxXcXNXcXxXxXxXpXpXfXK.X.+.+.+.<.7.9.7.O.0.0.7.Z.L.w.z ( UX",
"UXUXUXz w.r.r.8.9.5.6.6.} { V { N Z.y.O.n x n x n m m n x M x x O.y.Z.N { V { } 6.6.6.9.8.r.r.w.z ( UXUX",
"UXUXUXUXj ' ' b b v b v l g 1 b >.>.} M l k n k l M M l k n j l ' } >. .b g k k v b v b b b b 1 s UXUXUX",
"UXUXUXUXUXUXUXUXUXUXUX) N.,X,X:X7X:X:X:X:X:X:X:X:X:X:X:X:X:X:X:X:X:X:X7X:X;X;X;X;X;X;X;X,X,XM.UXUXUXUXUX"
};
